M48
; DRILL file {KiCad 7.0.7} date Sun Sep  3 16:08:30 2023
; FORMAT={-:-/ absolute / inch / decimal}
; #@! TF.CreationDate,2023-09-03T16:08:30-07:00
; #@! TF.GenerationSoftware,Kicad,Pcbnew,7.0.7
; #@! TF.FileFunction,Plated,1,2,PTH
FMAT,2
INCH
; #@! TA.AperFunction,Plated,PTH,ComponentDrill
T1C0.0079
; #@! TA.AperFunction,Plated,PTH,ViaDrill
T2C0.0118
; #@! TA.AperFunction,Plated,PTH,ComponentDrill
T3C0.0197
; #@! TA.AperFunction,Plated,PTH,ComponentDrill
T4C0.0315
; #@! TA.AperFunction,Plated,PTH,ComponentDrill
T5C0.0394
; #@! TA.AperFunction,Plated,PTH,ComponentDrill
T6C0.0433
; #@! TA.AperFunction,Plated,PTH,ComponentDrill
T7C0.1181
%
G90
G05
T1
X3.876Y-4.2264
X3.876Y-4.2776
X3.9193Y-4.2264
X3.9193Y-4.2776
X4.8091Y-4.75
X4.8091Y-4.7963
X4.8091Y-4.8425
X4.8091Y-4.8888
X4.8091Y-4.935
X4.8553Y-4.75
X4.8553Y-4.7963
X4.8553Y-4.8425
X4.8553Y-4.8888
X4.8553Y-4.935
X4.9016Y-4.75
X4.9016Y-4.7963
X4.9016Y-4.8425
X4.9016Y-4.8888
X4.9016Y-4.935
X4.9478Y-4.75
X4.9478Y-4.7963
X4.9478Y-4.8425
X4.9478Y-4.8888
X4.9478Y-4.935
X4.9941Y-4.75
X4.9941Y-4.7963
X4.9941Y-4.8425
X4.9941Y-4.8888
X4.9941Y-4.935
T2
X3.6319Y-4.0945
X3.6319Y-4.3012
X3.7106Y-4.1142
X3.7697Y-4.2028
X3.8976Y-5.0591
X3.9075Y-4.7539
X3.9469Y-4.498
X3.9764Y-4.0354
X4.0453Y-4.3406
X4.0551Y-5.4724
X4.0945Y-4.1831
X4.1339Y-4.4685
X4.1339Y-4.9016
X4.2717Y-4.685
X4.3327Y-4.685
X4.5177Y-4.7244
X4.5374Y-4.0748
X4.5374Y-4.6161
X4.5689Y-4.0748
X4.5768Y-5.0
X4.5965Y-4.8425
X4.6063Y-5.3937
X4.626Y-4.5866
X4.6752Y-4.7047
X4.6791Y-4.7736
X4.6949Y-4.8346
X4.7047Y-4.5276
X4.7244Y-5.0689
X4.7539Y-5.1575
X4.8622Y-5.2165
X4.9311Y-5.2165
X5.0Y-5.2165
X5.0394Y-5.128
X5.1147Y-4.8898
X5.187Y-5.0591
X5.2303Y-4.6654
X5.2303Y-4.8386
X5.2461Y-4.5965
X5.2461Y-5.1772
X5.2559Y-5.4232
X5.2756Y-4.8917
X5.2756Y-4.9606
X5.2756Y-5.0295
X5.315Y-4.498
X5.3543Y-4.6654
X5.3858Y-4.6654
X5.4173Y-4.6654
X5.4626Y-4.5374
X5.4921Y-4.311
X5.5413Y-4.5276
X5.561Y-5.374
X5.5906Y-4.7539
X5.5906Y-4.9213
X5.6004Y-4.2126
X5.6791Y-4.2028
X5.7283Y-5.3543
X5.7382Y-4.2323
X5.7382Y-4.311
X5.7579Y-5.2165
X5.7677Y-4.2323
X5.7677Y-4.311
X5.8563Y-5.2067
X5.9449Y-5.2264
X6.1319Y-5.3543
X6.1713Y-5.2657
X6.25Y-4.7539
X6.2598Y-4.9114
T3
X3.5335Y-5.9646
X3.5594Y-5.9019
X3.5594Y-6.0272
X3.622Y-5.876
X3.622Y-6.0531
X3.6847Y-5.9019
X3.6847Y-6.0272
X3.7106Y-5.9646
T4
X5.9252Y-4.4098
X5.9252Y-5.0098
T5
X3.9173Y-5.5709
X3.9272Y-3.713
X3.9272Y-3.813
X4.0157Y-5.5709
X4.0272Y-3.713
X4.0272Y-3.813
X4.1142Y-5.5709
X4.1272Y-3.713
X4.1272Y-3.813
X4.2272Y-3.713
X4.2272Y-3.813
X4.2815Y-4.3799
X4.3272Y-3.713
X4.3272Y-3.813
X4.3815Y-4.3799
X4.4272Y-3.713
X4.4272Y-3.813
X4.4815Y-4.3799
X4.5272Y-3.713
X4.5272Y-3.813
X4.5815Y-4.3799
X4.5866Y-5.5709
X4.6272Y-3.713
X4.6272Y-3.813
X4.6815Y-4.3799
X4.685Y-5.5709
X4.7272Y-3.713
X4.7272Y-3.813
X4.7835Y-5.5709
X4.8272Y-3.713
X4.8272Y-3.813
X5.2559Y-5.5709
X5.3543Y-5.5709
X5.4528Y-5.5709
T6
X5.0394Y-3.7598
X5.0394Y-3.937
X5.2953Y-3.7598
X5.2953Y-3.937
X5.4331Y-3.7598
X5.4331Y-3.937
X5.689Y-3.7598
X5.689Y-3.937
X5.8268Y-3.7598
X5.8268Y-3.937
X6.0827Y-3.7598
X6.0827Y-3.937
T7
X3.622Y-3.7795
X3.622Y-5.9646
X6.3189Y-3.7795
X6.3189Y-5.9646
T5
G00X5.7638Y-5.6102
M15
G01X5.7638Y-5.6496
M16
G05
G00X5.9094Y-5.689
M15
G01X5.9094Y-5.7283
M16
G05
G00X5.9803Y-5.6102
M15
G01X5.9803Y-5.6496
M16
G05
G00X6.126Y-5.689
M15
G01X6.126Y-5.7283
M16
G05
G00X6.2205Y-5.6102
M15
G01X6.2205Y-5.6496
M16
G05
T0
M30
