%TF.GenerationSoftware,KiCad,Pcbnew,7.0.7*%
%TF.CreationDate,2023-09-03T16:08:26-07:00*%
%TF.ProjectId,headphone_dac,68656164-7068-46f6-9e65-5f6461632e6b,rev?*%
%TF.SameCoordinates,Original*%
%TF.FileFunction,Paste,Top*%
%TF.FilePolarity,Positive*%
%FSLAX46Y46*%
G04 Gerber Fmt 4.6, Leading zero omitted, Abs format (unit mm)*
G04 Created by KiCad (PCBNEW 7.0.7) date 2023-09-03 16:08:26*
%MOMM*%
%LPD*%
G01*
G04 APERTURE LIST*
G04 Aperture macros list*
%AMRoundRect*
0 Rectangle with rounded corners*
0 $1 Rounding radius*
0 $2 $3 $4 $5 $6 $7 $8 $9 X,Y pos of 4 corners*
0 Add a 4 corners polygon primitive as box body*
4,1,4,$2,$3,$4,$5,$6,$7,$8,$9,$2,$3,0*
0 Add four circle primitives for the rounded corners*
1,1,$1+$1,$2,$3*
1,1,$1+$1,$4,$5*
1,1,$1+$1,$6,$7*
1,1,$1+$1,$8,$9*
0 Add four rect primitives between the rounded corners*
20,1,$1+$1,$2,$3,$4,$5,0*
20,1,$1+$1,$4,$5,$6,$7,0*
20,1,$1+$1,$6,$7,$8,$9,0*
20,1,$1+$1,$8,$9,$2,$3,0*%
G04 Aperture macros list end*
%ADD10RoundRect,0.250000X-0.253488X0.253488X-0.253488X-0.253488X0.253488X-0.253488X0.253488X0.253488X0*%
%ADD11RoundRect,0.050000X-0.050000X0.362500X-0.050000X-0.362500X0.050000X-0.362500X0.050000X0.362500X0*%
%ADD12RoundRect,0.050000X-0.362500X0.050000X-0.362500X-0.050000X0.362500X-0.050000X0.362500X0.050000X0*%
%ADD13RoundRect,0.218750X-0.256250X0.218750X-0.256250X-0.218750X0.256250X-0.218750X0.256250X0.218750X0*%
%ADD14RoundRect,0.218750X-0.218750X-0.256250X0.218750X-0.256250X0.218750X0.256250X-0.218750X0.256250X0*%
%ADD15RoundRect,0.218750X0.218750X0.256250X-0.218750X0.256250X-0.218750X-0.256250X0.218750X-0.256250X0*%
%ADD16RoundRect,0.218750X0.256250X-0.218750X0.256250X0.218750X-0.256250X0.218750X-0.256250X-0.218750X0*%
%ADD17RoundRect,0.243750X0.456250X-0.243750X0.456250X0.243750X-0.456250X0.243750X-0.456250X-0.243750X0*%
%ADD18RoundRect,0.243750X0.243750X0.456250X-0.243750X0.456250X-0.243750X-0.456250X0.243750X-0.456250X0*%
%ADD19RoundRect,0.243750X-0.456250X0.243750X-0.456250X-0.243750X0.456250X-0.243750X0.456250X0.243750X0*%
%ADD20R,2.500000X0.500000*%
%ADD21R,2.500000X2.000000*%
%ADD22RoundRect,0.175000X0.175000X0.220000X-0.175000X0.220000X-0.175000X-0.220000X0.175000X-0.220000X0*%
%ADD23RoundRect,0.075000X0.650000X0.075000X-0.650000X0.075000X-0.650000X-0.075000X0.650000X-0.075000X0*%
%ADD24R,1.100000X0.250000*%
%ADD25RoundRect,0.100000X-0.637500X-0.100000X0.637500X-0.100000X0.637500X0.100000X-0.637500X0.100000X0*%
%ADD26R,1.200000X1.800000*%
G04 APERTURE END LIST*
D10*
%TO.C,U2*%
X125087500Y-123587500D03*
X122737500Y-124762500D03*
X122737500Y-122412500D03*
X123912500Y-124762500D03*
X122737500Y-121237500D03*
X123912500Y-123587500D03*
X126262500Y-122412500D03*
X125087500Y-121237500D03*
X126262500Y-124762500D03*
X125087500Y-124762500D03*
X126262500Y-123587500D03*
X123912500Y-121237500D03*
X122737500Y-123587500D03*
X125087500Y-122412500D03*
X123912500Y-122412500D03*
X126262500Y-121237500D03*
D11*
X127700000Y-119062500D03*
X127300000Y-119062500D03*
X126900000Y-119062500D03*
X126500000Y-119062500D03*
X126100000Y-119062500D03*
X125700000Y-119062500D03*
X125300000Y-119062500D03*
X124900000Y-119062500D03*
X124500000Y-119062500D03*
X124100000Y-119062500D03*
X123700000Y-119062500D03*
X123300000Y-119062500D03*
X122900000Y-119062500D03*
X122500000Y-119062500D03*
X122100000Y-119062500D03*
X121700000Y-119062500D03*
X121300000Y-119062500D03*
D12*
X120562500Y-119800000D03*
X120562500Y-120200000D03*
X120562500Y-120600000D03*
X120562500Y-121000000D03*
X120562500Y-121400000D03*
X120562500Y-121800000D03*
X120562500Y-122200000D03*
X120562500Y-122600000D03*
X120562500Y-123000000D03*
X120562500Y-123400000D03*
X120562500Y-123800000D03*
X120562500Y-124200000D03*
X120562500Y-124600000D03*
X120562500Y-125000000D03*
X120562500Y-125400000D03*
X120562500Y-125800000D03*
X120562500Y-126200000D03*
D11*
X121300000Y-126937500D03*
X121700000Y-126937500D03*
X122100000Y-126937500D03*
X122500000Y-126937500D03*
X122900000Y-126937500D03*
X123300000Y-126937500D03*
X123700000Y-126937500D03*
X124100000Y-126937500D03*
X124500000Y-126937500D03*
X124900000Y-126937500D03*
X125300000Y-126937500D03*
X125700000Y-126937500D03*
X126100000Y-126937500D03*
X126500000Y-126937500D03*
X126900000Y-126937500D03*
X127300000Y-126937500D03*
X127700000Y-126937500D03*
D12*
X128437500Y-126200000D03*
X128437500Y-125800000D03*
X128437500Y-125400000D03*
X128437500Y-125000000D03*
X128437500Y-124600000D03*
X128437500Y-124200000D03*
X128437500Y-123800000D03*
X128437500Y-123400000D03*
X128437500Y-123000000D03*
X128437500Y-122600000D03*
X128437500Y-122200000D03*
X128437500Y-121800000D03*
X128437500Y-121400000D03*
X128437500Y-121000000D03*
X128437500Y-120600000D03*
X128437500Y-120200000D03*
X128437500Y-119800000D03*
%TD*%
D13*
%TO.C,C1*%
X123500000Y-130212500D03*
X123500000Y-131787500D03*
%TD*%
D14*
%TO.C,C2*%
X131712500Y-126000000D03*
X133287500Y-126000000D03*
%TD*%
D15*
%TO.C,C3*%
X117537500Y-117250000D03*
X115962500Y-117250000D03*
%TD*%
D13*
%TO.C,C4*%
X127000000Y-130212500D03*
X127000000Y-131787500D03*
%TD*%
D16*
%TO.C,C5*%
X119500000Y-117287500D03*
X119500000Y-115712500D03*
%TD*%
D15*
%TO.C,C6*%
X117537500Y-119000000D03*
X115962500Y-119000000D03*
%TD*%
D16*
%TO.C,C8*%
X105000000Y-115787500D03*
X105000000Y-114212500D03*
%TD*%
D13*
%TO.C,C9*%
X120750000Y-128712500D03*
X120750000Y-130287500D03*
%TD*%
%TO.C,C10*%
X125250000Y-130212500D03*
X125250000Y-131787500D03*
%TD*%
D14*
%TO.C,C11*%
X131712500Y-127750000D03*
X133287500Y-127750000D03*
%TD*%
%TO.C,C12*%
X131712500Y-124250000D03*
X133287500Y-124250000D03*
%TD*%
D15*
%TO.C,C14*%
X101787500Y-115000000D03*
X100212500Y-115000000D03*
%TD*%
D17*
%TO.C,C15*%
X104000000Y-108937500D03*
X104000000Y-107062500D03*
%TD*%
%TO.C,C16*%
X92250000Y-106687500D03*
X92250000Y-104812500D03*
%TD*%
D18*
%TO.C,C17*%
X94937500Y-109250000D03*
X93062500Y-109250000D03*
%TD*%
D14*
%TO.C,C18*%
X115712500Y-120750000D03*
X117287500Y-120750000D03*
%TD*%
D15*
%TO.C,C19*%
X117287500Y-129250000D03*
X115712500Y-129250000D03*
%TD*%
D16*
%TO.C,C20*%
X142300000Y-109287500D03*
X142300000Y-107712500D03*
%TD*%
D17*
%TO.C,C21*%
X144300000Y-109375000D03*
X144300000Y-107500000D03*
%TD*%
D13*
%TO.C,C22*%
X136300000Y-112712500D03*
X136300000Y-114287500D03*
%TD*%
D17*
%TO.C,C23*%
X140750000Y-114187500D03*
X140750000Y-112312500D03*
%TD*%
D19*
%TO.C,C24*%
X138300000Y-112562500D03*
X138300000Y-114437500D03*
%TD*%
D17*
%TO.C,C25*%
X146500000Y-120737500D03*
X146500000Y-118862500D03*
%TD*%
%TO.C,C26*%
X154500000Y-120737500D03*
X154500000Y-118862500D03*
%TD*%
D14*
%TO.C,C27*%
X100712500Y-139000000D03*
X102287500Y-139000000D03*
%TD*%
%TO.C,C28*%
X142712500Y-124800000D03*
X144287500Y-124800000D03*
%TD*%
D17*
%TO.C,C30*%
X146500000Y-128737500D03*
X146500000Y-126862500D03*
%TD*%
%TO.C,C31*%
X154500000Y-128737500D03*
X154500000Y-126862500D03*
%TD*%
D16*
%TO.C,C32*%
X155750000Y-135287500D03*
X155750000Y-133712500D03*
%TD*%
%TO.C,C33*%
X145500000Y-135287500D03*
X145500000Y-133712500D03*
%TD*%
D15*
%TO.C,C34*%
X151075000Y-136800000D03*
X149500000Y-136800000D03*
%TD*%
D13*
%TO.C,FB1*%
X101750000Y-111712500D03*
X101750000Y-113287500D03*
%TD*%
D20*
%TO.C,J1*%
X97500000Y-117400000D03*
X97500000Y-118200000D03*
X97500000Y-119000000D03*
X97500000Y-119800000D03*
X97500000Y-120600000D03*
D21*
X97500000Y-114600000D03*
X92000000Y-114600000D03*
X97500000Y-123400000D03*
X92000000Y-123400000D03*
%TD*%
D13*
%TO.C,R1*%
X99000000Y-126212500D03*
X99000000Y-127787500D03*
%TD*%
D15*
%TO.C,R2*%
X104787500Y-120000000D03*
X103212500Y-120000000D03*
%TD*%
%TO.C,R3*%
X104787500Y-118000000D03*
X103212500Y-118000000D03*
%TD*%
D16*
%TO.C,R4*%
X101000000Y-104787500D03*
X101000000Y-103212500D03*
%TD*%
%TO.C,R5*%
X94250000Y-106787500D03*
X94250000Y-105212500D03*
%TD*%
D14*
%TO.C,R6*%
X142712500Y-120800000D03*
X144287500Y-120800000D03*
%TD*%
%TO.C,R7*%
X156462500Y-120750000D03*
X158037500Y-120750000D03*
%TD*%
D16*
%TO.C,R8*%
X146500000Y-124587500D03*
X146500000Y-123012500D03*
%TD*%
%TO.C,R9*%
X154500000Y-124587500D03*
X154500000Y-123012500D03*
%TD*%
D22*
%TO.C,U1*%
X99420000Y-108470000D03*
X99420000Y-107530000D03*
X98580000Y-108470000D03*
X98580000Y-107530000D03*
D23*
X101150000Y-109000000D03*
X101150000Y-108500000D03*
X101150000Y-108000000D03*
X101150000Y-107500000D03*
X101150000Y-107000000D03*
X96850000Y-107000000D03*
X96850000Y-107500000D03*
X96850000Y-108000000D03*
X96850000Y-108500000D03*
X96850000Y-109000000D03*
%TD*%
D24*
%TO.C,U3*%
X136150000Y-108500000D03*
X136150000Y-109000000D03*
X136150000Y-109500000D03*
X136150000Y-110000000D03*
X136150000Y-110500000D03*
X140450000Y-110500000D03*
X140450000Y-110000000D03*
X140450000Y-109500000D03*
X140450000Y-109000000D03*
X140450000Y-108500000D03*
%TD*%
D25*
%TO.C,U4*%
X147637500Y-130850000D03*
X147637500Y-131500000D03*
X147637500Y-132150000D03*
X147637500Y-132800000D03*
X147637500Y-133450000D03*
X147637500Y-134100000D03*
X147637500Y-134750000D03*
X153362500Y-134750000D03*
X153362500Y-134100000D03*
X153362500Y-133450000D03*
X153362500Y-132800000D03*
X153362500Y-132150000D03*
X153362500Y-131500000D03*
X153362500Y-130850000D03*
%TD*%
D16*
%TO.C,C35*%
X117000000Y-139287500D03*
X117000000Y-137712500D03*
%TD*%
%TO.C,C36*%
X134500000Y-139287500D03*
X134500000Y-137712500D03*
%TD*%
D26*
%TO.C,Y1*%
X117700000Y-127000000D03*
X117700000Y-123000000D03*
X115300000Y-123000000D03*
X115300000Y-127000000D03*
%TD*%
D16*
%TO.C,C7*%
X105000000Y-123787500D03*
X105000000Y-122212500D03*
%TD*%
%TO.C,C13*%
X131750000Y-118537500D03*
X131750000Y-116962500D03*
%TD*%
D14*
%TO.C,C29*%
X156712500Y-124800000D03*
X158287500Y-124800000D03*
%TD*%
M02*
