%TF.GenerationSoftware,KiCad,Pcbnew,7.0.7*%
%TF.CreationDate,2023-09-03T16:08:26-07:00*%
%TF.ProjectId,headphone_dac,68656164-7068-46f6-9e65-5f6461632e6b,rev?*%
%TF.SameCoordinates,Original*%
%TF.FileFunction,Copper,L1,Top*%
%TF.FilePolarity,Positive*%
%FSLAX46Y46*%
G04 Gerber Fmt 4.6, Leading zero omitted, Abs format (unit mm)*
G04 Created by KiCad (PCBNEW 7.0.7) date 2023-09-03 16:08:26*
%MOMM*%
%LPD*%
G01*
G04 APERTURE LIST*
G04 Aperture macros list*
%AMRoundRect*
0 Rectangle with rounded corners*
0 $1 Rounding radius*
0 $2 $3 $4 $5 $6 $7 $8 $9 X,Y pos of 4 corners*
0 Add a 4 corners polygon primitive as box body*
4,1,4,$2,$3,$4,$5,$6,$7,$8,$9,$2,$3,0*
0 Add four circle primitives for the rounded corners*
1,1,$1+$1,$2,$3*
1,1,$1+$1,$4,$5*
1,1,$1+$1,$6,$7*
1,1,$1+$1,$8,$9*
0 Add four rect primitives between the rounded corners*
20,1,$1+$1,$2,$3,$4,$5,0*
20,1,$1+$1,$4,$5,$6,$7,0*
20,1,$1+$1,$6,$7,$8,$9,0*
20,1,$1+$1,$8,$9,$2,$3,0*%
G04 Aperture macros list end*
%TA.AperFunction,SMDPad,CuDef*%
%ADD10RoundRect,0.050000X-0.050000X0.362500X-0.050000X-0.362500X0.050000X-0.362500X0.050000X0.362500X0*%
%TD*%
%TA.AperFunction,SMDPad,CuDef*%
%ADD11RoundRect,0.050000X-0.362500X0.050000X-0.362500X-0.050000X0.362500X-0.050000X0.362500X0.050000X0*%
%TD*%
%TA.AperFunction,ComponentPad*%
%ADD12C,0.500000*%
%TD*%
%TA.AperFunction,SMDPad,CuDef*%
%ADD13R,5.200000X5.200000*%
%TD*%
%TA.AperFunction,WasherPad*%
%ADD14C,4.000000*%
%TD*%
%TA.AperFunction,ComponentPad*%
%ADD15C,1.800000*%
%TD*%
%TA.AperFunction,SMDPad,CuDef*%
%ADD16RoundRect,0.218750X-0.256250X0.218750X-0.256250X-0.218750X0.256250X-0.218750X0.256250X0.218750X0*%
%TD*%
%TA.AperFunction,SMDPad,CuDef*%
%ADD17RoundRect,0.218750X-0.218750X-0.256250X0.218750X-0.256250X0.218750X0.256250X-0.218750X0.256250X0*%
%TD*%
%TA.AperFunction,SMDPad,CuDef*%
%ADD18RoundRect,0.218750X0.218750X0.256250X-0.218750X0.256250X-0.218750X-0.256250X0.218750X-0.256250X0*%
%TD*%
%TA.AperFunction,SMDPad,CuDef*%
%ADD19RoundRect,0.218750X0.256250X-0.218750X0.256250X0.218750X-0.256250X0.218750X-0.256250X-0.218750X0*%
%TD*%
%TA.AperFunction,SMDPad,CuDef*%
%ADD20RoundRect,0.243750X0.456250X-0.243750X0.456250X0.243750X-0.456250X0.243750X-0.456250X-0.243750X0*%
%TD*%
%TA.AperFunction,SMDPad,CuDef*%
%ADD21RoundRect,0.243750X0.243750X0.456250X-0.243750X0.456250X-0.243750X-0.456250X0.243750X-0.456250X0*%
%TD*%
%TA.AperFunction,SMDPad,CuDef*%
%ADD22RoundRect,0.243750X-0.456250X0.243750X-0.456250X-0.243750X0.456250X-0.243750X0.456250X0.243750X0*%
%TD*%
%TA.AperFunction,SMDPad,CuDef*%
%ADD23R,2.500000X0.500000*%
%TD*%
%TA.AperFunction,SMDPad,CuDef*%
%ADD24R,2.500000X2.000000*%
%TD*%
%TA.AperFunction,ComponentPad*%
%ADD25O,1.800000X2.800000*%
%TD*%
%TA.AperFunction,ComponentPad*%
%ADD26C,1.600000*%
%TD*%
%TA.AperFunction,ComponentPad*%
%ADD27O,1.600000X1.600000*%
%TD*%
%TA.AperFunction,ComponentPad*%
%ADD28C,2.000000*%
%TD*%
%TA.AperFunction,SMDPad,CuDef*%
%ADD29RoundRect,0.075000X0.650000X0.075000X-0.650000X0.075000X-0.650000X-0.075000X0.650000X-0.075000X0*%
%TD*%
%TA.AperFunction,SMDPad,CuDef*%
%ADD30R,1.680000X1.880000*%
%TD*%
%TA.AperFunction,SMDPad,CuDef*%
%ADD31R,1.100000X0.250000*%
%TD*%
%TA.AperFunction,SMDPad,CuDef*%
%ADD32RoundRect,0.100000X-0.637500X-0.100000X0.637500X-0.100000X0.637500X0.100000X-0.637500X0.100000X0*%
%TD*%
%TA.AperFunction,SMDPad,CuDef*%
%ADD33R,1.200000X1.800000*%
%TD*%
%TA.AperFunction,ComponentPad*%
%ADD34C,6.000000*%
%TD*%
%TA.AperFunction,ComponentPad*%
%ADD35C,0.800000*%
%TD*%
%TA.AperFunction,ComponentPad*%
%ADD36R,1.700000X1.700000*%
%TD*%
%TA.AperFunction,ComponentPad*%
%ADD37O,1.700000X1.700000*%
%TD*%
%TA.AperFunction,SMDPad,CuDef*%
%ADD38C,0.500000*%
%TD*%
%TA.AperFunction,ViaPad*%
%ADD39C,0.600000*%
%TD*%
%TA.AperFunction,Conductor*%
%ADD40C,0.300000*%
%TD*%
%TA.AperFunction,Conductor*%
%ADD41C,0.200000*%
%TD*%
%TA.AperFunction,Conductor*%
%ADD42C,0.500000*%
%TD*%
%TA.AperFunction,Conductor*%
%ADD43C,0.400000*%
%TD*%
G04 APERTURE END LIST*
D10*
%TO.P,U2,1*%
%TO.N,/i2s_sck*%
X127700000Y-119062500D03*
%TO.P,U2,2*%
%TO.N,/i2s_sdo*%
X127300000Y-119062500D03*
%TO.P,U2,3*%
%TO.N,/bt_tx*%
X126900000Y-119062500D03*
%TO.P,U2,4*%
%TO.N,/bt_rx*%
X126500000Y-119062500D03*
%TO.P,U2,5*%
%TO.N,GND*%
X126100000Y-119062500D03*
%TO.P,U2,6*%
%TO.N,Net-(U2-Pad6)*%
X125700000Y-119062500D03*
%TO.P,U2,7*%
%TO.N,GND*%
X125300000Y-119062500D03*
%TO.P,U2,8*%
X124900000Y-119062500D03*
%TO.P,U2,9*%
X124500000Y-119062500D03*
%TO.P,U2,10*%
%TO.N,/xres*%
X124100000Y-119062500D03*
%TO.P,U2,11*%
%TO.N,/swdio*%
X123700000Y-119062500D03*
%TO.P,U2,12*%
%TO.N,/swdck*%
X123300000Y-119062500D03*
%TO.P,U2,13*%
%TO.N,Net-(U2-Pad13)*%
X122900000Y-119062500D03*
%TO.P,U2,14*%
%TO.N,Net-(U2-Pad14)*%
X122500000Y-119062500D03*
%TO.P,U2,15*%
%TO.N,Net-(U2-Pad15)*%
X122100000Y-119062500D03*
%TO.P,U2,16*%
%TO.N,Net-(U2-Pad16)*%
X121700000Y-119062500D03*
%TO.P,U2,17*%
%TO.N,+3V3*%
X121300000Y-119062500D03*
D11*
%TO.P,U2,18*%
%TO.N,Net-(U2-Pad18)*%
X120562500Y-119800000D03*
%TO.P,U2,19*%
%TO.N,Net-(U2-Pad19)*%
X120562500Y-120200000D03*
%TO.P,U2,20*%
%TO.N,Net-(U2-Pad20)*%
X120562500Y-120600000D03*
%TO.P,U2,21*%
%TO.N,Net-(U2-Pad21)*%
X120562500Y-121000000D03*
%TO.P,U2,22*%
%TO.N,/usb_d+*%
X120562500Y-121400000D03*
%TO.P,U2,23*%
%TO.N,/usb_d-*%
X120562500Y-121800000D03*
%TO.P,U2,24*%
%TO.N,+3V3*%
X120562500Y-122200000D03*
%TO.P,U2,25*%
%TO.N,GND*%
X120562500Y-122600000D03*
%TO.P,U2,26*%
%TO.N,/vccd*%
X120562500Y-123000000D03*
%TO.P,U2,27*%
%TO.N,/xo*%
X120562500Y-123400000D03*
%TO.P,U2,28*%
%TO.N,/xi*%
X120562500Y-123800000D03*
%TO.P,U2,29*%
%TO.N,Net-(U2-Pad29)*%
X120562500Y-124200000D03*
%TO.P,U2,30*%
%TO.N,Net-(U2-Pad30)*%
X120562500Y-124600000D03*
%TO.P,U2,31*%
%TO.N,Net-(U2-Pad31)*%
X120562500Y-125000000D03*
%TO.P,U2,32*%
%TO.N,Net-(U2-Pad32)*%
X120562500Y-125400000D03*
%TO.P,U2,33*%
%TO.N,/as*%
X120562500Y-125800000D03*
%TO.P,U2,34*%
%TO.N,/a0*%
X120562500Y-126200000D03*
D10*
%TO.P,U2,35*%
%TO.N,+3V3*%
X121300000Y-126937500D03*
%TO.P,U2,36*%
%TO.N,/a1*%
X121700000Y-126937500D03*
%TO.P,U2,37*%
%TO.N,/a2*%
X122100000Y-126937500D03*
%TO.P,U2,38*%
%TO.N,Net-(U2-Pad38)*%
X122500000Y-126937500D03*
%TO.P,U2,39*%
%TO.N,Net-(U2-Pad39)*%
X122900000Y-126937500D03*
%TO.P,U2,40*%
%TO.N,Net-(U2-Pad40)*%
X123300000Y-126937500D03*
%TO.P,U2,41*%
%TO.N,Net-(U2-Pad41)*%
X123700000Y-126937500D03*
%TO.P,U2,42*%
%TO.N,/vcca*%
X124100000Y-126937500D03*
%TO.P,U2,43*%
%TO.N,GND*%
X124500000Y-126937500D03*
%TO.P,U2,44*%
%TO.N,+3V3*%
X124900000Y-126937500D03*
%TO.P,U2,45*%
%TO.N,GND*%
X125300000Y-126937500D03*
%TO.P,U2,46*%
%TO.N,Net-(U2-Pad46)*%
X125700000Y-126937500D03*
%TO.P,U2,47*%
%TO.N,/~{mute}*%
X126100000Y-126937500D03*
%TO.P,U2,48*%
%TO.N,Net-(U2-Pad48)*%
X126500000Y-126937500D03*
%TO.P,U2,49*%
%TO.N,Net-(U2-Pad49)*%
X126900000Y-126937500D03*
%TO.P,U2,50*%
%TO.N,Net-(U2-Pad50)*%
X127300000Y-126937500D03*
%TO.P,U2,51*%
%TO.N,Net-(U2-Pad51)*%
X127700000Y-126937500D03*
D11*
%TO.P,U2,52*%
%TO.N,+3V3*%
X128437500Y-126200000D03*
%TO.P,U2,53*%
%TO.N,Net-(U2-Pad53)*%
X128437500Y-125800000D03*
%TO.P,U2,54*%
%TO.N,Net-(U2-Pad54)*%
X128437500Y-125400000D03*
%TO.P,U2,55*%
%TO.N,Net-(U2-Pad55)*%
X128437500Y-125000000D03*
%TO.P,U2,56*%
%TO.N,Net-(U2-Pad56)*%
X128437500Y-124600000D03*
%TO.P,U2,57*%
%TO.N,/vccd*%
X128437500Y-124200000D03*
%TO.P,U2,58*%
%TO.N,GND*%
X128437500Y-123800000D03*
%TO.P,U2,59*%
%TO.N,+3V3*%
X128437500Y-123400000D03*
%TO.P,U2,60*%
%TO.N,Net-(U2-Pad60)*%
X128437500Y-123000000D03*
%TO.P,U2,61*%
%TO.N,Net-(U2-Pad61)*%
X128437500Y-122600000D03*
%TO.P,U2,62*%
%TO.N,Net-(U2-Pad62)*%
X128437500Y-122200000D03*
%TO.P,U2,63*%
%TO.N,/sw3*%
X128437500Y-121800000D03*
%TO.P,U2,64*%
%TO.N,/sw2*%
X128437500Y-121400000D03*
%TO.P,U2,65*%
%TO.N,/sw1*%
X128437500Y-121000000D03*
%TO.P,U2,66*%
%TO.N,/i2s_mck*%
X128437500Y-120600000D03*
%TO.P,U2,67*%
%TO.N,+3V3*%
X128437500Y-120200000D03*
%TO.P,U2,68*%
%TO.N,/i2s_lrck*%
X128437500Y-119800000D03*
D12*
%TO.P,U2,69*%
%TO.N,GND*%
X126850000Y-124175000D03*
X125675000Y-123000000D03*
X124500000Y-121825000D03*
X122150000Y-121825000D03*
X122150000Y-124175000D03*
X122150000Y-120650000D03*
X125675000Y-124175000D03*
X125675000Y-120650000D03*
X126850000Y-123000000D03*
D13*
X124500000Y-123000000D03*
D12*
X126850000Y-121825000D03*
X126850000Y-125350000D03*
X123325000Y-121825000D03*
X123325000Y-125350000D03*
X124500000Y-125350000D03*
X122150000Y-123000000D03*
X125675000Y-121825000D03*
X126850000Y-120650000D03*
X122150000Y-125350000D03*
X123325000Y-124175000D03*
X124500000Y-120650000D03*
X125675000Y-125350000D03*
X124500000Y-123000000D03*
X123325000Y-123000000D03*
X123325000Y-120650000D03*
X124500000Y-124175000D03*
%TD*%
D14*
%TO.P,RV3,*%
%TO.N,*%
X140400000Y-148500000D03*
X131600000Y-148500000D03*
D15*
%TO.P,RV3,1*%
%TO.N,/as*%
X133500000Y-141500000D03*
%TO.P,RV3,2*%
%TO.N,/a2*%
X136000000Y-141500000D03*
%TO.P,RV3,3*%
%TO.N,GND*%
X138500000Y-141500000D03*
%TD*%
D16*
%TO.P,C1,1*%
%TO.N,/vcca*%
X123500000Y-130212500D03*
%TO.P,C1,2*%
%TO.N,GND*%
X123500000Y-131787500D03*
%TD*%
D17*
%TO.P,C2,1*%
%TO.N,/vccd*%
X131712500Y-126000000D03*
%TO.P,C2,2*%
%TO.N,GND*%
X133287500Y-126000000D03*
%TD*%
D18*
%TO.P,C3,1*%
%TO.N,+3V3*%
X117537500Y-117250000D03*
%TO.P,C3,2*%
%TO.N,GND*%
X115962500Y-117250000D03*
%TD*%
D16*
%TO.P,C4,1*%
%TO.N,+3V3*%
X127000000Y-130212500D03*
%TO.P,C4,2*%
%TO.N,GND*%
X127000000Y-131787500D03*
%TD*%
D19*
%TO.P,C5,1*%
%TO.N,+3V3*%
X119500000Y-117287500D03*
%TO.P,C5,2*%
%TO.N,GND*%
X119500000Y-115712500D03*
%TD*%
D18*
%TO.P,C6,1*%
%TO.N,+3V3*%
X117537500Y-119000000D03*
%TO.P,C6,2*%
%TO.N,GND*%
X115962500Y-119000000D03*
%TD*%
D19*
%TO.P,C8,1*%
%TO.N,/usb_d-*%
X105000000Y-115787500D03*
%TO.P,C8,2*%
%TO.N,GND*%
X105000000Y-114212500D03*
%TD*%
D16*
%TO.P,C9,1*%
%TO.N,+3V3*%
X120750000Y-128712500D03*
%TO.P,C9,2*%
%TO.N,GND*%
X120750000Y-130287500D03*
%TD*%
%TO.P,C10,1*%
%TO.N,+3V3*%
X125250000Y-130212500D03*
%TO.P,C10,2*%
%TO.N,GND*%
X125250000Y-131787500D03*
%TD*%
D17*
%TO.P,C11,1*%
%TO.N,+3V3*%
X131712500Y-127750000D03*
%TO.P,C11,2*%
%TO.N,GND*%
X133287500Y-127750000D03*
%TD*%
%TO.P,C12,1*%
%TO.N,+3V3*%
X131712500Y-124250000D03*
%TO.P,C12,2*%
%TO.N,GND*%
X133287500Y-124250000D03*
%TD*%
D18*
%TO.P,C14,1*%
%TO.N,/usb_vbus*%
X101787500Y-115000000D03*
%TO.P,C14,2*%
%TO.N,GND*%
X100212500Y-115000000D03*
%TD*%
D20*
%TO.P,C15,1*%
%TO.N,+5V*%
X104000000Y-108937500D03*
%TO.P,C15,2*%
%TO.N,GND*%
X104000000Y-107062500D03*
%TD*%
%TO.P,C16,1*%
%TO.N,Net-(C16-Pad1)*%
X92250000Y-106687500D03*
%TO.P,C16,2*%
%TO.N,GND*%
X92250000Y-104812500D03*
%TD*%
D21*
%TO.P,C17,1*%
%TO.N,+3V3*%
X94937500Y-109250000D03*
%TO.P,C17,2*%
%TO.N,GND*%
X93062500Y-109250000D03*
%TD*%
D17*
%TO.P,C18,1*%
%TO.N,/xo*%
X115712500Y-120750000D03*
%TO.P,C18,2*%
%TO.N,GND*%
X117287500Y-120750000D03*
%TD*%
D18*
%TO.P,C19,1*%
%TO.N,/xi*%
X117287500Y-129250000D03*
%TO.P,C19,2*%
%TO.N,GND*%
X115712500Y-129250000D03*
%TD*%
D19*
%TO.P,C20,1*%
%TO.N,+3V3*%
X142300000Y-109287500D03*
%TO.P,C20,2*%
%TO.N,GND*%
X142300000Y-107712500D03*
%TD*%
D20*
%TO.P,C21,1*%
%TO.N,+3V3*%
X144300000Y-109375000D03*
%TO.P,C21,2*%
%TO.N,GND*%
X144300000Y-107500000D03*
%TD*%
D16*
%TO.P,C22,1*%
%TO.N,Net-(C22-Pad1)*%
X136300000Y-112712500D03*
%TO.P,C22,2*%
%TO.N,GND*%
X136300000Y-114287500D03*
%TD*%
D20*
%TO.P,C23,1*%
%TO.N,GND*%
X140750000Y-114187500D03*
%TO.P,C23,2*%
%TO.N,Net-(C23-Pad2)*%
X140750000Y-112312500D03*
%TD*%
D22*
%TO.P,C24,1*%
%TO.N,Net-(C22-Pad1)*%
X138300000Y-112562500D03*
%TO.P,C24,2*%
%TO.N,GND*%
X138300000Y-114437500D03*
%TD*%
D20*
%TO.P,C25,1*%
%TO.N,Net-(C25-Pad1)*%
X146500000Y-120737500D03*
%TO.P,C25,2*%
%TO.N,Net-(C25-Pad2)*%
X146500000Y-118862500D03*
%TD*%
%TO.P,C26,1*%
%TO.N,Net-(C26-Pad1)*%
X154500000Y-120737500D03*
%TO.P,C26,2*%
%TO.N,Net-(C26-Pad2)*%
X154500000Y-118862500D03*
%TD*%
D17*
%TO.P,C27,1*%
%TO.N,/as*%
X100712500Y-139000000D03*
%TO.P,C27,2*%
%TO.N,GND*%
X102287500Y-139000000D03*
%TD*%
%TO.P,C28,1*%
%TO.N,GND*%
X142712500Y-124800000D03*
%TO.P,C28,2*%
%TO.N,/dac_l*%
X144287500Y-124800000D03*
%TD*%
D20*
%TO.P,C30,1*%
%TO.N,Net-(C30-Pad1)*%
X146500000Y-128737500D03*
%TO.P,C30,2*%
%TO.N,/dac_l*%
X146500000Y-126862500D03*
%TD*%
%TO.P,C31,1*%
%TO.N,Net-(C31-Pad1)*%
X154500000Y-128737500D03*
%TO.P,C31,2*%
%TO.N,/dac_r*%
X154500000Y-126862500D03*
%TD*%
D19*
%TO.P,C32,1*%
%TO.N,GND*%
X155750000Y-135287500D03*
%TO.P,C32,2*%
%TO.N,+3V3*%
X155750000Y-133712500D03*
%TD*%
%TO.P,C33,1*%
%TO.N,GND*%
X145500000Y-135287500D03*
%TO.P,C33,2*%
%TO.N,Net-(C33-Pad2)*%
X145500000Y-133712500D03*
%TD*%
D18*
%TO.P,C34,1*%
%TO.N,Net-(C34-Pad1)*%
X151075000Y-136800000D03*
%TO.P,C34,2*%
%TO.N,Net-(C34-Pad2)*%
X149500000Y-136800000D03*
%TD*%
D16*
%TO.P,FB1,1*%
%TO.N,+5V*%
X101750000Y-111712500D03*
%TO.P,FB1,2*%
%TO.N,/usb_vbus*%
X101750000Y-113287500D03*
%TD*%
D23*
%TO.P,J1,1*%
%TO.N,/usb_vbus*%
X97500000Y-117400000D03*
%TO.P,J1,2*%
%TO.N,Net-(J1-Pad2)*%
X97500000Y-118200000D03*
%TO.P,J1,3*%
%TO.N,Net-(J1-Pad3)*%
X97500000Y-119000000D03*
%TO.P,J1,4*%
%TO.N,Net-(J1-Pad4)*%
X97500000Y-119800000D03*
%TO.P,J1,5*%
%TO.N,GND*%
X97500000Y-120600000D03*
D24*
%TO.P,J1,6*%
%TO.N,N/C*%
X97500000Y-114600000D03*
X92000000Y-114600000D03*
%TO.N,Net-(J1-Pad6)*%
X97500000Y-123400000D03*
%TO.N,N/C*%
X92000000Y-123400000D03*
%TD*%
D25*
%TO.P,J6,R*%
%TO.N,Net-(J6-PadR)*%
X150100000Y-145000000D03*
%TO.P,J6,RN*%
%TO.N,N/C*%
X151900000Y-143000000D03*
%TO.P,J6,S*%
%TO.N,GND*%
X158000000Y-143000000D03*
%TO.P,J6,T*%
%TO.N,Net-(J6-PadT)*%
X155600000Y-145000000D03*
%TO.P,J6,TN*%
%TO.N,N/C*%
X146400000Y-143000000D03*
%TD*%
D16*
%TO.P,R1,1*%
%TO.N,Net-(J1-Pad6)*%
X99000000Y-126212500D03*
%TO.P,R1,2*%
%TO.N,GND*%
X99000000Y-127787500D03*
%TD*%
D18*
%TO.P,R2,1*%
%TO.N,/usb_d+*%
X104787500Y-120000000D03*
%TO.P,R2,2*%
%TO.N,Net-(J1-Pad3)*%
X103212500Y-120000000D03*
%TD*%
%TO.P,R3,1*%
%TO.N,/usb_d-*%
X104787500Y-118000000D03*
%TO.P,R3,2*%
%TO.N,Net-(J1-Pad2)*%
X103212500Y-118000000D03*
%TD*%
D19*
%TO.P,R4,1*%
%TO.N,Net-(R4-Pad1)*%
X101000000Y-104787500D03*
%TO.P,R4,2*%
%TO.N,GND*%
X101000000Y-103212500D03*
%TD*%
%TO.P,R5,1*%
%TO.N,Net-(C16-Pad1)*%
X94250000Y-106787500D03*
%TO.P,R5,2*%
%TO.N,GND*%
X94250000Y-105212500D03*
%TD*%
D17*
%TO.P,R6,1*%
%TO.N,GND*%
X142712500Y-120800000D03*
%TO.P,R6,2*%
%TO.N,Net-(C25-Pad1)*%
X144287500Y-120800000D03*
%TD*%
%TO.P,R7,1*%
%TO.N,Net-(C26-Pad1)*%
X156462500Y-120750000D03*
%TO.P,R7,2*%
%TO.N,GND*%
X158037500Y-120750000D03*
%TD*%
D19*
%TO.P,R8,1*%
%TO.N,/dac_l*%
X146500000Y-124587500D03*
%TO.P,R8,2*%
%TO.N,Net-(C25-Pad1)*%
X146500000Y-123012500D03*
%TD*%
%TO.P,R9,1*%
%TO.N,/dac_r*%
X154500000Y-124587500D03*
%TO.P,R9,2*%
%TO.N,Net-(C26-Pad1)*%
X154500000Y-123012500D03*
%TD*%
D26*
%TO.P,R10,1*%
%TO.N,Net-(R10-Pad1)*%
X150500000Y-127250000D03*
D27*
%TO.P,R10,2*%
%TO.N,GND*%
X150500000Y-112010000D03*
%TD*%
D14*
%TO.P,RV1,*%
%TO.N,*%
X106400000Y-148500000D03*
X97600000Y-148500000D03*
D15*
%TO.P,RV1,1*%
%TO.N,/as*%
X99500000Y-141500000D03*
%TO.P,RV1,2*%
%TO.N,/a0*%
X102000000Y-141500000D03*
%TO.P,RV1,3*%
%TO.N,GND*%
X104500000Y-141500000D03*
%TD*%
D14*
%TO.P,RV2,*%
%TO.N,*%
X123400000Y-148500000D03*
X114600000Y-148500000D03*
D15*
%TO.P,RV2,1*%
%TO.N,/as*%
X116500000Y-141500000D03*
%TO.P,RV2,2*%
%TO.N,/a1*%
X119000000Y-141500000D03*
%TO.P,RV2,3*%
%TO.N,GND*%
X121500000Y-141500000D03*
%TD*%
D28*
%TO.P,SW1,1*%
%TO.N,/sw1*%
X134500000Y-100000000D03*
%TO.N,N/C*%
X128000000Y-100000000D03*
%TO.P,SW1,2*%
%TO.N,GND*%
X134500000Y-95500000D03*
X128000000Y-95500000D03*
%TD*%
%TO.P,SW2,1*%
%TO.N,GND*%
X138000000Y-95500000D03*
X144500000Y-95500000D03*
%TO.P,SW2,2*%
%TO.N,/sw2*%
X138000000Y-100000000D03*
%TO.N,N/C*%
X144500000Y-100000000D03*
%TD*%
D29*
%TO.P,U1,1*%
%TO.N,+5V*%
X101150000Y-109000000D03*
%TO.P,U1,2*%
X101150000Y-108500000D03*
%TO.P,U1,3*%
X101150000Y-108000000D03*
%TO.P,U1,4*%
%TO.N,Net-(U1-Pad4)*%
X101150000Y-107500000D03*
%TO.P,U1,5*%
%TO.N,Net-(R4-Pad1)*%
X101150000Y-107000000D03*
%TO.P,U1,6*%
%TO.N,+5V*%
X96850000Y-107000000D03*
%TO.P,U1,7*%
%TO.N,Net-(C16-Pad1)*%
X96850000Y-107500000D03*
%TO.P,U1,8*%
%TO.N,GND*%
X96850000Y-108000000D03*
%TO.P,U1,9*%
%TO.N,+3V3*%
X96850000Y-108500000D03*
%TO.P,U1,10*%
X96850000Y-109000000D03*
D12*
%TO.P,U1,11*%
%TO.N,GND*%
X99550000Y-108650000D03*
X99550000Y-107350000D03*
D30*
X99000000Y-108000000D03*
D12*
X98450000Y-108650000D03*
X98450000Y-107350000D03*
%TD*%
D31*
%TO.P,U3,1*%
%TO.N,/i2s_sdo*%
X136150000Y-108500000D03*
%TO.P,U3,2*%
%TO.N,/i2s_sck*%
X136150000Y-109000000D03*
%TO.P,U3,3*%
%TO.N,/i2s_lrck*%
X136150000Y-109500000D03*
%TO.P,U3,4*%
%TO.N,/i2s_mck*%
X136150000Y-110000000D03*
%TO.P,U3,5*%
%TO.N,Net-(C22-Pad1)*%
X136150000Y-110500000D03*
%TO.P,U3,6*%
%TO.N,Net-(C23-Pad2)*%
X140450000Y-110500000D03*
%TO.P,U3,7*%
%TO.N,Net-(C25-Pad2)*%
X140450000Y-110000000D03*
%TO.P,U3,8*%
%TO.N,GND*%
X140450000Y-109500000D03*
%TO.P,U3,9*%
%TO.N,+3V3*%
X140450000Y-109000000D03*
%TO.P,U3,10*%
%TO.N,Net-(C26-Pad2)*%
X140450000Y-108500000D03*
%TD*%
D32*
%TO.P,U4,1*%
%TO.N,Net-(C30-Pad1)*%
X147637500Y-130850000D03*
%TO.P,U4,2*%
%TO.N,Net-(J6-PadT)*%
X147637500Y-131500000D03*
%TO.P,U4,3*%
%TO.N,GND*%
X147637500Y-132150000D03*
%TO.P,U4,4*%
%TO.N,/~{mute}*%
X147637500Y-132800000D03*
%TO.P,U4,5*%
%TO.N,Net-(C33-Pad2)*%
X147637500Y-133450000D03*
%TO.P,U4,6*%
%TO.N,Net-(C34-Pad2)*%
X147637500Y-134100000D03*
%TO.P,U4,7*%
%TO.N,Net-(U4-Pad7)*%
X147637500Y-134750000D03*
%TO.P,U4,8*%
%TO.N,Net-(U4-Pad8)*%
X153362500Y-134750000D03*
%TO.P,U4,9*%
%TO.N,Net-(C34-Pad1)*%
X153362500Y-134100000D03*
%TO.P,U4,10*%
%TO.N,+3V3*%
X153362500Y-133450000D03*
%TO.P,U4,11*%
%TO.N,GND*%
X153362500Y-132800000D03*
%TO.P,U4,12*%
%TO.N,Net-(R10-Pad1)*%
X153362500Y-132150000D03*
%TO.P,U4,13*%
%TO.N,Net-(J6-PadR)*%
X153362500Y-131500000D03*
%TO.P,U4,14*%
%TO.N,Net-(C31-Pad1)*%
X153362500Y-130850000D03*
%TD*%
D28*
%TO.P,SW3,1*%
%TO.N,N/C*%
X154500000Y-100000000D03*
%TO.N,/sw3*%
X148000000Y-100000000D03*
%TO.P,SW3,2*%
%TO.N,GND*%
X154500000Y-95500000D03*
X148000000Y-95500000D03*
%TD*%
D19*
%TO.P,C35,1*%
%TO.N,/as*%
X117000000Y-139287500D03*
%TO.P,C35,2*%
%TO.N,GND*%
X117000000Y-137712500D03*
%TD*%
%TO.P,C36,1*%
%TO.N,/as*%
X134500000Y-139287500D03*
%TO.P,C36,2*%
%TO.N,GND*%
X134500000Y-137712500D03*
%TD*%
D33*
%TO.P,Y1,1*%
%TO.N,/xi*%
X117700000Y-127000000D03*
%TO.P,Y1,2*%
%TO.N,GND*%
X117700000Y-123000000D03*
%TO.P,Y1,3*%
%TO.N,/xo*%
X115300000Y-123000000D03*
%TO.P,Y1,4*%
%TO.N,GND*%
X115300000Y-127000000D03*
%TD*%
D34*
%TO.P,H2,1*%
%TO.N,Net-(H2-Pad1)*%
X92000000Y-96000000D03*
%TD*%
%TO.P,H3,1*%
%TO.N,Net-(H3-Pad1)*%
X160500000Y-96000000D03*
%TD*%
%TO.P,H4,1*%
%TO.N,Net-(H4-Pad1)*%
X160500000Y-151500000D03*
%TD*%
D35*
%TO.P,H1,1*%
%TO.N,GND*%
X89750000Y-151500000D03*
X90409010Y-149909010D03*
X90409010Y-153090990D03*
X92000000Y-149250000D03*
D34*
X92000000Y-151500000D03*
D35*
X92000000Y-153750000D03*
X93590990Y-149909010D03*
X93590990Y-153090990D03*
X94250000Y-151500000D03*
%TD*%
D19*
%TO.P,C7,1*%
%TO.N,GND*%
X105000000Y-123787500D03*
%TO.P,C7,2*%
%TO.N,/usb_d+*%
X105000000Y-122212500D03*
%TD*%
%TO.P,C13,1*%
%TO.N,+3V3*%
X131750000Y-118537500D03*
%TO.P,C13,2*%
%TO.N,GND*%
X131750000Y-116962500D03*
%TD*%
D17*
%TO.P,C29,1*%
%TO.N,/dac_r*%
X156712500Y-124800000D03*
%TO.P,C29,2*%
%TO.N,GND*%
X158287500Y-124800000D03*
%TD*%
D36*
%TO.P,J2,1*%
%TO.N,GND*%
X99750000Y-96850000D03*
D37*
%TO.P,J2,2*%
%TO.N,+3V3*%
X99750000Y-94310000D03*
%TO.P,J2,3*%
%TO.N,/bt_gp6*%
X102290000Y-96850000D03*
%TO.P,J2,4*%
%TO.N,Net-(J2-Pad4)*%
X102290000Y-94310000D03*
%TO.P,J2,5*%
%TO.N,/bt_gp7*%
X104830000Y-96850000D03*
%TO.P,J2,6*%
%TO.N,Net-(J2-Pad6)*%
X104830000Y-94310000D03*
%TO.P,J2,7*%
%TO.N,/bt_rst*%
X107370000Y-96850000D03*
%TO.P,J2,8*%
%TO.N,/bt_gp2*%
X107370000Y-94310000D03*
%TO.P,J2,9*%
%TO.N,Net-(J2-Pad9)*%
X109910000Y-96850000D03*
%TO.P,J2,10*%
%TO.N,/bt_gp3*%
X109910000Y-94310000D03*
%TO.P,J2,11*%
%TO.N,/bt_rts*%
X112450000Y-96850000D03*
%TO.P,J2,12*%
%TO.N,/bt_rx*%
X112450000Y-94310000D03*
%TO.P,J2,13*%
%TO.N,/bt_cts*%
X114990000Y-96850000D03*
%TO.P,J2,14*%
%TO.N,/bt_tx*%
X114990000Y-94310000D03*
%TO.P,J2,15*%
%TO.N,/bt_gp4*%
X117530000Y-96850000D03*
%TO.P,J2,16*%
%TO.N,/bt_gp5*%
X117530000Y-94310000D03*
%TO.P,J2,17*%
%TO.N,Net-(J2-Pad17)*%
X120070000Y-96850000D03*
%TO.P,J2,18*%
%TO.N,Net-(J2-Pad18)*%
X120070000Y-94310000D03*
%TO.P,J2,19*%
%TO.N,Net-(J2-Pad19)*%
X122610000Y-96850000D03*
%TO.P,J2,20*%
%TO.N,Net-(J2-Pad20)*%
X122610000Y-94310000D03*
%TD*%
D36*
%TO.P,J3,1*%
%TO.N,+3V3*%
X108750000Y-111250000D03*
D37*
%TO.P,J3,2*%
%TO.N,GND*%
X111290000Y-111250000D03*
%TO.P,J3,3*%
%TO.N,/xres*%
X113830000Y-111250000D03*
%TO.P,J3,4*%
%TO.N,/swdck*%
X116370000Y-111250000D03*
%TO.P,J3,5*%
%TO.N,/swdio*%
X118910000Y-111250000D03*
%TD*%
D38*
%TO.P,FID1,*%
%TO.N,*%
X93000000Y-139750000D03*
%TD*%
%TO.P,FID2,*%
%TO.N,*%
X159000000Y-131500000D03*
%TD*%
%TO.P,FID3,*%
%TO.N,*%
X127500000Y-102750000D03*
%TD*%
D39*
%TO.N,GND*%
X133500000Y-137750000D03*
X135000000Y-114250000D03*
X103000000Y-139000000D03*
X142000000Y-120750000D03*
X138750000Y-115250000D03*
X92250000Y-109250000D03*
X140750000Y-115000000D03*
X148750000Y-132250000D03*
X101000000Y-102500000D03*
X92250000Y-104000000D03*
X134000000Y-126000000D03*
X114750000Y-120000000D03*
X139500000Y-109500000D03*
X145500000Y-136000000D03*
X125250000Y-132500000D03*
X115250000Y-117250000D03*
X158750000Y-120750000D03*
X120750000Y-131000000D03*
X151000000Y-132750000D03*
X134000000Y-124250000D03*
X142250000Y-107000000D03*
X123500000Y-132500000D03*
X100250000Y-114250000D03*
X105000000Y-124500000D03*
X116250000Y-127000000D03*
X127000000Y-132500000D03*
X105000000Y-113500000D03*
X159000000Y-124750000D03*
X116750000Y-123000000D03*
X104000000Y-106250000D03*
X119500000Y-115000000D03*
X99000000Y-128500000D03*
X99250000Y-120750000D03*
X142000000Y-125000000D03*
X94250000Y-104500000D03*
X144250000Y-106750000D03*
X133250000Y-116750000D03*
X117000000Y-137000000D03*
X134000000Y-127750000D03*
X155750000Y-136000000D03*
%TO.N,/vccd*%
X119250000Y-122800000D03*
X129912500Y-124200000D03*
%TO.N,+3V3*%
X156750000Y-133750000D03*
X141250000Y-136500000D03*
X117500000Y-116500000D03*
X128000000Y-130250000D03*
X146500000Y-107500000D03*
X145750000Y-107500000D03*
X120000000Y-128750000D03*
X131750000Y-128500000D03*
X132850010Y-118500000D03*
X145750000Y-109500000D03*
X146500000Y-109500000D03*
X132850010Y-122899990D03*
%TO.N,/usb_d+*%
X118750000Y-119500000D03*
X108500000Y-119000000D03*
%TO.N,/usb_d-*%
X118850000Y-121250000D03*
X110050013Y-119000000D03*
%TO.N,+5V*%
X95750000Y-106750000D03*
X102750000Y-110250000D03*
%TO.N,/bt_tx*%
X116050003Y-103500000D03*
%TO.N,/bt_rx*%
X115250000Y-103500000D03*
%TO.N,/~{mute}*%
X133250000Y-131500000D03*
X146250000Y-132500000D03*
%TO.N,/sw1*%
X136000000Y-118500000D03*
%TO.N,/sw2*%
X136800003Y-118500000D03*
%TO.N,/sw3*%
X137600006Y-118500000D03*
%TD*%
D40*
%TO.N,GND*%
X153362500Y-132800000D02*
X151050000Y-132800000D01*
X96850000Y-108000000D02*
X99000000Y-108000000D01*
X147637500Y-132150000D02*
X148650000Y-132150000D01*
D41*
X115712500Y-129250000D02*
X115712500Y-127412500D01*
D40*
X131750000Y-116962500D02*
X133037500Y-116962500D01*
X158287500Y-124800000D02*
X158950000Y-124800000D01*
X158950000Y-124800000D02*
X159000000Y-124750000D01*
X142300000Y-107712500D02*
X142300000Y-107050000D01*
X145500000Y-135287500D02*
X145500000Y-136000000D01*
X99100000Y-120600000D02*
X99250000Y-120750000D01*
X136300000Y-114287500D02*
X135037500Y-114287500D01*
X140750000Y-114187500D02*
X140750000Y-115000000D01*
X133287500Y-124250000D02*
X134000000Y-124250000D01*
X120750000Y-130287500D02*
X120750000Y-131000000D01*
D41*
X117287500Y-120750000D02*
X117287500Y-122587500D01*
D40*
X136300000Y-114287500D02*
X136112500Y-114287500D01*
X101000000Y-103212500D02*
X101000000Y-102500000D01*
X138300000Y-114437500D02*
X138300000Y-114800000D01*
X138300000Y-114800000D02*
X138750000Y-115250000D01*
X125250000Y-131787500D02*
X125250000Y-132500000D01*
D41*
X133537500Y-137712500D02*
X133500000Y-137750000D01*
D40*
X115962500Y-117250000D02*
X115250000Y-117250000D01*
D41*
X117287500Y-122587500D02*
X117700000Y-123000000D01*
D40*
X133287500Y-127750000D02*
X134000000Y-127750000D01*
X93062500Y-109250000D02*
X92250000Y-109250000D01*
X115300000Y-127000000D02*
X116250000Y-127000000D01*
X142712500Y-124800000D02*
X142200000Y-124800000D01*
X104000000Y-107062500D02*
X104000000Y-106250000D01*
D41*
X126100000Y-119062500D02*
X126100000Y-121400000D01*
D40*
X117700000Y-123000000D02*
X116750000Y-123000000D01*
D41*
X124500000Y-119062500D02*
X124500000Y-120650000D01*
X126100000Y-121400000D02*
X124500000Y-123000000D01*
X125300000Y-123800000D02*
X124500000Y-123000000D01*
D40*
X94250000Y-105212500D02*
X94250000Y-104500000D01*
D41*
X120562500Y-122600000D02*
X124100000Y-122600000D01*
X124100000Y-122600000D02*
X124500000Y-123000000D01*
X124900000Y-122600000D02*
X124500000Y-123000000D01*
X105000000Y-123787500D02*
X105000000Y-124500000D01*
D40*
X142712500Y-120800000D02*
X142050000Y-120800000D01*
X100212500Y-114287500D02*
X100250000Y-114250000D01*
X133037500Y-116962500D02*
X133250000Y-116750000D01*
X135037500Y-114287500D02*
X135000000Y-114250000D01*
X155750000Y-135287500D02*
X155750000Y-136000000D01*
X151050000Y-132800000D02*
X151000000Y-132750000D01*
X142300000Y-107050000D02*
X142250000Y-107000000D01*
X127000000Y-131787500D02*
X127000000Y-132500000D01*
D41*
X124500000Y-126937500D02*
X124500000Y-123000000D01*
D40*
X119500000Y-115712500D02*
X119500000Y-115000000D01*
X148650000Y-132150000D02*
X148750000Y-132250000D01*
X142050000Y-120800000D02*
X142000000Y-120750000D01*
D41*
X125300000Y-122200000D02*
X124500000Y-123000000D01*
X128437500Y-123800000D02*
X125300000Y-123800000D01*
D40*
X102287500Y-139000000D02*
X103000000Y-139000000D01*
D41*
X99000000Y-127787500D02*
X99000000Y-128500000D01*
D40*
X115962500Y-119000000D02*
X115750000Y-119000000D01*
X140450000Y-109500000D02*
X139500000Y-109500000D01*
D41*
X125300000Y-119062500D02*
X125300000Y-122200000D01*
D40*
X115750000Y-119000000D02*
X114750000Y-120000000D01*
X100212500Y-115000000D02*
X100212500Y-114287500D01*
X158037500Y-120750000D02*
X158750000Y-120750000D01*
X133287500Y-126000000D02*
X134000000Y-126000000D01*
X142200000Y-124800000D02*
X142000000Y-125000000D01*
D41*
X124900000Y-119062500D02*
X124900000Y-122600000D01*
X134500000Y-137712500D02*
X133537500Y-137712500D01*
X125300000Y-126937500D02*
X125300000Y-123800000D01*
D40*
X92250000Y-104812500D02*
X92250000Y-104000000D01*
X97500000Y-120600000D02*
X99100000Y-120600000D01*
D41*
X115712500Y-127412500D02*
X115300000Y-127000000D01*
D40*
X144300000Y-107500000D02*
X144300000Y-106800000D01*
X117000000Y-137712500D02*
X117000000Y-137000000D01*
X123500000Y-131787500D02*
X123500000Y-132500000D01*
X144300000Y-106800000D02*
X144250000Y-106750000D01*
D41*
X105000000Y-114212500D02*
X105000000Y-113500000D01*
%TO.N,/vcca*%
X124100000Y-126937500D02*
X124100000Y-129612500D01*
X124100000Y-129612500D02*
X123500000Y-130212500D01*
%TO.N,/vccd*%
X129912500Y-124200000D02*
X131712500Y-126000000D01*
X119450000Y-123000000D02*
X119250000Y-122800000D01*
X128437500Y-124200000D02*
X129912500Y-124200000D01*
X120562500Y-123000000D02*
X119450000Y-123000000D01*
%TO.N,+3V3*%
X128437500Y-120200000D02*
X130087500Y-120200000D01*
X127962500Y-130212500D02*
X128000000Y-130250000D01*
X130087500Y-120200000D02*
X131750000Y-118537500D01*
D40*
X156712500Y-133712500D02*
X156750000Y-133750000D01*
D41*
X121300000Y-118050000D02*
X121300000Y-119062500D01*
X118950000Y-122200000D02*
X118149998Y-121399998D01*
D40*
X140450000Y-109000000D02*
X142012500Y-109000000D01*
X155487500Y-133450000D02*
X155750000Y-133712500D01*
D41*
X127000000Y-130212500D02*
X127962500Y-130212500D01*
X131061995Y-124250000D02*
X131712500Y-124250000D01*
D40*
X96850000Y-109000000D02*
X95187500Y-109000000D01*
X131712500Y-124250000D02*
X131712500Y-124037500D01*
X155750000Y-133712500D02*
X156712500Y-133712500D01*
D41*
X117537500Y-116537500D02*
X117500000Y-116500000D01*
X120037500Y-128712500D02*
X120000000Y-128750000D01*
X124900000Y-129862500D02*
X125250000Y-130212500D01*
D40*
X142012500Y-109000000D02*
X142300000Y-109287500D01*
D42*
X145625000Y-109375000D02*
X145750000Y-109500000D01*
D41*
X117537500Y-117250000D02*
X117537500Y-116537500D01*
X128437500Y-123400000D02*
X130211995Y-123400000D01*
X131712500Y-124037500D02*
X132250000Y-123500000D01*
X119462500Y-117250000D02*
X119500000Y-117287500D01*
D40*
X108750000Y-111250000D02*
X108750000Y-109500000D01*
D41*
X124900000Y-126937500D02*
X124900000Y-129862500D01*
D42*
X144300000Y-109375000D02*
X145625000Y-109375000D01*
D40*
X144212500Y-109287500D02*
X144300000Y-109375000D01*
D42*
X145750000Y-109500000D02*
X146500000Y-109500000D01*
D41*
X131712500Y-127750000D02*
X131712500Y-128462500D01*
X118149998Y-121399998D02*
X118149998Y-119612498D01*
X117537500Y-117250000D02*
X119462500Y-117250000D01*
D40*
X153362500Y-133450000D02*
X155487500Y-133450000D01*
X131712500Y-124037500D02*
X132850010Y-122899990D01*
D41*
X120750000Y-128712500D02*
X120037500Y-128712500D01*
X128437500Y-126200000D02*
X130162500Y-126200000D01*
X118149998Y-119612498D02*
X117537500Y-119000000D01*
X130162500Y-126200000D02*
X131712500Y-127750000D01*
X120537500Y-117287500D02*
X121300000Y-118050000D01*
X132812510Y-118537500D02*
X132850010Y-118500000D01*
X120562500Y-122200000D02*
X118950000Y-122200000D01*
X131750000Y-118537500D02*
X132812510Y-118537500D01*
X131712500Y-128462500D02*
X131750000Y-128500000D01*
D40*
X96850000Y-109000000D02*
X96850000Y-108500000D01*
X142300000Y-109287500D02*
X144212500Y-109287500D01*
X95187500Y-109000000D02*
X94937500Y-109250000D01*
D41*
X121300000Y-128162500D02*
X120750000Y-128712500D01*
X125250000Y-130212500D02*
X127000000Y-130212500D01*
X130211995Y-123400000D02*
X131061995Y-124250000D01*
X119500000Y-117287500D02*
X120537500Y-117287500D01*
X117537500Y-117250000D02*
X117537500Y-119000000D01*
X121300000Y-126937500D02*
X121300000Y-128162500D01*
%TO.N,/usb_d+*%
X118750000Y-120261998D02*
X118750000Y-119500000D01*
X120562500Y-121400000D02*
X119888002Y-121400000D01*
X108500000Y-119000000D02*
X105787500Y-119000000D01*
X105000000Y-122212500D02*
X105000000Y-120212500D01*
X105000000Y-120212500D02*
X104787500Y-120000000D01*
X119888002Y-121400000D02*
X118750000Y-120261998D01*
X105787500Y-119000000D02*
X104787500Y-120000000D01*
%TO.N,/usb_d-*%
X120562500Y-121800000D02*
X119400000Y-121800000D01*
X105000000Y-117787500D02*
X104787500Y-118000000D01*
X110050013Y-119000000D02*
X109050013Y-118000000D01*
X119400000Y-121800000D02*
X118850000Y-121250000D01*
X109050013Y-118000000D02*
X104787500Y-118000000D01*
X105000000Y-115787500D02*
X105000000Y-117787500D01*
D42*
%TO.N,/usb_vbus*%
X101787500Y-115000000D02*
X101787500Y-113325000D01*
X97500000Y-117400000D02*
X100600000Y-117400000D01*
X101787500Y-116212500D02*
X101787500Y-115000000D01*
X101787500Y-113325000D02*
X101750000Y-113287500D01*
X100600000Y-117400000D02*
X101787500Y-116212500D01*
D41*
%TO.N,+5V*%
X96850000Y-107000000D02*
X96000000Y-107000000D01*
X96000000Y-107000000D02*
X95750000Y-106750000D01*
D40*
X101150000Y-108000000D02*
X101150000Y-108500000D01*
%TO.N,Net-(C16-Pad1)*%
X92350000Y-106787500D02*
X92250000Y-106687500D01*
X96850000Y-107500000D02*
X94962500Y-107500000D01*
X94250000Y-106787500D02*
X92350000Y-106787500D01*
X94962500Y-107500000D02*
X94250000Y-106787500D01*
D41*
%TO.N,/xo*%
X115712500Y-120750000D02*
X115712500Y-122587500D01*
X118540001Y-124200001D02*
X116500001Y-124200001D01*
X115712500Y-122587500D02*
X115300000Y-123000000D01*
X119340002Y-123400000D02*
X118540001Y-124200001D01*
X116500001Y-124200001D02*
X115300000Y-123000000D01*
X120562500Y-123400000D02*
X119340002Y-123400000D01*
%TO.N,/xi*%
X117700000Y-127000000D02*
X117700000Y-128837500D01*
X119505700Y-123800000D02*
X117700000Y-125605700D01*
X120562500Y-123800000D02*
X119505700Y-123800000D01*
X117700000Y-125605700D02*
X117700000Y-127000000D01*
X117700000Y-128837500D02*
X117287500Y-129250000D01*
%TO.N,Net-(C22-Pad1)*%
X136150000Y-112562500D02*
X136300000Y-112712500D01*
X136450000Y-112562500D02*
X136300000Y-112712500D01*
X136150000Y-110500000D02*
X136150000Y-112562500D01*
X138300000Y-112562500D02*
X136450000Y-112562500D01*
%TO.N,Net-(C23-Pad2)*%
X140450000Y-112012500D02*
X140750000Y-112312500D01*
X140450000Y-110500000D02*
X140450000Y-112012500D01*
D40*
%TO.N,Net-(C25-Pad2)*%
X140450000Y-110000000D02*
X141733150Y-110000000D01*
X141733150Y-110000000D02*
X146500000Y-114766850D01*
X146500000Y-114766850D02*
X146500000Y-118862500D01*
%TO.N,Net-(C25-Pad1)*%
X144287500Y-120800000D02*
X146437500Y-120800000D01*
X146437500Y-120800000D02*
X146500000Y-120737500D01*
D43*
X146500000Y-120737500D02*
X146500000Y-123012500D01*
D40*
%TO.N,Net-(C26-Pad2)*%
X150000000Y-108500000D02*
X154500000Y-113000000D01*
X140450000Y-108500000D02*
X150000000Y-108500000D01*
X154500000Y-113000000D02*
X154500000Y-118862500D01*
D43*
%TO.N,Net-(C26-Pad1)*%
X154500000Y-120737500D02*
X154500000Y-123012500D01*
D40*
X154500000Y-120737500D02*
X156450000Y-120737500D01*
X156450000Y-120737500D02*
X156462500Y-120750000D01*
%TO.N,/dac_l*%
X144287500Y-124800000D02*
X146287500Y-124800000D01*
D43*
X146500000Y-124587500D02*
X146500000Y-126862500D01*
D40*
X146287500Y-124800000D02*
X146500000Y-124587500D01*
D43*
%TO.N,/dac_r*%
X154500000Y-124587500D02*
X154500000Y-126862500D01*
D40*
X156500000Y-124587500D02*
X156712500Y-124800000D01*
X154500000Y-124587500D02*
X156500000Y-124587500D01*
%TO.N,Net-(C30-Pad1)*%
X146500000Y-130250000D02*
X146500000Y-128737500D01*
X147100000Y-130850000D02*
X146500000Y-130250000D01*
X147637500Y-130850000D02*
X147100000Y-130850000D01*
%TO.N,Net-(C31-Pad1)*%
X154500000Y-130250000D02*
X153900000Y-130850000D01*
X154500000Y-128737500D02*
X154500000Y-130250000D01*
X153900000Y-130850000D02*
X153362500Y-130850000D01*
%TO.N,Net-(C33-Pad2)*%
X145762500Y-133450000D02*
X145500000Y-133712500D01*
X147637500Y-133450000D02*
X145762500Y-133450000D01*
%TO.N,Net-(C34-Pad2)*%
X149500000Y-135238586D02*
X149500000Y-136800000D01*
X148361414Y-134100000D02*
X149500000Y-135238586D01*
X147637500Y-134100000D02*
X148361414Y-134100000D01*
%TO.N,Net-(C34-Pad1)*%
X153362500Y-134100000D02*
X152625000Y-134100000D01*
X151075000Y-135650000D02*
X151075000Y-136800000D01*
X152625000Y-134100000D02*
X151075000Y-135650000D01*
D41*
%TO.N,Net-(J1-Pad3)*%
X97500000Y-119000000D02*
X102212500Y-119000000D01*
X102212500Y-119000000D02*
X103212500Y-120000000D01*
%TO.N,Net-(J1-Pad2)*%
X97500000Y-118200000D02*
X103012500Y-118200000D01*
X103012500Y-118200000D02*
X103212500Y-118000000D01*
%TO.N,Net-(J1-Pad6)*%
X99000000Y-124900000D02*
X97500000Y-123400000D01*
X99000000Y-126212500D02*
X99000000Y-124900000D01*
%TO.N,/bt_tx*%
X126900000Y-119062500D02*
X126900000Y-114650000D01*
X126900000Y-114349997D02*
X116050003Y-103500000D01*
X126900000Y-114650000D02*
X126900000Y-114349997D01*
%TO.N,/bt_rx*%
X115250000Y-103618604D02*
X115250000Y-103500000D01*
X126500000Y-114868604D02*
X115250000Y-103618604D01*
X126500000Y-119062500D02*
X126500000Y-114868604D01*
%TO.N,/xres*%
X120415697Y-110099999D02*
X114980001Y-110099999D01*
X124100000Y-113784302D02*
X120415697Y-110099999D01*
X114980001Y-110099999D02*
X113830000Y-111250000D01*
X124100000Y-119062500D02*
X124100000Y-113784302D01*
%TO.N,/i2s_mck*%
X128437500Y-120600000D02*
X133400000Y-120600000D01*
X133400000Y-120600000D02*
X134250000Y-119750000D01*
X134250000Y-111157850D02*
X135407850Y-110000000D01*
X135407850Y-110000000D02*
X136150000Y-110000000D01*
X134250000Y-119750000D02*
X134250000Y-111157850D01*
%TO.N,/i2s_lrck*%
X129200000Y-119800000D02*
X130500000Y-118500000D01*
X128437500Y-119800000D02*
X129200000Y-119800000D01*
X130500000Y-118500000D02*
X130500000Y-114342150D01*
X135342150Y-109500000D02*
X136150000Y-109500000D01*
X130500000Y-114342150D02*
X135342150Y-109500000D01*
%TO.N,/i2s_sck*%
X127700000Y-116550000D02*
X135250000Y-109000000D01*
X127700000Y-119062500D02*
X127700000Y-116550000D01*
X135250000Y-109000000D02*
X136150000Y-109000000D01*
D43*
%TO.N,Net-(J6-PadR)*%
X152750000Y-139250000D02*
X156500000Y-139250000D01*
X158250000Y-133000000D02*
X156750000Y-131500000D01*
X158250000Y-137500000D02*
X158250000Y-133000000D01*
X156750000Y-131500000D02*
X153362500Y-131500000D01*
X150100000Y-145000000D02*
X150100000Y-141900000D01*
X150100000Y-141900000D02*
X152750000Y-139250000D01*
X156500000Y-139250000D02*
X158250000Y-137500000D01*
%TO.N,Net-(J6-PadT)*%
X144000000Y-132750000D02*
X144000000Y-142938491D01*
X147637500Y-131500000D02*
X145250000Y-131500000D01*
X145250000Y-131500000D02*
X144000000Y-132750000D01*
X147861519Y-146800010D02*
X153799990Y-146800010D01*
X153799990Y-146800010D02*
X155600000Y-145000000D01*
X144000000Y-142938491D02*
X147861519Y-146800010D01*
D41*
%TO.N,Net-(R4-Pad1)*%
X101000000Y-104787500D02*
X101000000Y-106850000D01*
X101000000Y-106850000D02*
X101150000Y-107000000D01*
D40*
%TO.N,Net-(R10-Pad1)*%
X152625000Y-132150000D02*
X153362500Y-132150000D01*
X150500000Y-127250000D02*
X150500000Y-130025000D01*
X150500000Y-130025000D02*
X152625000Y-132150000D01*
D41*
%TO.N,/a0*%
X119150010Y-129161829D02*
X119150010Y-126599990D01*
X119150010Y-126599990D02*
X119550000Y-126200000D01*
X112411829Y-135900010D02*
X113750000Y-134561838D01*
X119550000Y-126200000D02*
X120562500Y-126200000D01*
X102000000Y-141500000D02*
X107599990Y-135900010D01*
X107599990Y-135900010D02*
X112411829Y-135900010D01*
X113750000Y-134561838D02*
X119150010Y-129161829D01*
%TO.N,/a1*%
X121700000Y-135800000D02*
X119000000Y-138500000D01*
X121700000Y-126937500D02*
X121700000Y-135800000D01*
X119000000Y-138500000D02*
X119000000Y-141500000D01*
%TO.N,/a2*%
X134746140Y-136750000D02*
X136000000Y-138003860D01*
X122100000Y-135850000D02*
X123000000Y-136750000D01*
X123000000Y-136750000D02*
X134746140Y-136750000D01*
X122100000Y-126937500D02*
X122100000Y-135850000D01*
X136000000Y-138003860D02*
X136000000Y-141500000D01*
%TO.N,/i2s_sdo*%
X127300000Y-119062500D02*
X127300000Y-116226452D01*
X127300000Y-116226452D02*
X135026452Y-108500000D01*
X135026452Y-108500000D02*
X136150000Y-108500000D01*
D40*
%TO.N,/~{mute}*%
X147637500Y-132800000D02*
X146550000Y-132800000D01*
D41*
X131000000Y-129250000D02*
X126500000Y-129250000D01*
X126500000Y-129250000D02*
X126100000Y-128850000D01*
X133250000Y-131500000D02*
X131000000Y-129250000D01*
D40*
X146550000Y-132800000D02*
X146250000Y-132500000D01*
D41*
X126100000Y-128850000D02*
X126100000Y-126937500D01*
%TO.N,/sw1*%
X136000000Y-118565698D02*
X136000000Y-118500000D01*
X133565698Y-121000000D02*
X136000000Y-118565698D01*
X128437500Y-121000000D02*
X133565698Y-121000000D01*
%TO.N,/sw2*%
X128437500Y-121400000D02*
X133988002Y-121400000D01*
X133988002Y-121400000D02*
X136800003Y-118587999D01*
X136800003Y-118587999D02*
X136800003Y-118500000D01*
%TO.N,/sw3*%
X137600006Y-118587999D02*
X137600006Y-118500000D01*
X134388005Y-121800000D02*
X137600006Y-118587999D01*
X128437500Y-121800000D02*
X134388005Y-121800000D01*
%TO.N,/as*%
X103737500Y-135500000D02*
X112246140Y-135500000D01*
D43*
X117000000Y-141000000D02*
X116500000Y-141500000D01*
X134500000Y-140500000D02*
X133500000Y-141500000D01*
D41*
X118750000Y-128996140D02*
X112246140Y-135500000D01*
X100712500Y-138525000D02*
X103737500Y-135500000D01*
X118750000Y-126250000D02*
X118750000Y-128996140D01*
D43*
X134500000Y-139287500D02*
X134500000Y-140500000D01*
D41*
X119200000Y-125800000D02*
X118750000Y-126250000D01*
D40*
X99500000Y-140212500D02*
X100712500Y-139000000D01*
X99500000Y-141500000D02*
X99500000Y-140212500D01*
D41*
X120562500Y-125800000D02*
X119200000Y-125800000D01*
D43*
X117000000Y-139287500D02*
X117000000Y-141000000D01*
D41*
X100712500Y-139000000D02*
X100712500Y-138525000D01*
%TO.N,/swdio*%
X123700000Y-113950000D02*
X123700000Y-119062500D01*
X121000000Y-111250000D02*
X123700000Y-113950000D01*
X118910000Y-111250000D02*
X121000000Y-111250000D01*
%TO.N,/swdck*%
X116370000Y-111250000D02*
X117620000Y-112500000D01*
X123300000Y-114115698D02*
X123300000Y-119062500D01*
X117620000Y-112500000D02*
X121684302Y-112500000D01*
X121684302Y-112500000D02*
X123300000Y-114115698D01*
%TD*%
%TA.AperFunction,Conductor*%
%TO.N,+3V3*%
G36*
X142943039Y-136019685D02*
G01*
X142988794Y-136072489D01*
X143000000Y-136124000D01*
X143000000Y-147627283D01*
X142980315Y-147694322D01*
X142927511Y-147740077D01*
X142858353Y-147750021D01*
X142794797Y-147720996D01*
X142758069Y-147665601D01*
X142729502Y-147577683D01*
X142729500Y-147577678D01*
X142595538Y-147292996D01*
X142595537Y-147292993D01*
X142426947Y-147027337D01*
X142426945Y-147027334D01*
X142226393Y-146784909D01*
X142226391Y-146784907D01*
X141997031Y-146569523D01*
X141997021Y-146569515D01*
X141742495Y-146384591D01*
X141742488Y-146384586D01*
X141742484Y-146384584D01*
X141466766Y-146233006D01*
X141466763Y-146233004D01*
X141466758Y-146233002D01*
X141466757Y-146233001D01*
X141174228Y-146117181D01*
X141174225Y-146117180D01*
X140869476Y-146038934D01*
X140869463Y-146038932D01*
X140557329Y-145999500D01*
X140557318Y-145999500D01*
X140242682Y-145999500D01*
X140242670Y-145999500D01*
X139930536Y-146038932D01*
X139930523Y-146038934D01*
X139625774Y-146117180D01*
X139625771Y-146117181D01*
X139333242Y-146233001D01*
X139333241Y-146233002D01*
X139057516Y-146384584D01*
X139057504Y-146384591D01*
X138802978Y-146569515D01*
X138802968Y-146569523D01*
X138573608Y-146784907D01*
X138573606Y-146784909D01*
X138373054Y-147027334D01*
X138373051Y-147027338D01*
X138204464Y-147292990D01*
X138204461Y-147292996D01*
X138070499Y-147577678D01*
X138070497Y-147577683D01*
X137973270Y-147876916D01*
X137914311Y-148185988D01*
X137914310Y-148185995D01*
X137894556Y-148499994D01*
X137894556Y-148500005D01*
X137914310Y-148814004D01*
X137914311Y-148814011D01*
X137973270Y-149123083D01*
X138070497Y-149422316D01*
X138070499Y-149422321D01*
X138204461Y-149707003D01*
X138204464Y-149707009D01*
X138373051Y-149972661D01*
X138373054Y-149972665D01*
X138573606Y-150215090D01*
X138573608Y-150215092D01*
X138802968Y-150430476D01*
X138802978Y-150430484D01*
X139057504Y-150615408D01*
X139057509Y-150615410D01*
X139057516Y-150615416D01*
X139333234Y-150766994D01*
X139333239Y-150766996D01*
X139333241Y-150766997D01*
X139333242Y-150766998D01*
X139625771Y-150882818D01*
X139625774Y-150882819D01*
X139930523Y-150961065D01*
X139930527Y-150961066D01*
X139996010Y-150969338D01*
X140242670Y-151000499D01*
X140242679Y-151000499D01*
X140242682Y-151000500D01*
X140242684Y-151000500D01*
X140557316Y-151000500D01*
X140557318Y-151000500D01*
X140557321Y-151000499D01*
X140557329Y-151000499D01*
X140743593Y-150976968D01*
X140869473Y-150961066D01*
X141174225Y-150882819D01*
X141174228Y-150882818D01*
X141466757Y-150766998D01*
X141466758Y-150766997D01*
X141466756Y-150766997D01*
X141466766Y-150766994D01*
X141742484Y-150615416D01*
X141997030Y-150430478D01*
X142226390Y-150215094D01*
X142426947Y-149972663D01*
X142595537Y-149707007D01*
X142729503Y-149422315D01*
X142758069Y-149334397D01*
X142797506Y-149276723D01*
X142861865Y-149249524D01*
X142930711Y-149261439D01*
X142982187Y-149308683D01*
X143000000Y-149372716D01*
X143000000Y-154850500D01*
X142980315Y-154917539D01*
X142927511Y-154963294D01*
X142876000Y-154974500D01*
X137750000Y-154974500D01*
X137750000Y-142686549D01*
X137935497Y-142786936D01*
X138049487Y-142826068D01*
X138155015Y-142862297D01*
X138155017Y-142862297D01*
X138155019Y-142862298D01*
X138383951Y-142900500D01*
X138383952Y-142900500D01*
X138616048Y-142900500D01*
X138616049Y-142900500D01*
X138844981Y-142862298D01*
X139064503Y-142786936D01*
X139268626Y-142676470D01*
X139451784Y-142533913D01*
X139608979Y-142363153D01*
X139735924Y-142168849D01*
X139829157Y-141956300D01*
X139886134Y-141731305D01*
X139905300Y-141500000D01*
X139905300Y-141499993D01*
X139886135Y-141268702D01*
X139886133Y-141268691D01*
X139829157Y-141043699D01*
X139735924Y-140831151D01*
X139608983Y-140636852D01*
X139608980Y-140636849D01*
X139608979Y-140636847D01*
X139451784Y-140466087D01*
X139451779Y-140466083D01*
X139451777Y-140466081D01*
X139268634Y-140323535D01*
X139268628Y-140323531D01*
X139064504Y-140213064D01*
X139064495Y-140213061D01*
X138844984Y-140137702D01*
X138673281Y-140109050D01*
X138616049Y-140099500D01*
X138383951Y-140099500D01*
X138338164Y-140107140D01*
X138155015Y-140137702D01*
X137935504Y-140213061D01*
X137935495Y-140213064D01*
X137750000Y-140313449D01*
X137750000Y-136000000D01*
X138250000Y-136000000D01*
X142876000Y-136000000D01*
X142943039Y-136019685D01*
G37*
%TD.AperFunction*%
%TD*%
%TA.AperFunction,Conductor*%
%TO.N,+3V3*%
G36*
X159181482Y-92545185D02*
G01*
X159227237Y-92597989D01*
X159237181Y-92667147D01*
X159208156Y-92730703D01*
X159158881Y-92765263D01*
X159130781Y-92776050D01*
X159074260Y-92797746D01*
X158747343Y-92964320D01*
X158439635Y-93164147D01*
X158154498Y-93395047D01*
X158154490Y-93395054D01*
X157895054Y-93654490D01*
X157895047Y-93654498D01*
X157664147Y-93939635D01*
X157464320Y-94247343D01*
X157297746Y-94574260D01*
X157166260Y-94916793D01*
X157071294Y-95271209D01*
X157071294Y-95271211D01*
X157013898Y-95633594D01*
X156995279Y-95988881D01*
X156994696Y-96000000D01*
X157013898Y-96366404D01*
X157071295Y-96728794D01*
X157111496Y-96878827D01*
X157166260Y-97083206D01*
X157297746Y-97425739D01*
X157464320Y-97752656D01*
X157664147Y-98060364D01*
X157777627Y-98200500D01*
X157895051Y-98345506D01*
X158154494Y-98604949D01*
X158154498Y-98604952D01*
X158439635Y-98835852D01*
X158747343Y-99035679D01*
X158747348Y-99035682D01*
X159074264Y-99202255D01*
X159416801Y-99333742D01*
X159771206Y-99428705D01*
X160133596Y-99486102D01*
X160479734Y-99504241D01*
X160499999Y-99505304D01*
X160500000Y-99505304D01*
X160500001Y-99505304D01*
X160519203Y-99504297D01*
X160866404Y-99486102D01*
X161228794Y-99428705D01*
X161583199Y-99333742D01*
X161925736Y-99202255D01*
X162252652Y-99035682D01*
X162560366Y-98835851D01*
X162845506Y-98604949D01*
X163104949Y-98345506D01*
X163335851Y-98060366D01*
X163535682Y-97752652D01*
X163702255Y-97425736D01*
X163734736Y-97341118D01*
X163777138Y-97285586D01*
X163842831Y-97261793D01*
X163910960Y-97277294D01*
X163959893Y-97327168D01*
X163974500Y-97385556D01*
X163974500Y-107876000D01*
X163954815Y-107943039D01*
X163902011Y-107988794D01*
X163850500Y-108000000D01*
X150466913Y-108000000D01*
X150399874Y-107980315D01*
X150391800Y-107974017D01*
X150391711Y-107974141D01*
X150385398Y-107969555D01*
X150381096Y-107967190D01*
X150377668Y-107965305D01*
X150366791Y-107959325D01*
X150350532Y-107948644D01*
X150333765Y-107935639D01*
X150333764Y-107935638D01*
X150289178Y-107916343D01*
X150283956Y-107913786D01*
X150241368Y-107890373D01*
X150241365Y-107890372D01*
X150220801Y-107885092D01*
X150202396Y-107878790D01*
X150182927Y-107870365D01*
X150182921Y-107870363D01*
X150134951Y-107862766D01*
X150129236Y-107861582D01*
X150112772Y-107857355D01*
X150082180Y-107849500D01*
X150082177Y-107849500D01*
X150060955Y-107849500D01*
X150041555Y-107847973D01*
X150020596Y-107844653D01*
X150020595Y-107844653D01*
X149996786Y-107846903D01*
X149972230Y-107849225D01*
X149966392Y-107849500D01*
X145624500Y-107849500D01*
X145557461Y-107829815D01*
X145511706Y-107777011D01*
X145500500Y-107725500D01*
X145500500Y-107206657D01*
X145500499Y-107206644D01*
X145498565Y-107187713D01*
X145490087Y-107104725D01*
X145435362Y-106939575D01*
X145435358Y-106939569D01*
X145435357Y-106939566D01*
X145344028Y-106791500D01*
X145344025Y-106791496D01*
X145221003Y-106668474D01*
X145220999Y-106668471D01*
X145066778Y-106573346D01*
X145068277Y-106570915D01*
X145025631Y-106533343D01*
X145013454Y-106508122D01*
X144975789Y-106400478D01*
X144960043Y-106375419D01*
X144907768Y-106292223D01*
X144879816Y-106247738D01*
X144752262Y-106120184D01*
X144700534Y-106087681D01*
X144599523Y-106024211D01*
X144429254Y-105964631D01*
X144429249Y-105964630D01*
X144250004Y-105944435D01*
X144249996Y-105944435D01*
X144070750Y-105964630D01*
X144070745Y-105964631D01*
X143900476Y-106024211D01*
X143747737Y-106120184D01*
X143620184Y-106247737D01*
X143524210Y-106400478D01*
X143464631Y-106570747D01*
X143464264Y-106572358D01*
X143463741Y-106573292D01*
X143462333Y-106577317D01*
X143461627Y-106577070D01*
X143430149Y-106633333D01*
X143408473Y-106650292D01*
X143378998Y-106668472D01*
X143255972Y-106791499D01*
X143245312Y-106808782D01*
X143193363Y-106855505D01*
X143124400Y-106866725D01*
X143060319Y-106838880D01*
X143022733Y-106784636D01*
X142975789Y-106650478D01*
X142929706Y-106577138D01*
X142879816Y-106497738D01*
X142752262Y-106370184D01*
X142732497Y-106357765D01*
X142599523Y-106274211D01*
X142429254Y-106214631D01*
X142429249Y-106214630D01*
X142250004Y-106194435D01*
X142249996Y-106194435D01*
X142070750Y-106214630D01*
X142070745Y-106214631D01*
X141900476Y-106274211D01*
X141747737Y-106370184D01*
X141620184Y-106497737D01*
X141524211Y-106650476D01*
X141464631Y-106820745D01*
X141464630Y-106820750D01*
X141444435Y-106999996D01*
X141444435Y-106999997D01*
X141448723Y-107038062D01*
X141436666Y-107106884D01*
X141431042Y-107117038D01*
X141387454Y-107187708D01*
X141387450Y-107187715D01*
X141372213Y-107233697D01*
X141334564Y-107347315D01*
X141334564Y-107347316D01*
X141334563Y-107347316D01*
X141324500Y-107445818D01*
X141324500Y-107725500D01*
X141304815Y-107792539D01*
X141252011Y-107838294D01*
X141200500Y-107849500D01*
X140409063Y-107849500D01*
X140286946Y-107864927D01*
X140286936Y-107864930D01*
X140284752Y-107865795D01*
X140280151Y-107866672D01*
X140279390Y-107866868D01*
X140279377Y-107866820D01*
X140239113Y-107874500D01*
X139852129Y-107874500D01*
X139852123Y-107874501D01*
X139792516Y-107880908D01*
X139657671Y-107931202D01*
X139657668Y-107931204D01*
X139641859Y-107943039D01*
X139598808Y-107975266D01*
X139533347Y-107999684D01*
X139524499Y-108000000D01*
X138250000Y-108000000D01*
X138250000Y-111450500D01*
X138230315Y-111517539D01*
X138177511Y-111563294D01*
X138126000Y-111574500D01*
X137794144Y-111574500D01*
X137692223Y-111584913D01*
X137527077Y-111639637D01*
X137527066Y-111639642D01*
X137379000Y-111730971D01*
X137378996Y-111730974D01*
X137255974Y-111853996D01*
X137255971Y-111854000D01*
X137225688Y-111903097D01*
X137173740Y-111949822D01*
X137120150Y-111962000D01*
X137093034Y-111962000D01*
X137025995Y-111942315D01*
X137005885Y-111926109D01*
X137005387Y-111925716D01*
X136862290Y-111837452D01*
X136862282Y-111837448D01*
X136835495Y-111828572D01*
X136778050Y-111788799D01*
X136751228Y-111724283D01*
X136750500Y-111710867D01*
X136750500Y-111226439D01*
X136770185Y-111159400D01*
X136822989Y-111113645D01*
X136831168Y-111110257D01*
X136942326Y-111068798D01*
X136942326Y-111068797D01*
X136942331Y-111068796D01*
X137057546Y-110982546D01*
X137143796Y-110867331D01*
X137194091Y-110732483D01*
X137200500Y-110672873D01*
X137200499Y-110327128D01*
X137194091Y-110267517D01*
X137194089Y-110267513D01*
X137193632Y-110263255D01*
X137193632Y-110236745D01*
X137194089Y-110232486D01*
X137194091Y-110232483D01*
X137200500Y-110172873D01*
X137200499Y-109827128D01*
X137194091Y-109767517D01*
X137194089Y-109767513D01*
X137193632Y-109763255D01*
X137193632Y-109736745D01*
X137194089Y-109732486D01*
X137194091Y-109732483D01*
X137200500Y-109672873D01*
X137200499Y-109327128D01*
X137194091Y-109267517D01*
X137194089Y-109267513D01*
X137193632Y-109263255D01*
X137193632Y-109236745D01*
X137194089Y-109232486D01*
X137194091Y-109232483D01*
X137200500Y-109172873D01*
X137200499Y-108827128D01*
X137194091Y-108767517D01*
X137194089Y-108767513D01*
X137193632Y-108763255D01*
X137193632Y-108736745D01*
X137194089Y-108732486D01*
X137194091Y-108732483D01*
X137200500Y-108672873D01*
X137200499Y-108327128D01*
X137194091Y-108267517D01*
X137178321Y-108225236D01*
X137143797Y-108132671D01*
X137143793Y-108132664D01*
X137057547Y-108017455D01*
X137057544Y-108017452D01*
X136942335Y-107931206D01*
X136942328Y-107931202D01*
X136807482Y-107880908D01*
X136807483Y-107880908D01*
X136747883Y-107874501D01*
X136747881Y-107874500D01*
X136747873Y-107874500D01*
X136747864Y-107874500D01*
X135552129Y-107874500D01*
X135552123Y-107874501D01*
X135492518Y-107880908D01*
X135473547Y-107887984D01*
X135463632Y-107891682D01*
X135420300Y-107899500D01*
X135069880Y-107899500D01*
X135061781Y-107898969D01*
X135026452Y-107894318D01*
X134987091Y-107899500D01*
X134869691Y-107914955D01*
X134869689Y-107914956D01*
X134723609Y-107975464D01*
X134598171Y-108071716D01*
X134576471Y-108099994D01*
X134571120Y-108106096D01*
X127712181Y-114965035D01*
X127650858Y-114998520D01*
X127581166Y-114993536D01*
X127525233Y-114951664D01*
X127500816Y-114886200D01*
X127500500Y-114877354D01*
X127500500Y-114393425D01*
X127501031Y-114385323D01*
X127505682Y-114349996D01*
X127505682Y-114349995D01*
X127487861Y-114214630D01*
X127485044Y-114193235D01*
X127444338Y-114094962D01*
X127424538Y-114047160D01*
X127424537Y-114047159D01*
X127424536Y-114047156D01*
X127366582Y-113971629D01*
X127328282Y-113921715D01*
X127300005Y-113900017D01*
X127293904Y-113894666D01*
X116880703Y-103481465D01*
X116847218Y-103420142D01*
X116845166Y-103407686D01*
X116835371Y-103320745D01*
X116775792Y-103150478D01*
X116679819Y-102997738D01*
X116552265Y-102870184D01*
X116515869Y-102847315D01*
X116399526Y-102774211D01*
X116330341Y-102750002D01*
X126744751Y-102750002D01*
X126763685Y-102918056D01*
X126819545Y-103077694D01*
X126819547Y-103077697D01*
X126909518Y-103220884D01*
X126909523Y-103220890D01*
X127029109Y-103340476D01*
X127029115Y-103340481D01*
X127172302Y-103430452D01*
X127172305Y-103430454D01*
X127172309Y-103430455D01*
X127172310Y-103430456D01*
X127244913Y-103455860D01*
X127331943Y-103486314D01*
X127499997Y-103505249D01*
X127500000Y-103505249D01*
X127500003Y-103505249D01*
X127668056Y-103486314D01*
X127688478Y-103479168D01*
X127827690Y-103430456D01*
X127827692Y-103430454D01*
X127827694Y-103430454D01*
X127827697Y-103430452D01*
X127970884Y-103340481D01*
X127970885Y-103340480D01*
X127970890Y-103340477D01*
X128090477Y-103220890D01*
X128094410Y-103214631D01*
X128180452Y-103077697D01*
X128180454Y-103077694D01*
X128180454Y-103077692D01*
X128180456Y-103077690D01*
X128236313Y-102918059D01*
X128236313Y-102918058D01*
X128236314Y-102918056D01*
X128255249Y-102750002D01*
X128255249Y-102749997D01*
X128236314Y-102581943D01*
X128180454Y-102422305D01*
X128180452Y-102422302D01*
X128090481Y-102279115D01*
X128090476Y-102279109D01*
X127970890Y-102159523D01*
X127970884Y-102159518D01*
X127827697Y-102069547D01*
X127827694Y-102069545D01*
X127668056Y-102013685D01*
X127500003Y-101994751D01*
X127499997Y-101994751D01*
X127331943Y-102013685D01*
X127172305Y-102069545D01*
X127172302Y-102069547D01*
X127029115Y-102159518D01*
X127029109Y-102159523D01*
X126909523Y-102279109D01*
X126909518Y-102279115D01*
X126819547Y-102422302D01*
X126819545Y-102422305D01*
X126763685Y-102581943D01*
X126744751Y-102749997D01*
X126744751Y-102750002D01*
X116330341Y-102750002D01*
X116229257Y-102714631D01*
X116229252Y-102714630D01*
X116050007Y-102694435D01*
X116049999Y-102694435D01*
X115870753Y-102714630D01*
X115870740Y-102714633D01*
X115693909Y-102776510D01*
X115693160Y-102774369D01*
X115634824Y-102783958D01*
X115606408Y-102775611D01*
X115606094Y-102776510D01*
X115429262Y-102714633D01*
X115429249Y-102714630D01*
X115250004Y-102694435D01*
X115249996Y-102694435D01*
X115070750Y-102714630D01*
X115070745Y-102714631D01*
X114900476Y-102774211D01*
X114747737Y-102870184D01*
X114620184Y-102997737D01*
X114524211Y-103150476D01*
X114464631Y-103320745D01*
X114464630Y-103320750D01*
X114444435Y-103499996D01*
X114444435Y-103500003D01*
X114464630Y-103679249D01*
X114464631Y-103679254D01*
X114524211Y-103849523D01*
X114591534Y-103956666D01*
X114620184Y-104002262D01*
X114747738Y-104129816D01*
X114815244Y-104172233D01*
X114843456Y-104189960D01*
X114900478Y-104225789D01*
X115039084Y-104274289D01*
X115085810Y-104303649D01*
X120069979Y-109287818D01*
X120103464Y-109349141D01*
X120098480Y-109418833D01*
X120056608Y-109474766D01*
X119991144Y-109499183D01*
X119982298Y-109499499D01*
X115023429Y-109499499D01*
X115015330Y-109498968D01*
X114980001Y-109494317D01*
X114980000Y-109494317D01*
X114940639Y-109499499D01*
X114852604Y-109511089D01*
X114823239Y-109514955D01*
X114823238Y-109514955D01*
X114677158Y-109575463D01*
X114551720Y-109671715D01*
X114530020Y-109699993D01*
X114524669Y-109706095D01*
X114313530Y-109917233D01*
X114252207Y-109950718D01*
X114193756Y-109949327D01*
X114065413Y-109914938D01*
X114065403Y-109914936D01*
X113830001Y-109894341D01*
X113829999Y-109894341D01*
X113594596Y-109914936D01*
X113594586Y-109914938D01*
X113366344Y-109976094D01*
X113366335Y-109976098D01*
X113152171Y-110075964D01*
X113152169Y-110075965D01*
X112958597Y-110211505D01*
X112791508Y-110378594D01*
X112661574Y-110564159D01*
X112606997Y-110607784D01*
X112537498Y-110614976D01*
X112475144Y-110583454D01*
X112458424Y-110564158D01*
X112328494Y-110378597D01*
X112161402Y-110211506D01*
X112161395Y-110211501D01*
X111967834Y-110075967D01*
X111967830Y-110075965D01*
X111896727Y-110042809D01*
X111753663Y-109976097D01*
X111753659Y-109976096D01*
X111753655Y-109976094D01*
X111525413Y-109914938D01*
X111525403Y-109914936D01*
X111290001Y-109894341D01*
X111289999Y-109894341D01*
X111054596Y-109914936D01*
X111054586Y-109914938D01*
X110826344Y-109976094D01*
X110826335Y-109976098D01*
X110612171Y-110075964D01*
X110612169Y-110075965D01*
X110418600Y-110211503D01*
X110296284Y-110333819D01*
X110234961Y-110367303D01*
X110165269Y-110362319D01*
X110109336Y-110320447D01*
X110092421Y-110289470D01*
X110043354Y-110157913D01*
X110043350Y-110157906D01*
X109957190Y-110042812D01*
X109957187Y-110042809D01*
X109842093Y-109956649D01*
X109842086Y-109956645D01*
X109707379Y-109906403D01*
X109707372Y-109906401D01*
X109647844Y-109900000D01*
X107852155Y-109900000D01*
X107792627Y-109906401D01*
X107792620Y-109906403D01*
X107657913Y-109956645D01*
X107657906Y-109956649D01*
X107542812Y-110042809D01*
X107542809Y-110042812D01*
X107456649Y-110157906D01*
X107456645Y-110157913D01*
X107406403Y-110292620D01*
X107406401Y-110292627D01*
X107400000Y-110352155D01*
X107400000Y-112147844D01*
X107406401Y-112207372D01*
X107406403Y-112207379D01*
X107456645Y-112342086D01*
X107456649Y-112342093D01*
X107542809Y-112457187D01*
X107542812Y-112457190D01*
X107657906Y-112543350D01*
X107657913Y-112543354D01*
X107792620Y-112593596D01*
X107792627Y-112593598D01*
X107852155Y-112599999D01*
X107852172Y-112600000D01*
X109647828Y-112600000D01*
X109647844Y-112599999D01*
X109707372Y-112593598D01*
X109707379Y-112593596D01*
X109842086Y-112543354D01*
X109842093Y-112543350D01*
X109957187Y-112457190D01*
X109957190Y-112457187D01*
X110043350Y-112342093D01*
X110043354Y-112342086D01*
X110092422Y-112210529D01*
X110134293Y-112154595D01*
X110199757Y-112130178D01*
X110268030Y-112145030D01*
X110296285Y-112166181D01*
X110418599Y-112288495D01*
X110493935Y-112341246D01*
X110612165Y-112424032D01*
X110612167Y-112424033D01*
X110612170Y-112424035D01*
X110826337Y-112523903D01*
X111054592Y-112585063D01*
X111225319Y-112600000D01*
X111289999Y-112605659D01*
X111290000Y-112605659D01*
X111290001Y-112605659D01*
X111354681Y-112600000D01*
X111525408Y-112585063D01*
X111753663Y-112523903D01*
X111967830Y-112424035D01*
X112161401Y-112288495D01*
X112328495Y-112121401D01*
X112448636Y-111949822D01*
X112458425Y-111935842D01*
X112513002Y-111892217D01*
X112582500Y-111885023D01*
X112644855Y-111916546D01*
X112661575Y-111935842D01*
X112737736Y-112044612D01*
X112791505Y-112121401D01*
X112958599Y-112288495D01*
X113033935Y-112341246D01*
X113152165Y-112424032D01*
X113152167Y-112424033D01*
X113152170Y-112424035D01*
X113366337Y-112523903D01*
X113594592Y-112585063D01*
X113765319Y-112600000D01*
X113829999Y-112605659D01*
X113830000Y-112605659D01*
X113830001Y-112605659D01*
X113894681Y-112600000D01*
X114065408Y-112585063D01*
X114293663Y-112523903D01*
X114507830Y-112424035D01*
X114701401Y-112288495D01*
X114868495Y-112121401D01*
X114988636Y-111949822D01*
X114998425Y-111935842D01*
X115053002Y-111892217D01*
X115122500Y-111885023D01*
X115184855Y-111916546D01*
X115201575Y-111935842D01*
X115277736Y-112044612D01*
X115331505Y-112121401D01*
X115498599Y-112288495D01*
X115573935Y-112341246D01*
X115692165Y-112424032D01*
X115692167Y-112424033D01*
X115692170Y-112424035D01*
X115906337Y-112523903D01*
X116134592Y-112585063D01*
X116305319Y-112600000D01*
X116369999Y-112605659D01*
X116370000Y-112605659D01*
X116370001Y-112605659D01*
X116434681Y-112600000D01*
X116605408Y-112585063D01*
X116729309Y-112551863D01*
X116733757Y-112550672D01*
X116803606Y-112552335D01*
X116853531Y-112582766D01*
X117164669Y-112893904D01*
X117170022Y-112900007D01*
X117184213Y-112918502D01*
X117191718Y-112928282D01*
X117273170Y-112990782D01*
X117317159Y-113024536D01*
X117317162Y-113024537D01*
X117317163Y-113024538D01*
X117390198Y-113054789D01*
X117463238Y-113085044D01*
X117541619Y-113095362D01*
X117619999Y-113105682D01*
X117620000Y-113105682D01*
X117655329Y-113101030D01*
X117663428Y-113100500D01*
X121384205Y-113100500D01*
X121451244Y-113120185D01*
X121471886Y-113136819D01*
X122663181Y-114328114D01*
X122696666Y-114389437D01*
X122699500Y-114415795D01*
X122699500Y-118025500D01*
X122679815Y-118092539D01*
X122627011Y-118138294D01*
X122575500Y-118149500D01*
X122406898Y-118149500D01*
X122369450Y-118153997D01*
X122314783Y-118160561D01*
X122285217Y-118160561D01*
X122230550Y-118153997D01*
X122193102Y-118149500D01*
X122006898Y-118149500D01*
X121969450Y-118153997D01*
X121914783Y-118160561D01*
X121885217Y-118160561D01*
X121830550Y-118153997D01*
X121793102Y-118149500D01*
X121606898Y-118149500D01*
X121569450Y-118153997D01*
X121518438Y-118160122D01*
X121377656Y-118215639D01*
X121257077Y-118307077D01*
X121165639Y-118427656D01*
X121110122Y-118568438D01*
X121104188Y-118617853D01*
X121099500Y-118656898D01*
X121099500Y-118656903D01*
X121099500Y-119075721D01*
X121079815Y-119142760D01*
X121027011Y-119188515D01*
X120971808Y-119198806D01*
X120971808Y-119199500D01*
X120968102Y-119199500D01*
X120156898Y-119199500D01*
X120117853Y-119204188D01*
X120068438Y-119210122D01*
X119927656Y-119265639D01*
X119807076Y-119357078D01*
X119761394Y-119417319D01*
X119705201Y-119458842D01*
X119635480Y-119463393D01*
X119574366Y-119429527D01*
X119541263Y-119367997D01*
X119539373Y-119356296D01*
X119535368Y-119320745D01*
X119475789Y-119150478D01*
X119470939Y-119142760D01*
X119428677Y-119075500D01*
X119379816Y-118997738D01*
X119252262Y-118870184D01*
X119179208Y-118824281D01*
X119099523Y-118774211D01*
X118929254Y-118714631D01*
X118929249Y-118714630D01*
X118750004Y-118694435D01*
X118749996Y-118694435D01*
X118570750Y-118714630D01*
X118570745Y-118714631D01*
X118400476Y-118774211D01*
X118247737Y-118870184D01*
X118120184Y-118997737D01*
X118024211Y-119150476D01*
X117964631Y-119320745D01*
X117964630Y-119320750D01*
X117944435Y-119499996D01*
X117944435Y-119500003D01*
X117964630Y-119679249D01*
X117966182Y-119686047D01*
X117964429Y-119686447D01*
X117967520Y-119747135D01*
X117932784Y-119807758D01*
X117870787Y-119839978D01*
X117807917Y-119836003D01*
X117652685Y-119784564D01*
X117652683Y-119784563D01*
X117554181Y-119774500D01*
X117554174Y-119774500D01*
X117020826Y-119774500D01*
X117020816Y-119774500D01*
X116935669Y-119783199D01*
X116866976Y-119770429D01*
X116816092Y-119722549D01*
X116799171Y-119654759D01*
X116817528Y-119594745D01*
X116837549Y-119562287D01*
X116890436Y-119402685D01*
X116900500Y-119304174D01*
X116900500Y-118695826D01*
X116890436Y-118597315D01*
X116837549Y-118437713D01*
X116837545Y-118437707D01*
X116837544Y-118437704D01*
X116749283Y-118294612D01*
X116749280Y-118294608D01*
X116667353Y-118212681D01*
X116633868Y-118151358D01*
X116638852Y-118081666D01*
X116667353Y-118037319D01*
X116706935Y-117997737D01*
X116749281Y-117955391D01*
X116837549Y-117812287D01*
X116890436Y-117652685D01*
X116900500Y-117554174D01*
X116900500Y-116945826D01*
X116890436Y-116847315D01*
X116837549Y-116687713D01*
X116837545Y-116687707D01*
X116837544Y-116687704D01*
X116749283Y-116544612D01*
X116749280Y-116544608D01*
X116630391Y-116425719D01*
X116630387Y-116425716D01*
X116487295Y-116337455D01*
X116487289Y-116337452D01*
X116487287Y-116337451D01*
X116327685Y-116284564D01*
X116327683Y-116284563D01*
X116229181Y-116274500D01*
X116229174Y-116274500D01*
X115695826Y-116274500D01*
X115695818Y-116274500D01*
X115597316Y-116284563D01*
X115597315Y-116284564D01*
X115527130Y-116307821D01*
X115437715Y-116337450D01*
X115437710Y-116337452D01*
X115291083Y-116427894D01*
X115239870Y-116445575D01*
X115070749Y-116464630D01*
X115070745Y-116464631D01*
X114900476Y-116524211D01*
X114747737Y-116620184D01*
X114620184Y-116747737D01*
X114524211Y-116900476D01*
X114464631Y-117070745D01*
X114464630Y-117070750D01*
X114444435Y-117249996D01*
X114444435Y-117250003D01*
X114464630Y-117429249D01*
X114464631Y-117429254D01*
X114524211Y-117599523D01*
X114583849Y-117694435D01*
X114620184Y-117752262D01*
X114747738Y-117879816D01*
X114900478Y-117975789D01*
X114963202Y-117997737D01*
X115070745Y-118035368D01*
X115070749Y-118035369D01*
X115142208Y-118043420D01*
X115206622Y-118070486D01*
X115246177Y-118128080D01*
X115248316Y-118197917D01*
X115216007Y-118254320D01*
X115175719Y-118294608D01*
X115175716Y-118294612D01*
X115087455Y-118437704D01*
X115087450Y-118437715D01*
X115072872Y-118481708D01*
X115034564Y-118597315D01*
X115034564Y-118597316D01*
X115034563Y-118597316D01*
X115024500Y-118695818D01*
X115024499Y-118695832D01*
X115024499Y-118754193D01*
X115004813Y-118821232D01*
X114988180Y-118841872D01*
X114651775Y-119178277D01*
X114590452Y-119211762D01*
X114577988Y-119213815D01*
X114570752Y-119214630D01*
X114570744Y-119214632D01*
X114400478Y-119274210D01*
X114247737Y-119370184D01*
X114120184Y-119497737D01*
X114024211Y-119650476D01*
X113964631Y-119820745D01*
X113964630Y-119820750D01*
X113944435Y-119999996D01*
X113944435Y-120000003D01*
X113964630Y-120179249D01*
X113964631Y-120179254D01*
X114024211Y-120349523D01*
X114083671Y-120444152D01*
X114120184Y-120502262D01*
X114247738Y-120629816D01*
X114400478Y-120725789D01*
X114509256Y-120763852D01*
X114570745Y-120785368D01*
X114570750Y-120785369D01*
X114629609Y-120792000D01*
X114664382Y-120795918D01*
X114728796Y-120822984D01*
X114768352Y-120880578D01*
X114774500Y-120919138D01*
X114774500Y-121054181D01*
X114784563Y-121152683D01*
X114837450Y-121312284D01*
X114837452Y-121312289D01*
X114897970Y-121410403D01*
X114916410Y-121477796D01*
X114895487Y-121544459D01*
X114841846Y-121589229D01*
X114792432Y-121599500D01*
X114652130Y-121599500D01*
X114652123Y-121599501D01*
X114592516Y-121605908D01*
X114457671Y-121656202D01*
X114457664Y-121656206D01*
X114342455Y-121742452D01*
X114342452Y-121742455D01*
X114256206Y-121857664D01*
X114256202Y-121857671D01*
X114205908Y-121992517D01*
X114199501Y-122052116D01*
X114199500Y-122052135D01*
X114199500Y-123947870D01*
X114199501Y-123947876D01*
X114205908Y-124007483D01*
X114256202Y-124142328D01*
X114256206Y-124142335D01*
X114342452Y-124257544D01*
X114342455Y-124257547D01*
X114457664Y-124343793D01*
X114457671Y-124343797D01*
X114592517Y-124394091D01*
X114592516Y-124394091D01*
X114599444Y-124394835D01*
X114652127Y-124400500D01*
X115799902Y-124400499D01*
X115866941Y-124420184D01*
X115887583Y-124436818D01*
X116044670Y-124593905D01*
X116050021Y-124600006D01*
X116071719Y-124628283D01*
X116164578Y-124699536D01*
X116197160Y-124724537D01*
X116343239Y-124785045D01*
X116421620Y-124795364D01*
X116500000Y-124805683D01*
X116500001Y-124805683D01*
X116535330Y-124801031D01*
X116543429Y-124800501D01*
X117356601Y-124800501D01*
X117423640Y-124820186D01*
X117469395Y-124872990D01*
X117479339Y-124942148D01*
X117450314Y-125005704D01*
X117444290Y-125012174D01*
X117369014Y-125087450D01*
X117306096Y-125150368D01*
X117299994Y-125155719D01*
X117271716Y-125177418D01*
X117204024Y-125265638D01*
X117204024Y-125265639D01*
X117181795Y-125294609D01*
X117175462Y-125302862D01*
X117175461Y-125302863D01*
X117114957Y-125448934D01*
X117114956Y-125448938D01*
X117108479Y-125498131D01*
X117080211Y-125562027D01*
X117021886Y-125600498D01*
X116998795Y-125605233D01*
X116992520Y-125605907D01*
X116857671Y-125656202D01*
X116857664Y-125656206D01*
X116742455Y-125742452D01*
X116742452Y-125742455D01*
X116656206Y-125857664D01*
X116656202Y-125857671D01*
X116616182Y-125964972D01*
X116574311Y-126020906D01*
X116508846Y-126045323D01*
X116440573Y-126030471D01*
X116391168Y-125981066D01*
X116383818Y-125964972D01*
X116343797Y-125857671D01*
X116343793Y-125857664D01*
X116257547Y-125742455D01*
X116257544Y-125742452D01*
X116142335Y-125656206D01*
X116142328Y-125656202D01*
X116007482Y-125605908D01*
X116007483Y-125605908D01*
X115947883Y-125599501D01*
X115947881Y-125599500D01*
X115947873Y-125599500D01*
X115947864Y-125599500D01*
X114652129Y-125599500D01*
X114652123Y-125599501D01*
X114592516Y-125605908D01*
X114457671Y-125656202D01*
X114457664Y-125656206D01*
X114342455Y-125742452D01*
X114342452Y-125742455D01*
X114256206Y-125857664D01*
X114256202Y-125857671D01*
X114205908Y-125992517D01*
X114199501Y-126052116D01*
X114199500Y-126052135D01*
X114199500Y-127947870D01*
X114199501Y-127947876D01*
X114205908Y-128007483D01*
X114256202Y-128142328D01*
X114256206Y-128142335D01*
X114342452Y-128257544D01*
X114342455Y-128257547D01*
X114457664Y-128343793D01*
X114457671Y-128343797D01*
X114502618Y-128360560D01*
X114592517Y-128394091D01*
X114652127Y-128400500D01*
X114792432Y-128400499D01*
X114859470Y-128420183D01*
X114905225Y-128472987D01*
X114915169Y-128542145D01*
X114897970Y-128589595D01*
X114837454Y-128687706D01*
X114837450Y-128687715D01*
X114810773Y-128768219D01*
X114784564Y-128847315D01*
X114784564Y-128847316D01*
X114784563Y-128847316D01*
X114774500Y-128945818D01*
X114774500Y-129554181D01*
X114784563Y-129652683D01*
X114837450Y-129812284D01*
X114837455Y-129812295D01*
X114925716Y-129955387D01*
X114925719Y-129955391D01*
X115044608Y-130074280D01*
X115044612Y-130074283D01*
X115187704Y-130162544D01*
X115187707Y-130162545D01*
X115187713Y-130162549D01*
X115347315Y-130215436D01*
X115445826Y-130225500D01*
X115445831Y-130225500D01*
X115979169Y-130225500D01*
X115979174Y-130225500D01*
X116077685Y-130215436D01*
X116237287Y-130162549D01*
X116380391Y-130074281D01*
X116412319Y-130042353D01*
X116473642Y-130008868D01*
X116543334Y-130013852D01*
X116587681Y-130042353D01*
X116619609Y-130074281D01*
X116623687Y-130077506D01*
X116664061Y-130134530D01*
X116667197Y-130204329D01*
X116634453Y-130262450D01*
X112033724Y-134863181D01*
X111972401Y-134896666D01*
X111946043Y-134899500D01*
X103780928Y-134899500D01*
X103772829Y-134898969D01*
X103737500Y-134894318D01*
X103737499Y-134894318D01*
X103532514Y-134921304D01*
X103509968Y-134943583D01*
X103498645Y-134948960D01*
X103434659Y-134975464D01*
X103309214Y-135071721D01*
X103287524Y-135099990D01*
X103282171Y-135106094D01*
X100377645Y-138010618D01*
X100328969Y-138040643D01*
X100187713Y-138087451D01*
X100187704Y-138087455D01*
X100044612Y-138175716D01*
X100044608Y-138175719D01*
X99925719Y-138294608D01*
X99925716Y-138294612D01*
X99837455Y-138437704D01*
X99837450Y-138437715D01*
X99825545Y-138473642D01*
X99784564Y-138597315D01*
X99784564Y-138597316D01*
X99784563Y-138597316D01*
X99774500Y-138695818D01*
X99774500Y-138966691D01*
X99754815Y-139033730D01*
X99738181Y-139054372D01*
X99100484Y-139692068D01*
X99087910Y-139702143D01*
X99088065Y-139702330D01*
X99082059Y-139707298D01*
X99060398Y-139730365D01*
X99032809Y-139759744D01*
X99021949Y-139770604D01*
X99011088Y-139781465D01*
X99011078Y-139781477D01*
X99006587Y-139787265D01*
X99002801Y-139791697D01*
X98969552Y-139827106D01*
X98959322Y-139845713D01*
X98948646Y-139861964D01*
X98935640Y-139878732D01*
X98935636Y-139878738D01*
X98916348Y-139923311D01*
X98913777Y-139928558D01*
X98890372Y-139971130D01*
X98890372Y-139971131D01*
X98885091Y-139991699D01*
X98878791Y-140010101D01*
X98870364Y-140029573D01*
X98862766Y-140077547D01*
X98861581Y-140083270D01*
X98849500Y-140130318D01*
X98849500Y-140151544D01*
X98847973Y-140170944D01*
X98844652Y-140191905D01*
X98844643Y-140192213D01*
X98844567Y-140192442D01*
X98843432Y-140199612D01*
X98842275Y-140199428D01*
X98822858Y-140258599D01*
X98779723Y-140297364D01*
X98731376Y-140323528D01*
X98731365Y-140323535D01*
X98548222Y-140466081D01*
X98548219Y-140466084D01*
X98391016Y-140636852D01*
X98264075Y-140831151D01*
X98170842Y-141043699D01*
X98113866Y-141268691D01*
X98113864Y-141268702D01*
X98094700Y-141499993D01*
X98094700Y-141500006D01*
X98113864Y-141731297D01*
X98113866Y-141731308D01*
X98170842Y-141956300D01*
X98264075Y-142168848D01*
X98391016Y-142363147D01*
X98391019Y-142363151D01*
X98391021Y-142363153D01*
X98548216Y-142533913D01*
X98548219Y-142533915D01*
X98548222Y-142533918D01*
X98731365Y-142676464D01*
X98731371Y-142676468D01*
X98731374Y-142676470D01*
X98935497Y-142786936D01*
X99049487Y-142826068D01*
X99155015Y-142862297D01*
X99155017Y-142862297D01*
X99155019Y-142862298D01*
X99383951Y-142900500D01*
X99383952Y-142900500D01*
X99616048Y-142900500D01*
X99616049Y-142900500D01*
X99844981Y-142862298D01*
X100064503Y-142786936D01*
X100268626Y-142676470D01*
X100451784Y-142533913D01*
X100608979Y-142363153D01*
X100646190Y-142306196D01*
X100699337Y-142260839D01*
X100768569Y-142251415D01*
X100831904Y-142280917D01*
X100853809Y-142306196D01*
X100891016Y-142363147D01*
X100891019Y-142363151D01*
X100891021Y-142363153D01*
X101048216Y-142533913D01*
X101048219Y-142533915D01*
X101048222Y-142533918D01*
X101231365Y-142676464D01*
X101231371Y-142676468D01*
X101231374Y-142676470D01*
X101435497Y-142786936D01*
X101549487Y-142826068D01*
X101655015Y-142862297D01*
X101655017Y-142862297D01*
X101655019Y-142862298D01*
X101883951Y-142900500D01*
X101883952Y-142900500D01*
X102116048Y-142900500D01*
X102116049Y-142900500D01*
X102344981Y-142862298D01*
X102564503Y-142786936D01*
X102768626Y-142676470D01*
X102951784Y-142533913D01*
X103108979Y-142363153D01*
X103146190Y-142306196D01*
X103199337Y-142260839D01*
X103268569Y-142251415D01*
X103331904Y-142280917D01*
X103353809Y-142306196D01*
X103391016Y-142363147D01*
X103391019Y-142363151D01*
X103391021Y-142363153D01*
X103548216Y-142533913D01*
X103548219Y-142533915D01*
X103548222Y-142533918D01*
X103731365Y-142676464D01*
X103731371Y-142676468D01*
X103731374Y-142676470D01*
X103935497Y-142786936D01*
X104049487Y-142826068D01*
X104155015Y-142862297D01*
X104155017Y-142862297D01*
X104155019Y-142862298D01*
X104383951Y-142900500D01*
X104383952Y-142900500D01*
X104616048Y-142900500D01*
X104616049Y-142900500D01*
X104844981Y-142862298D01*
X105064503Y-142786936D01*
X105268626Y-142676470D01*
X105451784Y-142533913D01*
X105608979Y-142363153D01*
X105735924Y-142168849D01*
X105829157Y-141956300D01*
X105886134Y-141731305D01*
X105886149Y-141731128D01*
X105905300Y-141500006D01*
X105905300Y-141499993D01*
X105886135Y-141268702D01*
X105886133Y-141268691D01*
X105829157Y-141043699D01*
X105735924Y-140831151D01*
X105608983Y-140636852D01*
X105608980Y-140636849D01*
X105608979Y-140636847D01*
X105451784Y-140466087D01*
X105451779Y-140466083D01*
X105451777Y-140466081D01*
X105268634Y-140323535D01*
X105268628Y-140323531D01*
X105064504Y-140213064D01*
X105064495Y-140213061D01*
X104844984Y-140137702D01*
X104673281Y-140109050D01*
X104616049Y-140099500D01*
X104549096Y-140099500D01*
X104482057Y-140079815D01*
X104436302Y-140027011D01*
X104426358Y-139957853D01*
X104455383Y-139894297D01*
X104461415Y-139887819D01*
X106054623Y-138294612D01*
X107812405Y-136536829D01*
X107873729Y-136503344D01*
X107900087Y-136500510D01*
X112368401Y-136500510D01*
X112376499Y-136501040D01*
X112411829Y-136505692D01*
X112411830Y-136505692D01*
X112472246Y-136497738D01*
X112568591Y-136485054D01*
X112714670Y-136424546D01*
X112804074Y-136355944D01*
X112840111Y-136328292D01*
X112861808Y-136300013D01*
X112867153Y-136293918D01*
X114202450Y-134958623D01*
X114261009Y-134900064D01*
X114261022Y-134900049D01*
X119543932Y-129617140D01*
X119550009Y-129611812D01*
X119578292Y-129590111D01*
X119674546Y-129464670D01*
X119735054Y-129318591D01*
X119750510Y-129201190D01*
X119755692Y-129161829D01*
X119754508Y-129152839D01*
X119751041Y-129126502D01*
X119750510Y-129118400D01*
X119750510Y-126924500D01*
X119770195Y-126857461D01*
X119822999Y-126811706D01*
X119874510Y-126800500D01*
X120971808Y-126800500D01*
X120971808Y-126801363D01*
X121036155Y-126816126D01*
X121084997Y-126866088D01*
X121099499Y-126924278D01*
X121099499Y-129225500D01*
X121079814Y-129292539D01*
X121027010Y-129338294D01*
X120975499Y-129349500D01*
X120445818Y-129349500D01*
X120347316Y-129359563D01*
X120347315Y-129359564D01*
X120268837Y-129385569D01*
X120187715Y-129412450D01*
X120187704Y-129412455D01*
X120044612Y-129500716D01*
X120044608Y-129500719D01*
X119925719Y-129619608D01*
X119925716Y-129619612D01*
X119837455Y-129762704D01*
X119837450Y-129762715D01*
X119821025Y-129812284D01*
X119784564Y-129922315D01*
X119784564Y-129922316D01*
X119784563Y-129922316D01*
X119774500Y-130020818D01*
X119774500Y-130554181D01*
X119784563Y-130652683D01*
X119837450Y-130812284D01*
X119837455Y-130812295D01*
X119927894Y-130958918D01*
X119945576Y-131010132D01*
X119964630Y-131179249D01*
X119964631Y-131179254D01*
X120024211Y-131349523D01*
X120096539Y-131464632D01*
X120120184Y-131502262D01*
X120247738Y-131629816D01*
X120400478Y-131725789D01*
X120463205Y-131747738D01*
X120570745Y-131785368D01*
X120570750Y-131785369D01*
X120749996Y-131805565D01*
X120750000Y-131805565D01*
X120750004Y-131805565D01*
X120889908Y-131789801D01*
X120929255Y-131785368D01*
X120934540Y-131783518D01*
X121004311Y-131779951D01*
X121064942Y-131814674D01*
X121097175Y-131876664D01*
X121099499Y-131900557D01*
X121099499Y-135499902D01*
X121079814Y-135566941D01*
X121063180Y-135587583D01*
X118606096Y-138044668D01*
X118599994Y-138050019D01*
X118571716Y-138071719D01*
X118489949Y-138178281D01*
X118475464Y-138197158D01*
X118475461Y-138197163D01*
X118414957Y-138343234D01*
X118414955Y-138343239D01*
X118394318Y-138499998D01*
X118394318Y-138500004D01*
X118398968Y-138535328D01*
X118399499Y-138543428D01*
X118399500Y-140158655D01*
X118379815Y-140225694D01*
X118334519Y-140267709D01*
X118231376Y-140323528D01*
X118231365Y-140323535D01*
X118048222Y-140466081D01*
X118048219Y-140466084D01*
X118048216Y-140466086D01*
X118048216Y-140466087D01*
X117920916Y-140604372D01*
X117915730Y-140610006D01*
X117855843Y-140645996D01*
X117786005Y-140643896D01*
X117728389Y-140604372D01*
X117701287Y-140539973D01*
X117700500Y-140526023D01*
X117700500Y-140130534D01*
X117720185Y-140063495D01*
X117736819Y-140042853D01*
X117778526Y-140001146D01*
X117824281Y-139955391D01*
X117912549Y-139812287D01*
X117965436Y-139652685D01*
X117975500Y-139554174D01*
X117975500Y-139020826D01*
X117965436Y-138922315D01*
X117912549Y-138762713D01*
X117912545Y-138762707D01*
X117912544Y-138762704D01*
X117824283Y-138619612D01*
X117824280Y-138619608D01*
X117792353Y-138587681D01*
X117758868Y-138526358D01*
X117763852Y-138456666D01*
X117792353Y-138412319D01*
X117792352Y-138412319D01*
X117824281Y-138380391D01*
X117912549Y-138237287D01*
X117965436Y-138077685D01*
X117975500Y-137979174D01*
X117975500Y-137445826D01*
X117965436Y-137347315D01*
X117912549Y-137187713D01*
X117912545Y-137187707D01*
X117912544Y-137187704D01*
X117822105Y-137041081D01*
X117804423Y-136989867D01*
X117785369Y-136820750D01*
X117785368Y-136820745D01*
X117725788Y-136650476D01*
X117670141Y-136561915D01*
X117629816Y-136497738D01*
X117502262Y-136370184D01*
X117435593Y-136328293D01*
X117349523Y-136274211D01*
X117179254Y-136214631D01*
X117179249Y-136214630D01*
X117000004Y-136194435D01*
X116999996Y-136194435D01*
X116820750Y-136214630D01*
X116820745Y-136214631D01*
X116650476Y-136274211D01*
X116497737Y-136370184D01*
X116370184Y-136497737D01*
X116274211Y-136650476D01*
X116214631Y-136820745D01*
X116214630Y-136820749D01*
X116195575Y-136989870D01*
X116177894Y-137041083D01*
X116087452Y-137187710D01*
X116087450Y-137187715D01*
X116080118Y-137209843D01*
X116034564Y-137347315D01*
X116034564Y-137347316D01*
X116034563Y-137347316D01*
X116024500Y-137445818D01*
X116024500Y-137979181D01*
X116034563Y-138077683D01*
X116087450Y-138237284D01*
X116087455Y-138237295D01*
X116175716Y-138380387D01*
X116175719Y-138380391D01*
X116207647Y-138412319D01*
X116241132Y-138473642D01*
X116236148Y-138543334D01*
X116207647Y-138587681D01*
X116175719Y-138619608D01*
X116175716Y-138619612D01*
X116087455Y-138762704D01*
X116087450Y-138762715D01*
X116075063Y-138800096D01*
X116034564Y-138922315D01*
X116034564Y-138922316D01*
X116034563Y-138922316D01*
X116024500Y-139020818D01*
X116024500Y-139554181D01*
X116034563Y-139652683D01*
X116087450Y-139812284D01*
X116087455Y-139812295D01*
X116175718Y-139955390D01*
X116176083Y-139955852D01*
X116176234Y-139956227D01*
X116179510Y-139961538D01*
X116178602Y-139962097D01*
X116202221Y-140020649D01*
X116189178Y-140089290D01*
X116141095Y-140139983D01*
X116119077Y-140150040D01*
X115935504Y-140213061D01*
X115935495Y-140213064D01*
X115731371Y-140323531D01*
X115731365Y-140323535D01*
X115548222Y-140466081D01*
X115548219Y-140466084D01*
X115391016Y-140636852D01*
X115264075Y-140831151D01*
X115170842Y-141043699D01*
X115113866Y-141268691D01*
X115113864Y-141268702D01*
X115094700Y-141499993D01*
X115094700Y-141500006D01*
X115113864Y-141731297D01*
X115113866Y-141731308D01*
X115170842Y-141956300D01*
X115264075Y-142168848D01*
X115391016Y-142363147D01*
X115391019Y-142363151D01*
X115391021Y-142363153D01*
X115548216Y-142533913D01*
X115548219Y-142533915D01*
X115548222Y-142533918D01*
X115731365Y-142676464D01*
X115731371Y-142676468D01*
X115731374Y-142676470D01*
X115935497Y-142786936D01*
X116049487Y-142826068D01*
X116155015Y-142862297D01*
X116155017Y-142862297D01*
X116155019Y-142862298D01*
X116383951Y-142900500D01*
X116383952Y-142900500D01*
X116616048Y-142900500D01*
X116616049Y-142900500D01*
X116844981Y-142862298D01*
X117064503Y-142786936D01*
X117268626Y-142676470D01*
X117451784Y-142533913D01*
X117608979Y-142363153D01*
X117646190Y-142306196D01*
X117699337Y-142260839D01*
X117768569Y-142251415D01*
X117831904Y-142280917D01*
X117853809Y-142306196D01*
X117891016Y-142363147D01*
X117891019Y-142363151D01*
X117891021Y-142363153D01*
X118048216Y-142533913D01*
X118048219Y-142533915D01*
X118048222Y-142533918D01*
X118231365Y-142676464D01*
X118231371Y-142676468D01*
X118231374Y-142676470D01*
X118435497Y-142786936D01*
X118549487Y-142826068D01*
X118655015Y-142862297D01*
X118655017Y-142862297D01*
X118655019Y-142862298D01*
X118883951Y-142900500D01*
X118883952Y-142900500D01*
X119116048Y-142900500D01*
X119116049Y-142900500D01*
X119344981Y-142862298D01*
X119564503Y-142786936D01*
X119768626Y-142676470D01*
X119951784Y-142533913D01*
X120108979Y-142363153D01*
X120146190Y-142306196D01*
X120199337Y-142260839D01*
X120268569Y-142251415D01*
X120331904Y-142280917D01*
X120353809Y-142306196D01*
X120391016Y-142363147D01*
X120391019Y-142363151D01*
X120391021Y-142363153D01*
X120548216Y-142533913D01*
X120548219Y-142533915D01*
X120548222Y-142533918D01*
X120731365Y-142676464D01*
X120731371Y-142676468D01*
X120731374Y-142676470D01*
X120935497Y-142786936D01*
X121049487Y-142826068D01*
X121155015Y-142862297D01*
X121155017Y-142862297D01*
X121155019Y-142862298D01*
X121383951Y-142900500D01*
X121383952Y-142900500D01*
X121616048Y-142900500D01*
X121616049Y-142900500D01*
X121844981Y-142862298D01*
X122064503Y-142786936D01*
X122268626Y-142676470D01*
X122451784Y-142533913D01*
X122608979Y-142363153D01*
X122735924Y-142168849D01*
X122829157Y-141956300D01*
X122886134Y-141731305D01*
X122886149Y-141731128D01*
X122905300Y-141500006D01*
X122905300Y-141499993D01*
X122886135Y-141268702D01*
X122886133Y-141268691D01*
X122829157Y-141043699D01*
X122735924Y-140831151D01*
X122608983Y-140636852D01*
X122608980Y-140636849D01*
X122608979Y-140636847D01*
X122451784Y-140466087D01*
X122451779Y-140466083D01*
X122451777Y-140466081D01*
X122268634Y-140323535D01*
X122268628Y-140323531D01*
X122064504Y-140213064D01*
X122064495Y-140213061D01*
X121844984Y-140137702D01*
X121673281Y-140109050D01*
X121616049Y-140099500D01*
X121383951Y-140099500D01*
X121338164Y-140107140D01*
X121155015Y-140137702D01*
X120935504Y-140213061D01*
X120935495Y-140213064D01*
X120731371Y-140323531D01*
X120731365Y-140323535D01*
X120548222Y-140466081D01*
X120548219Y-140466084D01*
X120548216Y-140466086D01*
X120548216Y-140466087D01*
X120420917Y-140604372D01*
X120391015Y-140636854D01*
X120353808Y-140693804D01*
X120300662Y-140739161D01*
X120231430Y-140748584D01*
X120168095Y-140719082D01*
X120146192Y-140693804D01*
X120108984Y-140636854D01*
X120108982Y-140636852D01*
X120108979Y-140636847D01*
X119951784Y-140466087D01*
X119951779Y-140466083D01*
X119951777Y-140466081D01*
X119768634Y-140323535D01*
X119768623Y-140323528D01*
X119665481Y-140267709D01*
X119615891Y-140218489D01*
X119600500Y-140158655D01*
X119600500Y-138800096D01*
X119620185Y-138733057D01*
X119636814Y-138712420D01*
X121787320Y-136561913D01*
X121848641Y-136528430D01*
X121918333Y-136533414D01*
X121962677Y-136561913D01*
X122544678Y-137143913D01*
X122550023Y-137150009D01*
X122571719Y-137178283D01*
X122697337Y-137274674D01*
X122699032Y-137275312D01*
X122843238Y-137335044D01*
X122921619Y-137345362D01*
X122999999Y-137355682D01*
X123000000Y-137355682D01*
X123035329Y-137351030D01*
X123043428Y-137350500D01*
X132616937Y-137350500D01*
X132683976Y-137370185D01*
X132729731Y-137422989D01*
X132739675Y-137492147D01*
X132733978Y-137515455D01*
X132714633Y-137570737D01*
X132714630Y-137570750D01*
X132694435Y-137749996D01*
X132694435Y-137750003D01*
X132714630Y-137929249D01*
X132714631Y-137929254D01*
X132774211Y-138099523D01*
X132823699Y-138178282D01*
X132870184Y-138252262D01*
X132997738Y-138379816D01*
X133150478Y-138475789D01*
X133221724Y-138500719D01*
X133320745Y-138535368D01*
X133320750Y-138535369D01*
X133506919Y-138556345D01*
X133506559Y-138559532D01*
X133560086Y-138575250D01*
X133605841Y-138628054D01*
X133615785Y-138697212D01*
X133598586Y-138744659D01*
X133587457Y-138762704D01*
X133587451Y-138762713D01*
X133587450Y-138762715D01*
X133575063Y-138800096D01*
X133534564Y-138922315D01*
X133534564Y-138922316D01*
X133534563Y-138922316D01*
X133524500Y-139020818D01*
X133524500Y-139554181D01*
X133534563Y-139652683D01*
X133587450Y-139812284D01*
X133587452Y-139812289D01*
X133647970Y-139910403D01*
X133666410Y-139977796D01*
X133645487Y-140044459D01*
X133591846Y-140089229D01*
X133542431Y-140099500D01*
X133383951Y-140099500D01*
X133338164Y-140107140D01*
X133155015Y-140137702D01*
X132935504Y-140213061D01*
X132935495Y-140213064D01*
X132731371Y-140323531D01*
X132731365Y-140323535D01*
X132548222Y-140466081D01*
X132548219Y-140466084D01*
X132391016Y-140636852D01*
X132264075Y-140831151D01*
X132170842Y-141043699D01*
X132113866Y-141268691D01*
X132113864Y-141268702D01*
X132094700Y-141499993D01*
X132094700Y-141500006D01*
X132113864Y-141731297D01*
X132113866Y-141731308D01*
X132170842Y-141956300D01*
X132264075Y-142168848D01*
X132391016Y-142363147D01*
X132391019Y-142363151D01*
X132391021Y-142363153D01*
X132548216Y-142533913D01*
X132548219Y-142533915D01*
X132548222Y-142533918D01*
X132731365Y-142676464D01*
X132731371Y-142676468D01*
X132731374Y-142676470D01*
X132935497Y-142786936D01*
X133049487Y-142826068D01*
X133155015Y-142862297D01*
X133155017Y-142862297D01*
X133155019Y-142862298D01*
X133383951Y-142900500D01*
X133383952Y-142900500D01*
X133616048Y-142900500D01*
X133616049Y-142900500D01*
X133844981Y-142862298D01*
X134064503Y-142786936D01*
X134268626Y-142676470D01*
X134451784Y-142533913D01*
X134608979Y-142363153D01*
X134646190Y-142306196D01*
X134699337Y-142260839D01*
X134768569Y-142251415D01*
X134831904Y-142280917D01*
X134853809Y-142306196D01*
X134891016Y-142363147D01*
X134891019Y-142363151D01*
X134891021Y-142363153D01*
X135048216Y-142533913D01*
X135048219Y-142533915D01*
X135048222Y-142533918D01*
X135231365Y-142676464D01*
X135231371Y-142676468D01*
X135231374Y-142676470D01*
X135435497Y-142786936D01*
X135549487Y-142826068D01*
X135655015Y-142862297D01*
X135655017Y-142862297D01*
X135655019Y-142862298D01*
X135883951Y-142900500D01*
X135883952Y-142900500D01*
X136116048Y-142900500D01*
X136116049Y-142900500D01*
X136344981Y-142862298D01*
X136564503Y-142786936D01*
X136768626Y-142676470D01*
X136951784Y-142533913D01*
X137108979Y-142363153D01*
X137146190Y-142306196D01*
X137199337Y-142260839D01*
X137268569Y-142251415D01*
X137331904Y-142280917D01*
X137353809Y-142306196D01*
X137391016Y-142363147D01*
X137391019Y-142363151D01*
X137391021Y-142363153D01*
X137548216Y-142533913D01*
X137548219Y-142533915D01*
X137548222Y-142533918D01*
X137731365Y-142676464D01*
X137731371Y-142676468D01*
X137731374Y-142676470D01*
X137935497Y-142786936D01*
X138049487Y-142826068D01*
X138155015Y-142862297D01*
X138155017Y-142862297D01*
X138155019Y-142862298D01*
X138250000Y-142878147D01*
X138250000Y-147221236D01*
X138204464Y-147292990D01*
X138204461Y-147292996D01*
X138070499Y-147577678D01*
X138070497Y-147577683D01*
X137973270Y-147876916D01*
X137914311Y-148185988D01*
X137914310Y-148185995D01*
X137894556Y-148499994D01*
X137894556Y-148500005D01*
X137914310Y-148814004D01*
X137914311Y-148814011D01*
X137973270Y-149123083D01*
X138070497Y-149422316D01*
X138070499Y-149422321D01*
X138204461Y-149707003D01*
X138204464Y-149707009D01*
X138250000Y-149778762D01*
X138250000Y-154974500D01*
X93385557Y-154974500D01*
X93318518Y-154954815D01*
X93272763Y-154902011D01*
X93262819Y-154832853D01*
X93291844Y-154769297D01*
X93341118Y-154734736D01*
X93425736Y-154702255D01*
X93752652Y-154535682D01*
X94060366Y-154335851D01*
X94345506Y-154104949D01*
X94604949Y-153845506D01*
X94835851Y-153560366D01*
X95035682Y-153252652D01*
X95202255Y-152925736D01*
X95333742Y-152583199D01*
X95428705Y-152228794D01*
X95486102Y-151866404D01*
X95505304Y-151500000D01*
X95486102Y-151133596D01*
X95428705Y-150771206D01*
X95333742Y-150416801D01*
X95202255Y-150074264D01*
X95035682Y-149747348D01*
X95009486Y-149707009D01*
X94835852Y-149439635D01*
X94604952Y-149154498D01*
X94604949Y-149154494D01*
X94345506Y-148895051D01*
X94060366Y-148664149D01*
X94060364Y-148664147D01*
X93807606Y-148500005D01*
X95094556Y-148500005D01*
X95114310Y-148814004D01*
X95114311Y-148814011D01*
X95173270Y-149123083D01*
X95270497Y-149422316D01*
X95270499Y-149422321D01*
X95404461Y-149707003D01*
X95404464Y-149707009D01*
X95573051Y-149972661D01*
X95573054Y-149972665D01*
X95773606Y-150215090D01*
X95773608Y-150215092D01*
X96002968Y-150430476D01*
X96002978Y-150430484D01*
X96257504Y-150615408D01*
X96257509Y-150615410D01*
X96257516Y-150615416D01*
X96533234Y-150766994D01*
X96533239Y-150766996D01*
X96533241Y-150766997D01*
X96533242Y-150766998D01*
X96825771Y-150882818D01*
X96825774Y-150882819D01*
X97130523Y-150961065D01*
X97130527Y-150961066D01*
X97196010Y-150969338D01*
X97442670Y-151000499D01*
X97442679Y-151000499D01*
X97442682Y-151000500D01*
X97442684Y-151000500D01*
X97757316Y-151000500D01*
X97757318Y-151000500D01*
X97757321Y-151000499D01*
X97757329Y-151000499D01*
X97943593Y-150976968D01*
X98069473Y-150961066D01*
X98374225Y-150882819D01*
X98374228Y-150882818D01*
X98666757Y-150766998D01*
X98666758Y-150766997D01*
X98666756Y-150766997D01*
X98666766Y-150766994D01*
X98942484Y-150615416D01*
X99197030Y-150430478D01*
X99426390Y-150215094D01*
X99626947Y-149972663D01*
X99795537Y-149707007D01*
X99929503Y-149422315D01*
X100026731Y-149123079D01*
X100085688Y-148814015D01*
X100105444Y-148500005D01*
X103894556Y-148500005D01*
X103914310Y-148814004D01*
X103914311Y-148814011D01*
X103973270Y-149123083D01*
X104070497Y-149422316D01*
X104070499Y-149422321D01*
X104204461Y-149707003D01*
X104204464Y-149707009D01*
X104373051Y-149972661D01*
X104373054Y-149972665D01*
X104573606Y-150215090D01*
X104573608Y-150215092D01*
X104802968Y-150430476D01*
X104802978Y-150430484D01*
X105057504Y-150615408D01*
X105057509Y-150615410D01*
X105057516Y-150615416D01*
X105333234Y-150766994D01*
X105333239Y-150766996D01*
X105333241Y-150766997D01*
X105333242Y-150766998D01*
X105625771Y-150882818D01*
X105625774Y-150882819D01*
X105930523Y-150961065D01*
X105930527Y-150961066D01*
X105996010Y-150969338D01*
X106242670Y-151000499D01*
X106242679Y-151000499D01*
X106242682Y-151000500D01*
X106242684Y-151000500D01*
X106557316Y-151000500D01*
X106557318Y-151000500D01*
X106557321Y-151000499D01*
X106557329Y-151000499D01*
X106743593Y-150976968D01*
X106869473Y-150961066D01*
X107174225Y-150882819D01*
X107174228Y-150882818D01*
X107466757Y-150766998D01*
X107466758Y-150766997D01*
X107466756Y-150766997D01*
X107466766Y-150766994D01*
X107742484Y-150615416D01*
X107997030Y-150430478D01*
X108226390Y-150215094D01*
X108426947Y-149972663D01*
X108595537Y-149707007D01*
X108729503Y-149422315D01*
X108826731Y-149123079D01*
X108885688Y-148814015D01*
X108905444Y-148500005D01*
X112094556Y-148500005D01*
X112114310Y-148814004D01*
X112114311Y-148814011D01*
X112173270Y-149123083D01*
X112270497Y-149422316D01*
X112270499Y-149422321D01*
X112404461Y-149707003D01*
X112404464Y-149707009D01*
X112573051Y-149972661D01*
X112573054Y-149972665D01*
X112773606Y-150215090D01*
X112773608Y-150215092D01*
X113002968Y-150430476D01*
X113002978Y-150430484D01*
X113257504Y-150615408D01*
X113257509Y-150615410D01*
X113257516Y-150615416D01*
X113533234Y-150766994D01*
X113533239Y-150766996D01*
X113533241Y-150766997D01*
X113533242Y-150766998D01*
X113825771Y-150882818D01*
X113825774Y-150882819D01*
X114130523Y-150961065D01*
X114130527Y-150961066D01*
X114196010Y-150969338D01*
X114442670Y-151000499D01*
X114442679Y-151000499D01*
X114442682Y-151000500D01*
X114442684Y-151000500D01*
X114757316Y-151000500D01*
X114757318Y-151000500D01*
X114757321Y-151000499D01*
X114757329Y-151000499D01*
X114943593Y-150976968D01*
X115069473Y-150961066D01*
X115374225Y-150882819D01*
X115374228Y-150882818D01*
X115666757Y-150766998D01*
X115666758Y-150766997D01*
X115666756Y-150766997D01*
X115666766Y-150766994D01*
X115942484Y-150615416D01*
X116197030Y-150430478D01*
X116426390Y-150215094D01*
X116626947Y-149972663D01*
X116795537Y-149707007D01*
X116929503Y-149422315D01*
X117026731Y-149123079D01*
X117085688Y-148814015D01*
X117105444Y-148500005D01*
X120894556Y-148500005D01*
X120914310Y-148814004D01*
X120914311Y-148814011D01*
X120973270Y-149123083D01*
X121070497Y-149422316D01*
X121070499Y-149422321D01*
X121204461Y-149707003D01*
X121204464Y-149707009D01*
X121373051Y-149972661D01*
X121373054Y-149972665D01*
X121573606Y-150215090D01*
X121573608Y-150215092D01*
X121802968Y-150430476D01*
X121802978Y-150430484D01*
X122057504Y-150615408D01*
X122057509Y-150615410D01*
X122057516Y-150615416D01*
X122333234Y-150766994D01*
X122333239Y-150766996D01*
X122333241Y-150766997D01*
X122333242Y-150766998D01*
X122625771Y-150882818D01*
X122625774Y-150882819D01*
X122930523Y-150961065D01*
X122930527Y-150961066D01*
X122996010Y-150969338D01*
X123242670Y-151000499D01*
X123242679Y-151000499D01*
X123242682Y-151000500D01*
X123242684Y-151000500D01*
X123557316Y-151000500D01*
X123557318Y-151000500D01*
X123557321Y-151000499D01*
X123557329Y-151000499D01*
X123743593Y-150976968D01*
X123869473Y-150961066D01*
X124174225Y-150882819D01*
X124174228Y-150882818D01*
X124466757Y-150766998D01*
X124466758Y-150766997D01*
X124466756Y-150766997D01*
X124466766Y-150766994D01*
X124742484Y-150615416D01*
X124997030Y-150430478D01*
X125226390Y-150215094D01*
X125426947Y-149972663D01*
X125595537Y-149707007D01*
X125729503Y-149422315D01*
X125826731Y-149123079D01*
X125885688Y-148814015D01*
X125905444Y-148500005D01*
X129094556Y-148500005D01*
X129114310Y-148814004D01*
X129114311Y-148814011D01*
X129173270Y-149123083D01*
X129270497Y-149422316D01*
X129270499Y-149422321D01*
X129404461Y-149707003D01*
X129404464Y-149707009D01*
X129573051Y-149972661D01*
X129573054Y-149972665D01*
X129773606Y-150215090D01*
X129773608Y-150215092D01*
X130002968Y-150430476D01*
X130002978Y-150430484D01*
X130257504Y-150615408D01*
X130257509Y-150615410D01*
X130257516Y-150615416D01*
X130533234Y-150766994D01*
X130533239Y-150766996D01*
X130533241Y-150766997D01*
X130533242Y-150766998D01*
X130825771Y-150882818D01*
X130825774Y-150882819D01*
X131130523Y-150961065D01*
X131130527Y-150961066D01*
X131196010Y-150969338D01*
X131442670Y-151000499D01*
X131442679Y-151000499D01*
X131442682Y-151000500D01*
X131442684Y-151000500D01*
X131757316Y-151000500D01*
X131757318Y-151000500D01*
X131757321Y-151000499D01*
X131757329Y-151000499D01*
X131943593Y-150976968D01*
X132069473Y-150961066D01*
X132374225Y-150882819D01*
X132374228Y-150882818D01*
X132666757Y-150766998D01*
X132666758Y-150766997D01*
X132666756Y-150766997D01*
X132666766Y-150766994D01*
X132942484Y-150615416D01*
X133197030Y-150430478D01*
X133426390Y-150215094D01*
X133626947Y-149972663D01*
X133795537Y-149707007D01*
X133929503Y-149422315D01*
X134026731Y-149123079D01*
X134085688Y-148814015D01*
X134105444Y-148500000D01*
X134103199Y-148464320D01*
X134085689Y-148185995D01*
X134085688Y-148185988D01*
X134085688Y-148185985D01*
X134026731Y-147876921D01*
X133929503Y-147577685D01*
X133795537Y-147292993D01*
X133626947Y-147027337D01*
X133516790Y-146894180D01*
X133426393Y-146784909D01*
X133426391Y-146784907D01*
X133197031Y-146569523D01*
X133197021Y-146569515D01*
X132942495Y-146384591D01*
X132942488Y-146384586D01*
X132942484Y-146384584D01*
X132666766Y-146233006D01*
X132666763Y-146233004D01*
X132666758Y-146233002D01*
X132666757Y-146233001D01*
X132374228Y-146117181D01*
X132374225Y-146117180D01*
X132069476Y-146038934D01*
X132069463Y-146038932D01*
X131757329Y-145999500D01*
X131757318Y-145999500D01*
X131442682Y-145999500D01*
X131442670Y-145999500D01*
X131130536Y-146038932D01*
X131130523Y-146038934D01*
X130825774Y-146117180D01*
X130825771Y-146117181D01*
X130533242Y-146233001D01*
X130533241Y-146233002D01*
X130257516Y-146384584D01*
X130257504Y-146384591D01*
X130002978Y-146569515D01*
X130002968Y-146569523D01*
X129773608Y-146784907D01*
X129773606Y-146784909D01*
X129573054Y-147027334D01*
X129573051Y-147027338D01*
X129404464Y-147292990D01*
X129404461Y-147292996D01*
X129270499Y-147577678D01*
X129270497Y-147577683D01*
X129173270Y-147876916D01*
X129114311Y-148185988D01*
X129114310Y-148185995D01*
X129094556Y-148499994D01*
X129094556Y-148500005D01*
X125905444Y-148500005D01*
X125905444Y-148500000D01*
X125903199Y-148464320D01*
X125885689Y-148185995D01*
X125885688Y-148185988D01*
X125885688Y-148185985D01*
X125826731Y-147876921D01*
X125729503Y-147577685D01*
X125595537Y-147292993D01*
X125426947Y-147027337D01*
X125316790Y-146894180D01*
X125226393Y-146784909D01*
X125226391Y-146784907D01*
X124997031Y-146569523D01*
X124997021Y-146569515D01*
X124742495Y-146384591D01*
X124742488Y-146384586D01*
X124742484Y-146384584D01*
X124466766Y-146233006D01*
X124466763Y-146233004D01*
X124466758Y-146233002D01*
X124466757Y-146233001D01*
X124174228Y-146117181D01*
X124174225Y-146117180D01*
X123869476Y-146038934D01*
X123869463Y-146038932D01*
X123557329Y-145999500D01*
X123557318Y-145999500D01*
X123242682Y-145999500D01*
X123242670Y-145999500D01*
X122930536Y-146038932D01*
X122930523Y-146038934D01*
X122625774Y-146117180D01*
X122625771Y-146117181D01*
X122333242Y-146233001D01*
X122333241Y-146233002D01*
X122057516Y-146384584D01*
X122057504Y-146384591D01*
X121802978Y-146569515D01*
X121802968Y-146569523D01*
X121573608Y-146784907D01*
X121573606Y-146784909D01*
X121373054Y-147027334D01*
X121373051Y-147027338D01*
X121204464Y-147292990D01*
X121204461Y-147292996D01*
X121070499Y-147577678D01*
X121070497Y-147577683D01*
X120973270Y-147876916D01*
X120914311Y-148185988D01*
X120914310Y-148185995D01*
X120894556Y-148499994D01*
X120894556Y-148500005D01*
X117105444Y-148500005D01*
X117105444Y-148500000D01*
X117103199Y-148464320D01*
X117085689Y-148185995D01*
X117085688Y-148185988D01*
X117085688Y-148185985D01*
X117026731Y-147876921D01*
X116929503Y-147577685D01*
X116795537Y-147292993D01*
X116626947Y-147027337D01*
X116516790Y-146894180D01*
X116426393Y-146784909D01*
X116426391Y-146784907D01*
X116197031Y-146569523D01*
X116197021Y-146569515D01*
X115942495Y-146384591D01*
X115942488Y-146384586D01*
X115942484Y-146384584D01*
X115666766Y-146233006D01*
X115666763Y-146233004D01*
X115666758Y-146233002D01*
X115666757Y-146233001D01*
X115374228Y-146117181D01*
X115374225Y-146117180D01*
X115069476Y-146038934D01*
X115069463Y-146038932D01*
X114757329Y-145999500D01*
X114757318Y-145999500D01*
X114442682Y-145999500D01*
X114442670Y-145999500D01*
X114130536Y-146038932D01*
X114130523Y-146038934D01*
X113825774Y-146117180D01*
X113825771Y-146117181D01*
X113533242Y-146233001D01*
X113533241Y-146233002D01*
X113257516Y-146384584D01*
X113257504Y-146384591D01*
X113002978Y-146569515D01*
X113002968Y-146569523D01*
X112773608Y-146784907D01*
X112773606Y-146784909D01*
X112573054Y-147027334D01*
X112573051Y-147027338D01*
X112404464Y-147292990D01*
X112404461Y-147292996D01*
X112270499Y-147577678D01*
X112270497Y-147577683D01*
X112173270Y-147876916D01*
X112114311Y-148185988D01*
X112114310Y-148185995D01*
X112094556Y-148499994D01*
X112094556Y-148500005D01*
X108905444Y-148500005D01*
X108905444Y-148500000D01*
X108903199Y-148464320D01*
X108885689Y-148185995D01*
X108885688Y-148185988D01*
X108885688Y-148185985D01*
X108826731Y-147876921D01*
X108729503Y-147577685D01*
X108595537Y-147292993D01*
X108426947Y-147027337D01*
X108316790Y-146894180D01*
X108226393Y-146784909D01*
X108226391Y-146784907D01*
X107997031Y-146569523D01*
X107997021Y-146569515D01*
X107742495Y-146384591D01*
X107742488Y-146384586D01*
X107742484Y-146384584D01*
X107466766Y-146233006D01*
X107466763Y-146233004D01*
X107466758Y-146233002D01*
X107466757Y-146233001D01*
X107174228Y-146117181D01*
X107174225Y-146117180D01*
X106869476Y-146038934D01*
X106869463Y-146038932D01*
X106557329Y-145999500D01*
X106557318Y-145999500D01*
X106242682Y-145999500D01*
X106242670Y-145999500D01*
X105930536Y-146038932D01*
X105930523Y-146038934D01*
X105625774Y-146117180D01*
X105625771Y-146117181D01*
X105333242Y-146233001D01*
X105333241Y-146233002D01*
X105057516Y-146384584D01*
X105057504Y-146384591D01*
X104802978Y-146569515D01*
X104802968Y-146569523D01*
X104573608Y-146784907D01*
X104573606Y-146784909D01*
X104373054Y-147027334D01*
X104373051Y-147027338D01*
X104204464Y-147292990D01*
X104204461Y-147292996D01*
X104070499Y-147577678D01*
X104070497Y-147577683D01*
X103973270Y-147876916D01*
X103914311Y-148185988D01*
X103914310Y-148185995D01*
X103894556Y-148499994D01*
X103894556Y-148500005D01*
X100105444Y-148500005D01*
X100105444Y-148500000D01*
X100103199Y-148464320D01*
X100085689Y-148185995D01*
X100085688Y-148185988D01*
X100085688Y-148185985D01*
X100026731Y-147876921D01*
X99929503Y-147577685D01*
X99795537Y-147292993D01*
X99626947Y-147027337D01*
X99516790Y-146894180D01*
X99426393Y-146784909D01*
X99426391Y-146784907D01*
X99197031Y-146569523D01*
X99197021Y-146569515D01*
X98942495Y-146384591D01*
X98942488Y-146384586D01*
X98942484Y-146384584D01*
X98666766Y-146233006D01*
X98666763Y-146233004D01*
X98666758Y-146233002D01*
X98666757Y-146233001D01*
X98374228Y-146117181D01*
X98374225Y-146117180D01*
X98069476Y-146038934D01*
X98069463Y-146038932D01*
X97757329Y-145999500D01*
X97757318Y-145999500D01*
X97442682Y-145999500D01*
X97442670Y-145999500D01*
X97130536Y-146038932D01*
X97130523Y-146038934D01*
X96825774Y-146117180D01*
X96825771Y-146117181D01*
X96533242Y-146233001D01*
X96533241Y-146233002D01*
X96257516Y-146384584D01*
X96257504Y-146384591D01*
X96002978Y-146569515D01*
X96002968Y-146569523D01*
X95773608Y-146784907D01*
X95773606Y-146784909D01*
X95573054Y-147027334D01*
X95573051Y-147027338D01*
X95404464Y-147292990D01*
X95404461Y-147292996D01*
X95270499Y-147577678D01*
X95270497Y-147577683D01*
X95173270Y-147876916D01*
X95114311Y-148185988D01*
X95114310Y-148185995D01*
X95094556Y-148499994D01*
X95094556Y-148500005D01*
X93807606Y-148500005D01*
X93752656Y-148464320D01*
X93425739Y-148297746D01*
X93083206Y-148166260D01*
X93083199Y-148166258D01*
X92728794Y-148071295D01*
X92728790Y-148071294D01*
X92728789Y-148071294D01*
X92366405Y-148013898D01*
X92000001Y-147994696D01*
X91999999Y-147994696D01*
X91633594Y-148013898D01*
X91271211Y-148071294D01*
X91271209Y-148071294D01*
X90916793Y-148166260D01*
X90574260Y-148297746D01*
X90247343Y-148464320D01*
X89939635Y-148664147D01*
X89654498Y-148895047D01*
X89654490Y-148895054D01*
X89395054Y-149154490D01*
X89395047Y-149154498D01*
X89164147Y-149439635D01*
X88964320Y-149747343D01*
X88797746Y-150074260D01*
X88765264Y-150158881D01*
X88722862Y-150214413D01*
X88657168Y-150238206D01*
X88589040Y-150222704D01*
X88540107Y-150172831D01*
X88525500Y-150114443D01*
X88525500Y-139750002D01*
X92244751Y-139750002D01*
X92263685Y-139918056D01*
X92319545Y-140077694D01*
X92319547Y-140077697D01*
X92409518Y-140220884D01*
X92409523Y-140220890D01*
X92529109Y-140340476D01*
X92529115Y-140340481D01*
X92672302Y-140430452D01*
X92672305Y-140430454D01*
X92672309Y-140430455D01*
X92672310Y-140430456D01*
X92744913Y-140455860D01*
X92831943Y-140486314D01*
X92999997Y-140505249D01*
X93000000Y-140505249D01*
X93000003Y-140505249D01*
X93168056Y-140486314D01*
X93168059Y-140486313D01*
X93327690Y-140430456D01*
X93327692Y-140430454D01*
X93327694Y-140430454D01*
X93327697Y-140430452D01*
X93470884Y-140340481D01*
X93470885Y-140340480D01*
X93470890Y-140340477D01*
X93590477Y-140220890D01*
X93591986Y-140218489D01*
X93680452Y-140077697D01*
X93680454Y-140077694D01*
X93680454Y-140077692D01*
X93680456Y-140077690D01*
X93736313Y-139918059D01*
X93736313Y-139918058D01*
X93736314Y-139918056D01*
X93755249Y-139750002D01*
X93755249Y-139749997D01*
X93736314Y-139581943D01*
X93680454Y-139422305D01*
X93680452Y-139422302D01*
X93590481Y-139279115D01*
X93590476Y-139279109D01*
X93470890Y-139159523D01*
X93470884Y-139159518D01*
X93327697Y-139069547D01*
X93327694Y-139069545D01*
X93168056Y-139013685D01*
X93000003Y-138994751D01*
X92999997Y-138994751D01*
X92831943Y-139013685D01*
X92672305Y-139069545D01*
X92672302Y-139069547D01*
X92529115Y-139159518D01*
X92529109Y-139159523D01*
X92409523Y-139279109D01*
X92409518Y-139279115D01*
X92319547Y-139422302D01*
X92319545Y-139422305D01*
X92263685Y-139581943D01*
X92244751Y-139749997D01*
X92244751Y-139750002D01*
X88525500Y-139750002D01*
X88525500Y-124447870D01*
X90249500Y-124447870D01*
X90249501Y-124447876D01*
X90255908Y-124507483D01*
X90306202Y-124642328D01*
X90306206Y-124642335D01*
X90392452Y-124757544D01*
X90392455Y-124757547D01*
X90507664Y-124843793D01*
X90507671Y-124843797D01*
X90642517Y-124894091D01*
X90642516Y-124894091D01*
X90649444Y-124894835D01*
X90702127Y-124900500D01*
X93297872Y-124900499D01*
X93357483Y-124894091D01*
X93492331Y-124843796D01*
X93607546Y-124757546D01*
X93693796Y-124642331D01*
X93744091Y-124507483D01*
X93750500Y-124447873D01*
X93750500Y-124447870D01*
X95749500Y-124447870D01*
X95749501Y-124447876D01*
X95755908Y-124507483D01*
X95806202Y-124642328D01*
X95806206Y-124642335D01*
X95892452Y-124757544D01*
X95892455Y-124757547D01*
X96007664Y-124843793D01*
X96007671Y-124843797D01*
X96142517Y-124894091D01*
X96142516Y-124894091D01*
X96149444Y-124894835D01*
X96202127Y-124900500D01*
X98099902Y-124900499D01*
X98166941Y-124920184D01*
X98187583Y-124936818D01*
X98363181Y-125112416D01*
X98396666Y-125173739D01*
X98399500Y-125200098D01*
X98399499Y-125291815D01*
X98379814Y-125358855D01*
X98340598Y-125397351D01*
X98294612Y-125425716D01*
X98294608Y-125425719D01*
X98175719Y-125544608D01*
X98175716Y-125544612D01*
X98087455Y-125687704D01*
X98087450Y-125687715D01*
X98069311Y-125742455D01*
X98034564Y-125847315D01*
X98034564Y-125847316D01*
X98034563Y-125847316D01*
X98024500Y-125945818D01*
X98024500Y-126479181D01*
X98034563Y-126577683D01*
X98087450Y-126737284D01*
X98087455Y-126737295D01*
X98175716Y-126880387D01*
X98175719Y-126880392D01*
X98207647Y-126912320D01*
X98241132Y-126973644D01*
X98236146Y-127043335D01*
X98207647Y-127087680D01*
X98175719Y-127119607D01*
X98175716Y-127119612D01*
X98087455Y-127262704D01*
X98087450Y-127262713D01*
X98087451Y-127262713D01*
X98034564Y-127422315D01*
X98034564Y-127422316D01*
X98034563Y-127422316D01*
X98024500Y-127520818D01*
X98024500Y-128054181D01*
X98034563Y-128152683D01*
X98087450Y-128312284D01*
X98087455Y-128312295D01*
X98177894Y-128458918D01*
X98195576Y-128510132D01*
X98214630Y-128679249D01*
X98214631Y-128679254D01*
X98274211Y-128849523D01*
X98334718Y-128945818D01*
X98370184Y-129002262D01*
X98497738Y-129129816D01*
X98650478Y-129225789D01*
X98757661Y-129263294D01*
X98820745Y-129285368D01*
X98820750Y-129285369D01*
X98999996Y-129305565D01*
X99000000Y-129305565D01*
X99000004Y-129305565D01*
X99179249Y-129285369D01*
X99179252Y-129285368D01*
X99179255Y-129285368D01*
X99349522Y-129225789D01*
X99502262Y-129129816D01*
X99629816Y-129002262D01*
X99725789Y-128849522D01*
X99785368Y-128679255D01*
X99787251Y-128662549D01*
X99799600Y-128552943D01*
X99804423Y-128510131D01*
X99822105Y-128458919D01*
X99912544Y-128312295D01*
X99912543Y-128312295D01*
X99912549Y-128312287D01*
X99965436Y-128152685D01*
X99975500Y-128054174D01*
X99975500Y-127520826D01*
X99965436Y-127422315D01*
X99912549Y-127262713D01*
X99912545Y-127262707D01*
X99912544Y-127262704D01*
X99824283Y-127119612D01*
X99824280Y-127119608D01*
X99792353Y-127087681D01*
X99758868Y-127026358D01*
X99763852Y-126956666D01*
X99792353Y-126912319D01*
X99806534Y-126898138D01*
X99824281Y-126880391D01*
X99912549Y-126737287D01*
X99965436Y-126577685D01*
X99975500Y-126479174D01*
X99975500Y-125945826D01*
X99965436Y-125847315D01*
X99912549Y-125687713D01*
X99912545Y-125687707D01*
X99912544Y-125687704D01*
X99824283Y-125544612D01*
X99824280Y-125544608D01*
X99705391Y-125425719D01*
X99705387Y-125425716D01*
X99659402Y-125397352D01*
X99612677Y-125345404D01*
X99600499Y-125291814D01*
X99600499Y-125150368D01*
X99600499Y-124943411D01*
X99601028Y-124935346D01*
X99605682Y-124900000D01*
X99585044Y-124743238D01*
X99547535Y-124652683D01*
X99524538Y-124597163D01*
X99524538Y-124597162D01*
X99522039Y-124593905D01*
X99491820Y-124554523D01*
X99428282Y-124471718D01*
X99400005Y-124450020D01*
X99393904Y-124444669D01*
X99286818Y-124337583D01*
X99253333Y-124276260D01*
X99250499Y-124249902D01*
X99250499Y-122352129D01*
X99250498Y-122352123D01*
X99250497Y-122352116D01*
X99244091Y-122292517D01*
X99237260Y-122274203D01*
X99193797Y-122157671D01*
X99193793Y-122157664D01*
X99107547Y-122042455D01*
X99107544Y-122042452D01*
X98992335Y-121956206D01*
X98992328Y-121956202D01*
X98857482Y-121905908D01*
X98857483Y-121905908D01*
X98797883Y-121899501D01*
X98797881Y-121899500D01*
X98797873Y-121899500D01*
X98797864Y-121899500D01*
X96202129Y-121899500D01*
X96202123Y-121899501D01*
X96142516Y-121905908D01*
X96007671Y-121956202D01*
X96007664Y-121956206D01*
X95892455Y-122042452D01*
X95892452Y-122042455D01*
X95806206Y-122157664D01*
X95806202Y-122157671D01*
X95755908Y-122292517D01*
X95752466Y-122324536D01*
X95749501Y-122352123D01*
X95749500Y-122352135D01*
X95749500Y-124447870D01*
X93750500Y-124447870D01*
X93750499Y-122352128D01*
X93744091Y-122292517D01*
X93737260Y-122274203D01*
X93693797Y-122157671D01*
X93693793Y-122157664D01*
X93607547Y-122042455D01*
X93607544Y-122042452D01*
X93492335Y-121956206D01*
X93492328Y-121956202D01*
X93357482Y-121905908D01*
X93357483Y-121905908D01*
X93297883Y-121899501D01*
X93297881Y-121899500D01*
X93297873Y-121899500D01*
X93297864Y-121899500D01*
X90702129Y-121899500D01*
X90702123Y-121899501D01*
X90642516Y-121905908D01*
X90507671Y-121956202D01*
X90507664Y-121956206D01*
X90392455Y-122042452D01*
X90392452Y-122042455D01*
X90306206Y-122157664D01*
X90306202Y-122157671D01*
X90255908Y-122292517D01*
X90252466Y-122324536D01*
X90249501Y-122352123D01*
X90249500Y-122352135D01*
X90249500Y-124447870D01*
X88525500Y-124447870D01*
X88525500Y-115647870D01*
X90249500Y-115647870D01*
X90249501Y-115647876D01*
X90255908Y-115707483D01*
X90306202Y-115842328D01*
X90306206Y-115842335D01*
X90392452Y-115957544D01*
X90392455Y-115957547D01*
X90507664Y-116043793D01*
X90507671Y-116043797D01*
X90642517Y-116094091D01*
X90642516Y-116094091D01*
X90649444Y-116094835D01*
X90702127Y-116100500D01*
X93297872Y-116100499D01*
X93357483Y-116094091D01*
X93492331Y-116043796D01*
X93607546Y-115957546D01*
X93693796Y-115842331D01*
X93744091Y-115707483D01*
X93750500Y-115647873D01*
X93750499Y-113552128D01*
X93744091Y-113492517D01*
X93741422Y-113485362D01*
X93693797Y-113357671D01*
X93693793Y-113357664D01*
X93607547Y-113242455D01*
X93607544Y-113242452D01*
X93492335Y-113156206D01*
X93492328Y-113156202D01*
X93357482Y-113105908D01*
X93357483Y-113105908D01*
X93297883Y-113099501D01*
X93297881Y-113099500D01*
X93297873Y-113099500D01*
X93297864Y-113099500D01*
X90702129Y-113099500D01*
X90702123Y-113099501D01*
X90642516Y-113105908D01*
X90507671Y-113156202D01*
X90507664Y-113156206D01*
X90392455Y-113242452D01*
X90392452Y-113242455D01*
X90306206Y-113357664D01*
X90306202Y-113357671D01*
X90255908Y-113492517D01*
X90250687Y-113541083D01*
X90249501Y-113552123D01*
X90249500Y-113552135D01*
X90249500Y-115647870D01*
X88525500Y-115647870D01*
X88525500Y-109250003D01*
X91444435Y-109250003D01*
X91464630Y-109429249D01*
X91464631Y-109429254D01*
X91524211Y-109599523D01*
X91591175Y-109706095D01*
X91620184Y-109752262D01*
X91747738Y-109879816D01*
X91807287Y-109917233D01*
X91887852Y-109967856D01*
X91900478Y-109975789D01*
X92070745Y-110035368D01*
X92093058Y-110037882D01*
X92157471Y-110064946D01*
X92184714Y-110096005D01*
X92230971Y-110170999D01*
X92230974Y-110171003D01*
X92353996Y-110294025D01*
X92354000Y-110294028D01*
X92502066Y-110385357D01*
X92502069Y-110385358D01*
X92502075Y-110385362D01*
X92667225Y-110440087D01*
X92769152Y-110450500D01*
X92769157Y-110450500D01*
X93355843Y-110450500D01*
X93355848Y-110450500D01*
X93457775Y-110440087D01*
X93622925Y-110385362D01*
X93771003Y-110294026D01*
X93894026Y-110171003D01*
X93985362Y-110022925D01*
X94040087Y-109857775D01*
X94050500Y-109755848D01*
X94050500Y-108744152D01*
X94040087Y-108642225D01*
X93985362Y-108477075D01*
X93985358Y-108477069D01*
X93985357Y-108477066D01*
X93894028Y-108329000D01*
X93894027Y-108328998D01*
X93894026Y-108328997D01*
X93771003Y-108205974D01*
X93770999Y-108205971D01*
X93622933Y-108114642D01*
X93622927Y-108114639D01*
X93622925Y-108114638D01*
X93578732Y-108099994D01*
X93457776Y-108059913D01*
X93355855Y-108049500D01*
X93355848Y-108049500D01*
X92769152Y-108049500D01*
X92769144Y-108049500D01*
X92667223Y-108059913D01*
X92502077Y-108114637D01*
X92502066Y-108114642D01*
X92354000Y-108205971D01*
X92230972Y-108328998D01*
X92184713Y-108403995D01*
X92132764Y-108450719D01*
X92093059Y-108462117D01*
X92070750Y-108464630D01*
X91900478Y-108524210D01*
X91747737Y-108620184D01*
X91620184Y-108747737D01*
X91524211Y-108900476D01*
X91464631Y-109070745D01*
X91464630Y-109070750D01*
X91444435Y-109249996D01*
X91444435Y-109250003D01*
X88525500Y-109250003D01*
X88525500Y-106980855D01*
X91049500Y-106980855D01*
X91059913Y-107082776D01*
X91114637Y-107247922D01*
X91114642Y-107247933D01*
X91205971Y-107395999D01*
X91205974Y-107396003D01*
X91328996Y-107519025D01*
X91329000Y-107519028D01*
X91477066Y-107610357D01*
X91477069Y-107610358D01*
X91477075Y-107610362D01*
X91642225Y-107665087D01*
X91744152Y-107675500D01*
X91744157Y-107675500D01*
X92755843Y-107675500D01*
X92755848Y-107675500D01*
X92857775Y-107665087D01*
X93022925Y-107610362D01*
X93171003Y-107519026D01*
X93215710Y-107474319D01*
X93277033Y-107440834D01*
X93303391Y-107438000D01*
X93356966Y-107438000D01*
X93424005Y-107457685D01*
X93444647Y-107474319D01*
X93544608Y-107574280D01*
X93544612Y-107574283D01*
X93687704Y-107662544D01*
X93687707Y-107662545D01*
X93687713Y-107662549D01*
X93847315Y-107715436D01*
X93945826Y-107725500D01*
X94216692Y-107725500D01*
X94283731Y-107745185D01*
X94304373Y-107761819D01*
X94442064Y-107899510D01*
X94452135Y-107912080D01*
X94452322Y-107911926D01*
X94457296Y-107917937D01*
X94457298Y-107917940D01*
X94476146Y-107935639D01*
X94509743Y-107967190D01*
X94531467Y-107988913D01*
X94537257Y-107993405D01*
X94541697Y-107997197D01*
X94570998Y-108024711D01*
X94577107Y-108030448D01*
X94577109Y-108030449D01*
X94595705Y-108040672D01*
X94611970Y-108051357D01*
X94628732Y-108064360D01*
X94628735Y-108064361D01*
X94628736Y-108064362D01*
X94673323Y-108083656D01*
X94678559Y-108086221D01*
X94721132Y-108109627D01*
X94736840Y-108113659D01*
X94741686Y-108114904D01*
X94760098Y-108121207D01*
X94779573Y-108129635D01*
X94827571Y-108137237D01*
X94833240Y-108138411D01*
X94880323Y-108150500D01*
X94901551Y-108150500D01*
X94920948Y-108152026D01*
X94941903Y-108155345D01*
X94941904Y-108155346D01*
X94941904Y-108155345D01*
X94941905Y-108155346D01*
X94990260Y-108150775D01*
X94996099Y-108150500D01*
X95525502Y-108150500D01*
X95592541Y-108170185D01*
X95638296Y-108222989D01*
X95640063Y-108227047D01*
X95682293Y-108329000D01*
X95697302Y-108365233D01*
X95789549Y-108485451D01*
X95909767Y-108577698D01*
X96049764Y-108635687D01*
X96162280Y-108650500D01*
X96767823Y-108650500D01*
X97535501Y-108650500D01*
X97602540Y-108670185D01*
X97648295Y-108722989D01*
X97659501Y-108774500D01*
X97659501Y-108987876D01*
X97665908Y-109047483D01*
X97716202Y-109182328D01*
X97716206Y-109182335D01*
X97802452Y-109297544D01*
X97802455Y-109297547D01*
X97917664Y-109383793D01*
X97917671Y-109383797D01*
X98052517Y-109434091D01*
X98052516Y-109434091D01*
X98059444Y-109434835D01*
X98112127Y-109440500D01*
X99870500Y-109440499D01*
X99937539Y-109460184D01*
X99983294Y-109512987D01*
X99994500Y-109564499D01*
X99994500Y-112126007D01*
X99999644Y-112173843D01*
X100000000Y-112180476D01*
X100000000Y-112750000D01*
X100576877Y-112750000D01*
X100594523Y-112751262D01*
X100597650Y-112751711D01*
X100624000Y-112755500D01*
X100668121Y-112755500D01*
X100735160Y-112775185D01*
X100780915Y-112827989D01*
X100790859Y-112897147D01*
X100785828Y-112918502D01*
X100784563Y-112922317D01*
X100774500Y-113020818D01*
X100774500Y-113411130D01*
X100754815Y-113478169D01*
X100702011Y-113523924D01*
X100632853Y-113533868D01*
X100606346Y-113525792D01*
X100606095Y-113526511D01*
X100429254Y-113464631D01*
X100429249Y-113464630D01*
X100250004Y-113444435D01*
X100249996Y-113444435D01*
X100070750Y-113464630D01*
X100070745Y-113464631D01*
X99900476Y-113524211D01*
X99747737Y-113620184D01*
X99620184Y-113747737D01*
X99524209Y-113900480D01*
X99491540Y-113993842D01*
X99450818Y-114050618D01*
X99385866Y-114076365D01*
X99317304Y-114062909D01*
X99266901Y-114014521D01*
X99250499Y-113952887D01*
X99250499Y-113552129D01*
X99250498Y-113552123D01*
X99250497Y-113552116D01*
X99244091Y-113492517D01*
X99241422Y-113485362D01*
X99193797Y-113357671D01*
X99193793Y-113357664D01*
X99107547Y-113242455D01*
X99107544Y-113242452D01*
X98992335Y-113156206D01*
X98992328Y-113156202D01*
X98857482Y-113105908D01*
X98857483Y-113105908D01*
X98797883Y-113099501D01*
X98797881Y-113099500D01*
X98797873Y-113099500D01*
X98797864Y-113099500D01*
X96202129Y-113099500D01*
X96202123Y-113099501D01*
X96142516Y-113105908D01*
X96007671Y-113156202D01*
X96007664Y-113156206D01*
X95892455Y-113242452D01*
X95892452Y-113242455D01*
X95806206Y-113357664D01*
X95806202Y-113357671D01*
X95755908Y-113492517D01*
X95750687Y-113541083D01*
X95749501Y-113552123D01*
X95749500Y-113552135D01*
X95749500Y-115647870D01*
X95749501Y-115647876D01*
X95755908Y-115707483D01*
X95806202Y-115842328D01*
X95806206Y-115842335D01*
X95892452Y-115957544D01*
X95892455Y-115957547D01*
X96007664Y-116043793D01*
X96007671Y-116043797D01*
X96142517Y-116094091D01*
X96142516Y-116094091D01*
X96149444Y-116094835D01*
X96202127Y-116100500D01*
X98797872Y-116100499D01*
X98857483Y-116094091D01*
X98992331Y-116043796D01*
X99107546Y-115957546D01*
X99193796Y-115842331D01*
X99226573Y-115754450D01*
X99268441Y-115698521D01*
X99333905Y-115674103D01*
X99402178Y-115688954D01*
X99430434Y-115710106D01*
X99544608Y-115824280D01*
X99544612Y-115824283D01*
X99687704Y-115912544D01*
X99687707Y-115912545D01*
X99687713Y-115912549D01*
X99847315Y-115965436D01*
X99945826Y-115975500D01*
X99945831Y-115975500D01*
X100479169Y-115975500D01*
X100479174Y-115975500D01*
X100577685Y-115965436D01*
X100672567Y-115933994D01*
X100742392Y-115931593D01*
X100802434Y-115967324D01*
X100833627Y-116029844D01*
X100826067Y-116099304D01*
X100799249Y-116139382D01*
X100325451Y-116613181D01*
X100264128Y-116646666D01*
X100237770Y-116649500D01*
X96202129Y-116649500D01*
X96202123Y-116649501D01*
X96142516Y-116655908D01*
X96007671Y-116706202D01*
X96007664Y-116706206D01*
X95892455Y-116792452D01*
X95892452Y-116792455D01*
X95823766Y-116884208D01*
X95767832Y-116926079D01*
X95698141Y-116931063D01*
X95636818Y-116897577D01*
X95603334Y-116836254D01*
X95600500Y-116809897D01*
X95600500Y-116714944D01*
X95583671Y-116646666D01*
X95559790Y-116549775D01*
X95546373Y-116524211D01*
X95480736Y-116399150D01*
X95426075Y-116337451D01*
X95367929Y-116271817D01*
X95273221Y-116206444D01*
X95227931Y-116175182D01*
X95068874Y-116114860D01*
X95068868Y-116114859D01*
X94942374Y-116099500D01*
X94942372Y-116099500D01*
X94857628Y-116099500D01*
X94857626Y-116099500D01*
X94731131Y-116114859D01*
X94731125Y-116114860D01*
X94572068Y-116175182D01*
X94432072Y-116271816D01*
X94319263Y-116399150D01*
X94240210Y-116549773D01*
X94199500Y-116714944D01*
X94199500Y-116885055D01*
X94240210Y-117050226D01*
X94319263Y-117200849D01*
X94319265Y-117200851D01*
X94319266Y-117200852D01*
X94432071Y-117328183D01*
X94518468Y-117387819D01*
X94572068Y-117424817D01*
X94572069Y-117424817D01*
X94572070Y-117424818D01*
X94583754Y-117429249D01*
X94705611Y-117475463D01*
X94731128Y-117485140D01*
X94807028Y-117494356D01*
X94857626Y-117500500D01*
X94857628Y-117500500D01*
X94942374Y-117500500D01*
X94984538Y-117495380D01*
X95068872Y-117485140D01*
X95227930Y-117424818D01*
X95367929Y-117328183D01*
X95480734Y-117200852D01*
X95515705Y-117134220D01*
X95564288Y-117084011D01*
X95632307Y-117068036D01*
X95698165Y-117091371D01*
X95740952Y-117146607D01*
X95749500Y-117191849D01*
X95749500Y-117697870D01*
X95749501Y-117697876D01*
X95755908Y-117757479D01*
X95757692Y-117765026D01*
X95756229Y-117765371D01*
X95760585Y-117826371D01*
X95756173Y-117841396D01*
X95755908Y-117842517D01*
X95749501Y-117902117D01*
X95749500Y-117902136D01*
X95749500Y-118497870D01*
X95749501Y-118497876D01*
X95755908Y-118557479D01*
X95757692Y-118565026D01*
X95756229Y-118565371D01*
X95760585Y-118626371D01*
X95756173Y-118641396D01*
X95755908Y-118642517D01*
X95749501Y-118702117D01*
X95749500Y-118702136D01*
X95749500Y-119297870D01*
X95749501Y-119297876D01*
X95755908Y-119357479D01*
X95757692Y-119365026D01*
X95756229Y-119365371D01*
X95760585Y-119426371D01*
X95756173Y-119441396D01*
X95755908Y-119442517D01*
X95749501Y-119502117D01*
X95749500Y-119502136D01*
X95749500Y-120097870D01*
X95749501Y-120097876D01*
X95755908Y-120157479D01*
X95757692Y-120165026D01*
X95756229Y-120165371D01*
X95760585Y-120226371D01*
X95756173Y-120241396D01*
X95755908Y-120242517D01*
X95749501Y-120302117D01*
X95749500Y-120302136D01*
X95749500Y-120808151D01*
X95729815Y-120875190D01*
X95677011Y-120920945D01*
X95607853Y-120930889D01*
X95544297Y-120901864D01*
X95515705Y-120865780D01*
X95480734Y-120799148D01*
X95367929Y-120671817D01*
X95311622Y-120632951D01*
X95227931Y-120575182D01*
X95068874Y-120514860D01*
X95068868Y-120514859D01*
X94942374Y-120499500D01*
X94942372Y-120499500D01*
X94857628Y-120499500D01*
X94857626Y-120499500D01*
X94731131Y-120514859D01*
X94731125Y-120514860D01*
X94572068Y-120575182D01*
X94432072Y-120671816D01*
X94319263Y-120799150D01*
X94240210Y-120949773D01*
X94204073Y-121096389D01*
X94199500Y-121114944D01*
X94199500Y-121285056D01*
X94202672Y-121297925D01*
X94240210Y-121450226D01*
X94319263Y-121600849D01*
X94319266Y-121600852D01*
X94432071Y-121728183D01*
X94486041Y-121765436D01*
X94572068Y-121824817D01*
X94572069Y-121824817D01*
X94572070Y-121824818D01*
X94731128Y-121885140D01*
X94807028Y-121894356D01*
X94857626Y-121900500D01*
X94857628Y-121900500D01*
X94942374Y-121900500D01*
X94984538Y-121895380D01*
X95068872Y-121885140D01*
X95227930Y-121824818D01*
X95367929Y-121728183D01*
X95480734Y-121600852D01*
X95486835Y-121589229D01*
X95546373Y-121475788D01*
X95559790Y-121450225D01*
X95600500Y-121285056D01*
X95600500Y-121190102D01*
X95620185Y-121123063D01*
X95672989Y-121077308D01*
X95742147Y-121067364D01*
X95805703Y-121096389D01*
X95823762Y-121115786D01*
X95892454Y-121207546D01*
X95938643Y-121242123D01*
X96007664Y-121293793D01*
X96007671Y-121293797D01*
X96142517Y-121344091D01*
X96142516Y-121344091D01*
X96149444Y-121344835D01*
X96202127Y-121350500D01*
X98667586Y-121350499D01*
X98734625Y-121370184D01*
X98744897Y-121377550D01*
X98747734Y-121379812D01*
X98747738Y-121379816D01*
X98900478Y-121475789D01*
X99009256Y-121513852D01*
X99070745Y-121535368D01*
X99070750Y-121535369D01*
X99249996Y-121555565D01*
X99250000Y-121555565D01*
X99250004Y-121555565D01*
X99429249Y-121535369D01*
X99429252Y-121535368D01*
X99429255Y-121535368D01*
X99599522Y-121475789D01*
X99752262Y-121379816D01*
X99879816Y-121252262D01*
X99975789Y-121099522D01*
X100035368Y-120929255D01*
X100035369Y-120929249D01*
X100055565Y-120750003D01*
X100055565Y-120749996D01*
X100035369Y-120570750D01*
X100035368Y-120570745D01*
X99976561Y-120402684D01*
X99975789Y-120400478D01*
X99879816Y-120247738D01*
X99752262Y-120120184D01*
X99752262Y-120120183D01*
X99599521Y-120024210D01*
X99429249Y-119964630D01*
X99360615Y-119956897D01*
X99296201Y-119929830D01*
X99256646Y-119872235D01*
X99250499Y-119833677D01*
X99250499Y-119724500D01*
X99270184Y-119657461D01*
X99322988Y-119611706D01*
X99374499Y-119600500D01*
X101912403Y-119600500D01*
X101979442Y-119620185D01*
X102000084Y-119636819D01*
X102238181Y-119874915D01*
X102271666Y-119936238D01*
X102274500Y-119962596D01*
X102274500Y-120304181D01*
X102284563Y-120402683D01*
X102337450Y-120562284D01*
X102337455Y-120562295D01*
X102425716Y-120705387D01*
X102425719Y-120705391D01*
X102544608Y-120824280D01*
X102544612Y-120824283D01*
X102687704Y-120912544D01*
X102687707Y-120912545D01*
X102687713Y-120912549D01*
X102847315Y-120965436D01*
X102945826Y-120975500D01*
X102945831Y-120975500D01*
X103479169Y-120975500D01*
X103479174Y-120975500D01*
X103577685Y-120965436D01*
X103737287Y-120912549D01*
X103880391Y-120824281D01*
X103912319Y-120792352D01*
X103973642Y-120758868D01*
X104043334Y-120763852D01*
X104087681Y-120792353D01*
X104119608Y-120824280D01*
X104119612Y-120824283D01*
X104262704Y-120912544D01*
X104262707Y-120912545D01*
X104262713Y-120912549D01*
X104314503Y-120929710D01*
X104371948Y-120969482D01*
X104398772Y-121033998D01*
X104399500Y-121047416D01*
X104399500Y-121291814D01*
X104379815Y-121358853D01*
X104340598Y-121397352D01*
X104294609Y-121425718D01*
X104175719Y-121544608D01*
X104175716Y-121544612D01*
X104087455Y-121687704D01*
X104087450Y-121687715D01*
X104069311Y-121742455D01*
X104034564Y-121847315D01*
X104034564Y-121847316D01*
X104034563Y-121847316D01*
X104024500Y-121945818D01*
X104024500Y-122479181D01*
X104034563Y-122577683D01*
X104087450Y-122737284D01*
X104087455Y-122737295D01*
X104175716Y-122880387D01*
X104175719Y-122880392D01*
X104207647Y-122912320D01*
X104241132Y-122973644D01*
X104236146Y-123043335D01*
X104207647Y-123087680D01*
X104175719Y-123119607D01*
X104175716Y-123119612D01*
X104087455Y-123262704D01*
X104087450Y-123262715D01*
X104062686Y-123337450D01*
X104034564Y-123422315D01*
X104034564Y-123422316D01*
X104034563Y-123422316D01*
X104024500Y-123520818D01*
X104024500Y-124054181D01*
X104034563Y-124152683D01*
X104087450Y-124312284D01*
X104087455Y-124312295D01*
X104177894Y-124458918D01*
X104195576Y-124510132D01*
X104214630Y-124679249D01*
X104214631Y-124679254D01*
X104274211Y-124849523D01*
X104368763Y-125000000D01*
X104370184Y-125002262D01*
X104497738Y-125129816D01*
X104547130Y-125160851D01*
X104638775Y-125218436D01*
X104650478Y-125225789D01*
X104735076Y-125255391D01*
X104820745Y-125285368D01*
X104820750Y-125285369D01*
X104999996Y-125305565D01*
X105000000Y-125305565D01*
X105000004Y-125305565D01*
X105179249Y-125285369D01*
X105179252Y-125285368D01*
X105179255Y-125285368D01*
X105349522Y-125225789D01*
X105502262Y-125129816D01*
X105629816Y-125002262D01*
X105725789Y-124849522D01*
X105785368Y-124679255D01*
X105788611Y-124650478D01*
X105804423Y-124510133D01*
X105822105Y-124458919D01*
X105912544Y-124312295D01*
X105912543Y-124312295D01*
X105912549Y-124312287D01*
X105965436Y-124152685D01*
X105975500Y-124054174D01*
X105975500Y-123520826D01*
X105965436Y-123422315D01*
X105912549Y-123262713D01*
X105912545Y-123262707D01*
X105912544Y-123262704D01*
X105824283Y-123119612D01*
X105824280Y-123119607D01*
X105792352Y-123087679D01*
X105758867Y-123026355D01*
X105763853Y-122956664D01*
X105792352Y-122912319D01*
X105824281Y-122880391D01*
X105912549Y-122737287D01*
X105965436Y-122577685D01*
X105975500Y-122479174D01*
X105975500Y-121945826D01*
X105965436Y-121847315D01*
X105912549Y-121687713D01*
X105912545Y-121687707D01*
X105912544Y-121687704D01*
X105824283Y-121544612D01*
X105824280Y-121544608D01*
X105705390Y-121425718D01*
X105659402Y-121397352D01*
X105612678Y-121345403D01*
X105600500Y-121291814D01*
X105600500Y-120698049D01*
X105618962Y-120632951D01*
X105620896Y-120629816D01*
X105662549Y-120562287D01*
X105715436Y-120402685D01*
X105725500Y-120304174D01*
X105725500Y-119962596D01*
X105745185Y-119895558D01*
X105761819Y-119874916D01*
X105999916Y-119636819D01*
X106061239Y-119603334D01*
X106087597Y-119600500D01*
X107917588Y-119600500D01*
X107984627Y-119620185D01*
X107994903Y-119627555D01*
X107997736Y-119629814D01*
X107997738Y-119629816D01*
X108037435Y-119654759D01*
X108148426Y-119724500D01*
X108150478Y-119725789D01*
X108278052Y-119770429D01*
X108320745Y-119785368D01*
X108320750Y-119785369D01*
X108499996Y-119805565D01*
X108500000Y-119805565D01*
X108500004Y-119805565D01*
X108679249Y-119785369D01*
X108679252Y-119785368D01*
X108679255Y-119785368D01*
X108849522Y-119725789D01*
X109002262Y-119629816D01*
X109129816Y-119502262D01*
X109130443Y-119501265D01*
X109154239Y-119463393D01*
X109170012Y-119438289D01*
X109222346Y-119391998D01*
X109291399Y-119381349D01*
X109355248Y-119409724D01*
X109380000Y-119438289D01*
X109420197Y-119502262D01*
X109547751Y-119629816D01*
X109587448Y-119654759D01*
X109698439Y-119724500D01*
X109700491Y-119725789D01*
X109828065Y-119770429D01*
X109870758Y-119785368D01*
X109870763Y-119785369D01*
X110050009Y-119805565D01*
X110050013Y-119805565D01*
X110050017Y-119805565D01*
X110229262Y-119785369D01*
X110229265Y-119785368D01*
X110229268Y-119785368D01*
X110399535Y-119725789D01*
X110552275Y-119629816D01*
X110679829Y-119502262D01*
X110775802Y-119349522D01*
X110835381Y-119179255D01*
X110835382Y-119179249D01*
X110855578Y-119000003D01*
X110855578Y-118999996D01*
X110835382Y-118820750D01*
X110835381Y-118820745D01*
X110791672Y-118695832D01*
X110775802Y-118650478D01*
X110770095Y-118641396D01*
X110724253Y-118568438D01*
X110679829Y-118497738D01*
X110552275Y-118370184D01*
X110473600Y-118320749D01*
X110399534Y-118274210D01*
X110229262Y-118214630D01*
X110142343Y-118204837D01*
X110077929Y-118177770D01*
X110068546Y-118169298D01*
X109505341Y-117606093D01*
X109499987Y-117599988D01*
X109478299Y-117571722D01*
X109478296Y-117571720D01*
X109478295Y-117571718D01*
X109352854Y-117475464D01*
X109310337Y-117457853D01*
X109206775Y-117414956D01*
X109206773Y-117414955D01*
X109089374Y-117399500D01*
X109050013Y-117394318D01*
X109014683Y-117398969D01*
X109006585Y-117399500D01*
X105724500Y-117399500D01*
X105657461Y-117379815D01*
X105611706Y-117327011D01*
X105600500Y-117275500D01*
X105600500Y-116708185D01*
X105620185Y-116641146D01*
X105659401Y-116602647D01*
X105705391Y-116574281D01*
X105824281Y-116455391D01*
X105912549Y-116312287D01*
X105965436Y-116152685D01*
X105975500Y-116054174D01*
X105975500Y-115979181D01*
X118524500Y-115979181D01*
X118534563Y-116077683D01*
X118587450Y-116237284D01*
X118587455Y-116237295D01*
X118675716Y-116380387D01*
X118675719Y-116380391D01*
X118794608Y-116499280D01*
X118794612Y-116499283D01*
X118937704Y-116587544D01*
X118937707Y-116587545D01*
X118937713Y-116587549D01*
X119097315Y-116640436D01*
X119195826Y-116650500D01*
X119195831Y-116650500D01*
X119804169Y-116650500D01*
X119804174Y-116650500D01*
X119902685Y-116640436D01*
X120062287Y-116587549D01*
X120205391Y-116499281D01*
X120324281Y-116380391D01*
X120412549Y-116237287D01*
X120465436Y-116077685D01*
X120475500Y-115979174D01*
X120475500Y-115445826D01*
X120465436Y-115347315D01*
X120412549Y-115187713D01*
X120412545Y-115187707D01*
X120412544Y-115187704D01*
X120322105Y-115041081D01*
X120304423Y-114989867D01*
X120285369Y-114820750D01*
X120285368Y-114820745D01*
X120259887Y-114747925D01*
X120225789Y-114650478D01*
X120215769Y-114634532D01*
X120129815Y-114497737D01*
X120002262Y-114370184D01*
X119849523Y-114274211D01*
X119679254Y-114214631D01*
X119679249Y-114214630D01*
X119500004Y-114194435D01*
X119499996Y-114194435D01*
X119320750Y-114214630D01*
X119320745Y-114214631D01*
X119150476Y-114274211D01*
X118997737Y-114370184D01*
X118870184Y-114497737D01*
X118774211Y-114650476D01*
X118714631Y-114820745D01*
X118714630Y-114820749D01*
X118695575Y-114989870D01*
X118677894Y-115041083D01*
X118587452Y-115187710D01*
X118587450Y-115187715D01*
X118566811Y-115250000D01*
X118534564Y-115347315D01*
X118534564Y-115347316D01*
X118534563Y-115347316D01*
X118524500Y-115445818D01*
X118524500Y-115979181D01*
X105975500Y-115979181D01*
X105975500Y-115520826D01*
X105965436Y-115422315D01*
X105912549Y-115262713D01*
X105912545Y-115262707D01*
X105912544Y-115262704D01*
X105824283Y-115119612D01*
X105824280Y-115119607D01*
X105792352Y-115087679D01*
X105758867Y-115026355D01*
X105763853Y-114956664D01*
X105792352Y-114912319D01*
X105824281Y-114880391D01*
X105912549Y-114737287D01*
X105965436Y-114577685D01*
X105975500Y-114479174D01*
X105975500Y-113945826D01*
X105965436Y-113847315D01*
X105912549Y-113687713D01*
X105912545Y-113687707D01*
X105912544Y-113687704D01*
X105822105Y-113541081D01*
X105804423Y-113489867D01*
X105803915Y-113485362D01*
X105794130Y-113398507D01*
X105785369Y-113320750D01*
X105785368Y-113320745D01*
X105776582Y-113295635D01*
X105725789Y-113150478D01*
X105717206Y-113136819D01*
X105676361Y-113071814D01*
X105629816Y-112997738D01*
X105502262Y-112870184D01*
X105468769Y-112849139D01*
X105349524Y-112774212D01*
X105349525Y-112774212D01*
X105346803Y-112773259D01*
X105333042Y-112768444D01*
X105276268Y-112727722D01*
X105250522Y-112662769D01*
X105250000Y-112651404D01*
X105250000Y-112173122D01*
X105251262Y-112155475D01*
X105255500Y-112126000D01*
X105255500Y-108162870D01*
X105250543Y-108125696D01*
X105250000Y-108117513D01*
X105250000Y-107500000D01*
X105249999Y-107500000D01*
X105249999Y-107499999D01*
X105233391Y-107483390D01*
X105199907Y-107422067D01*
X105197715Y-107383106D01*
X105200500Y-107355848D01*
X105200500Y-106769152D01*
X105190087Y-106667225D01*
X105135362Y-106502075D01*
X105135358Y-106502069D01*
X105135357Y-106502066D01*
X105044028Y-106354000D01*
X105044025Y-106353996D01*
X104921003Y-106230974D01*
X104920999Y-106230971D01*
X104846005Y-106184714D01*
X104799280Y-106132766D01*
X104787882Y-106093059D01*
X104785368Y-106070745D01*
X104725789Y-105900478D01*
X104713167Y-105880391D01*
X104629815Y-105747737D01*
X104502262Y-105620184D01*
X104349523Y-105524211D01*
X104179254Y-105464631D01*
X104179249Y-105464630D01*
X104000004Y-105444435D01*
X103999996Y-105444435D01*
X103820750Y-105464630D01*
X103820745Y-105464631D01*
X103650476Y-105524211D01*
X103497737Y-105620184D01*
X103370184Y-105747737D01*
X103274210Y-105900478D01*
X103214630Y-106070750D01*
X103212117Y-106093059D01*
X103185050Y-106157473D01*
X103153995Y-106184713D01*
X103078998Y-106230972D01*
X102955971Y-106354000D01*
X102864642Y-106502066D01*
X102864637Y-106502077D01*
X102809913Y-106667223D01*
X102799500Y-106769144D01*
X102799500Y-107355842D01*
X102799501Y-107355869D01*
X102799709Y-107357903D01*
X102799627Y-107358342D01*
X102799661Y-107359005D01*
X102799502Y-107359013D01*
X102786937Y-107426595D01*
X102739055Y-107477478D01*
X102676351Y-107494500D01*
X102498361Y-107494500D01*
X102431322Y-107474815D01*
X102385567Y-107422011D01*
X102375422Y-107386686D01*
X102359626Y-107266707D01*
X102362676Y-107266305D01*
X102362685Y-107233697D01*
X102359626Y-107233295D01*
X102363133Y-107206657D01*
X102375500Y-107112720D01*
X102375500Y-106887280D01*
X102360687Y-106774764D01*
X102302698Y-106634767D01*
X102210451Y-106514549D01*
X102090233Y-106422302D01*
X102090229Y-106422300D01*
X102022254Y-106394144D01*
X101950236Y-106364313D01*
X101936171Y-106362461D01*
X101837727Y-106349500D01*
X101837720Y-106349500D01*
X101724500Y-106349500D01*
X101657461Y-106329815D01*
X101611706Y-106277011D01*
X101600500Y-106225500D01*
X101600500Y-105708185D01*
X101620185Y-105641146D01*
X101659401Y-105602647D01*
X101705391Y-105574281D01*
X101824281Y-105455391D01*
X101912549Y-105312287D01*
X101965436Y-105152685D01*
X101975500Y-105054174D01*
X101975500Y-104520826D01*
X101965436Y-104422315D01*
X101912549Y-104262713D01*
X101912545Y-104262707D01*
X101912544Y-104262704D01*
X101824283Y-104119612D01*
X101824280Y-104119608D01*
X101792353Y-104087681D01*
X101758868Y-104026358D01*
X101763852Y-103956666D01*
X101792353Y-103912319D01*
X101801641Y-103903031D01*
X101824281Y-103880391D01*
X101912549Y-103737287D01*
X101965436Y-103577685D01*
X101975500Y-103479174D01*
X101975500Y-102945826D01*
X101965436Y-102847315D01*
X101912549Y-102687713D01*
X101912545Y-102687707D01*
X101912544Y-102687704D01*
X101822105Y-102541081D01*
X101804423Y-102489867D01*
X101785369Y-102320750D01*
X101785368Y-102320745D01*
X101725788Y-102150476D01*
X101629815Y-101997737D01*
X101502262Y-101870184D01*
X101349523Y-101774211D01*
X101179254Y-101714631D01*
X101179249Y-101714630D01*
X101000004Y-101694435D01*
X100999996Y-101694435D01*
X100820750Y-101714630D01*
X100820745Y-101714631D01*
X100650476Y-101774211D01*
X100497737Y-101870184D01*
X100370184Y-101997737D01*
X100274211Y-102150476D01*
X100214631Y-102320745D01*
X100214630Y-102320749D01*
X100195575Y-102489870D01*
X100177894Y-102541083D01*
X100087452Y-102687710D01*
X100087450Y-102687715D01*
X100066812Y-102749997D01*
X100034564Y-102847315D01*
X100034564Y-102847316D01*
X100034563Y-102847316D01*
X100024500Y-102945818D01*
X100024500Y-103479181D01*
X100034563Y-103577683D01*
X100087450Y-103737284D01*
X100087455Y-103737295D01*
X100175716Y-103880387D01*
X100175719Y-103880391D01*
X100207647Y-103912319D01*
X100241132Y-103973642D01*
X100236148Y-104043334D01*
X100207647Y-104087681D01*
X100175719Y-104119608D01*
X100175716Y-104119612D01*
X100087455Y-104262704D01*
X100087450Y-104262713D01*
X100087451Y-104262713D01*
X100034564Y-104422315D01*
X100034564Y-104422316D01*
X100034563Y-104422316D01*
X100024500Y-104520818D01*
X100024500Y-105054181D01*
X100034563Y-105152683D01*
X100087450Y-105312284D01*
X100087455Y-105312295D01*
X100175716Y-105455387D01*
X100175719Y-105455391D01*
X100294608Y-105574280D01*
X100294612Y-105574283D01*
X100340596Y-105602647D01*
X100387321Y-105654595D01*
X100399499Y-105708185D01*
X100399499Y-106260858D01*
X100379814Y-106327897D01*
X100327010Y-106373652D01*
X100322952Y-106375419D01*
X100209770Y-106422300D01*
X100209767Y-106422301D01*
X100209767Y-106422302D01*
X100089549Y-106514549D01*
X100089547Y-106514550D01*
X100089546Y-106514552D01*
X100083105Y-106522946D01*
X100026676Y-106564147D01*
X99956930Y-106568300D01*
X99954431Y-106567550D01*
X99947483Y-106565908D01*
X99887883Y-106559501D01*
X99887881Y-106559500D01*
X99887873Y-106559500D01*
X99887864Y-106559500D01*
X98112129Y-106559500D01*
X98112123Y-106559501D01*
X98052515Y-106565909D01*
X98044971Y-106567692D01*
X98044259Y-106564679D01*
X97988822Y-106568604D01*
X97927523Y-106535074D01*
X97916894Y-106522946D01*
X97910451Y-106514549D01*
X97790233Y-106422302D01*
X97790229Y-106422300D01*
X97722254Y-106394144D01*
X97650236Y-106364313D01*
X97636171Y-106362461D01*
X97537727Y-106349500D01*
X97537720Y-106349500D01*
X96512290Y-106349500D01*
X96445251Y-106329815D01*
X96407297Y-106291473D01*
X96379817Y-106247739D01*
X96252262Y-106120184D01*
X96099523Y-106024211D01*
X95929254Y-105964631D01*
X95929249Y-105964630D01*
X95750004Y-105944435D01*
X95749996Y-105944435D01*
X95570750Y-105964630D01*
X95570745Y-105964631D01*
X95400476Y-106024211D01*
X95247734Y-106120186D01*
X95242290Y-106124528D01*
X95241218Y-106123183D01*
X95187638Y-106152432D01*
X95117947Y-106147438D01*
X95073615Y-106118943D01*
X95042353Y-106087681D01*
X95008868Y-106026358D01*
X95013852Y-105956666D01*
X95042353Y-105912319D01*
X95054196Y-105900476D01*
X95074281Y-105880391D01*
X95162549Y-105737287D01*
X95215436Y-105577685D01*
X95225500Y-105479174D01*
X95225500Y-104945826D01*
X95215436Y-104847315D01*
X95162549Y-104687713D01*
X95162545Y-104687707D01*
X95162544Y-104687704D01*
X95072105Y-104541081D01*
X95054423Y-104489867D01*
X95035369Y-104320750D01*
X95035368Y-104320745D01*
X95015062Y-104262713D01*
X94975789Y-104150478D01*
X94879816Y-103997738D01*
X94752262Y-103870184D01*
X94709088Y-103843056D01*
X94599523Y-103774211D01*
X94429254Y-103714631D01*
X94429249Y-103714630D01*
X94250004Y-103694435D01*
X94249996Y-103694435D01*
X94070750Y-103714630D01*
X94070745Y-103714631D01*
X93900476Y-103774211D01*
X93747737Y-103870184D01*
X93620184Y-103997737D01*
X93528489Y-104143669D01*
X93476154Y-104189960D01*
X93407100Y-104200608D01*
X93343252Y-104172233D01*
X93317957Y-104142794D01*
X93294028Y-104104000D01*
X93294025Y-104103996D01*
X93171003Y-103980974D01*
X93170999Y-103980971D01*
X93096005Y-103934714D01*
X93049280Y-103882766D01*
X93037882Y-103843059D01*
X93035368Y-103820745D01*
X92975789Y-103650478D01*
X92879816Y-103497738D01*
X92752262Y-103370184D01*
X92704982Y-103340476D01*
X92599523Y-103274211D01*
X92429254Y-103214631D01*
X92429249Y-103214630D01*
X92250004Y-103194435D01*
X92249996Y-103194435D01*
X92070750Y-103214630D01*
X92070745Y-103214631D01*
X91900476Y-103274211D01*
X91747737Y-103370184D01*
X91620184Y-103497737D01*
X91524210Y-103650478D01*
X91464630Y-103820750D01*
X91462117Y-103843059D01*
X91435050Y-103907473D01*
X91403995Y-103934713D01*
X91328998Y-103980972D01*
X91205971Y-104104000D01*
X91114642Y-104252066D01*
X91114637Y-104252077D01*
X91059913Y-104417223D01*
X91049500Y-104519144D01*
X91049500Y-105105855D01*
X91059913Y-105207776D01*
X91114637Y-105372922D01*
X91114642Y-105372933D01*
X91205971Y-105520999D01*
X91205974Y-105521003D01*
X91328996Y-105644025D01*
X91329000Y-105644028D01*
X91329703Y-105644462D01*
X91330083Y-105644885D01*
X91334664Y-105648507D01*
X91334045Y-105649289D01*
X91376428Y-105696410D01*
X91387649Y-105765372D01*
X91359806Y-105829454D01*
X91334544Y-105851342D01*
X91334664Y-105851493D01*
X91331315Y-105854140D01*
X91329703Y-105855538D01*
X91329000Y-105855971D01*
X91328996Y-105855974D01*
X91205974Y-105978996D01*
X91205971Y-105979000D01*
X91114642Y-106127066D01*
X91114637Y-106127077D01*
X91059913Y-106292223D01*
X91049500Y-106394144D01*
X91049500Y-106980855D01*
X88525500Y-106980855D01*
X88525500Y-100000005D01*
X126494357Y-100000005D01*
X126514890Y-100247812D01*
X126514892Y-100247824D01*
X126575936Y-100488881D01*
X126675826Y-100716606D01*
X126811833Y-100924782D01*
X126811836Y-100924785D01*
X126980256Y-101107738D01*
X127176491Y-101260474D01*
X127395190Y-101378828D01*
X127630386Y-101459571D01*
X127875665Y-101500500D01*
X128124335Y-101500500D01*
X128369614Y-101459571D01*
X128604810Y-101378828D01*
X128823509Y-101260474D01*
X129019744Y-101107738D01*
X129188164Y-100924785D01*
X129324173Y-100716607D01*
X129424063Y-100488881D01*
X129485108Y-100247821D01*
X129505643Y-100000005D01*
X132994357Y-100000005D01*
X133014890Y-100247812D01*
X133014892Y-100247824D01*
X133075936Y-100488881D01*
X133175826Y-100716606D01*
X133311833Y-100924782D01*
X133311836Y-100924785D01*
X133480256Y-101107738D01*
X133676491Y-101260474D01*
X133895190Y-101378828D01*
X134130386Y-101459571D01*
X134375665Y-101500500D01*
X134624335Y-101500500D01*
X134869614Y-101459571D01*
X135104810Y-101378828D01*
X135323509Y-101260474D01*
X135519744Y-101107738D01*
X135688164Y-100924785D01*
X135824173Y-100716607D01*
X135924063Y-100488881D01*
X135985108Y-100247821D01*
X136005643Y-100000005D01*
X136494357Y-100000005D01*
X136514890Y-100247812D01*
X136514892Y-100247824D01*
X136575936Y-100488881D01*
X136675826Y-100716606D01*
X136811833Y-100924782D01*
X136811836Y-100924785D01*
X136980256Y-101107738D01*
X137176491Y-101260474D01*
X137395190Y-101378828D01*
X137630386Y-101459571D01*
X137875665Y-101500500D01*
X138124335Y-101500500D01*
X138369614Y-101459571D01*
X138604810Y-101378828D01*
X138823509Y-101260474D01*
X139019744Y-101107738D01*
X139188164Y-100924785D01*
X139324173Y-100716607D01*
X139424063Y-100488881D01*
X139485108Y-100247821D01*
X139505643Y-100000005D01*
X142994357Y-100000005D01*
X143014890Y-100247812D01*
X143014892Y-100247824D01*
X143075936Y-100488881D01*
X143175826Y-100716606D01*
X143311833Y-100924782D01*
X143311836Y-100924785D01*
X143480256Y-101107738D01*
X143676491Y-101260474D01*
X143895190Y-101378828D01*
X144130386Y-101459571D01*
X144375665Y-101500500D01*
X144624335Y-101500500D01*
X144869614Y-101459571D01*
X145104810Y-101378828D01*
X145323509Y-101260474D01*
X145519744Y-101107738D01*
X145688164Y-100924785D01*
X145824173Y-100716607D01*
X145924063Y-100488881D01*
X145985108Y-100247821D01*
X146005643Y-100000005D01*
X146494357Y-100000005D01*
X146514890Y-100247812D01*
X146514892Y-100247824D01*
X146575936Y-100488881D01*
X146675826Y-100716606D01*
X146811833Y-100924782D01*
X146811836Y-100924785D01*
X146980256Y-101107738D01*
X147176491Y-101260474D01*
X147395190Y-101378828D01*
X147630386Y-101459571D01*
X147875665Y-101500500D01*
X148124335Y-101500500D01*
X148369614Y-101459571D01*
X148604810Y-101378828D01*
X148823509Y-101260474D01*
X149019744Y-101107738D01*
X149188164Y-100924785D01*
X149324173Y-100716607D01*
X149424063Y-100488881D01*
X149485108Y-100247821D01*
X149505643Y-100000005D01*
X152994357Y-100000005D01*
X153014890Y-100247812D01*
X153014892Y-100247824D01*
X153075936Y-100488881D01*
X153175826Y-100716606D01*
X153311833Y-100924782D01*
X153311836Y-100924785D01*
X153480256Y-101107738D01*
X153676491Y-101260474D01*
X153895190Y-101378828D01*
X154130386Y-101459571D01*
X154375665Y-101500500D01*
X154624335Y-101500500D01*
X154869614Y-101459571D01*
X155104810Y-101378828D01*
X155323509Y-101260474D01*
X155519744Y-101107738D01*
X155688164Y-100924785D01*
X155824173Y-100716607D01*
X155924063Y-100488881D01*
X155985108Y-100247821D01*
X156005643Y-100000000D01*
X155985108Y-99752179D01*
X155924063Y-99511119D01*
X155921512Y-99505304D01*
X155824173Y-99283393D01*
X155688166Y-99075217D01*
X155651771Y-99035682D01*
X155519744Y-98892262D01*
X155323509Y-98739526D01*
X155323507Y-98739525D01*
X155323506Y-98739524D01*
X155104811Y-98621172D01*
X155104802Y-98621169D01*
X154869616Y-98540429D01*
X154624335Y-98499500D01*
X154375665Y-98499500D01*
X154130383Y-98540429D01*
X153895197Y-98621169D01*
X153895188Y-98621172D01*
X153676493Y-98739524D01*
X153480257Y-98892261D01*
X153311833Y-99075217D01*
X153175826Y-99283393D01*
X153075936Y-99511118D01*
X153014892Y-99752175D01*
X153014890Y-99752187D01*
X152994357Y-99999994D01*
X152994357Y-100000005D01*
X149505643Y-100000005D01*
X149505643Y-100000000D01*
X149485108Y-99752179D01*
X149424063Y-99511119D01*
X149421512Y-99505304D01*
X149324173Y-99283393D01*
X149188166Y-99075217D01*
X149151771Y-99035682D01*
X149019744Y-98892262D01*
X148823509Y-98739526D01*
X148823507Y-98739525D01*
X148823506Y-98739524D01*
X148604811Y-98621172D01*
X148604802Y-98621169D01*
X148369616Y-98540429D01*
X148124335Y-98499500D01*
X147875665Y-98499500D01*
X147630383Y-98540429D01*
X147395197Y-98621169D01*
X147395188Y-98621172D01*
X147176493Y-98739524D01*
X146980257Y-98892261D01*
X146811833Y-99075217D01*
X146675826Y-99283393D01*
X146575936Y-99511118D01*
X146514892Y-99752175D01*
X146514890Y-99752187D01*
X146494357Y-99999994D01*
X146494357Y-100000005D01*
X146005643Y-100000005D01*
X146005643Y-100000000D01*
X145985108Y-99752179D01*
X145924063Y-99511119D01*
X145921512Y-99505304D01*
X145824173Y-99283393D01*
X145688166Y-99075217D01*
X145651771Y-99035682D01*
X145519744Y-98892262D01*
X145323509Y-98739526D01*
X145323507Y-98739525D01*
X145323506Y-98739524D01*
X145104811Y-98621172D01*
X145104802Y-98621169D01*
X144869616Y-98540429D01*
X144624335Y-98499500D01*
X144375665Y-98499500D01*
X144130383Y-98540429D01*
X143895197Y-98621169D01*
X143895188Y-98621172D01*
X143676493Y-98739524D01*
X143480257Y-98892261D01*
X143311833Y-99075217D01*
X143175826Y-99283393D01*
X143075936Y-99511118D01*
X143014892Y-99752175D01*
X143014890Y-99752187D01*
X142994357Y-99999994D01*
X142994357Y-100000005D01*
X139505643Y-100000005D01*
X139505643Y-100000000D01*
X139485108Y-99752179D01*
X139424063Y-99511119D01*
X139421512Y-99505304D01*
X139324173Y-99283393D01*
X139188166Y-99075217D01*
X139151771Y-99035682D01*
X139019744Y-98892262D01*
X138823509Y-98739526D01*
X138823507Y-98739525D01*
X138823506Y-98739524D01*
X138604811Y-98621172D01*
X138604802Y-98621169D01*
X138369616Y-98540429D01*
X138124335Y-98499500D01*
X137875665Y-98499500D01*
X137630383Y-98540429D01*
X137395197Y-98621169D01*
X137395188Y-98621172D01*
X137176493Y-98739524D01*
X136980257Y-98892261D01*
X136811833Y-99075217D01*
X136675826Y-99283393D01*
X136575936Y-99511118D01*
X136514892Y-99752175D01*
X136514890Y-99752187D01*
X136494357Y-99999994D01*
X136494357Y-100000005D01*
X136005643Y-100000005D01*
X136005643Y-100000000D01*
X135985108Y-99752179D01*
X135924063Y-99511119D01*
X135921512Y-99505304D01*
X135824173Y-99283393D01*
X135688166Y-99075217D01*
X135651771Y-99035682D01*
X135519744Y-98892262D01*
X135323509Y-98739526D01*
X135323507Y-98739525D01*
X135323506Y-98739524D01*
X135104811Y-98621172D01*
X135104802Y-98621169D01*
X134869616Y-98540429D01*
X134624335Y-98499500D01*
X134375665Y-98499500D01*
X134130383Y-98540429D01*
X133895197Y-98621169D01*
X133895188Y-98621172D01*
X133676493Y-98739524D01*
X133480257Y-98892261D01*
X133311833Y-99075217D01*
X133175826Y-99283393D01*
X133075936Y-99511118D01*
X133014892Y-99752175D01*
X133014890Y-99752187D01*
X132994357Y-99999994D01*
X132994357Y-100000005D01*
X129505643Y-100000005D01*
X129505643Y-100000000D01*
X129485108Y-99752179D01*
X129424063Y-99511119D01*
X129421512Y-99505304D01*
X129324173Y-99283393D01*
X129188166Y-99075217D01*
X129151771Y-99035682D01*
X129019744Y-98892262D01*
X128823509Y-98739526D01*
X128823507Y-98739525D01*
X128823506Y-98739524D01*
X128604811Y-98621172D01*
X128604802Y-98621169D01*
X128369616Y-98540429D01*
X128124335Y-98499500D01*
X127875665Y-98499500D01*
X127630383Y-98540429D01*
X127395197Y-98621169D01*
X127395188Y-98621172D01*
X127176493Y-98739524D01*
X126980257Y-98892261D01*
X126811833Y-99075217D01*
X126675826Y-99283393D01*
X126575936Y-99511118D01*
X126514892Y-99752175D01*
X126514890Y-99752187D01*
X126494357Y-99999994D01*
X126494357Y-100000005D01*
X88525500Y-100000005D01*
X88525500Y-97385556D01*
X88545185Y-97318517D01*
X88597989Y-97272762D01*
X88667147Y-97262818D01*
X88730703Y-97291843D01*
X88765263Y-97341118D01*
X88797744Y-97425735D01*
X88797745Y-97425736D01*
X88964320Y-97752656D01*
X89164147Y-98060364D01*
X89277627Y-98200500D01*
X89395051Y-98345506D01*
X89654494Y-98604949D01*
X89654498Y-98604952D01*
X89939635Y-98835852D01*
X90247343Y-99035679D01*
X90247348Y-99035682D01*
X90574264Y-99202255D01*
X90916801Y-99333742D01*
X91271206Y-99428705D01*
X91633596Y-99486102D01*
X91979734Y-99504241D01*
X91999999Y-99505304D01*
X92000000Y-99505304D01*
X92000001Y-99505304D01*
X92019203Y-99504297D01*
X92366404Y-99486102D01*
X92728794Y-99428705D01*
X93083199Y-99333742D01*
X93425736Y-99202255D01*
X93752652Y-99035682D01*
X94060366Y-98835851D01*
X94345506Y-98604949D01*
X94604949Y-98345506D01*
X94835851Y-98060366D01*
X95035682Y-97752652D01*
X95038119Y-97747870D01*
X98399500Y-97747870D01*
X98399501Y-97747876D01*
X98405908Y-97807483D01*
X98456202Y-97942328D01*
X98456206Y-97942335D01*
X98542452Y-98057544D01*
X98542455Y-98057547D01*
X98657664Y-98143793D01*
X98657671Y-98143797D01*
X98792517Y-98194091D01*
X98792516Y-98194091D01*
X98799444Y-98194835D01*
X98852127Y-98200500D01*
X100647872Y-98200499D01*
X100707483Y-98194091D01*
X100842331Y-98143796D01*
X100957546Y-98057546D01*
X101043796Y-97942331D01*
X101092810Y-97810916D01*
X101134681Y-97754984D01*
X101200145Y-97730566D01*
X101268418Y-97745417D01*
X101296673Y-97766569D01*
X101418599Y-97888495D01*
X101515384Y-97956264D01*
X101612165Y-98024032D01*
X101612167Y-98024033D01*
X101612170Y-98024035D01*
X101826337Y-98123903D01*
X102054592Y-98185063D01*
X102231034Y-98200500D01*
X102289999Y-98205659D01*
X102290000Y-98205659D01*
X102290001Y-98205659D01*
X102348966Y-98200500D01*
X102525408Y-98185063D01*
X102753663Y-98123903D01*
X102967830Y-98024035D01*
X103161401Y-97888495D01*
X103328495Y-97721401D01*
X103458424Y-97535842D01*
X103513002Y-97492217D01*
X103582500Y-97485023D01*
X103644855Y-97516546D01*
X103661575Y-97535842D01*
X103791500Y-97721395D01*
X103791505Y-97721401D01*
X103958599Y-97888495D01*
X104055384Y-97956264D01*
X104152165Y-98024032D01*
X104152167Y-98024033D01*
X104152170Y-98024035D01*
X104366337Y-98123903D01*
X104594592Y-98185063D01*
X104771034Y-98200500D01*
X104829999Y-98205659D01*
X104830000Y-98205659D01*
X104830001Y-98205659D01*
X104888966Y-98200500D01*
X105065408Y-98185063D01*
X105293663Y-98123903D01*
X105507830Y-98024035D01*
X105701401Y-97888495D01*
X105868495Y-97721401D01*
X105998424Y-97535842D01*
X106053002Y-97492217D01*
X106122500Y-97485023D01*
X106184855Y-97516546D01*
X106201575Y-97535842D01*
X106331500Y-97721395D01*
X106331505Y-97721401D01*
X106498599Y-97888495D01*
X106595384Y-97956264D01*
X106692165Y-98024032D01*
X106692167Y-98024033D01*
X106692170Y-98024035D01*
X106906337Y-98123903D01*
X107134592Y-98185063D01*
X107311034Y-98200500D01*
X107369999Y-98205659D01*
X107370000Y-98205659D01*
X107370001Y-98205659D01*
X107428966Y-98200500D01*
X107605408Y-98185063D01*
X107833663Y-98123903D01*
X108047830Y-98024035D01*
X108241401Y-97888495D01*
X108408495Y-97721401D01*
X108538424Y-97535842D01*
X108593002Y-97492217D01*
X108662500Y-97485023D01*
X108724855Y-97516546D01*
X108741575Y-97535842D01*
X108871500Y-97721395D01*
X108871505Y-97721401D01*
X109038599Y-97888495D01*
X109135384Y-97956265D01*
X109232165Y-98024032D01*
X109232167Y-98024033D01*
X109232170Y-98024035D01*
X109446337Y-98123903D01*
X109674592Y-98185063D01*
X109851034Y-98200500D01*
X109909999Y-98205659D01*
X109910000Y-98205659D01*
X109910001Y-98205659D01*
X109968966Y-98200500D01*
X110145408Y-98185063D01*
X110373663Y-98123903D01*
X110587830Y-98024035D01*
X110781401Y-97888495D01*
X110948495Y-97721401D01*
X111078424Y-97535842D01*
X111133002Y-97492217D01*
X111202500Y-97485023D01*
X111264855Y-97516546D01*
X111281575Y-97535842D01*
X111411500Y-97721395D01*
X111411505Y-97721401D01*
X111578599Y-97888495D01*
X111675384Y-97956265D01*
X111772165Y-98024032D01*
X111772167Y-98024033D01*
X111772170Y-98024035D01*
X111986337Y-98123903D01*
X112214592Y-98185063D01*
X112391034Y-98200500D01*
X112449999Y-98205659D01*
X112450000Y-98205659D01*
X112450001Y-98205659D01*
X112508966Y-98200500D01*
X112685408Y-98185063D01*
X112913663Y-98123903D01*
X113127830Y-98024035D01*
X113321401Y-97888495D01*
X113488495Y-97721401D01*
X113618424Y-97535842D01*
X113673002Y-97492217D01*
X113742500Y-97485023D01*
X113804855Y-97516546D01*
X113821575Y-97535842D01*
X113951500Y-97721395D01*
X113951505Y-97721401D01*
X114118599Y-97888495D01*
X114215384Y-97956265D01*
X114312165Y-98024032D01*
X114312167Y-98024033D01*
X114312170Y-98024035D01*
X114526337Y-98123903D01*
X114754592Y-98185063D01*
X114931034Y-98200500D01*
X114989999Y-98205659D01*
X114990000Y-98205659D01*
X114990001Y-98205659D01*
X115048966Y-98200500D01*
X115225408Y-98185063D01*
X115453663Y-98123903D01*
X115667830Y-98024035D01*
X115861401Y-97888495D01*
X116028495Y-97721401D01*
X116158424Y-97535842D01*
X116213002Y-97492217D01*
X116282500Y-97485023D01*
X116344855Y-97516546D01*
X116361575Y-97535842D01*
X116491500Y-97721395D01*
X116491505Y-97721401D01*
X116658599Y-97888495D01*
X116755384Y-97956265D01*
X116852165Y-98024032D01*
X116852167Y-98024033D01*
X116852170Y-98024035D01*
X117066337Y-98123903D01*
X117294592Y-98185063D01*
X117471034Y-98200500D01*
X117529999Y-98205659D01*
X117530000Y-98205659D01*
X117530001Y-98205659D01*
X117588966Y-98200500D01*
X117765408Y-98185063D01*
X117993663Y-98123903D01*
X118207830Y-98024035D01*
X118401401Y-97888495D01*
X118568495Y-97721401D01*
X118698424Y-97535842D01*
X118753002Y-97492217D01*
X118822500Y-97485023D01*
X118884855Y-97516546D01*
X118901575Y-97535842D01*
X119031500Y-97721395D01*
X119031505Y-97721401D01*
X119198599Y-97888495D01*
X119295384Y-97956265D01*
X119392165Y-98024032D01*
X119392167Y-98024033D01*
X119392170Y-98024035D01*
X119606337Y-98123903D01*
X119834592Y-98185063D01*
X120011034Y-98200500D01*
X120069999Y-98205659D01*
X120070000Y-98205659D01*
X120070001Y-98205659D01*
X120128966Y-98200500D01*
X120305408Y-98185063D01*
X120533663Y-98123903D01*
X120747830Y-98024035D01*
X120941401Y-97888495D01*
X121108495Y-97721401D01*
X121238424Y-97535842D01*
X121293002Y-97492217D01*
X121362500Y-97485023D01*
X121424855Y-97516546D01*
X121441575Y-97535842D01*
X121571500Y-97721395D01*
X121571505Y-97721401D01*
X121738599Y-97888495D01*
X121835384Y-97956265D01*
X121932165Y-98024032D01*
X121932167Y-98024033D01*
X121932170Y-98024035D01*
X122146337Y-98123903D01*
X122374592Y-98185063D01*
X122551034Y-98200500D01*
X122609999Y-98205659D01*
X122610000Y-98205659D01*
X122610001Y-98205659D01*
X122668966Y-98200500D01*
X122845408Y-98185063D01*
X123073663Y-98123903D01*
X123287830Y-98024035D01*
X123481401Y-97888495D01*
X123648495Y-97721401D01*
X123784035Y-97527830D01*
X123883903Y-97313663D01*
X123945063Y-97085408D01*
X123965659Y-96850000D01*
X123945063Y-96614592D01*
X123883903Y-96386337D01*
X123784035Y-96172171D01*
X123778425Y-96164158D01*
X123648494Y-95978597D01*
X123481402Y-95811506D01*
X123481396Y-95811501D01*
X123295842Y-95681575D01*
X123252217Y-95626998D01*
X123245023Y-95557500D01*
X123274089Y-95500005D01*
X126494357Y-95500005D01*
X126514890Y-95747812D01*
X126514892Y-95747824D01*
X126575936Y-95988881D01*
X126675826Y-96216606D01*
X126811833Y-96424782D01*
X126811836Y-96424785D01*
X126980256Y-96607738D01*
X127176491Y-96760474D01*
X127176493Y-96760475D01*
X127341920Y-96850000D01*
X127395190Y-96878828D01*
X127630386Y-96959571D01*
X127875665Y-97000500D01*
X128124335Y-97000500D01*
X128369614Y-96959571D01*
X128604810Y-96878828D01*
X128823509Y-96760474D01*
X129019744Y-96607738D01*
X129188164Y-96424785D01*
X129324173Y-96216607D01*
X129424063Y-95988881D01*
X129485108Y-95747821D01*
X129485109Y-95747812D01*
X129505643Y-95500005D01*
X132994357Y-95500005D01*
X133014890Y-95747812D01*
X133014892Y-95747824D01*
X133075936Y-95988881D01*
X133175826Y-96216606D01*
X133311833Y-96424782D01*
X133311836Y-96424785D01*
X133480256Y-96607738D01*
X133676491Y-96760474D01*
X133676493Y-96760475D01*
X133841920Y-96850000D01*
X133895190Y-96878828D01*
X134130386Y-96959571D01*
X134375665Y-97000500D01*
X134624335Y-97000500D01*
X134869614Y-96959571D01*
X135104810Y-96878828D01*
X135323509Y-96760474D01*
X135519744Y-96607738D01*
X135688164Y-96424785D01*
X135824173Y-96216607D01*
X135924063Y-95988881D01*
X135985108Y-95747821D01*
X135985109Y-95747812D01*
X136005643Y-95500005D01*
X136494357Y-95500005D01*
X136514890Y-95747812D01*
X136514892Y-95747824D01*
X136575936Y-95988881D01*
X136675826Y-96216606D01*
X136811833Y-96424782D01*
X136811836Y-96424785D01*
X136980256Y-96607738D01*
X137176491Y-96760474D01*
X137176493Y-96760475D01*
X137341920Y-96850000D01*
X137395190Y-96878828D01*
X137630386Y-96959571D01*
X137875665Y-97000500D01*
X138124335Y-97000500D01*
X138369614Y-96959571D01*
X138604810Y-96878828D01*
X138823509Y-96760474D01*
X139019744Y-96607738D01*
X139188164Y-96424785D01*
X139324173Y-96216607D01*
X139424063Y-95988881D01*
X139485108Y-95747821D01*
X139485109Y-95747812D01*
X139505643Y-95500005D01*
X142994357Y-95500005D01*
X143014890Y-95747812D01*
X143014892Y-95747824D01*
X143075936Y-95988881D01*
X143175826Y-96216606D01*
X143311833Y-96424782D01*
X143311836Y-96424785D01*
X143480256Y-96607738D01*
X143676491Y-96760474D01*
X143676493Y-96760475D01*
X143841920Y-96850000D01*
X143895190Y-96878828D01*
X144130386Y-96959571D01*
X144375665Y-97000500D01*
X144624335Y-97000500D01*
X144869614Y-96959571D01*
X145104810Y-96878828D01*
X145323509Y-96760474D01*
X145519744Y-96607738D01*
X145688164Y-96424785D01*
X145824173Y-96216607D01*
X145924063Y-95988881D01*
X145985108Y-95747821D01*
X145985109Y-95747812D01*
X146005643Y-95500005D01*
X146494357Y-95500005D01*
X146514890Y-95747812D01*
X146514892Y-95747824D01*
X146575936Y-95988881D01*
X146675826Y-96216606D01*
X146811833Y-96424782D01*
X146811836Y-96424785D01*
X146980256Y-96607738D01*
X147176491Y-96760474D01*
X147176493Y-96760475D01*
X147341920Y-96850000D01*
X147395190Y-96878828D01*
X147630386Y-96959571D01*
X147875665Y-97000500D01*
X148124335Y-97000500D01*
X148369614Y-96959571D01*
X148604810Y-96878828D01*
X148823509Y-96760474D01*
X149019744Y-96607738D01*
X149188164Y-96424785D01*
X149324173Y-96216607D01*
X149424063Y-95988881D01*
X149485108Y-95747821D01*
X149485109Y-95747812D01*
X149505643Y-95500005D01*
X152994357Y-95500005D01*
X153014890Y-95747812D01*
X153014892Y-95747824D01*
X153075936Y-95988881D01*
X153175826Y-96216606D01*
X153311833Y-96424782D01*
X153311836Y-96424785D01*
X153480256Y-96607738D01*
X153676491Y-96760474D01*
X153676493Y-96760475D01*
X153841920Y-96850000D01*
X153895190Y-96878828D01*
X154130386Y-96959571D01*
X154375665Y-97000500D01*
X154624335Y-97000500D01*
X154869614Y-96959571D01*
X155104810Y-96878828D01*
X155323509Y-96760474D01*
X155519744Y-96607738D01*
X155688164Y-96424785D01*
X155824173Y-96216607D01*
X155924063Y-95988881D01*
X155985108Y-95747821D01*
X155985109Y-95747812D01*
X156005643Y-95500005D01*
X156005643Y-95499994D01*
X155985109Y-95252187D01*
X155985107Y-95252175D01*
X155924063Y-95011118D01*
X155824173Y-94783393D01*
X155688166Y-94575217D01*
X155660720Y-94545403D01*
X155519744Y-94392262D01*
X155323509Y-94239526D01*
X155323507Y-94239525D01*
X155323506Y-94239524D01*
X155104811Y-94121172D01*
X155104802Y-94121169D01*
X154869616Y-94040429D01*
X154624335Y-93999500D01*
X154375665Y-93999500D01*
X154130383Y-94040429D01*
X153895197Y-94121169D01*
X153895188Y-94121172D01*
X153676493Y-94239524D01*
X153480257Y-94392261D01*
X153311833Y-94575217D01*
X153175826Y-94783393D01*
X153075936Y-95011118D01*
X153014892Y-95252175D01*
X153014890Y-95252187D01*
X152994357Y-95499994D01*
X152994357Y-95500005D01*
X149505643Y-95500005D01*
X149505643Y-95499994D01*
X149485109Y-95252187D01*
X149485107Y-95252175D01*
X149424063Y-95011118D01*
X149324173Y-94783393D01*
X149188166Y-94575217D01*
X149160720Y-94545403D01*
X149019744Y-94392262D01*
X148823509Y-94239526D01*
X148823507Y-94239525D01*
X148823506Y-94239524D01*
X148604811Y-94121172D01*
X148604802Y-94121169D01*
X148369616Y-94040429D01*
X148124335Y-93999500D01*
X147875665Y-93999500D01*
X147630383Y-94040429D01*
X147395197Y-94121169D01*
X147395188Y-94121172D01*
X147176493Y-94239524D01*
X146980257Y-94392261D01*
X146811833Y-94575217D01*
X146675826Y-94783393D01*
X146575936Y-95011118D01*
X146514892Y-95252175D01*
X146514890Y-95252187D01*
X146494357Y-95499994D01*
X146494357Y-95500005D01*
X146005643Y-95500005D01*
X146005643Y-95499994D01*
X145985109Y-95252187D01*
X145985107Y-95252175D01*
X145924063Y-95011118D01*
X145824173Y-94783393D01*
X145688166Y-94575217D01*
X145660720Y-94545403D01*
X145519744Y-94392262D01*
X145323509Y-94239526D01*
X145323507Y-94239525D01*
X145323506Y-94239524D01*
X145104811Y-94121172D01*
X145104802Y-94121169D01*
X144869616Y-94040429D01*
X144624335Y-93999500D01*
X144375665Y-93999500D01*
X144130383Y-94040429D01*
X143895197Y-94121169D01*
X143895188Y-94121172D01*
X143676493Y-94239524D01*
X143480257Y-94392261D01*
X143311833Y-94575217D01*
X143175826Y-94783393D01*
X143075936Y-95011118D01*
X143014892Y-95252175D01*
X143014890Y-95252187D01*
X142994357Y-95499994D01*
X142994357Y-95500005D01*
X139505643Y-95500005D01*
X139505643Y-95499994D01*
X139485109Y-95252187D01*
X139485107Y-95252175D01*
X139424063Y-95011118D01*
X139324173Y-94783393D01*
X139188166Y-94575217D01*
X139160720Y-94545403D01*
X139019744Y-94392262D01*
X138823509Y-94239526D01*
X138823507Y-94239525D01*
X138823506Y-94239524D01*
X138604811Y-94121172D01*
X138604802Y-94121169D01*
X138369616Y-94040429D01*
X138124335Y-93999500D01*
X137875665Y-93999500D01*
X137630383Y-94040429D01*
X137395197Y-94121169D01*
X137395188Y-94121172D01*
X137176493Y-94239524D01*
X136980257Y-94392261D01*
X136811833Y-94575217D01*
X136675826Y-94783393D01*
X136575936Y-95011118D01*
X136514892Y-95252175D01*
X136514890Y-95252187D01*
X136494357Y-95499994D01*
X136494357Y-95500005D01*
X136005643Y-95500005D01*
X136005643Y-95499994D01*
X135985109Y-95252187D01*
X135985107Y-95252175D01*
X135924063Y-95011118D01*
X135824173Y-94783393D01*
X135688166Y-94575217D01*
X135660720Y-94545403D01*
X135519744Y-94392262D01*
X135323509Y-94239526D01*
X135323507Y-94239525D01*
X135323506Y-94239524D01*
X135104811Y-94121172D01*
X135104802Y-94121169D01*
X134869616Y-94040429D01*
X134624335Y-93999500D01*
X134375665Y-93999500D01*
X134130383Y-94040429D01*
X133895197Y-94121169D01*
X133895188Y-94121172D01*
X133676493Y-94239524D01*
X133480257Y-94392261D01*
X133311833Y-94575217D01*
X133175826Y-94783393D01*
X133075936Y-95011118D01*
X133014892Y-95252175D01*
X133014890Y-95252187D01*
X132994357Y-95499994D01*
X132994357Y-95500005D01*
X129505643Y-95500005D01*
X129505643Y-95499994D01*
X129485109Y-95252187D01*
X129485107Y-95252175D01*
X129424063Y-95011118D01*
X129324173Y-94783393D01*
X129188166Y-94575217D01*
X129160720Y-94545403D01*
X129019744Y-94392262D01*
X128823509Y-94239526D01*
X128823507Y-94239525D01*
X128823506Y-94239524D01*
X128604811Y-94121172D01*
X128604802Y-94121169D01*
X128369616Y-94040429D01*
X128124335Y-93999500D01*
X127875665Y-93999500D01*
X127630383Y-94040429D01*
X127395197Y-94121169D01*
X127395188Y-94121172D01*
X127176493Y-94239524D01*
X126980257Y-94392261D01*
X126811833Y-94575217D01*
X126675826Y-94783393D01*
X126575936Y-95011118D01*
X126514892Y-95252175D01*
X126514890Y-95252187D01*
X126494357Y-95499994D01*
X126494357Y-95500005D01*
X123274089Y-95500005D01*
X123276546Y-95495145D01*
X123295842Y-95478425D01*
X123318026Y-95462891D01*
X123481401Y-95348495D01*
X123648495Y-95181401D01*
X123784035Y-94987830D01*
X123883903Y-94773663D01*
X123945063Y-94545408D01*
X123965659Y-94310000D01*
X123945063Y-94074592D01*
X123883903Y-93846337D01*
X123784035Y-93632171D01*
X123778425Y-93624158D01*
X123648494Y-93438597D01*
X123481402Y-93271506D01*
X123481395Y-93271501D01*
X123287834Y-93135967D01*
X123287830Y-93135965D01*
X123287828Y-93135964D01*
X123073663Y-93036097D01*
X123073659Y-93036096D01*
X123073655Y-93036094D01*
X122845413Y-92974938D01*
X122845403Y-92974936D01*
X122610001Y-92954341D01*
X122609999Y-92954341D01*
X122374596Y-92974936D01*
X122374586Y-92974938D01*
X122146344Y-93036094D01*
X122146335Y-93036098D01*
X121932171Y-93135964D01*
X121932169Y-93135965D01*
X121738597Y-93271505D01*
X121571505Y-93438597D01*
X121441575Y-93624158D01*
X121386998Y-93667783D01*
X121317500Y-93674977D01*
X121255145Y-93643454D01*
X121238425Y-93624158D01*
X121108494Y-93438597D01*
X120941402Y-93271506D01*
X120941395Y-93271501D01*
X120747834Y-93135967D01*
X120747830Y-93135965D01*
X120747828Y-93135964D01*
X120533663Y-93036097D01*
X120533659Y-93036096D01*
X120533655Y-93036094D01*
X120305413Y-92974938D01*
X120305403Y-92974936D01*
X120070001Y-92954341D01*
X120069999Y-92954341D01*
X119834596Y-92974936D01*
X119834586Y-92974938D01*
X119606344Y-93036094D01*
X119606335Y-93036098D01*
X119392171Y-93135964D01*
X119392169Y-93135965D01*
X119198597Y-93271505D01*
X119031505Y-93438597D01*
X118901575Y-93624158D01*
X118846998Y-93667783D01*
X118777500Y-93674977D01*
X118715145Y-93643454D01*
X118698425Y-93624158D01*
X118568494Y-93438597D01*
X118401402Y-93271506D01*
X118401395Y-93271501D01*
X118207834Y-93135967D01*
X118207830Y-93135965D01*
X118207828Y-93135964D01*
X117993663Y-93036097D01*
X117993659Y-93036096D01*
X117993655Y-93036094D01*
X117765413Y-92974938D01*
X117765403Y-92974936D01*
X117530001Y-92954341D01*
X117529999Y-92954341D01*
X117294596Y-92974936D01*
X117294586Y-92974938D01*
X117066344Y-93036094D01*
X117066335Y-93036098D01*
X116852171Y-93135964D01*
X116852169Y-93135965D01*
X116658597Y-93271505D01*
X116491508Y-93438594D01*
X116361574Y-93624160D01*
X116306997Y-93667784D01*
X116237498Y-93674977D01*
X116175144Y-93643455D01*
X116158429Y-93624164D01*
X116028495Y-93438599D01*
X116028493Y-93438596D01*
X115861402Y-93271506D01*
X115861395Y-93271501D01*
X115667834Y-93135967D01*
X115667830Y-93135965D01*
X115667828Y-93135964D01*
X115453663Y-93036097D01*
X115453659Y-93036096D01*
X115453655Y-93036094D01*
X115225413Y-92974938D01*
X115225403Y-92974936D01*
X114990001Y-92954341D01*
X114989999Y-92954341D01*
X114754596Y-92974936D01*
X114754586Y-92974938D01*
X114526344Y-93036094D01*
X114526335Y-93036098D01*
X114312171Y-93135964D01*
X114312169Y-93135965D01*
X114118597Y-93271505D01*
X113951505Y-93438597D01*
X113821575Y-93624158D01*
X113766998Y-93667783D01*
X113697500Y-93674977D01*
X113635145Y-93643454D01*
X113618425Y-93624158D01*
X113488494Y-93438597D01*
X113321402Y-93271506D01*
X113321395Y-93271501D01*
X113127834Y-93135967D01*
X113127830Y-93135965D01*
X113127828Y-93135964D01*
X112913663Y-93036097D01*
X112913659Y-93036096D01*
X112913655Y-93036094D01*
X112685413Y-92974938D01*
X112685403Y-92974936D01*
X112450001Y-92954341D01*
X112449999Y-92954341D01*
X112214596Y-92974936D01*
X112214586Y-92974938D01*
X111986344Y-93036094D01*
X111986335Y-93036098D01*
X111772171Y-93135964D01*
X111772169Y-93135965D01*
X111578597Y-93271505D01*
X111411508Y-93438594D01*
X111281574Y-93624159D01*
X111226997Y-93667784D01*
X111157498Y-93674976D01*
X111095144Y-93643454D01*
X111078424Y-93624158D01*
X110948494Y-93438597D01*
X110781402Y-93271506D01*
X110781395Y-93271501D01*
X110587834Y-93135967D01*
X110587830Y-93135965D01*
X110587828Y-93135964D01*
X110373663Y-93036097D01*
X110373659Y-93036096D01*
X110373655Y-93036094D01*
X110145413Y-92974938D01*
X110145403Y-92974936D01*
X109910001Y-92954341D01*
X109909999Y-92954341D01*
X109674596Y-92974936D01*
X109674586Y-92974938D01*
X109446344Y-93036094D01*
X109446335Y-93036098D01*
X109232171Y-93135964D01*
X109232169Y-93135965D01*
X109038597Y-93271505D01*
X108871508Y-93438594D01*
X108741574Y-93624159D01*
X108686997Y-93667784D01*
X108617498Y-93674976D01*
X108555144Y-93643454D01*
X108538424Y-93624158D01*
X108408494Y-93438597D01*
X108241402Y-93271506D01*
X108241395Y-93271501D01*
X108047834Y-93135967D01*
X108047830Y-93135965D01*
X108047828Y-93135964D01*
X107833663Y-93036097D01*
X107833659Y-93036096D01*
X107833655Y-93036094D01*
X107605413Y-92974938D01*
X107605403Y-92974936D01*
X107370001Y-92954341D01*
X107369999Y-92954341D01*
X107134596Y-92974936D01*
X107134586Y-92974938D01*
X106906344Y-93036094D01*
X106906335Y-93036098D01*
X106692171Y-93135964D01*
X106692169Y-93135965D01*
X106498597Y-93271505D01*
X106331505Y-93438597D01*
X106201575Y-93624158D01*
X106146998Y-93667783D01*
X106077500Y-93674977D01*
X106015145Y-93643454D01*
X105998425Y-93624158D01*
X105868494Y-93438597D01*
X105701402Y-93271506D01*
X105701395Y-93271501D01*
X105507834Y-93135967D01*
X105507830Y-93135965D01*
X105507828Y-93135964D01*
X105293663Y-93036097D01*
X105293659Y-93036096D01*
X105293655Y-93036094D01*
X105065413Y-92974938D01*
X105065403Y-92974936D01*
X104830001Y-92954341D01*
X104829999Y-92954341D01*
X104594596Y-92974936D01*
X104594586Y-92974938D01*
X104366344Y-93036094D01*
X104366335Y-93036098D01*
X104152171Y-93135964D01*
X104152169Y-93135965D01*
X103958597Y-93271505D01*
X103791505Y-93438597D01*
X103661575Y-93624158D01*
X103606998Y-93667783D01*
X103537500Y-93674977D01*
X103475145Y-93643454D01*
X103458425Y-93624158D01*
X103328494Y-93438597D01*
X103161402Y-93271506D01*
X103161395Y-93271501D01*
X102967834Y-93135967D01*
X102967830Y-93135965D01*
X102967828Y-93135964D01*
X102753663Y-93036097D01*
X102753659Y-93036096D01*
X102753655Y-93036094D01*
X102525413Y-92974938D01*
X102525403Y-92974936D01*
X102290001Y-92954341D01*
X102289999Y-92954341D01*
X102054596Y-92974936D01*
X102054586Y-92974938D01*
X101826344Y-93036094D01*
X101826335Y-93036098D01*
X101612171Y-93135964D01*
X101612169Y-93135965D01*
X101418597Y-93271505D01*
X101251505Y-93438597D01*
X101115965Y-93632169D01*
X101115964Y-93632171D01*
X101016098Y-93846335D01*
X101016094Y-93846344D01*
X100954938Y-94074586D01*
X100954936Y-94074596D01*
X100934341Y-94309999D01*
X100934341Y-94310000D01*
X100954936Y-94545403D01*
X100954938Y-94545413D01*
X101016094Y-94773655D01*
X101016096Y-94773659D01*
X101016097Y-94773663D01*
X101082840Y-94916793D01*
X101115965Y-94987830D01*
X101115967Y-94987834D01*
X101224154Y-95142340D01*
X101251501Y-95181396D01*
X101251506Y-95181402D01*
X101418597Y-95348493D01*
X101418603Y-95348498D01*
X101604158Y-95478425D01*
X101647783Y-95533002D01*
X101654977Y-95602500D01*
X101623454Y-95664855D01*
X101604158Y-95681575D01*
X101418600Y-95811503D01*
X101296673Y-95933430D01*
X101235350Y-95966914D01*
X101165658Y-95961930D01*
X101109725Y-95920058D01*
X101092810Y-95889081D01*
X101043797Y-95757671D01*
X101043793Y-95757664D01*
X100957547Y-95642455D01*
X100957544Y-95642452D01*
X100842335Y-95556206D01*
X100842328Y-95556202D01*
X100707482Y-95505908D01*
X100707483Y-95505908D01*
X100647883Y-95499501D01*
X100647881Y-95499500D01*
X100647873Y-95499500D01*
X100647864Y-95499500D01*
X98852129Y-95499500D01*
X98852123Y-95499501D01*
X98792516Y-95505908D01*
X98657671Y-95556202D01*
X98657664Y-95556206D01*
X98542455Y-95642452D01*
X98542452Y-95642455D01*
X98456206Y-95757664D01*
X98456202Y-95757671D01*
X98405908Y-95892517D01*
X98399501Y-95952116D01*
X98399500Y-95952135D01*
X98399500Y-97747870D01*
X95038119Y-97747870D01*
X95202255Y-97425736D01*
X95333742Y-97083199D01*
X95428705Y-96728794D01*
X95486102Y-96366404D01*
X95505304Y-96000000D01*
X95486102Y-95633596D01*
X95428705Y-95271206D01*
X95333742Y-94916801D01*
X95202255Y-94574264D01*
X95035682Y-94247348D01*
X95035679Y-94247343D01*
X94835852Y-93939635D01*
X94604952Y-93654498D01*
X94604949Y-93654494D01*
X94345506Y-93395051D01*
X94060366Y-93164149D01*
X94060364Y-93164147D01*
X93752656Y-92964320D01*
X93425739Y-92797746D01*
X93395035Y-92785960D01*
X93341118Y-92765263D01*
X93285587Y-92722862D01*
X93261794Y-92657168D01*
X93277296Y-92589040D01*
X93327169Y-92540107D01*
X93385557Y-92525500D01*
X159114443Y-92525500D01*
X159181482Y-92545185D01*
G37*
%TD.AperFunction*%
%TA.AperFunction,Conductor*%
G36*
X138194100Y-119157725D02*
G01*
X138239314Y-119210992D01*
X138250000Y-119261350D01*
X138250000Y-140121851D01*
X138155015Y-140137702D01*
X137935504Y-140213061D01*
X137935495Y-140213064D01*
X137731371Y-140323531D01*
X137731365Y-140323535D01*
X137548222Y-140466081D01*
X137548219Y-140466084D01*
X137548216Y-140466086D01*
X137548216Y-140466087D01*
X137420917Y-140604372D01*
X137391015Y-140636854D01*
X137353808Y-140693804D01*
X137300662Y-140739161D01*
X137231430Y-140748584D01*
X137168095Y-140719082D01*
X137146192Y-140693804D01*
X137108984Y-140636854D01*
X137108982Y-140636852D01*
X137108979Y-140636847D01*
X136951784Y-140466087D01*
X136951779Y-140466083D01*
X136951777Y-140466081D01*
X136768634Y-140323535D01*
X136768623Y-140323528D01*
X136665481Y-140267709D01*
X136615891Y-140218489D01*
X136600500Y-140158655D01*
X136600500Y-138047288D01*
X136601031Y-138039186D01*
X136602965Y-138024500D01*
X136605682Y-138003860D01*
X136585044Y-137847098D01*
X136524536Y-137701019D01*
X136499869Y-137668872D01*
X136428282Y-137575578D01*
X136400005Y-137553880D01*
X136393904Y-137548529D01*
X135201468Y-136356093D01*
X135196114Y-136349988D01*
X135174426Y-136321722D01*
X135174423Y-136321720D01*
X135174422Y-136321718D01*
X135048981Y-136225464D01*
X135022830Y-136214632D01*
X134902902Y-136164956D01*
X134902900Y-136164955D01*
X134785501Y-136149500D01*
X134746140Y-136144318D01*
X134710810Y-136148969D01*
X134702712Y-136149500D01*
X123300097Y-136149500D01*
X123233058Y-136129815D01*
X123212416Y-136113181D01*
X122736819Y-135637584D01*
X122703334Y-135576261D01*
X122700500Y-135549903D01*
X122700500Y-133131940D01*
X122720185Y-133064901D01*
X122772989Y-133019146D01*
X122842147Y-133009202D01*
X122905703Y-133038227D01*
X122912181Y-133044259D01*
X122997738Y-133129816D01*
X123088080Y-133186581D01*
X123113956Y-133202841D01*
X123150478Y-133225789D01*
X123320745Y-133285368D01*
X123320750Y-133285369D01*
X123499996Y-133305565D01*
X123500000Y-133305565D01*
X123500004Y-133305565D01*
X123679249Y-133285369D01*
X123679252Y-133285368D01*
X123679255Y-133285368D01*
X123849522Y-133225789D01*
X124002262Y-133129816D01*
X124129816Y-133002262D01*
X124225789Y-132849522D01*
X124257958Y-132757587D01*
X124298680Y-132700812D01*
X124363633Y-132675065D01*
X124432194Y-132688521D01*
X124482597Y-132736908D01*
X124492042Y-132757588D01*
X124524211Y-132849523D01*
X124603550Y-132975789D01*
X124620184Y-133002262D01*
X124747738Y-133129816D01*
X124838080Y-133186581D01*
X124863956Y-133202841D01*
X124900478Y-133225789D01*
X125070744Y-133285367D01*
X125070745Y-133285368D01*
X125070750Y-133285369D01*
X125249996Y-133305565D01*
X125250000Y-133305565D01*
X125250004Y-133305565D01*
X125429249Y-133285369D01*
X125429252Y-133285368D01*
X125429255Y-133285368D01*
X125599522Y-133225789D01*
X125752262Y-133129816D01*
X125879816Y-133002262D01*
X125975789Y-132849522D01*
X126007957Y-132757588D01*
X126048678Y-132700813D01*
X126113631Y-132675065D01*
X126182192Y-132688521D01*
X126232596Y-132736907D01*
X126242040Y-132757587D01*
X126274209Y-132849520D01*
X126353550Y-132975789D01*
X126370184Y-133002262D01*
X126497738Y-133129816D01*
X126588080Y-133186581D01*
X126613956Y-133202841D01*
X126650478Y-133225789D01*
X126820744Y-133285368D01*
X126820745Y-133285368D01*
X126820750Y-133285369D01*
X126999996Y-133305565D01*
X127000000Y-133305565D01*
X127000004Y-133305565D01*
X127179249Y-133285369D01*
X127179252Y-133285368D01*
X127179255Y-133285368D01*
X127349522Y-133225789D01*
X127502262Y-133129816D01*
X127629816Y-133002262D01*
X127725789Y-132849522D01*
X127785368Y-132679255D01*
X127787466Y-132660640D01*
X127804423Y-132510133D01*
X127822105Y-132458919D01*
X127912544Y-132312295D01*
X127912543Y-132312295D01*
X127912549Y-132312287D01*
X127965436Y-132152685D01*
X127975500Y-132054174D01*
X127975500Y-131520826D01*
X127965436Y-131422315D01*
X127912549Y-131262713D01*
X127912545Y-131262707D01*
X127912544Y-131262704D01*
X127824283Y-131119612D01*
X127824280Y-131119608D01*
X127705391Y-131000719D01*
X127705387Y-131000716D01*
X127562295Y-130912455D01*
X127562289Y-130912452D01*
X127562287Y-130912451D01*
X127402685Y-130859564D01*
X127402683Y-130859563D01*
X127304181Y-130849500D01*
X127304174Y-130849500D01*
X126695826Y-130849500D01*
X126695818Y-130849500D01*
X126597316Y-130859563D01*
X126597315Y-130859564D01*
X126518219Y-130885773D01*
X126437715Y-130912450D01*
X126437704Y-130912455D01*
X126294612Y-131000716D01*
X126212681Y-131082647D01*
X126151357Y-131116131D01*
X126081666Y-131111147D01*
X126037319Y-131082647D01*
X126002399Y-131047727D01*
X125955391Y-131000719D01*
X125955388Y-131000717D01*
X125955387Y-131000716D01*
X125812295Y-130912455D01*
X125812289Y-130912452D01*
X125812287Y-130912451D01*
X125652685Y-130859564D01*
X125652683Y-130859563D01*
X125554181Y-130849500D01*
X125554174Y-130849500D01*
X124945826Y-130849500D01*
X124945818Y-130849500D01*
X124847316Y-130859563D01*
X124847315Y-130859564D01*
X124768219Y-130885773D01*
X124687715Y-130912450D01*
X124687704Y-130912455D01*
X124544612Y-131000716D01*
X124544611Y-131000717D01*
X124526095Y-131019232D01*
X124464770Y-131052714D01*
X124395079Y-131047727D01*
X124339147Y-131005853D01*
X124314733Y-130940388D01*
X124329587Y-130872116D01*
X124332853Y-130866492D01*
X124412549Y-130737287D01*
X124465436Y-130577685D01*
X124475500Y-130479174D01*
X124475500Y-130142431D01*
X124495185Y-130075393D01*
X124524015Y-130044055D01*
X124528282Y-130040782D01*
X124624536Y-129915341D01*
X124685044Y-129769262D01*
X124685908Y-129762704D01*
X124699381Y-129660362D01*
X124700500Y-129651861D01*
X124705682Y-129612500D01*
X124701028Y-129577152D01*
X124700499Y-129569087D01*
X124700499Y-127916802D01*
X124720184Y-127849764D01*
X124772988Y-127804009D01*
X124779001Y-127801452D01*
X124822342Y-127784361D01*
X124825065Y-127782295D01*
X124827998Y-127781180D01*
X124829741Y-127780201D01*
X124829887Y-127780462D01*
X124890374Y-127757466D01*
X124958739Y-127771887D01*
X124974924Y-127782288D01*
X124977658Y-127784361D01*
X125118436Y-127839877D01*
X125206898Y-127850500D01*
X125206903Y-127850500D01*
X125375500Y-127850500D01*
X125442539Y-127870185D01*
X125488294Y-127922989D01*
X125499500Y-127974500D01*
X125499500Y-128806571D01*
X125498969Y-128814673D01*
X125494318Y-128849999D01*
X125494318Y-128850000D01*
X125499500Y-128889360D01*
X125514955Y-129006760D01*
X125514956Y-129006762D01*
X125575464Y-129152841D01*
X125671718Y-129278282D01*
X125699995Y-129299980D01*
X125706085Y-129305320D01*
X125901481Y-129500716D01*
X126044669Y-129643904D01*
X126050020Y-129650005D01*
X126071718Y-129678282D01*
X126181751Y-129762713D01*
X126197159Y-129774536D01*
X126197162Y-129774537D01*
X126197163Y-129774538D01*
X126270198Y-129804790D01*
X126343238Y-129835044D01*
X126421619Y-129845362D01*
X126499999Y-129855682D01*
X126500000Y-129855682D01*
X126535329Y-129851030D01*
X126543428Y-129850500D01*
X130699903Y-129850500D01*
X130766942Y-129870185D01*
X130787584Y-129886819D01*
X132419298Y-131518533D01*
X132452783Y-131579856D01*
X132454837Y-131592330D01*
X132464630Y-131679249D01*
X132524210Y-131849521D01*
X132541265Y-131876664D01*
X132620184Y-132002262D01*
X132747738Y-132129816D01*
X132900478Y-132225789D01*
X132984670Y-132255249D01*
X133070745Y-132285368D01*
X133070750Y-132285369D01*
X133249996Y-132305565D01*
X133250000Y-132305565D01*
X133250004Y-132305565D01*
X133429249Y-132285369D01*
X133429252Y-132285368D01*
X133429255Y-132285368D01*
X133599522Y-132225789D01*
X133752262Y-132129816D01*
X133879816Y-132002262D01*
X133975789Y-131849522D01*
X134035368Y-131679255D01*
X134035369Y-131679249D01*
X134055565Y-131500003D01*
X134055565Y-131499996D01*
X134035369Y-131320750D01*
X134035368Y-131320745D01*
X134015062Y-131262713D01*
X133975789Y-131150478D01*
X133879816Y-130997738D01*
X133752262Y-130870184D01*
X133682429Y-130826305D01*
X133599521Y-130774210D01*
X133429249Y-130714630D01*
X133342330Y-130704837D01*
X133277916Y-130677770D01*
X133268533Y-130669298D01*
X131455328Y-128856093D01*
X131449974Y-128849988D01*
X131428286Y-128821722D01*
X131428283Y-128821720D01*
X131428282Y-128821718D01*
X131302841Y-128725464D01*
X131278631Y-128715436D01*
X131156762Y-128664956D01*
X131156760Y-128664955D01*
X131094522Y-128656762D01*
X131000001Y-128644318D01*
X131000000Y-128644318D01*
X130964670Y-128648969D01*
X130956572Y-128649500D01*
X126824499Y-128649500D01*
X126757460Y-128629815D01*
X126711705Y-128577011D01*
X126700499Y-128525500D01*
X126700500Y-127974500D01*
X126720185Y-127907460D01*
X126772989Y-127861706D01*
X126824500Y-127850500D01*
X126993103Y-127850500D01*
X127009178Y-127848569D01*
X127081564Y-127839877D01*
X127081565Y-127839876D01*
X127085215Y-127839438D01*
X127114785Y-127839438D01*
X127118434Y-127839876D01*
X127118436Y-127839877D01*
X127190821Y-127848569D01*
X127206897Y-127850500D01*
X127206898Y-127850500D01*
X127393103Y-127850500D01*
X127409178Y-127848569D01*
X127481564Y-127839877D01*
X127481565Y-127839876D01*
X127485215Y-127839438D01*
X127514785Y-127839438D01*
X127518434Y-127839876D01*
X127518436Y-127839877D01*
X127590821Y-127848569D01*
X127606897Y-127850500D01*
X127606898Y-127850500D01*
X127793097Y-127850500D01*
X127793102Y-127850500D01*
X127881564Y-127839877D01*
X128022342Y-127784361D01*
X128142922Y-127692922D01*
X128234361Y-127572342D01*
X128289877Y-127431564D01*
X128300500Y-127343102D01*
X128300500Y-126531898D01*
X128300499Y-126531897D01*
X128300500Y-126528192D01*
X128301355Y-126528192D01*
X128316144Y-126463813D01*
X128366120Y-126414985D01*
X128424279Y-126400500D01*
X128843097Y-126400500D01*
X128843102Y-126400500D01*
X128931564Y-126389877D01*
X129072342Y-126334361D01*
X129192922Y-126242922D01*
X129284361Y-126122342D01*
X129339877Y-125981564D01*
X129350500Y-125893102D01*
X129350500Y-125706898D01*
X129339877Y-125618436D01*
X129339438Y-125614779D01*
X129339439Y-125585211D01*
X129350500Y-125493102D01*
X129350500Y-125306903D01*
X129350500Y-125306902D01*
X129350500Y-125306898D01*
X129339877Y-125218436D01*
X129339438Y-125214779D01*
X129339439Y-125185211D01*
X129341216Y-125170413D01*
X129350500Y-125093102D01*
X129350500Y-125016639D01*
X129370183Y-124949603D01*
X129422986Y-124903847D01*
X129492145Y-124893903D01*
X129540472Y-124911648D01*
X129562976Y-124925788D01*
X129562978Y-124925789D01*
X129733245Y-124985368D01*
X129820169Y-124995161D01*
X129884580Y-125022226D01*
X129893965Y-125030700D01*
X130738181Y-125874916D01*
X130771666Y-125936239D01*
X130774500Y-125962597D01*
X130774500Y-126304181D01*
X130784563Y-126402683D01*
X130837450Y-126562284D01*
X130837455Y-126562295D01*
X130925716Y-126705387D01*
X130925719Y-126705391D01*
X131044608Y-126824280D01*
X131044612Y-126824283D01*
X131187704Y-126912544D01*
X131187707Y-126912545D01*
X131187713Y-126912549D01*
X131347315Y-126965436D01*
X131445826Y-126975500D01*
X131445831Y-126975500D01*
X131979169Y-126975500D01*
X131979174Y-126975500D01*
X132077685Y-126965436D01*
X132237287Y-126912549D01*
X132366453Y-126832877D01*
X132433841Y-126814438D01*
X132500505Y-126835360D01*
X132545275Y-126889001D01*
X132553937Y-126958332D01*
X132523742Y-127021340D01*
X132519232Y-127026095D01*
X132500717Y-127044611D01*
X132500716Y-127044612D01*
X132412455Y-127187704D01*
X132412450Y-127187713D01*
X132412451Y-127187713D01*
X132359564Y-127347315D01*
X132359564Y-127347316D01*
X132359563Y-127347316D01*
X132349500Y-127445818D01*
X132349500Y-128054181D01*
X132359563Y-128152683D01*
X132412450Y-128312284D01*
X132412455Y-128312295D01*
X132500716Y-128455387D01*
X132500719Y-128455391D01*
X132619608Y-128574280D01*
X132619612Y-128574283D01*
X132762704Y-128662544D01*
X132762707Y-128662545D01*
X132762713Y-128662549D01*
X132922315Y-128715436D01*
X133020826Y-128725500D01*
X133020831Y-128725500D01*
X133554169Y-128725500D01*
X133554174Y-128725500D01*
X133652685Y-128715436D01*
X133812287Y-128662549D01*
X133955391Y-128574281D01*
X133955390Y-128574281D01*
X133958919Y-128572105D01*
X134010131Y-128554423D01*
X134097238Y-128544609D01*
X134179249Y-128535369D01*
X134179252Y-128535368D01*
X134179255Y-128535368D01*
X134349522Y-128475789D01*
X134502262Y-128379816D01*
X134629816Y-128252262D01*
X134725789Y-128099522D01*
X134785368Y-127929255D01*
X134792979Y-127861706D01*
X134805565Y-127750003D01*
X134805565Y-127749996D01*
X134785369Y-127570750D01*
X134785368Y-127570745D01*
X134767902Y-127520831D01*
X134725789Y-127400478D01*
X134629816Y-127247738D01*
X134502262Y-127120184D01*
X134450534Y-127087681D01*
X134349523Y-127024211D01*
X134257588Y-126992042D01*
X134200812Y-126951320D01*
X134175065Y-126886367D01*
X134188521Y-126817806D01*
X134236908Y-126767403D01*
X134257588Y-126757958D01*
X134349522Y-126725789D01*
X134502262Y-126629816D01*
X134629816Y-126502262D01*
X134725789Y-126349522D01*
X134785368Y-126179255D01*
X134788214Y-126153997D01*
X134805565Y-126000003D01*
X134805565Y-125999996D01*
X134785369Y-125820750D01*
X134785368Y-125820745D01*
X134769536Y-125775500D01*
X134725789Y-125650478D01*
X134694384Y-125600498D01*
X134659266Y-125544608D01*
X134629816Y-125497738D01*
X134502262Y-125370184D01*
X134444351Y-125333796D01*
X134349523Y-125274211D01*
X134257588Y-125242042D01*
X134200812Y-125201320D01*
X134175065Y-125136367D01*
X134188521Y-125067806D01*
X134236908Y-125017403D01*
X134257588Y-125007958D01*
X134349522Y-124975789D01*
X134502262Y-124879816D01*
X134629816Y-124752262D01*
X134725789Y-124599522D01*
X134785368Y-124429255D01*
X134788608Y-124400498D01*
X134805565Y-124250003D01*
X134805565Y-124249996D01*
X134785369Y-124070750D01*
X134785368Y-124070745D01*
X134767872Y-124020745D01*
X134725789Y-123900478D01*
X134629816Y-123747738D01*
X134502262Y-123620184D01*
X134398050Y-123554703D01*
X134349523Y-123524211D01*
X134179254Y-123464631D01*
X134179249Y-123464630D01*
X134010132Y-123445576D01*
X133958918Y-123427894D01*
X133812295Y-123337455D01*
X133812289Y-123337452D01*
X133812287Y-123337451D01*
X133652685Y-123284564D01*
X133652683Y-123284563D01*
X133554181Y-123274500D01*
X133554174Y-123274500D01*
X133020826Y-123274500D01*
X133020818Y-123274500D01*
X132922316Y-123284563D01*
X132922315Y-123284564D01*
X132843219Y-123310773D01*
X132762715Y-123337450D01*
X132762704Y-123337455D01*
X132619612Y-123425716D01*
X132619608Y-123425719D01*
X132500719Y-123544608D01*
X132500716Y-123544612D01*
X132412455Y-123687704D01*
X132412450Y-123687713D01*
X132412451Y-123687713D01*
X132359564Y-123847315D01*
X132359564Y-123847316D01*
X132359563Y-123847316D01*
X132349500Y-123945818D01*
X132349500Y-124554181D01*
X132359563Y-124652683D01*
X132412450Y-124812284D01*
X132412455Y-124812295D01*
X132500716Y-124955387D01*
X132500720Y-124955392D01*
X132519230Y-124973903D01*
X132552714Y-125035226D01*
X132547728Y-125104918D01*
X132505855Y-125160851D01*
X132440390Y-125185266D01*
X132372118Y-125170413D01*
X132366450Y-125167120D01*
X132237295Y-125087455D01*
X132237289Y-125087452D01*
X132237287Y-125087451D01*
X132077685Y-125034564D01*
X132077683Y-125034563D01*
X131979181Y-125024500D01*
X131979174Y-125024500D01*
X131637597Y-125024500D01*
X131570558Y-125004815D01*
X131549916Y-124988181D01*
X130743200Y-124181465D01*
X130709715Y-124120142D01*
X130707663Y-124107686D01*
X130697868Y-124020745D01*
X130638289Y-123850478D01*
X130542316Y-123697738D01*
X130414762Y-123570184D01*
X130390124Y-123554703D01*
X130262023Y-123474211D01*
X130091754Y-123414631D01*
X130091749Y-123414630D01*
X129912504Y-123394435D01*
X129912496Y-123394435D01*
X129733250Y-123414630D01*
X129733245Y-123414631D01*
X129562974Y-123474212D01*
X129465111Y-123535703D01*
X129397874Y-123554703D01*
X129331039Y-123534335D01*
X129288987Y-123484791D01*
X129288520Y-123485054D01*
X129287165Y-123482644D01*
X129285826Y-123481067D01*
X129284503Y-123477911D01*
X129284362Y-123477660D01*
X129284361Y-123477659D01*
X129284361Y-123477658D01*
X129282290Y-123474927D01*
X129281173Y-123471989D01*
X129280205Y-123470267D01*
X129280463Y-123470121D01*
X129257466Y-123409618D01*
X129271891Y-123341254D01*
X129282291Y-123325071D01*
X129284361Y-123322342D01*
X129339877Y-123181564D01*
X129350500Y-123093102D01*
X129350500Y-122906898D01*
X129339877Y-122818436D01*
X129339438Y-122814779D01*
X129339439Y-122785211D01*
X129350500Y-122693102D01*
X129350500Y-122524500D01*
X129370185Y-122457461D01*
X129422989Y-122411706D01*
X129474500Y-122400500D01*
X134344577Y-122400500D01*
X134352675Y-122401030D01*
X134388005Y-122405682D01*
X134388006Y-122405682D01*
X134440258Y-122398802D01*
X134544767Y-122385044D01*
X134690846Y-122324536D01*
X134728178Y-122295890D01*
X134816287Y-122228282D01*
X134837988Y-122199999D01*
X134843316Y-122193922D01*
X137718511Y-119318727D01*
X137773016Y-119288607D01*
X137772688Y-119287668D01*
X137778218Y-119285732D01*
X137778611Y-119285516D01*
X137779256Y-119285368D01*
X137779261Y-119285368D01*
X137949528Y-119225789D01*
X138060028Y-119156356D01*
X138127264Y-119137357D01*
X138194100Y-119157725D01*
G37*
%TD.AperFunction*%
%TA.AperFunction,Conductor*%
G36*
X133614949Y-117547186D02*
G01*
X133647177Y-117609179D01*
X133649499Y-117633062D01*
X133649500Y-119449902D01*
X133629815Y-119516941D01*
X133613181Y-119537583D01*
X133187584Y-119963181D01*
X133126261Y-119996666D01*
X133099903Y-119999500D01*
X130149097Y-119999500D01*
X130082058Y-119979815D01*
X130036303Y-119927011D01*
X130026359Y-119857853D01*
X130055384Y-119794297D01*
X130061416Y-119787819D01*
X130198759Y-119650476D01*
X130893923Y-118955310D01*
X130899998Y-118949984D01*
X130928282Y-118928282D01*
X131024536Y-118802841D01*
X131085044Y-118656762D01*
X131100500Y-118539361D01*
X131105682Y-118500001D01*
X131105401Y-118497870D01*
X131101030Y-118464670D01*
X131100499Y-118456568D01*
X131100499Y-118125000D01*
X131100499Y-117980366D01*
X131120184Y-117913330D01*
X131172988Y-117867575D01*
X131242146Y-117857631D01*
X131263499Y-117862662D01*
X131347315Y-117890436D01*
X131445826Y-117900500D01*
X131445831Y-117900500D01*
X132054169Y-117900500D01*
X132054174Y-117900500D01*
X132152685Y-117890436D01*
X132312287Y-117837549D01*
X132455391Y-117749281D01*
X132555353Y-117649318D01*
X132616676Y-117615834D01*
X132643034Y-117613000D01*
X132951995Y-117613000D01*
X132968005Y-117614767D01*
X132968028Y-117614526D01*
X132975789Y-117615258D01*
X132975796Y-117615260D01*
X133047703Y-117613000D01*
X133078425Y-117613000D01*
X133085690Y-117612081D01*
X133091516Y-117611622D01*
X133140069Y-117610097D01*
X133160456Y-117604173D01*
X133179496Y-117600231D01*
X133200558Y-117597571D01*
X133245735Y-117579683D01*
X133251235Y-117577800D01*
X133297898Y-117564244D01*
X133304439Y-117560375D01*
X133353682Y-117543882D01*
X133429255Y-117535368D01*
X133484546Y-117516020D01*
X133554321Y-117512458D01*
X133614949Y-117547186D01*
G37*
%TD.AperFunction*%
%TD*%
%TA.AperFunction,Conductor*%
%TO.N,+5V*%
G36*
X103290243Y-108006294D02*
G01*
X103338544Y-108022299D01*
X103392225Y-108040087D01*
X103494152Y-108050500D01*
X103494157Y-108050500D01*
X104505843Y-108050500D01*
X104505848Y-108050500D01*
X104607775Y-108040087D01*
X104607777Y-108040086D01*
X104613397Y-108039512D01*
X104682090Y-108052281D01*
X104732975Y-108100161D01*
X104750000Y-108162870D01*
X104750000Y-112126000D01*
X104730315Y-112193039D01*
X104677511Y-112238794D01*
X104626000Y-112250000D01*
X100624000Y-112250000D01*
X100556961Y-112230315D01*
X100511206Y-112177511D01*
X100500000Y-112126000D01*
X100500000Y-108274500D01*
X100519685Y-108207461D01*
X100572489Y-108161706D01*
X100624000Y-108150500D01*
X101837713Y-108150500D01*
X101837720Y-108150500D01*
X101950236Y-108135687D01*
X102090233Y-108077698D01*
X102158096Y-108025624D01*
X102223264Y-108000430D01*
X102233582Y-108000000D01*
X103251240Y-108000000D01*
X103290243Y-108006294D01*
G37*
%TD.AperFunction*%
%TD*%
M02*
