%TF.GenerationSoftware,KiCad,Pcbnew,7.0.7*%
%TF.CreationDate,2023-09-03T16:08:26-07:00*%
%TF.ProjectId,headphone_dac,68656164-7068-46f6-9e65-5f6461632e6b,rev?*%
%TF.SameCoordinates,Original*%
%TF.FileFunction,Soldermask,Bot*%
%TF.FilePolarity,Negative*%
%FSLAX46Y46*%
G04 Gerber Fmt 4.6, Leading zero omitted, Abs format (unit mm)*
G04 Created by KiCad (PCBNEW 7.0.7) date 2023-09-03 16:08:26*
%MOMM*%
%LPD*%
G01*
G04 APERTURE LIST*
%ADD10C,4.000000*%
%ADD11C,1.800000*%
%ADD12C,0.900000*%
%ADD13O,1.800000X2.800000*%
%ADD14C,1.600000*%
%ADD15O,1.600000X1.600000*%
%ADD16C,2.000000*%
%ADD17C,6.000000*%
%ADD18C,0.800000*%
%ADD19R,1.700000X1.700000*%
%ADD20O,1.700000X1.700000*%
G04 APERTURE END LIST*
D10*
%TO.C,RV3*%
X140400000Y-148500000D03*
X131600000Y-148500000D03*
D11*
X133500000Y-141500000D03*
X136000000Y-141500000D03*
X138500000Y-141500000D03*
%TD*%
D12*
%TO.C,J1*%
X94900000Y-116800000D03*
X94900000Y-121200000D03*
%TD*%
D13*
%TO.C,J6*%
X150100000Y-145000000D03*
X151900000Y-143000000D03*
X158000000Y-143000000D03*
X155600000Y-145000000D03*
X146400000Y-143000000D03*
%TD*%
D14*
%TO.C,R10*%
X150500000Y-127250000D03*
D15*
X150500000Y-112010000D03*
%TD*%
D10*
%TO.C,RV1*%
X106400000Y-148500000D03*
X97600000Y-148500000D03*
D11*
X99500000Y-141500000D03*
X102000000Y-141500000D03*
X104500000Y-141500000D03*
%TD*%
D10*
%TO.C,RV2*%
X123400000Y-148500000D03*
X114600000Y-148500000D03*
D11*
X116500000Y-141500000D03*
X119000000Y-141500000D03*
X121500000Y-141500000D03*
%TD*%
D16*
%TO.C,SW1*%
X134500000Y-100000000D03*
X128000000Y-100000000D03*
X134500000Y-95500000D03*
X128000000Y-95500000D03*
%TD*%
%TO.C,SW2*%
X138000000Y-95500000D03*
X144500000Y-95500000D03*
X138000000Y-100000000D03*
X144500000Y-100000000D03*
%TD*%
%TO.C,SW3*%
X154500000Y-100000000D03*
X148000000Y-100000000D03*
X154500000Y-95500000D03*
X148000000Y-95500000D03*
%TD*%
D17*
%TO.C,H2*%
X92000000Y-96000000D03*
%TD*%
%TO.C,H3*%
X160500000Y-96000000D03*
%TD*%
%TO.C,H4*%
X160500000Y-151500000D03*
%TD*%
D18*
%TO.C,H1*%
X89750000Y-151500000D03*
X90409010Y-149909010D03*
X90409010Y-153090990D03*
X92000000Y-149250000D03*
D17*
X92000000Y-151500000D03*
D18*
X92000000Y-153750000D03*
X93590990Y-149909010D03*
X93590990Y-153090990D03*
X94250000Y-151500000D03*
%TD*%
D19*
%TO.C,J2*%
X99750000Y-96850000D03*
D20*
X99750000Y-94310000D03*
X102290000Y-96850000D03*
X102290000Y-94310000D03*
X104830000Y-96850000D03*
X104830000Y-94310000D03*
X107370000Y-96850000D03*
X107370000Y-94310000D03*
X109910000Y-96850000D03*
X109910000Y-94310000D03*
X112450000Y-96850000D03*
X112450000Y-94310000D03*
X114990000Y-96850000D03*
X114990000Y-94310000D03*
X117530000Y-96850000D03*
X117530000Y-94310000D03*
X120070000Y-96850000D03*
X120070000Y-94310000D03*
X122610000Y-96850000D03*
X122610000Y-94310000D03*
%TD*%
D19*
%TO.C,J3*%
X108750000Y-111250000D03*
D20*
X111290000Y-111250000D03*
X113830000Y-111250000D03*
X116370000Y-111250000D03*
X118910000Y-111250000D03*
%TD*%
M02*
