%TF.GenerationSoftware,KiCad,Pcbnew,7.0.7*%
%TF.CreationDate,2023-09-03T16:08:26-07:00*%
%TF.ProjectId,headphone_dac,68656164-7068-46f6-9e65-5f6461632e6b,rev?*%
%TF.SameCoordinates,Original*%
%TF.FileFunction,Legend,Top*%
%TF.FilePolarity,Positive*%
%FSLAX46Y46*%
G04 Gerber Fmt 4.6, Leading zero omitted, Abs format (unit mm)*
G04 Created by KiCad (PCBNEW 7.0.7) date 2023-09-03 16:08:26*
%MOMM*%
%LPD*%
G01*
G04 APERTURE LIST*
%ADD10C,0.150000*%
%ADD11C,0.120000*%
G04 APERTURE END LIST*
D10*
X109761905Y-99809104D02*
X110238095Y-99809104D01*
X109666667Y-100094819D02*
X110000000Y-99094819D01*
X110000000Y-99094819D02*
X110333333Y-100094819D01*
X110666667Y-100094819D02*
X110666667Y-99094819D01*
X110666667Y-99475771D02*
X110761905Y-99428152D01*
X110761905Y-99428152D02*
X110952381Y-99428152D01*
X110952381Y-99428152D02*
X111047619Y-99475771D01*
X111047619Y-99475771D02*
X111095238Y-99523390D01*
X111095238Y-99523390D02*
X111142857Y-99618628D01*
X111142857Y-99618628D02*
X111142857Y-99904342D01*
X111142857Y-99904342D02*
X111095238Y-99999580D01*
X111095238Y-99999580D02*
X111047619Y-100047200D01*
X111047619Y-100047200D02*
X110952381Y-100094819D01*
X110952381Y-100094819D02*
X110761905Y-100094819D01*
X110761905Y-100094819D02*
X110666667Y-100047200D01*
X111571429Y-100094819D02*
X111571429Y-99428152D01*
X111571429Y-99094819D02*
X111523810Y-99142438D01*
X111523810Y-99142438D02*
X111571429Y-99190057D01*
X111571429Y-99190057D02*
X111619048Y-99142438D01*
X111619048Y-99142438D02*
X111571429Y-99094819D01*
X111571429Y-99094819D02*
X111571429Y-99190057D01*
X112428571Y-100047200D02*
X112333333Y-100094819D01*
X112333333Y-100094819D02*
X112142857Y-100094819D01*
X112142857Y-100094819D02*
X112047619Y-100047200D01*
X112047619Y-100047200D02*
X112000000Y-99951961D01*
X112000000Y-99951961D02*
X112000000Y-99571009D01*
X112000000Y-99571009D02*
X112047619Y-99475771D01*
X112047619Y-99475771D02*
X112142857Y-99428152D01*
X112142857Y-99428152D02*
X112333333Y-99428152D01*
X112333333Y-99428152D02*
X112428571Y-99475771D01*
X112428571Y-99475771D02*
X112476190Y-99571009D01*
X112476190Y-99571009D02*
X112476190Y-99666247D01*
X112476190Y-99666247D02*
X112000000Y-99761485D01*
X112857143Y-100047200D02*
X112952381Y-100094819D01*
X112952381Y-100094819D02*
X113142857Y-100094819D01*
X113142857Y-100094819D02*
X113238095Y-100047200D01*
X113238095Y-100047200D02*
X113285714Y-99951961D01*
X113285714Y-99951961D02*
X113285714Y-99904342D01*
X113285714Y-99904342D02*
X113238095Y-99809104D01*
X113238095Y-99809104D02*
X113142857Y-99761485D01*
X113142857Y-99761485D02*
X113000000Y-99761485D01*
X113000000Y-99761485D02*
X112904762Y-99713866D01*
X112904762Y-99713866D02*
X112857143Y-99618628D01*
X112857143Y-99618628D02*
X112857143Y-99571009D01*
X112857143Y-99571009D02*
X112904762Y-99475771D01*
X112904762Y-99475771D02*
X113000000Y-99428152D01*
X113000000Y-99428152D02*
X113142857Y-99428152D01*
X113142857Y-99428152D02*
X113238095Y-99475771D01*
X113714286Y-100094819D02*
X113714286Y-99094819D01*
X113714286Y-99094819D02*
X113952381Y-99094819D01*
X113952381Y-99094819D02*
X114095238Y-99142438D01*
X114095238Y-99142438D02*
X114190476Y-99237676D01*
X114190476Y-99237676D02*
X114238095Y-99332914D01*
X114238095Y-99332914D02*
X114285714Y-99523390D01*
X114285714Y-99523390D02*
X114285714Y-99666247D01*
X114285714Y-99666247D02*
X114238095Y-99856723D01*
X114238095Y-99856723D02*
X114190476Y-99951961D01*
X114190476Y-99951961D02*
X114095238Y-100047200D01*
X114095238Y-100047200D02*
X113952381Y-100094819D01*
X113952381Y-100094819D02*
X113714286Y-100094819D01*
X114666667Y-100047200D02*
X114809524Y-100094819D01*
X114809524Y-100094819D02*
X115047619Y-100094819D01*
X115047619Y-100094819D02*
X115142857Y-100047200D01*
X115142857Y-100047200D02*
X115190476Y-99999580D01*
X115190476Y-99999580D02*
X115238095Y-99904342D01*
X115238095Y-99904342D02*
X115238095Y-99809104D01*
X115238095Y-99809104D02*
X115190476Y-99713866D01*
X115190476Y-99713866D02*
X115142857Y-99666247D01*
X115142857Y-99666247D02*
X115047619Y-99618628D01*
X115047619Y-99618628D02*
X114857143Y-99571009D01*
X114857143Y-99571009D02*
X114761905Y-99523390D01*
X114761905Y-99523390D02*
X114714286Y-99475771D01*
X114714286Y-99475771D02*
X114666667Y-99380533D01*
X114666667Y-99380533D02*
X114666667Y-99285295D01*
X114666667Y-99285295D02*
X114714286Y-99190057D01*
X114714286Y-99190057D02*
X114761905Y-99142438D01*
X114761905Y-99142438D02*
X114857143Y-99094819D01*
X114857143Y-99094819D02*
X115095238Y-99094819D01*
X115095238Y-99094819D02*
X115238095Y-99142438D01*
X115666667Y-100094819D02*
X115666667Y-99094819D01*
X115666667Y-99094819D02*
X116047619Y-99094819D01*
X116047619Y-99094819D02*
X116142857Y-99142438D01*
X116142857Y-99142438D02*
X116190476Y-99190057D01*
X116190476Y-99190057D02*
X116238095Y-99285295D01*
X116238095Y-99285295D02*
X116238095Y-99428152D01*
X116238095Y-99428152D02*
X116190476Y-99523390D01*
X116190476Y-99523390D02*
X116142857Y-99571009D01*
X116142857Y-99571009D02*
X116047619Y-99618628D01*
X116047619Y-99618628D02*
X115666667Y-99618628D01*
X102952380Y-101704819D02*
X102952380Y-100704819D01*
X102952380Y-101181009D02*
X103523808Y-101181009D01*
X103523808Y-101704819D02*
X103523808Y-100704819D01*
X104380951Y-101657200D02*
X104285713Y-101704819D01*
X104285713Y-101704819D02*
X104095237Y-101704819D01*
X104095237Y-101704819D02*
X103999999Y-101657200D01*
X103999999Y-101657200D02*
X103952380Y-101561961D01*
X103952380Y-101561961D02*
X103952380Y-101181009D01*
X103952380Y-101181009D02*
X103999999Y-101085771D01*
X103999999Y-101085771D02*
X104095237Y-101038152D01*
X104095237Y-101038152D02*
X104285713Y-101038152D01*
X104285713Y-101038152D02*
X104380951Y-101085771D01*
X104380951Y-101085771D02*
X104428570Y-101181009D01*
X104428570Y-101181009D02*
X104428570Y-101276247D01*
X104428570Y-101276247D02*
X103952380Y-101371485D01*
X105285713Y-101704819D02*
X105285713Y-101181009D01*
X105285713Y-101181009D02*
X105238094Y-101085771D01*
X105238094Y-101085771D02*
X105142856Y-101038152D01*
X105142856Y-101038152D02*
X104952380Y-101038152D01*
X104952380Y-101038152D02*
X104857142Y-101085771D01*
X105285713Y-101657200D02*
X105190475Y-101704819D01*
X105190475Y-101704819D02*
X104952380Y-101704819D01*
X104952380Y-101704819D02*
X104857142Y-101657200D01*
X104857142Y-101657200D02*
X104809523Y-101561961D01*
X104809523Y-101561961D02*
X104809523Y-101466723D01*
X104809523Y-101466723D02*
X104857142Y-101371485D01*
X104857142Y-101371485D02*
X104952380Y-101323866D01*
X104952380Y-101323866D02*
X105190475Y-101323866D01*
X105190475Y-101323866D02*
X105285713Y-101276247D01*
X106190475Y-101704819D02*
X106190475Y-100704819D01*
X106190475Y-101657200D02*
X106095237Y-101704819D01*
X106095237Y-101704819D02*
X105904761Y-101704819D01*
X105904761Y-101704819D02*
X105809523Y-101657200D01*
X105809523Y-101657200D02*
X105761904Y-101609580D01*
X105761904Y-101609580D02*
X105714285Y-101514342D01*
X105714285Y-101514342D02*
X105714285Y-101228628D01*
X105714285Y-101228628D02*
X105761904Y-101133390D01*
X105761904Y-101133390D02*
X105809523Y-101085771D01*
X105809523Y-101085771D02*
X105904761Y-101038152D01*
X105904761Y-101038152D02*
X106095237Y-101038152D01*
X106095237Y-101038152D02*
X106190475Y-101085771D01*
X106666666Y-101038152D02*
X106666666Y-102038152D01*
X106666666Y-101085771D02*
X106761904Y-101038152D01*
X106761904Y-101038152D02*
X106952380Y-101038152D01*
X106952380Y-101038152D02*
X107047618Y-101085771D01*
X107047618Y-101085771D02*
X107095237Y-101133390D01*
X107095237Y-101133390D02*
X107142856Y-101228628D01*
X107142856Y-101228628D02*
X107142856Y-101514342D01*
X107142856Y-101514342D02*
X107095237Y-101609580D01*
X107095237Y-101609580D02*
X107047618Y-101657200D01*
X107047618Y-101657200D02*
X106952380Y-101704819D01*
X106952380Y-101704819D02*
X106761904Y-101704819D01*
X106761904Y-101704819D02*
X106666666Y-101657200D01*
X107571428Y-101704819D02*
X107571428Y-100704819D01*
X107999999Y-101704819D02*
X107999999Y-101181009D01*
X107999999Y-101181009D02*
X107952380Y-101085771D01*
X107952380Y-101085771D02*
X107857142Y-101038152D01*
X107857142Y-101038152D02*
X107714285Y-101038152D01*
X107714285Y-101038152D02*
X107619047Y-101085771D01*
X107619047Y-101085771D02*
X107571428Y-101133390D01*
X108619047Y-101704819D02*
X108523809Y-101657200D01*
X108523809Y-101657200D02*
X108476190Y-101609580D01*
X108476190Y-101609580D02*
X108428571Y-101514342D01*
X108428571Y-101514342D02*
X108428571Y-101228628D01*
X108428571Y-101228628D02*
X108476190Y-101133390D01*
X108476190Y-101133390D02*
X108523809Y-101085771D01*
X108523809Y-101085771D02*
X108619047Y-101038152D01*
X108619047Y-101038152D02*
X108761904Y-101038152D01*
X108761904Y-101038152D02*
X108857142Y-101085771D01*
X108857142Y-101085771D02*
X108904761Y-101133390D01*
X108904761Y-101133390D02*
X108952380Y-101228628D01*
X108952380Y-101228628D02*
X108952380Y-101514342D01*
X108952380Y-101514342D02*
X108904761Y-101609580D01*
X108904761Y-101609580D02*
X108857142Y-101657200D01*
X108857142Y-101657200D02*
X108761904Y-101704819D01*
X108761904Y-101704819D02*
X108619047Y-101704819D01*
X109380952Y-101038152D02*
X109380952Y-101704819D01*
X109380952Y-101133390D02*
X109428571Y-101085771D01*
X109428571Y-101085771D02*
X109523809Y-101038152D01*
X109523809Y-101038152D02*
X109666666Y-101038152D01*
X109666666Y-101038152D02*
X109761904Y-101085771D01*
X109761904Y-101085771D02*
X109809523Y-101181009D01*
X109809523Y-101181009D02*
X109809523Y-101704819D01*
X110666666Y-101657200D02*
X110571428Y-101704819D01*
X110571428Y-101704819D02*
X110380952Y-101704819D01*
X110380952Y-101704819D02*
X110285714Y-101657200D01*
X110285714Y-101657200D02*
X110238095Y-101561961D01*
X110238095Y-101561961D02*
X110238095Y-101181009D01*
X110238095Y-101181009D02*
X110285714Y-101085771D01*
X110285714Y-101085771D02*
X110380952Y-101038152D01*
X110380952Y-101038152D02*
X110571428Y-101038152D01*
X110571428Y-101038152D02*
X110666666Y-101085771D01*
X110666666Y-101085771D02*
X110714285Y-101181009D01*
X110714285Y-101181009D02*
X110714285Y-101276247D01*
X110714285Y-101276247D02*
X110238095Y-101371485D01*
X111904762Y-101704819D02*
X111904762Y-100704819D01*
X111904762Y-100704819D02*
X112142857Y-100704819D01*
X112142857Y-100704819D02*
X112285714Y-100752438D01*
X112285714Y-100752438D02*
X112380952Y-100847676D01*
X112380952Y-100847676D02*
X112428571Y-100942914D01*
X112428571Y-100942914D02*
X112476190Y-101133390D01*
X112476190Y-101133390D02*
X112476190Y-101276247D01*
X112476190Y-101276247D02*
X112428571Y-101466723D01*
X112428571Y-101466723D02*
X112380952Y-101561961D01*
X112380952Y-101561961D02*
X112285714Y-101657200D01*
X112285714Y-101657200D02*
X112142857Y-101704819D01*
X112142857Y-101704819D02*
X111904762Y-101704819D01*
X112857143Y-101419104D02*
X113333333Y-101419104D01*
X112761905Y-101704819D02*
X113095238Y-100704819D01*
X113095238Y-100704819D02*
X113428571Y-101704819D01*
X114333333Y-101609580D02*
X114285714Y-101657200D01*
X114285714Y-101657200D02*
X114142857Y-101704819D01*
X114142857Y-101704819D02*
X114047619Y-101704819D01*
X114047619Y-101704819D02*
X113904762Y-101657200D01*
X113904762Y-101657200D02*
X113809524Y-101561961D01*
X113809524Y-101561961D02*
X113761905Y-101466723D01*
X113761905Y-101466723D02*
X113714286Y-101276247D01*
X113714286Y-101276247D02*
X113714286Y-101133390D01*
X113714286Y-101133390D02*
X113761905Y-100942914D01*
X113761905Y-100942914D02*
X113809524Y-100847676D01*
X113809524Y-100847676D02*
X113904762Y-100752438D01*
X113904762Y-100752438D02*
X114047619Y-100704819D01*
X114047619Y-100704819D02*
X114142857Y-100704819D01*
X114142857Y-100704819D02*
X114285714Y-100752438D01*
X114285714Y-100752438D02*
X114333333Y-100800057D01*
X115523810Y-101704819D02*
X115523810Y-100704819D01*
X115523810Y-100704819D02*
X115904762Y-100704819D01*
X115904762Y-100704819D02*
X116000000Y-100752438D01*
X116000000Y-100752438D02*
X116047619Y-100800057D01*
X116047619Y-100800057D02*
X116095238Y-100895295D01*
X116095238Y-100895295D02*
X116095238Y-101038152D01*
X116095238Y-101038152D02*
X116047619Y-101133390D01*
X116047619Y-101133390D02*
X116000000Y-101181009D01*
X116000000Y-101181009D02*
X115904762Y-101228628D01*
X115904762Y-101228628D02*
X115523810Y-101228628D01*
X116523810Y-101704819D02*
X116523810Y-101038152D01*
X116523810Y-101228628D02*
X116571429Y-101133390D01*
X116571429Y-101133390D02*
X116619048Y-101085771D01*
X116619048Y-101085771D02*
X116714286Y-101038152D01*
X116714286Y-101038152D02*
X116809524Y-101038152D01*
X117285715Y-101704819D02*
X117190477Y-101657200D01*
X117190477Y-101657200D02*
X117142858Y-101609580D01*
X117142858Y-101609580D02*
X117095239Y-101514342D01*
X117095239Y-101514342D02*
X117095239Y-101228628D01*
X117095239Y-101228628D02*
X117142858Y-101133390D01*
X117142858Y-101133390D02*
X117190477Y-101085771D01*
X117190477Y-101085771D02*
X117285715Y-101038152D01*
X117285715Y-101038152D02*
X117428572Y-101038152D01*
X117428572Y-101038152D02*
X117523810Y-101085771D01*
X117523810Y-101085771D02*
X117571429Y-101133390D01*
X117571429Y-101133390D02*
X117619048Y-101228628D01*
X117619048Y-101228628D02*
X117619048Y-101514342D01*
X117619048Y-101514342D02*
X117571429Y-101609580D01*
X117571429Y-101609580D02*
X117523810Y-101657200D01*
X117523810Y-101657200D02*
X117428572Y-101704819D01*
X117428572Y-101704819D02*
X117285715Y-101704819D01*
X117904763Y-101038152D02*
X118285715Y-101038152D01*
X118047620Y-100704819D02*
X118047620Y-101561961D01*
X118047620Y-101561961D02*
X118095239Y-101657200D01*
X118095239Y-101657200D02*
X118190477Y-101704819D01*
X118190477Y-101704819D02*
X118285715Y-101704819D01*
X118761906Y-101704819D02*
X118666668Y-101657200D01*
X118666668Y-101657200D02*
X118619049Y-101609580D01*
X118619049Y-101609580D02*
X118571430Y-101514342D01*
X118571430Y-101514342D02*
X118571430Y-101228628D01*
X118571430Y-101228628D02*
X118619049Y-101133390D01*
X118619049Y-101133390D02*
X118666668Y-101085771D01*
X118666668Y-101085771D02*
X118761906Y-101038152D01*
X118761906Y-101038152D02*
X118904763Y-101038152D01*
X118904763Y-101038152D02*
X119000001Y-101085771D01*
X119000001Y-101085771D02*
X119047620Y-101133390D01*
X119047620Y-101133390D02*
X119095239Y-101228628D01*
X119095239Y-101228628D02*
X119095239Y-101514342D01*
X119095239Y-101514342D02*
X119047620Y-101609580D01*
X119047620Y-101609580D02*
X119000001Y-101657200D01*
X119000001Y-101657200D02*
X118904763Y-101704819D01*
X118904763Y-101704819D02*
X118761906Y-101704819D01*
X120142859Y-100704819D02*
X120476192Y-101704819D01*
X120476192Y-101704819D02*
X120809525Y-100704819D01*
X121666668Y-101704819D02*
X121095240Y-101704819D01*
X121380954Y-101704819D02*
X121380954Y-100704819D01*
X121380954Y-100704819D02*
X121285716Y-100847676D01*
X121285716Y-100847676D02*
X121190478Y-100942914D01*
X121190478Y-100942914D02*
X121095240Y-100990533D01*
X122095240Y-101609580D02*
X122142859Y-101657200D01*
X122142859Y-101657200D02*
X122095240Y-101704819D01*
X122095240Y-101704819D02*
X122047621Y-101657200D01*
X122047621Y-101657200D02*
X122095240Y-101609580D01*
X122095240Y-101609580D02*
X122095240Y-101704819D01*
X122761906Y-100704819D02*
X122857144Y-100704819D01*
X122857144Y-100704819D02*
X122952382Y-100752438D01*
X122952382Y-100752438D02*
X123000001Y-100800057D01*
X123000001Y-100800057D02*
X123047620Y-100895295D01*
X123047620Y-100895295D02*
X123095239Y-101085771D01*
X123095239Y-101085771D02*
X123095239Y-101323866D01*
X123095239Y-101323866D02*
X123047620Y-101514342D01*
X123047620Y-101514342D02*
X123000001Y-101609580D01*
X123000001Y-101609580D02*
X122952382Y-101657200D01*
X122952382Y-101657200D02*
X122857144Y-101704819D01*
X122857144Y-101704819D02*
X122761906Y-101704819D01*
X122761906Y-101704819D02*
X122666668Y-101657200D01*
X122666668Y-101657200D02*
X122619049Y-101609580D01*
X122619049Y-101609580D02*
X122571430Y-101514342D01*
X122571430Y-101514342D02*
X122523811Y-101323866D01*
X122523811Y-101323866D02*
X122523811Y-101085771D01*
X122523811Y-101085771D02*
X122571430Y-100895295D01*
X122571430Y-100895295D02*
X122619049Y-100800057D01*
X122619049Y-100800057D02*
X122666668Y-100752438D01*
X122666668Y-100752438D02*
X122761906Y-100704819D01*
X108142857Y-102410057D02*
X108190476Y-102362438D01*
X108190476Y-102362438D02*
X108285714Y-102314819D01*
X108285714Y-102314819D02*
X108523809Y-102314819D01*
X108523809Y-102314819D02*
X108619047Y-102362438D01*
X108619047Y-102362438D02*
X108666666Y-102410057D01*
X108666666Y-102410057D02*
X108714285Y-102505295D01*
X108714285Y-102505295D02*
X108714285Y-102600533D01*
X108714285Y-102600533D02*
X108666666Y-102743390D01*
X108666666Y-102743390D02*
X108095238Y-103314819D01*
X108095238Y-103314819D02*
X108714285Y-103314819D01*
X109333333Y-102314819D02*
X109428571Y-102314819D01*
X109428571Y-102314819D02*
X109523809Y-102362438D01*
X109523809Y-102362438D02*
X109571428Y-102410057D01*
X109571428Y-102410057D02*
X109619047Y-102505295D01*
X109619047Y-102505295D02*
X109666666Y-102695771D01*
X109666666Y-102695771D02*
X109666666Y-102933866D01*
X109666666Y-102933866D02*
X109619047Y-103124342D01*
X109619047Y-103124342D02*
X109571428Y-103219580D01*
X109571428Y-103219580D02*
X109523809Y-103267200D01*
X109523809Y-103267200D02*
X109428571Y-103314819D01*
X109428571Y-103314819D02*
X109333333Y-103314819D01*
X109333333Y-103314819D02*
X109238095Y-103267200D01*
X109238095Y-103267200D02*
X109190476Y-103219580D01*
X109190476Y-103219580D02*
X109142857Y-103124342D01*
X109142857Y-103124342D02*
X109095238Y-102933866D01*
X109095238Y-102933866D02*
X109095238Y-102695771D01*
X109095238Y-102695771D02*
X109142857Y-102505295D01*
X109142857Y-102505295D02*
X109190476Y-102410057D01*
X109190476Y-102410057D02*
X109238095Y-102362438D01*
X109238095Y-102362438D02*
X109333333Y-102314819D01*
X110047619Y-102410057D02*
X110095238Y-102362438D01*
X110095238Y-102362438D02*
X110190476Y-102314819D01*
X110190476Y-102314819D02*
X110428571Y-102314819D01*
X110428571Y-102314819D02*
X110523809Y-102362438D01*
X110523809Y-102362438D02*
X110571428Y-102410057D01*
X110571428Y-102410057D02*
X110619047Y-102505295D01*
X110619047Y-102505295D02*
X110619047Y-102600533D01*
X110619047Y-102600533D02*
X110571428Y-102743390D01*
X110571428Y-102743390D02*
X110000000Y-103314819D01*
X110000000Y-103314819D02*
X110619047Y-103314819D01*
X111238095Y-102314819D02*
X111333333Y-102314819D01*
X111333333Y-102314819D02*
X111428571Y-102362438D01*
X111428571Y-102362438D02*
X111476190Y-102410057D01*
X111476190Y-102410057D02*
X111523809Y-102505295D01*
X111523809Y-102505295D02*
X111571428Y-102695771D01*
X111571428Y-102695771D02*
X111571428Y-102933866D01*
X111571428Y-102933866D02*
X111523809Y-103124342D01*
X111523809Y-103124342D02*
X111476190Y-103219580D01*
X111476190Y-103219580D02*
X111428571Y-103267200D01*
X111428571Y-103267200D02*
X111333333Y-103314819D01*
X111333333Y-103314819D02*
X111238095Y-103314819D01*
X111238095Y-103314819D02*
X111142857Y-103267200D01*
X111142857Y-103267200D02*
X111095238Y-103219580D01*
X111095238Y-103219580D02*
X111047619Y-103124342D01*
X111047619Y-103124342D02*
X111000000Y-102933866D01*
X111000000Y-102933866D02*
X111000000Y-102695771D01*
X111000000Y-102695771D02*
X111047619Y-102505295D01*
X111047619Y-102505295D02*
X111095238Y-102410057D01*
X111095238Y-102410057D02*
X111142857Y-102362438D01*
X111142857Y-102362438D02*
X111238095Y-102314819D01*
X112000000Y-102933866D02*
X112761905Y-102933866D01*
X113428571Y-102314819D02*
X113523809Y-102314819D01*
X113523809Y-102314819D02*
X113619047Y-102362438D01*
X113619047Y-102362438D02*
X113666666Y-102410057D01*
X113666666Y-102410057D02*
X113714285Y-102505295D01*
X113714285Y-102505295D02*
X113761904Y-102695771D01*
X113761904Y-102695771D02*
X113761904Y-102933866D01*
X113761904Y-102933866D02*
X113714285Y-103124342D01*
X113714285Y-103124342D02*
X113666666Y-103219580D01*
X113666666Y-103219580D02*
X113619047Y-103267200D01*
X113619047Y-103267200D02*
X113523809Y-103314819D01*
X113523809Y-103314819D02*
X113428571Y-103314819D01*
X113428571Y-103314819D02*
X113333333Y-103267200D01*
X113333333Y-103267200D02*
X113285714Y-103219580D01*
X113285714Y-103219580D02*
X113238095Y-103124342D01*
X113238095Y-103124342D02*
X113190476Y-102933866D01*
X113190476Y-102933866D02*
X113190476Y-102695771D01*
X113190476Y-102695771D02*
X113238095Y-102505295D01*
X113238095Y-102505295D02*
X113285714Y-102410057D01*
X113285714Y-102410057D02*
X113333333Y-102362438D01*
X113333333Y-102362438D02*
X113428571Y-102314819D01*
X114095238Y-102314819D02*
X114761904Y-102314819D01*
X114761904Y-102314819D02*
X114333333Y-103314819D01*
X115142857Y-102933866D02*
X115904762Y-102933866D01*
X116571428Y-102314819D02*
X116666666Y-102314819D01*
X116666666Y-102314819D02*
X116761904Y-102362438D01*
X116761904Y-102362438D02*
X116809523Y-102410057D01*
X116809523Y-102410057D02*
X116857142Y-102505295D01*
X116857142Y-102505295D02*
X116904761Y-102695771D01*
X116904761Y-102695771D02*
X116904761Y-102933866D01*
X116904761Y-102933866D02*
X116857142Y-103124342D01*
X116857142Y-103124342D02*
X116809523Y-103219580D01*
X116809523Y-103219580D02*
X116761904Y-103267200D01*
X116761904Y-103267200D02*
X116666666Y-103314819D01*
X116666666Y-103314819D02*
X116571428Y-103314819D01*
X116571428Y-103314819D02*
X116476190Y-103267200D01*
X116476190Y-103267200D02*
X116428571Y-103219580D01*
X116428571Y-103219580D02*
X116380952Y-103124342D01*
X116380952Y-103124342D02*
X116333333Y-102933866D01*
X116333333Y-102933866D02*
X116333333Y-102695771D01*
X116333333Y-102695771D02*
X116380952Y-102505295D01*
X116380952Y-102505295D02*
X116428571Y-102410057D01*
X116428571Y-102410057D02*
X116476190Y-102362438D01*
X116476190Y-102362438D02*
X116571428Y-102314819D01*
X117238095Y-102314819D02*
X117857142Y-102314819D01*
X117857142Y-102314819D02*
X117523809Y-102695771D01*
X117523809Y-102695771D02*
X117666666Y-102695771D01*
X117666666Y-102695771D02*
X117761904Y-102743390D01*
X117761904Y-102743390D02*
X117809523Y-102791009D01*
X117809523Y-102791009D02*
X117857142Y-102886247D01*
X117857142Y-102886247D02*
X117857142Y-103124342D01*
X117857142Y-103124342D02*
X117809523Y-103219580D01*
X117809523Y-103219580D02*
X117761904Y-103267200D01*
X117761904Y-103267200D02*
X117666666Y-103314819D01*
X117666666Y-103314819D02*
X117380952Y-103314819D01*
X117380952Y-103314819D02*
X117285714Y-103267200D01*
X117285714Y-103267200D02*
X117238095Y-103219580D01*
X127738095Y-116954819D02*
X127738095Y-117764342D01*
X127738095Y-117764342D02*
X127785714Y-117859580D01*
X127785714Y-117859580D02*
X127833333Y-117907200D01*
X127833333Y-117907200D02*
X127928571Y-117954819D01*
X127928571Y-117954819D02*
X128119047Y-117954819D01*
X128119047Y-117954819D02*
X128214285Y-117907200D01*
X128214285Y-117907200D02*
X128261904Y-117859580D01*
X128261904Y-117859580D02*
X128309523Y-117764342D01*
X128309523Y-117764342D02*
X128309523Y-116954819D01*
X128738095Y-117050057D02*
X128785714Y-117002438D01*
X128785714Y-117002438D02*
X128880952Y-116954819D01*
X128880952Y-116954819D02*
X129119047Y-116954819D01*
X129119047Y-116954819D02*
X129214285Y-117002438D01*
X129214285Y-117002438D02*
X129261904Y-117050057D01*
X129261904Y-117050057D02*
X129309523Y-117145295D01*
X129309523Y-117145295D02*
X129309523Y-117240533D01*
X129309523Y-117240533D02*
X129261904Y-117383390D01*
X129261904Y-117383390D02*
X128690476Y-117954819D01*
X128690476Y-117954819D02*
X129309523Y-117954819D01*
X129904761Y-140204819D02*
X129571428Y-139728628D01*
X129333333Y-140204819D02*
X129333333Y-139204819D01*
X129333333Y-139204819D02*
X129714285Y-139204819D01*
X129714285Y-139204819D02*
X129809523Y-139252438D01*
X129809523Y-139252438D02*
X129857142Y-139300057D01*
X129857142Y-139300057D02*
X129904761Y-139395295D01*
X129904761Y-139395295D02*
X129904761Y-139538152D01*
X129904761Y-139538152D02*
X129857142Y-139633390D01*
X129857142Y-139633390D02*
X129809523Y-139681009D01*
X129809523Y-139681009D02*
X129714285Y-139728628D01*
X129714285Y-139728628D02*
X129333333Y-139728628D01*
X130190476Y-139204819D02*
X130523809Y-140204819D01*
X130523809Y-140204819D02*
X130857142Y-139204819D01*
X131095238Y-139204819D02*
X131714285Y-139204819D01*
X131714285Y-139204819D02*
X131380952Y-139585771D01*
X131380952Y-139585771D02*
X131523809Y-139585771D01*
X131523809Y-139585771D02*
X131619047Y-139633390D01*
X131619047Y-139633390D02*
X131666666Y-139681009D01*
X131666666Y-139681009D02*
X131714285Y-139776247D01*
X131714285Y-139776247D02*
X131714285Y-140014342D01*
X131714285Y-140014342D02*
X131666666Y-140109580D01*
X131666666Y-140109580D02*
X131619047Y-140157200D01*
X131619047Y-140157200D02*
X131523809Y-140204819D01*
X131523809Y-140204819D02*
X131238095Y-140204819D01*
X131238095Y-140204819D02*
X131142857Y-140157200D01*
X131142857Y-140157200D02*
X131095238Y-140109580D01*
X123859580Y-133916666D02*
X123907200Y-133964285D01*
X123907200Y-133964285D02*
X123954819Y-134107142D01*
X123954819Y-134107142D02*
X123954819Y-134202380D01*
X123954819Y-134202380D02*
X123907200Y-134345237D01*
X123907200Y-134345237D02*
X123811961Y-134440475D01*
X123811961Y-134440475D02*
X123716723Y-134488094D01*
X123716723Y-134488094D02*
X123526247Y-134535713D01*
X123526247Y-134535713D02*
X123383390Y-134535713D01*
X123383390Y-134535713D02*
X123192914Y-134488094D01*
X123192914Y-134488094D02*
X123097676Y-134440475D01*
X123097676Y-134440475D02*
X123002438Y-134345237D01*
X123002438Y-134345237D02*
X122954819Y-134202380D01*
X122954819Y-134202380D02*
X122954819Y-134107142D01*
X122954819Y-134107142D02*
X123002438Y-133964285D01*
X123002438Y-133964285D02*
X123050057Y-133916666D01*
X123954819Y-132964285D02*
X123954819Y-133535713D01*
X123954819Y-133249999D02*
X122954819Y-133249999D01*
X122954819Y-133249999D02*
X123097676Y-133345237D01*
X123097676Y-133345237D02*
X123192914Y-133440475D01*
X123192914Y-133440475D02*
X123240533Y-133535713D01*
X135083333Y-126359580D02*
X135035714Y-126407200D01*
X135035714Y-126407200D02*
X134892857Y-126454819D01*
X134892857Y-126454819D02*
X134797619Y-126454819D01*
X134797619Y-126454819D02*
X134654762Y-126407200D01*
X134654762Y-126407200D02*
X134559524Y-126311961D01*
X134559524Y-126311961D02*
X134511905Y-126216723D01*
X134511905Y-126216723D02*
X134464286Y-126026247D01*
X134464286Y-126026247D02*
X134464286Y-125883390D01*
X134464286Y-125883390D02*
X134511905Y-125692914D01*
X134511905Y-125692914D02*
X134559524Y-125597676D01*
X134559524Y-125597676D02*
X134654762Y-125502438D01*
X134654762Y-125502438D02*
X134797619Y-125454819D01*
X134797619Y-125454819D02*
X134892857Y-125454819D01*
X134892857Y-125454819D02*
X135035714Y-125502438D01*
X135035714Y-125502438D02*
X135083333Y-125550057D01*
X135464286Y-125550057D02*
X135511905Y-125502438D01*
X135511905Y-125502438D02*
X135607143Y-125454819D01*
X135607143Y-125454819D02*
X135845238Y-125454819D01*
X135845238Y-125454819D02*
X135940476Y-125502438D01*
X135940476Y-125502438D02*
X135988095Y-125550057D01*
X135988095Y-125550057D02*
X136035714Y-125645295D01*
X136035714Y-125645295D02*
X136035714Y-125740533D01*
X136035714Y-125740533D02*
X135988095Y-125883390D01*
X135988095Y-125883390D02*
X135416667Y-126454819D01*
X135416667Y-126454819D02*
X136035714Y-126454819D01*
X113583333Y-117609580D02*
X113535714Y-117657200D01*
X113535714Y-117657200D02*
X113392857Y-117704819D01*
X113392857Y-117704819D02*
X113297619Y-117704819D01*
X113297619Y-117704819D02*
X113154762Y-117657200D01*
X113154762Y-117657200D02*
X113059524Y-117561961D01*
X113059524Y-117561961D02*
X113011905Y-117466723D01*
X113011905Y-117466723D02*
X112964286Y-117276247D01*
X112964286Y-117276247D02*
X112964286Y-117133390D01*
X112964286Y-117133390D02*
X113011905Y-116942914D01*
X113011905Y-116942914D02*
X113059524Y-116847676D01*
X113059524Y-116847676D02*
X113154762Y-116752438D01*
X113154762Y-116752438D02*
X113297619Y-116704819D01*
X113297619Y-116704819D02*
X113392857Y-116704819D01*
X113392857Y-116704819D02*
X113535714Y-116752438D01*
X113535714Y-116752438D02*
X113583333Y-116800057D01*
X113916667Y-116704819D02*
X114535714Y-116704819D01*
X114535714Y-116704819D02*
X114202381Y-117085771D01*
X114202381Y-117085771D02*
X114345238Y-117085771D01*
X114345238Y-117085771D02*
X114440476Y-117133390D01*
X114440476Y-117133390D02*
X114488095Y-117181009D01*
X114488095Y-117181009D02*
X114535714Y-117276247D01*
X114535714Y-117276247D02*
X114535714Y-117514342D01*
X114535714Y-117514342D02*
X114488095Y-117609580D01*
X114488095Y-117609580D02*
X114440476Y-117657200D01*
X114440476Y-117657200D02*
X114345238Y-117704819D01*
X114345238Y-117704819D02*
X114059524Y-117704819D01*
X114059524Y-117704819D02*
X113964286Y-117657200D01*
X113964286Y-117657200D02*
X113916667Y-117609580D01*
X127359580Y-133916666D02*
X127407200Y-133964285D01*
X127407200Y-133964285D02*
X127454819Y-134107142D01*
X127454819Y-134107142D02*
X127454819Y-134202380D01*
X127454819Y-134202380D02*
X127407200Y-134345237D01*
X127407200Y-134345237D02*
X127311961Y-134440475D01*
X127311961Y-134440475D02*
X127216723Y-134488094D01*
X127216723Y-134488094D02*
X127026247Y-134535713D01*
X127026247Y-134535713D02*
X126883390Y-134535713D01*
X126883390Y-134535713D02*
X126692914Y-134488094D01*
X126692914Y-134488094D02*
X126597676Y-134440475D01*
X126597676Y-134440475D02*
X126502438Y-134345237D01*
X126502438Y-134345237D02*
X126454819Y-134202380D01*
X126454819Y-134202380D02*
X126454819Y-134107142D01*
X126454819Y-134107142D02*
X126502438Y-133964285D01*
X126502438Y-133964285D02*
X126550057Y-133916666D01*
X126788152Y-133059523D02*
X127454819Y-133059523D01*
X126407200Y-133297618D02*
X127121485Y-133535713D01*
X127121485Y-133535713D02*
X127121485Y-132916666D01*
X119859580Y-114166666D02*
X119907200Y-114214285D01*
X119907200Y-114214285D02*
X119954819Y-114357142D01*
X119954819Y-114357142D02*
X119954819Y-114452380D01*
X119954819Y-114452380D02*
X119907200Y-114595237D01*
X119907200Y-114595237D02*
X119811961Y-114690475D01*
X119811961Y-114690475D02*
X119716723Y-114738094D01*
X119716723Y-114738094D02*
X119526247Y-114785713D01*
X119526247Y-114785713D02*
X119383390Y-114785713D01*
X119383390Y-114785713D02*
X119192914Y-114738094D01*
X119192914Y-114738094D02*
X119097676Y-114690475D01*
X119097676Y-114690475D02*
X119002438Y-114595237D01*
X119002438Y-114595237D02*
X118954819Y-114452380D01*
X118954819Y-114452380D02*
X118954819Y-114357142D01*
X118954819Y-114357142D02*
X119002438Y-114214285D01*
X119002438Y-114214285D02*
X119050057Y-114166666D01*
X118954819Y-113261904D02*
X118954819Y-113738094D01*
X118954819Y-113738094D02*
X119431009Y-113785713D01*
X119431009Y-113785713D02*
X119383390Y-113738094D01*
X119383390Y-113738094D02*
X119335771Y-113642856D01*
X119335771Y-113642856D02*
X119335771Y-113404761D01*
X119335771Y-113404761D02*
X119383390Y-113309523D01*
X119383390Y-113309523D02*
X119431009Y-113261904D01*
X119431009Y-113261904D02*
X119526247Y-113214285D01*
X119526247Y-113214285D02*
X119764342Y-113214285D01*
X119764342Y-113214285D02*
X119859580Y-113261904D01*
X119859580Y-113261904D02*
X119907200Y-113309523D01*
X119907200Y-113309523D02*
X119954819Y-113404761D01*
X119954819Y-113404761D02*
X119954819Y-113642856D01*
X119954819Y-113642856D02*
X119907200Y-113738094D01*
X119907200Y-113738094D02*
X119859580Y-113785713D01*
X114083333Y-119359580D02*
X114035714Y-119407200D01*
X114035714Y-119407200D02*
X113892857Y-119454819D01*
X113892857Y-119454819D02*
X113797619Y-119454819D01*
X113797619Y-119454819D02*
X113654762Y-119407200D01*
X113654762Y-119407200D02*
X113559524Y-119311961D01*
X113559524Y-119311961D02*
X113511905Y-119216723D01*
X113511905Y-119216723D02*
X113464286Y-119026247D01*
X113464286Y-119026247D02*
X113464286Y-118883390D01*
X113464286Y-118883390D02*
X113511905Y-118692914D01*
X113511905Y-118692914D02*
X113559524Y-118597676D01*
X113559524Y-118597676D02*
X113654762Y-118502438D01*
X113654762Y-118502438D02*
X113797619Y-118454819D01*
X113797619Y-118454819D02*
X113892857Y-118454819D01*
X113892857Y-118454819D02*
X114035714Y-118502438D01*
X114035714Y-118502438D02*
X114083333Y-118550057D01*
X114940476Y-118454819D02*
X114750000Y-118454819D01*
X114750000Y-118454819D02*
X114654762Y-118502438D01*
X114654762Y-118502438D02*
X114607143Y-118550057D01*
X114607143Y-118550057D02*
X114511905Y-118692914D01*
X114511905Y-118692914D02*
X114464286Y-118883390D01*
X114464286Y-118883390D02*
X114464286Y-119264342D01*
X114464286Y-119264342D02*
X114511905Y-119359580D01*
X114511905Y-119359580D02*
X114559524Y-119407200D01*
X114559524Y-119407200D02*
X114654762Y-119454819D01*
X114654762Y-119454819D02*
X114845238Y-119454819D01*
X114845238Y-119454819D02*
X114940476Y-119407200D01*
X114940476Y-119407200D02*
X114988095Y-119359580D01*
X114988095Y-119359580D02*
X115035714Y-119264342D01*
X115035714Y-119264342D02*
X115035714Y-119026247D01*
X115035714Y-119026247D02*
X114988095Y-118931009D01*
X114988095Y-118931009D02*
X114940476Y-118883390D01*
X114940476Y-118883390D02*
X114845238Y-118835771D01*
X114845238Y-118835771D02*
X114654762Y-118835771D01*
X114654762Y-118835771D02*
X114559524Y-118883390D01*
X114559524Y-118883390D02*
X114511905Y-118931009D01*
X114511905Y-118931009D02*
X114464286Y-119026247D01*
X103929580Y-115166666D02*
X103977200Y-115214285D01*
X103977200Y-115214285D02*
X104024819Y-115357142D01*
X104024819Y-115357142D02*
X104024819Y-115452380D01*
X104024819Y-115452380D02*
X103977200Y-115595237D01*
X103977200Y-115595237D02*
X103881961Y-115690475D01*
X103881961Y-115690475D02*
X103786723Y-115738094D01*
X103786723Y-115738094D02*
X103596247Y-115785713D01*
X103596247Y-115785713D02*
X103453390Y-115785713D01*
X103453390Y-115785713D02*
X103262914Y-115738094D01*
X103262914Y-115738094D02*
X103167676Y-115690475D01*
X103167676Y-115690475D02*
X103072438Y-115595237D01*
X103072438Y-115595237D02*
X103024819Y-115452380D01*
X103024819Y-115452380D02*
X103024819Y-115357142D01*
X103024819Y-115357142D02*
X103072438Y-115214285D01*
X103072438Y-115214285D02*
X103120057Y-115166666D01*
X103453390Y-114595237D02*
X103405771Y-114690475D01*
X103405771Y-114690475D02*
X103358152Y-114738094D01*
X103358152Y-114738094D02*
X103262914Y-114785713D01*
X103262914Y-114785713D02*
X103215295Y-114785713D01*
X103215295Y-114785713D02*
X103120057Y-114738094D01*
X103120057Y-114738094D02*
X103072438Y-114690475D01*
X103072438Y-114690475D02*
X103024819Y-114595237D01*
X103024819Y-114595237D02*
X103024819Y-114404761D01*
X103024819Y-114404761D02*
X103072438Y-114309523D01*
X103072438Y-114309523D02*
X103120057Y-114261904D01*
X103120057Y-114261904D02*
X103215295Y-114214285D01*
X103215295Y-114214285D02*
X103262914Y-114214285D01*
X103262914Y-114214285D02*
X103358152Y-114261904D01*
X103358152Y-114261904D02*
X103405771Y-114309523D01*
X103405771Y-114309523D02*
X103453390Y-114404761D01*
X103453390Y-114404761D02*
X103453390Y-114595237D01*
X103453390Y-114595237D02*
X103501009Y-114690475D01*
X103501009Y-114690475D02*
X103548628Y-114738094D01*
X103548628Y-114738094D02*
X103643866Y-114785713D01*
X103643866Y-114785713D02*
X103834342Y-114785713D01*
X103834342Y-114785713D02*
X103929580Y-114738094D01*
X103929580Y-114738094D02*
X103977200Y-114690475D01*
X103977200Y-114690475D02*
X104024819Y-114595237D01*
X104024819Y-114595237D02*
X104024819Y-114404761D01*
X104024819Y-114404761D02*
X103977200Y-114309523D01*
X103977200Y-114309523D02*
X103929580Y-114261904D01*
X103929580Y-114261904D02*
X103834342Y-114214285D01*
X103834342Y-114214285D02*
X103643866Y-114214285D01*
X103643866Y-114214285D02*
X103548628Y-114261904D01*
X103548628Y-114261904D02*
X103501009Y-114309523D01*
X103501009Y-114309523D02*
X103453390Y-114404761D01*
X121109580Y-132416666D02*
X121157200Y-132464285D01*
X121157200Y-132464285D02*
X121204819Y-132607142D01*
X121204819Y-132607142D02*
X121204819Y-132702380D01*
X121204819Y-132702380D02*
X121157200Y-132845237D01*
X121157200Y-132845237D02*
X121061961Y-132940475D01*
X121061961Y-132940475D02*
X120966723Y-132988094D01*
X120966723Y-132988094D02*
X120776247Y-133035713D01*
X120776247Y-133035713D02*
X120633390Y-133035713D01*
X120633390Y-133035713D02*
X120442914Y-132988094D01*
X120442914Y-132988094D02*
X120347676Y-132940475D01*
X120347676Y-132940475D02*
X120252438Y-132845237D01*
X120252438Y-132845237D02*
X120204819Y-132702380D01*
X120204819Y-132702380D02*
X120204819Y-132607142D01*
X120204819Y-132607142D02*
X120252438Y-132464285D01*
X120252438Y-132464285D02*
X120300057Y-132416666D01*
X121204819Y-131940475D02*
X121204819Y-131749999D01*
X121204819Y-131749999D02*
X121157200Y-131654761D01*
X121157200Y-131654761D02*
X121109580Y-131607142D01*
X121109580Y-131607142D02*
X120966723Y-131511904D01*
X120966723Y-131511904D02*
X120776247Y-131464285D01*
X120776247Y-131464285D02*
X120395295Y-131464285D01*
X120395295Y-131464285D02*
X120300057Y-131511904D01*
X120300057Y-131511904D02*
X120252438Y-131559523D01*
X120252438Y-131559523D02*
X120204819Y-131654761D01*
X120204819Y-131654761D02*
X120204819Y-131845237D01*
X120204819Y-131845237D02*
X120252438Y-131940475D01*
X120252438Y-131940475D02*
X120300057Y-131988094D01*
X120300057Y-131988094D02*
X120395295Y-132035713D01*
X120395295Y-132035713D02*
X120633390Y-132035713D01*
X120633390Y-132035713D02*
X120728628Y-131988094D01*
X120728628Y-131988094D02*
X120776247Y-131940475D01*
X120776247Y-131940475D02*
X120823866Y-131845237D01*
X120823866Y-131845237D02*
X120823866Y-131654761D01*
X120823866Y-131654761D02*
X120776247Y-131559523D01*
X120776247Y-131559523D02*
X120728628Y-131511904D01*
X120728628Y-131511904D02*
X120633390Y-131464285D01*
X125609580Y-134892857D02*
X125657200Y-134940476D01*
X125657200Y-134940476D02*
X125704819Y-135083333D01*
X125704819Y-135083333D02*
X125704819Y-135178571D01*
X125704819Y-135178571D02*
X125657200Y-135321428D01*
X125657200Y-135321428D02*
X125561961Y-135416666D01*
X125561961Y-135416666D02*
X125466723Y-135464285D01*
X125466723Y-135464285D02*
X125276247Y-135511904D01*
X125276247Y-135511904D02*
X125133390Y-135511904D01*
X125133390Y-135511904D02*
X124942914Y-135464285D01*
X124942914Y-135464285D02*
X124847676Y-135416666D01*
X124847676Y-135416666D02*
X124752438Y-135321428D01*
X124752438Y-135321428D02*
X124704819Y-135178571D01*
X124704819Y-135178571D02*
X124704819Y-135083333D01*
X124704819Y-135083333D02*
X124752438Y-134940476D01*
X124752438Y-134940476D02*
X124800057Y-134892857D01*
X125704819Y-133940476D02*
X125704819Y-134511904D01*
X125704819Y-134226190D02*
X124704819Y-134226190D01*
X124704819Y-134226190D02*
X124847676Y-134321428D01*
X124847676Y-134321428D02*
X124942914Y-134416666D01*
X124942914Y-134416666D02*
X124990533Y-134511904D01*
X124704819Y-133321428D02*
X124704819Y-133226190D01*
X124704819Y-133226190D02*
X124752438Y-133130952D01*
X124752438Y-133130952D02*
X124800057Y-133083333D01*
X124800057Y-133083333D02*
X124895295Y-133035714D01*
X124895295Y-133035714D02*
X125085771Y-132988095D01*
X125085771Y-132988095D02*
X125323866Y-132988095D01*
X125323866Y-132988095D02*
X125514342Y-133035714D01*
X125514342Y-133035714D02*
X125609580Y-133083333D01*
X125609580Y-133083333D02*
X125657200Y-133130952D01*
X125657200Y-133130952D02*
X125704819Y-133226190D01*
X125704819Y-133226190D02*
X125704819Y-133321428D01*
X125704819Y-133321428D02*
X125657200Y-133416666D01*
X125657200Y-133416666D02*
X125609580Y-133464285D01*
X125609580Y-133464285D02*
X125514342Y-133511904D01*
X125514342Y-133511904D02*
X125323866Y-133559523D01*
X125323866Y-133559523D02*
X125085771Y-133559523D01*
X125085771Y-133559523D02*
X124895295Y-133511904D01*
X124895295Y-133511904D02*
X124800057Y-133464285D01*
X124800057Y-133464285D02*
X124752438Y-133416666D01*
X124752438Y-133416666D02*
X124704819Y-133321428D01*
X135107142Y-128109580D02*
X135059523Y-128157200D01*
X135059523Y-128157200D02*
X134916666Y-128204819D01*
X134916666Y-128204819D02*
X134821428Y-128204819D01*
X134821428Y-128204819D02*
X134678571Y-128157200D01*
X134678571Y-128157200D02*
X134583333Y-128061961D01*
X134583333Y-128061961D02*
X134535714Y-127966723D01*
X134535714Y-127966723D02*
X134488095Y-127776247D01*
X134488095Y-127776247D02*
X134488095Y-127633390D01*
X134488095Y-127633390D02*
X134535714Y-127442914D01*
X134535714Y-127442914D02*
X134583333Y-127347676D01*
X134583333Y-127347676D02*
X134678571Y-127252438D01*
X134678571Y-127252438D02*
X134821428Y-127204819D01*
X134821428Y-127204819D02*
X134916666Y-127204819D01*
X134916666Y-127204819D02*
X135059523Y-127252438D01*
X135059523Y-127252438D02*
X135107142Y-127300057D01*
X136059523Y-128204819D02*
X135488095Y-128204819D01*
X135773809Y-128204819D02*
X135773809Y-127204819D01*
X135773809Y-127204819D02*
X135678571Y-127347676D01*
X135678571Y-127347676D02*
X135583333Y-127442914D01*
X135583333Y-127442914D02*
X135488095Y-127490533D01*
X137011904Y-128204819D02*
X136440476Y-128204819D01*
X136726190Y-128204819D02*
X136726190Y-127204819D01*
X136726190Y-127204819D02*
X136630952Y-127347676D01*
X136630952Y-127347676D02*
X136535714Y-127442914D01*
X136535714Y-127442914D02*
X136440476Y-127490533D01*
X135107142Y-124609580D02*
X135059523Y-124657200D01*
X135059523Y-124657200D02*
X134916666Y-124704819D01*
X134916666Y-124704819D02*
X134821428Y-124704819D01*
X134821428Y-124704819D02*
X134678571Y-124657200D01*
X134678571Y-124657200D02*
X134583333Y-124561961D01*
X134583333Y-124561961D02*
X134535714Y-124466723D01*
X134535714Y-124466723D02*
X134488095Y-124276247D01*
X134488095Y-124276247D02*
X134488095Y-124133390D01*
X134488095Y-124133390D02*
X134535714Y-123942914D01*
X134535714Y-123942914D02*
X134583333Y-123847676D01*
X134583333Y-123847676D02*
X134678571Y-123752438D01*
X134678571Y-123752438D02*
X134821428Y-123704819D01*
X134821428Y-123704819D02*
X134916666Y-123704819D01*
X134916666Y-123704819D02*
X135059523Y-123752438D01*
X135059523Y-123752438D02*
X135107142Y-123800057D01*
X136059523Y-124704819D02*
X135488095Y-124704819D01*
X135773809Y-124704819D02*
X135773809Y-123704819D01*
X135773809Y-123704819D02*
X135678571Y-123847676D01*
X135678571Y-123847676D02*
X135583333Y-123942914D01*
X135583333Y-123942914D02*
X135488095Y-123990533D01*
X136440476Y-123800057D02*
X136488095Y-123752438D01*
X136488095Y-123752438D02*
X136583333Y-123704819D01*
X136583333Y-123704819D02*
X136821428Y-123704819D01*
X136821428Y-123704819D02*
X136916666Y-123752438D01*
X136916666Y-123752438D02*
X136964285Y-123800057D01*
X136964285Y-123800057D02*
X137011904Y-123895295D01*
X137011904Y-123895295D02*
X137011904Y-123990533D01*
X137011904Y-123990533D02*
X136964285Y-124133390D01*
X136964285Y-124133390D02*
X136392857Y-124704819D01*
X136392857Y-124704819D02*
X137011904Y-124704819D01*
X100357142Y-116789580D02*
X100309523Y-116837200D01*
X100309523Y-116837200D02*
X100166666Y-116884819D01*
X100166666Y-116884819D02*
X100071428Y-116884819D01*
X100071428Y-116884819D02*
X99928571Y-116837200D01*
X99928571Y-116837200D02*
X99833333Y-116741961D01*
X99833333Y-116741961D02*
X99785714Y-116646723D01*
X99785714Y-116646723D02*
X99738095Y-116456247D01*
X99738095Y-116456247D02*
X99738095Y-116313390D01*
X99738095Y-116313390D02*
X99785714Y-116122914D01*
X99785714Y-116122914D02*
X99833333Y-116027676D01*
X99833333Y-116027676D02*
X99928571Y-115932438D01*
X99928571Y-115932438D02*
X100071428Y-115884819D01*
X100071428Y-115884819D02*
X100166666Y-115884819D01*
X100166666Y-115884819D02*
X100309523Y-115932438D01*
X100309523Y-115932438D02*
X100357142Y-115980057D01*
X101309523Y-116884819D02*
X100738095Y-116884819D01*
X101023809Y-116884819D02*
X101023809Y-115884819D01*
X101023809Y-115884819D02*
X100928571Y-116027676D01*
X100928571Y-116027676D02*
X100833333Y-116122914D01*
X100833333Y-116122914D02*
X100738095Y-116170533D01*
X102166666Y-116218152D02*
X102166666Y-116884819D01*
X101928571Y-115837200D02*
X101690476Y-116551485D01*
X101690476Y-116551485D02*
X102309523Y-116551485D01*
X104359580Y-105642857D02*
X104407200Y-105690476D01*
X104407200Y-105690476D02*
X104454819Y-105833333D01*
X104454819Y-105833333D02*
X104454819Y-105928571D01*
X104454819Y-105928571D02*
X104407200Y-106071428D01*
X104407200Y-106071428D02*
X104311961Y-106166666D01*
X104311961Y-106166666D02*
X104216723Y-106214285D01*
X104216723Y-106214285D02*
X104026247Y-106261904D01*
X104026247Y-106261904D02*
X103883390Y-106261904D01*
X103883390Y-106261904D02*
X103692914Y-106214285D01*
X103692914Y-106214285D02*
X103597676Y-106166666D01*
X103597676Y-106166666D02*
X103502438Y-106071428D01*
X103502438Y-106071428D02*
X103454819Y-105928571D01*
X103454819Y-105928571D02*
X103454819Y-105833333D01*
X103454819Y-105833333D02*
X103502438Y-105690476D01*
X103502438Y-105690476D02*
X103550057Y-105642857D01*
X104454819Y-104690476D02*
X104454819Y-105261904D01*
X104454819Y-104976190D02*
X103454819Y-104976190D01*
X103454819Y-104976190D02*
X103597676Y-105071428D01*
X103597676Y-105071428D02*
X103692914Y-105166666D01*
X103692914Y-105166666D02*
X103740533Y-105261904D01*
X103454819Y-103785714D02*
X103454819Y-104261904D01*
X103454819Y-104261904D02*
X103931009Y-104309523D01*
X103931009Y-104309523D02*
X103883390Y-104261904D01*
X103883390Y-104261904D02*
X103835771Y-104166666D01*
X103835771Y-104166666D02*
X103835771Y-103928571D01*
X103835771Y-103928571D02*
X103883390Y-103833333D01*
X103883390Y-103833333D02*
X103931009Y-103785714D01*
X103931009Y-103785714D02*
X104026247Y-103738095D01*
X104026247Y-103738095D02*
X104264342Y-103738095D01*
X104264342Y-103738095D02*
X104359580Y-103785714D01*
X104359580Y-103785714D02*
X104407200Y-103833333D01*
X104407200Y-103833333D02*
X104454819Y-103928571D01*
X104454819Y-103928571D02*
X104454819Y-104166666D01*
X104454819Y-104166666D02*
X104407200Y-104261904D01*
X104407200Y-104261904D02*
X104359580Y-104309523D01*
X90959580Y-106392857D02*
X91007200Y-106440476D01*
X91007200Y-106440476D02*
X91054819Y-106583333D01*
X91054819Y-106583333D02*
X91054819Y-106678571D01*
X91054819Y-106678571D02*
X91007200Y-106821428D01*
X91007200Y-106821428D02*
X90911961Y-106916666D01*
X90911961Y-106916666D02*
X90816723Y-106964285D01*
X90816723Y-106964285D02*
X90626247Y-107011904D01*
X90626247Y-107011904D02*
X90483390Y-107011904D01*
X90483390Y-107011904D02*
X90292914Y-106964285D01*
X90292914Y-106964285D02*
X90197676Y-106916666D01*
X90197676Y-106916666D02*
X90102438Y-106821428D01*
X90102438Y-106821428D02*
X90054819Y-106678571D01*
X90054819Y-106678571D02*
X90054819Y-106583333D01*
X90054819Y-106583333D02*
X90102438Y-106440476D01*
X90102438Y-106440476D02*
X90150057Y-106392857D01*
X91054819Y-105440476D02*
X91054819Y-106011904D01*
X91054819Y-105726190D02*
X90054819Y-105726190D01*
X90054819Y-105726190D02*
X90197676Y-105821428D01*
X90197676Y-105821428D02*
X90292914Y-105916666D01*
X90292914Y-105916666D02*
X90340533Y-106011904D01*
X90054819Y-104583333D02*
X90054819Y-104773809D01*
X90054819Y-104773809D02*
X90102438Y-104869047D01*
X90102438Y-104869047D02*
X90150057Y-104916666D01*
X90150057Y-104916666D02*
X90292914Y-105011904D01*
X90292914Y-105011904D02*
X90483390Y-105059523D01*
X90483390Y-105059523D02*
X90864342Y-105059523D01*
X90864342Y-105059523D02*
X90959580Y-105011904D01*
X90959580Y-105011904D02*
X91007200Y-104964285D01*
X91007200Y-104964285D02*
X91054819Y-104869047D01*
X91054819Y-104869047D02*
X91054819Y-104678571D01*
X91054819Y-104678571D02*
X91007200Y-104583333D01*
X91007200Y-104583333D02*
X90959580Y-104535714D01*
X90959580Y-104535714D02*
X90864342Y-104488095D01*
X90864342Y-104488095D02*
X90626247Y-104488095D01*
X90626247Y-104488095D02*
X90531009Y-104535714D01*
X90531009Y-104535714D02*
X90483390Y-104583333D01*
X90483390Y-104583333D02*
X90435771Y-104678571D01*
X90435771Y-104678571D02*
X90435771Y-104869047D01*
X90435771Y-104869047D02*
X90483390Y-104964285D01*
X90483390Y-104964285D02*
X90531009Y-105011904D01*
X90531009Y-105011904D02*
X90626247Y-105059523D01*
X93357142Y-111259580D02*
X93309523Y-111307200D01*
X93309523Y-111307200D02*
X93166666Y-111354819D01*
X93166666Y-111354819D02*
X93071428Y-111354819D01*
X93071428Y-111354819D02*
X92928571Y-111307200D01*
X92928571Y-111307200D02*
X92833333Y-111211961D01*
X92833333Y-111211961D02*
X92785714Y-111116723D01*
X92785714Y-111116723D02*
X92738095Y-110926247D01*
X92738095Y-110926247D02*
X92738095Y-110783390D01*
X92738095Y-110783390D02*
X92785714Y-110592914D01*
X92785714Y-110592914D02*
X92833333Y-110497676D01*
X92833333Y-110497676D02*
X92928571Y-110402438D01*
X92928571Y-110402438D02*
X93071428Y-110354819D01*
X93071428Y-110354819D02*
X93166666Y-110354819D01*
X93166666Y-110354819D02*
X93309523Y-110402438D01*
X93309523Y-110402438D02*
X93357142Y-110450057D01*
X94309523Y-111354819D02*
X93738095Y-111354819D01*
X94023809Y-111354819D02*
X94023809Y-110354819D01*
X94023809Y-110354819D02*
X93928571Y-110497676D01*
X93928571Y-110497676D02*
X93833333Y-110592914D01*
X93833333Y-110592914D02*
X93738095Y-110640533D01*
X94642857Y-110354819D02*
X95309523Y-110354819D01*
X95309523Y-110354819D02*
X94880952Y-111354819D01*
X112857142Y-121109580D02*
X112809523Y-121157200D01*
X112809523Y-121157200D02*
X112666666Y-121204819D01*
X112666666Y-121204819D02*
X112571428Y-121204819D01*
X112571428Y-121204819D02*
X112428571Y-121157200D01*
X112428571Y-121157200D02*
X112333333Y-121061961D01*
X112333333Y-121061961D02*
X112285714Y-120966723D01*
X112285714Y-120966723D02*
X112238095Y-120776247D01*
X112238095Y-120776247D02*
X112238095Y-120633390D01*
X112238095Y-120633390D02*
X112285714Y-120442914D01*
X112285714Y-120442914D02*
X112333333Y-120347676D01*
X112333333Y-120347676D02*
X112428571Y-120252438D01*
X112428571Y-120252438D02*
X112571428Y-120204819D01*
X112571428Y-120204819D02*
X112666666Y-120204819D01*
X112666666Y-120204819D02*
X112809523Y-120252438D01*
X112809523Y-120252438D02*
X112857142Y-120300057D01*
X113809523Y-121204819D02*
X113238095Y-121204819D01*
X113523809Y-121204819D02*
X113523809Y-120204819D01*
X113523809Y-120204819D02*
X113428571Y-120347676D01*
X113428571Y-120347676D02*
X113333333Y-120442914D01*
X113333333Y-120442914D02*
X113238095Y-120490533D01*
X114380952Y-120633390D02*
X114285714Y-120585771D01*
X114285714Y-120585771D02*
X114238095Y-120538152D01*
X114238095Y-120538152D02*
X114190476Y-120442914D01*
X114190476Y-120442914D02*
X114190476Y-120395295D01*
X114190476Y-120395295D02*
X114238095Y-120300057D01*
X114238095Y-120300057D02*
X114285714Y-120252438D01*
X114285714Y-120252438D02*
X114380952Y-120204819D01*
X114380952Y-120204819D02*
X114571428Y-120204819D01*
X114571428Y-120204819D02*
X114666666Y-120252438D01*
X114666666Y-120252438D02*
X114714285Y-120300057D01*
X114714285Y-120300057D02*
X114761904Y-120395295D01*
X114761904Y-120395295D02*
X114761904Y-120442914D01*
X114761904Y-120442914D02*
X114714285Y-120538152D01*
X114714285Y-120538152D02*
X114666666Y-120585771D01*
X114666666Y-120585771D02*
X114571428Y-120633390D01*
X114571428Y-120633390D02*
X114380952Y-120633390D01*
X114380952Y-120633390D02*
X114285714Y-120681009D01*
X114285714Y-120681009D02*
X114238095Y-120728628D01*
X114238095Y-120728628D02*
X114190476Y-120823866D01*
X114190476Y-120823866D02*
X114190476Y-121014342D01*
X114190476Y-121014342D02*
X114238095Y-121109580D01*
X114238095Y-121109580D02*
X114285714Y-121157200D01*
X114285714Y-121157200D02*
X114380952Y-121204819D01*
X114380952Y-121204819D02*
X114571428Y-121204819D01*
X114571428Y-121204819D02*
X114666666Y-121157200D01*
X114666666Y-121157200D02*
X114714285Y-121109580D01*
X114714285Y-121109580D02*
X114761904Y-121014342D01*
X114761904Y-121014342D02*
X114761904Y-120823866D01*
X114761904Y-120823866D02*
X114714285Y-120728628D01*
X114714285Y-120728628D02*
X114666666Y-120681009D01*
X114666666Y-120681009D02*
X114571428Y-120633390D01*
X115857142Y-131109580D02*
X115809523Y-131157200D01*
X115809523Y-131157200D02*
X115666666Y-131204819D01*
X115666666Y-131204819D02*
X115571428Y-131204819D01*
X115571428Y-131204819D02*
X115428571Y-131157200D01*
X115428571Y-131157200D02*
X115333333Y-131061961D01*
X115333333Y-131061961D02*
X115285714Y-130966723D01*
X115285714Y-130966723D02*
X115238095Y-130776247D01*
X115238095Y-130776247D02*
X115238095Y-130633390D01*
X115238095Y-130633390D02*
X115285714Y-130442914D01*
X115285714Y-130442914D02*
X115333333Y-130347676D01*
X115333333Y-130347676D02*
X115428571Y-130252438D01*
X115428571Y-130252438D02*
X115571428Y-130204819D01*
X115571428Y-130204819D02*
X115666666Y-130204819D01*
X115666666Y-130204819D02*
X115809523Y-130252438D01*
X115809523Y-130252438D02*
X115857142Y-130300057D01*
X116809523Y-131204819D02*
X116238095Y-131204819D01*
X116523809Y-131204819D02*
X116523809Y-130204819D01*
X116523809Y-130204819D02*
X116428571Y-130347676D01*
X116428571Y-130347676D02*
X116333333Y-130442914D01*
X116333333Y-130442914D02*
X116238095Y-130490533D01*
X117285714Y-131204819D02*
X117476190Y-131204819D01*
X117476190Y-131204819D02*
X117571428Y-131157200D01*
X117571428Y-131157200D02*
X117619047Y-131109580D01*
X117619047Y-131109580D02*
X117714285Y-130966723D01*
X117714285Y-130966723D02*
X117761904Y-130776247D01*
X117761904Y-130776247D02*
X117761904Y-130395295D01*
X117761904Y-130395295D02*
X117714285Y-130300057D01*
X117714285Y-130300057D02*
X117666666Y-130252438D01*
X117666666Y-130252438D02*
X117571428Y-130204819D01*
X117571428Y-130204819D02*
X117380952Y-130204819D01*
X117380952Y-130204819D02*
X117285714Y-130252438D01*
X117285714Y-130252438D02*
X117238095Y-130300057D01*
X117238095Y-130300057D02*
X117190476Y-130395295D01*
X117190476Y-130395295D02*
X117190476Y-130633390D01*
X117190476Y-130633390D02*
X117238095Y-130728628D01*
X117238095Y-130728628D02*
X117285714Y-130776247D01*
X117285714Y-130776247D02*
X117380952Y-130823866D01*
X117380952Y-130823866D02*
X117571428Y-130823866D01*
X117571428Y-130823866D02*
X117666666Y-130776247D01*
X117666666Y-130776247D02*
X117714285Y-130728628D01*
X117714285Y-130728628D02*
X117761904Y-130633390D01*
X142659580Y-106142857D02*
X142707200Y-106190476D01*
X142707200Y-106190476D02*
X142754819Y-106333333D01*
X142754819Y-106333333D02*
X142754819Y-106428571D01*
X142754819Y-106428571D02*
X142707200Y-106571428D01*
X142707200Y-106571428D02*
X142611961Y-106666666D01*
X142611961Y-106666666D02*
X142516723Y-106714285D01*
X142516723Y-106714285D02*
X142326247Y-106761904D01*
X142326247Y-106761904D02*
X142183390Y-106761904D01*
X142183390Y-106761904D02*
X141992914Y-106714285D01*
X141992914Y-106714285D02*
X141897676Y-106666666D01*
X141897676Y-106666666D02*
X141802438Y-106571428D01*
X141802438Y-106571428D02*
X141754819Y-106428571D01*
X141754819Y-106428571D02*
X141754819Y-106333333D01*
X141754819Y-106333333D02*
X141802438Y-106190476D01*
X141802438Y-106190476D02*
X141850057Y-106142857D01*
X141850057Y-105761904D02*
X141802438Y-105714285D01*
X141802438Y-105714285D02*
X141754819Y-105619047D01*
X141754819Y-105619047D02*
X141754819Y-105380952D01*
X141754819Y-105380952D02*
X141802438Y-105285714D01*
X141802438Y-105285714D02*
X141850057Y-105238095D01*
X141850057Y-105238095D02*
X141945295Y-105190476D01*
X141945295Y-105190476D02*
X142040533Y-105190476D01*
X142040533Y-105190476D02*
X142183390Y-105238095D01*
X142183390Y-105238095D02*
X142754819Y-105809523D01*
X142754819Y-105809523D02*
X142754819Y-105190476D01*
X141754819Y-104571428D02*
X141754819Y-104476190D01*
X141754819Y-104476190D02*
X141802438Y-104380952D01*
X141802438Y-104380952D02*
X141850057Y-104333333D01*
X141850057Y-104333333D02*
X141945295Y-104285714D01*
X141945295Y-104285714D02*
X142135771Y-104238095D01*
X142135771Y-104238095D02*
X142373866Y-104238095D01*
X142373866Y-104238095D02*
X142564342Y-104285714D01*
X142564342Y-104285714D02*
X142659580Y-104333333D01*
X142659580Y-104333333D02*
X142707200Y-104380952D01*
X142707200Y-104380952D02*
X142754819Y-104476190D01*
X142754819Y-104476190D02*
X142754819Y-104571428D01*
X142754819Y-104571428D02*
X142707200Y-104666666D01*
X142707200Y-104666666D02*
X142659580Y-104714285D01*
X142659580Y-104714285D02*
X142564342Y-104761904D01*
X142564342Y-104761904D02*
X142373866Y-104809523D01*
X142373866Y-104809523D02*
X142135771Y-104809523D01*
X142135771Y-104809523D02*
X141945295Y-104761904D01*
X141945295Y-104761904D02*
X141850057Y-104714285D01*
X141850057Y-104714285D02*
X141802438Y-104666666D01*
X141802438Y-104666666D02*
X141754819Y-104571428D01*
X146359580Y-109080357D02*
X146407200Y-109127976D01*
X146407200Y-109127976D02*
X146454819Y-109270833D01*
X146454819Y-109270833D02*
X146454819Y-109366071D01*
X146454819Y-109366071D02*
X146407200Y-109508928D01*
X146407200Y-109508928D02*
X146311961Y-109604166D01*
X146311961Y-109604166D02*
X146216723Y-109651785D01*
X146216723Y-109651785D02*
X146026247Y-109699404D01*
X146026247Y-109699404D02*
X145883390Y-109699404D01*
X145883390Y-109699404D02*
X145692914Y-109651785D01*
X145692914Y-109651785D02*
X145597676Y-109604166D01*
X145597676Y-109604166D02*
X145502438Y-109508928D01*
X145502438Y-109508928D02*
X145454819Y-109366071D01*
X145454819Y-109366071D02*
X145454819Y-109270833D01*
X145454819Y-109270833D02*
X145502438Y-109127976D01*
X145502438Y-109127976D02*
X145550057Y-109080357D01*
X145550057Y-108699404D02*
X145502438Y-108651785D01*
X145502438Y-108651785D02*
X145454819Y-108556547D01*
X145454819Y-108556547D02*
X145454819Y-108318452D01*
X145454819Y-108318452D02*
X145502438Y-108223214D01*
X145502438Y-108223214D02*
X145550057Y-108175595D01*
X145550057Y-108175595D02*
X145645295Y-108127976D01*
X145645295Y-108127976D02*
X145740533Y-108127976D01*
X145740533Y-108127976D02*
X145883390Y-108175595D01*
X145883390Y-108175595D02*
X146454819Y-108747023D01*
X146454819Y-108747023D02*
X146454819Y-108127976D01*
X146454819Y-107175595D02*
X146454819Y-107747023D01*
X146454819Y-107461309D02*
X145454819Y-107461309D01*
X145454819Y-107461309D02*
X145597676Y-107556547D01*
X145597676Y-107556547D02*
X145692914Y-107651785D01*
X145692914Y-107651785D02*
X145740533Y-107747023D01*
X136659580Y-117142857D02*
X136707200Y-117190476D01*
X136707200Y-117190476D02*
X136754819Y-117333333D01*
X136754819Y-117333333D02*
X136754819Y-117428571D01*
X136754819Y-117428571D02*
X136707200Y-117571428D01*
X136707200Y-117571428D02*
X136611961Y-117666666D01*
X136611961Y-117666666D02*
X136516723Y-117714285D01*
X136516723Y-117714285D02*
X136326247Y-117761904D01*
X136326247Y-117761904D02*
X136183390Y-117761904D01*
X136183390Y-117761904D02*
X135992914Y-117714285D01*
X135992914Y-117714285D02*
X135897676Y-117666666D01*
X135897676Y-117666666D02*
X135802438Y-117571428D01*
X135802438Y-117571428D02*
X135754819Y-117428571D01*
X135754819Y-117428571D02*
X135754819Y-117333333D01*
X135754819Y-117333333D02*
X135802438Y-117190476D01*
X135802438Y-117190476D02*
X135850057Y-117142857D01*
X135850057Y-116761904D02*
X135802438Y-116714285D01*
X135802438Y-116714285D02*
X135754819Y-116619047D01*
X135754819Y-116619047D02*
X135754819Y-116380952D01*
X135754819Y-116380952D02*
X135802438Y-116285714D01*
X135802438Y-116285714D02*
X135850057Y-116238095D01*
X135850057Y-116238095D02*
X135945295Y-116190476D01*
X135945295Y-116190476D02*
X136040533Y-116190476D01*
X136040533Y-116190476D02*
X136183390Y-116238095D01*
X136183390Y-116238095D02*
X136754819Y-116809523D01*
X136754819Y-116809523D02*
X136754819Y-116190476D01*
X135850057Y-115809523D02*
X135802438Y-115761904D01*
X135802438Y-115761904D02*
X135754819Y-115666666D01*
X135754819Y-115666666D02*
X135754819Y-115428571D01*
X135754819Y-115428571D02*
X135802438Y-115333333D01*
X135802438Y-115333333D02*
X135850057Y-115285714D01*
X135850057Y-115285714D02*
X135945295Y-115238095D01*
X135945295Y-115238095D02*
X136040533Y-115238095D01*
X136040533Y-115238095D02*
X136183390Y-115285714D01*
X136183390Y-115285714D02*
X136754819Y-115857142D01*
X136754819Y-115857142D02*
X136754819Y-115238095D01*
X141309580Y-117392857D02*
X141357200Y-117440476D01*
X141357200Y-117440476D02*
X141404819Y-117583333D01*
X141404819Y-117583333D02*
X141404819Y-117678571D01*
X141404819Y-117678571D02*
X141357200Y-117821428D01*
X141357200Y-117821428D02*
X141261961Y-117916666D01*
X141261961Y-117916666D02*
X141166723Y-117964285D01*
X141166723Y-117964285D02*
X140976247Y-118011904D01*
X140976247Y-118011904D02*
X140833390Y-118011904D01*
X140833390Y-118011904D02*
X140642914Y-117964285D01*
X140642914Y-117964285D02*
X140547676Y-117916666D01*
X140547676Y-117916666D02*
X140452438Y-117821428D01*
X140452438Y-117821428D02*
X140404819Y-117678571D01*
X140404819Y-117678571D02*
X140404819Y-117583333D01*
X140404819Y-117583333D02*
X140452438Y-117440476D01*
X140452438Y-117440476D02*
X140500057Y-117392857D01*
X140500057Y-117011904D02*
X140452438Y-116964285D01*
X140452438Y-116964285D02*
X140404819Y-116869047D01*
X140404819Y-116869047D02*
X140404819Y-116630952D01*
X140404819Y-116630952D02*
X140452438Y-116535714D01*
X140452438Y-116535714D02*
X140500057Y-116488095D01*
X140500057Y-116488095D02*
X140595295Y-116440476D01*
X140595295Y-116440476D02*
X140690533Y-116440476D01*
X140690533Y-116440476D02*
X140833390Y-116488095D01*
X140833390Y-116488095D02*
X141404819Y-117059523D01*
X141404819Y-117059523D02*
X141404819Y-116440476D01*
X140404819Y-116107142D02*
X140404819Y-115488095D01*
X140404819Y-115488095D02*
X140785771Y-115821428D01*
X140785771Y-115821428D02*
X140785771Y-115678571D01*
X140785771Y-115678571D02*
X140833390Y-115583333D01*
X140833390Y-115583333D02*
X140881009Y-115535714D01*
X140881009Y-115535714D02*
X140976247Y-115488095D01*
X140976247Y-115488095D02*
X141214342Y-115488095D01*
X141214342Y-115488095D02*
X141309580Y-115535714D01*
X141309580Y-115535714D02*
X141357200Y-115583333D01*
X141357200Y-115583333D02*
X141404819Y-115678571D01*
X141404819Y-115678571D02*
X141404819Y-115964285D01*
X141404819Y-115964285D02*
X141357200Y-116059523D01*
X141357200Y-116059523D02*
X141309580Y-116107142D01*
X138659580Y-117142857D02*
X138707200Y-117190476D01*
X138707200Y-117190476D02*
X138754819Y-117333333D01*
X138754819Y-117333333D02*
X138754819Y-117428571D01*
X138754819Y-117428571D02*
X138707200Y-117571428D01*
X138707200Y-117571428D02*
X138611961Y-117666666D01*
X138611961Y-117666666D02*
X138516723Y-117714285D01*
X138516723Y-117714285D02*
X138326247Y-117761904D01*
X138326247Y-117761904D02*
X138183390Y-117761904D01*
X138183390Y-117761904D02*
X137992914Y-117714285D01*
X137992914Y-117714285D02*
X137897676Y-117666666D01*
X137897676Y-117666666D02*
X137802438Y-117571428D01*
X137802438Y-117571428D02*
X137754819Y-117428571D01*
X137754819Y-117428571D02*
X137754819Y-117333333D01*
X137754819Y-117333333D02*
X137802438Y-117190476D01*
X137802438Y-117190476D02*
X137850057Y-117142857D01*
X137850057Y-116761904D02*
X137802438Y-116714285D01*
X137802438Y-116714285D02*
X137754819Y-116619047D01*
X137754819Y-116619047D02*
X137754819Y-116380952D01*
X137754819Y-116380952D02*
X137802438Y-116285714D01*
X137802438Y-116285714D02*
X137850057Y-116238095D01*
X137850057Y-116238095D02*
X137945295Y-116190476D01*
X137945295Y-116190476D02*
X138040533Y-116190476D01*
X138040533Y-116190476D02*
X138183390Y-116238095D01*
X138183390Y-116238095D02*
X138754819Y-116809523D01*
X138754819Y-116809523D02*
X138754819Y-116190476D01*
X138088152Y-115333333D02*
X138754819Y-115333333D01*
X137707200Y-115571428D02*
X138421485Y-115809523D01*
X138421485Y-115809523D02*
X138421485Y-115190476D01*
X146859580Y-117392857D02*
X146907200Y-117440476D01*
X146907200Y-117440476D02*
X146954819Y-117583333D01*
X146954819Y-117583333D02*
X146954819Y-117678571D01*
X146954819Y-117678571D02*
X146907200Y-117821428D01*
X146907200Y-117821428D02*
X146811961Y-117916666D01*
X146811961Y-117916666D02*
X146716723Y-117964285D01*
X146716723Y-117964285D02*
X146526247Y-118011904D01*
X146526247Y-118011904D02*
X146383390Y-118011904D01*
X146383390Y-118011904D02*
X146192914Y-117964285D01*
X146192914Y-117964285D02*
X146097676Y-117916666D01*
X146097676Y-117916666D02*
X146002438Y-117821428D01*
X146002438Y-117821428D02*
X145954819Y-117678571D01*
X145954819Y-117678571D02*
X145954819Y-117583333D01*
X145954819Y-117583333D02*
X146002438Y-117440476D01*
X146002438Y-117440476D02*
X146050057Y-117392857D01*
X146050057Y-117011904D02*
X146002438Y-116964285D01*
X146002438Y-116964285D02*
X145954819Y-116869047D01*
X145954819Y-116869047D02*
X145954819Y-116630952D01*
X145954819Y-116630952D02*
X146002438Y-116535714D01*
X146002438Y-116535714D02*
X146050057Y-116488095D01*
X146050057Y-116488095D02*
X146145295Y-116440476D01*
X146145295Y-116440476D02*
X146240533Y-116440476D01*
X146240533Y-116440476D02*
X146383390Y-116488095D01*
X146383390Y-116488095D02*
X146954819Y-117059523D01*
X146954819Y-117059523D02*
X146954819Y-116440476D01*
X145954819Y-115535714D02*
X145954819Y-116011904D01*
X145954819Y-116011904D02*
X146431009Y-116059523D01*
X146431009Y-116059523D02*
X146383390Y-116011904D01*
X146383390Y-116011904D02*
X146335771Y-115916666D01*
X146335771Y-115916666D02*
X146335771Y-115678571D01*
X146335771Y-115678571D02*
X146383390Y-115583333D01*
X146383390Y-115583333D02*
X146431009Y-115535714D01*
X146431009Y-115535714D02*
X146526247Y-115488095D01*
X146526247Y-115488095D02*
X146764342Y-115488095D01*
X146764342Y-115488095D02*
X146859580Y-115535714D01*
X146859580Y-115535714D02*
X146907200Y-115583333D01*
X146907200Y-115583333D02*
X146954819Y-115678571D01*
X146954819Y-115678571D02*
X146954819Y-115916666D01*
X146954819Y-115916666D02*
X146907200Y-116011904D01*
X146907200Y-116011904D02*
X146859580Y-116059523D01*
X154859580Y-117392857D02*
X154907200Y-117440476D01*
X154907200Y-117440476D02*
X154954819Y-117583333D01*
X154954819Y-117583333D02*
X154954819Y-117678571D01*
X154954819Y-117678571D02*
X154907200Y-117821428D01*
X154907200Y-117821428D02*
X154811961Y-117916666D01*
X154811961Y-117916666D02*
X154716723Y-117964285D01*
X154716723Y-117964285D02*
X154526247Y-118011904D01*
X154526247Y-118011904D02*
X154383390Y-118011904D01*
X154383390Y-118011904D02*
X154192914Y-117964285D01*
X154192914Y-117964285D02*
X154097676Y-117916666D01*
X154097676Y-117916666D02*
X154002438Y-117821428D01*
X154002438Y-117821428D02*
X153954819Y-117678571D01*
X153954819Y-117678571D02*
X153954819Y-117583333D01*
X153954819Y-117583333D02*
X154002438Y-117440476D01*
X154002438Y-117440476D02*
X154050057Y-117392857D01*
X154050057Y-117011904D02*
X154002438Y-116964285D01*
X154002438Y-116964285D02*
X153954819Y-116869047D01*
X153954819Y-116869047D02*
X153954819Y-116630952D01*
X153954819Y-116630952D02*
X154002438Y-116535714D01*
X154002438Y-116535714D02*
X154050057Y-116488095D01*
X154050057Y-116488095D02*
X154145295Y-116440476D01*
X154145295Y-116440476D02*
X154240533Y-116440476D01*
X154240533Y-116440476D02*
X154383390Y-116488095D01*
X154383390Y-116488095D02*
X154954819Y-117059523D01*
X154954819Y-117059523D02*
X154954819Y-116440476D01*
X153954819Y-115583333D02*
X153954819Y-115773809D01*
X153954819Y-115773809D02*
X154002438Y-115869047D01*
X154002438Y-115869047D02*
X154050057Y-115916666D01*
X154050057Y-115916666D02*
X154192914Y-116011904D01*
X154192914Y-116011904D02*
X154383390Y-116059523D01*
X154383390Y-116059523D02*
X154764342Y-116059523D01*
X154764342Y-116059523D02*
X154859580Y-116011904D01*
X154859580Y-116011904D02*
X154907200Y-115964285D01*
X154907200Y-115964285D02*
X154954819Y-115869047D01*
X154954819Y-115869047D02*
X154954819Y-115678571D01*
X154954819Y-115678571D02*
X154907200Y-115583333D01*
X154907200Y-115583333D02*
X154859580Y-115535714D01*
X154859580Y-115535714D02*
X154764342Y-115488095D01*
X154764342Y-115488095D02*
X154526247Y-115488095D01*
X154526247Y-115488095D02*
X154431009Y-115535714D01*
X154431009Y-115535714D02*
X154383390Y-115583333D01*
X154383390Y-115583333D02*
X154335771Y-115678571D01*
X154335771Y-115678571D02*
X154335771Y-115869047D01*
X154335771Y-115869047D02*
X154383390Y-115964285D01*
X154383390Y-115964285D02*
X154431009Y-116011904D01*
X154431009Y-116011904D02*
X154526247Y-116059523D01*
X104107142Y-139359580D02*
X104059523Y-139407200D01*
X104059523Y-139407200D02*
X103916666Y-139454819D01*
X103916666Y-139454819D02*
X103821428Y-139454819D01*
X103821428Y-139454819D02*
X103678571Y-139407200D01*
X103678571Y-139407200D02*
X103583333Y-139311961D01*
X103583333Y-139311961D02*
X103535714Y-139216723D01*
X103535714Y-139216723D02*
X103488095Y-139026247D01*
X103488095Y-139026247D02*
X103488095Y-138883390D01*
X103488095Y-138883390D02*
X103535714Y-138692914D01*
X103535714Y-138692914D02*
X103583333Y-138597676D01*
X103583333Y-138597676D02*
X103678571Y-138502438D01*
X103678571Y-138502438D02*
X103821428Y-138454819D01*
X103821428Y-138454819D02*
X103916666Y-138454819D01*
X103916666Y-138454819D02*
X104059523Y-138502438D01*
X104059523Y-138502438D02*
X104107142Y-138550057D01*
X104488095Y-138550057D02*
X104535714Y-138502438D01*
X104535714Y-138502438D02*
X104630952Y-138454819D01*
X104630952Y-138454819D02*
X104869047Y-138454819D01*
X104869047Y-138454819D02*
X104964285Y-138502438D01*
X104964285Y-138502438D02*
X105011904Y-138550057D01*
X105011904Y-138550057D02*
X105059523Y-138645295D01*
X105059523Y-138645295D02*
X105059523Y-138740533D01*
X105059523Y-138740533D02*
X105011904Y-138883390D01*
X105011904Y-138883390D02*
X104440476Y-139454819D01*
X104440476Y-139454819D02*
X105059523Y-139454819D01*
X105392857Y-138454819D02*
X106059523Y-138454819D01*
X106059523Y-138454819D02*
X105630952Y-139454819D01*
X139857142Y-124359580D02*
X139809523Y-124407200D01*
X139809523Y-124407200D02*
X139666666Y-124454819D01*
X139666666Y-124454819D02*
X139571428Y-124454819D01*
X139571428Y-124454819D02*
X139428571Y-124407200D01*
X139428571Y-124407200D02*
X139333333Y-124311961D01*
X139333333Y-124311961D02*
X139285714Y-124216723D01*
X139285714Y-124216723D02*
X139238095Y-124026247D01*
X139238095Y-124026247D02*
X139238095Y-123883390D01*
X139238095Y-123883390D02*
X139285714Y-123692914D01*
X139285714Y-123692914D02*
X139333333Y-123597676D01*
X139333333Y-123597676D02*
X139428571Y-123502438D01*
X139428571Y-123502438D02*
X139571428Y-123454819D01*
X139571428Y-123454819D02*
X139666666Y-123454819D01*
X139666666Y-123454819D02*
X139809523Y-123502438D01*
X139809523Y-123502438D02*
X139857142Y-123550057D01*
X140238095Y-123550057D02*
X140285714Y-123502438D01*
X140285714Y-123502438D02*
X140380952Y-123454819D01*
X140380952Y-123454819D02*
X140619047Y-123454819D01*
X140619047Y-123454819D02*
X140714285Y-123502438D01*
X140714285Y-123502438D02*
X140761904Y-123550057D01*
X140761904Y-123550057D02*
X140809523Y-123645295D01*
X140809523Y-123645295D02*
X140809523Y-123740533D01*
X140809523Y-123740533D02*
X140761904Y-123883390D01*
X140761904Y-123883390D02*
X140190476Y-124454819D01*
X140190476Y-124454819D02*
X140809523Y-124454819D01*
X141380952Y-123883390D02*
X141285714Y-123835771D01*
X141285714Y-123835771D02*
X141238095Y-123788152D01*
X141238095Y-123788152D02*
X141190476Y-123692914D01*
X141190476Y-123692914D02*
X141190476Y-123645295D01*
X141190476Y-123645295D02*
X141238095Y-123550057D01*
X141238095Y-123550057D02*
X141285714Y-123502438D01*
X141285714Y-123502438D02*
X141380952Y-123454819D01*
X141380952Y-123454819D02*
X141571428Y-123454819D01*
X141571428Y-123454819D02*
X141666666Y-123502438D01*
X141666666Y-123502438D02*
X141714285Y-123550057D01*
X141714285Y-123550057D02*
X141761904Y-123645295D01*
X141761904Y-123645295D02*
X141761904Y-123692914D01*
X141761904Y-123692914D02*
X141714285Y-123788152D01*
X141714285Y-123788152D02*
X141666666Y-123835771D01*
X141666666Y-123835771D02*
X141571428Y-123883390D01*
X141571428Y-123883390D02*
X141380952Y-123883390D01*
X141380952Y-123883390D02*
X141285714Y-123931009D01*
X141285714Y-123931009D02*
X141238095Y-123978628D01*
X141238095Y-123978628D02*
X141190476Y-124073866D01*
X141190476Y-124073866D02*
X141190476Y-124264342D01*
X141190476Y-124264342D02*
X141238095Y-124359580D01*
X141238095Y-124359580D02*
X141285714Y-124407200D01*
X141285714Y-124407200D02*
X141380952Y-124454819D01*
X141380952Y-124454819D02*
X141571428Y-124454819D01*
X141571428Y-124454819D02*
X141666666Y-124407200D01*
X141666666Y-124407200D02*
X141714285Y-124359580D01*
X141714285Y-124359580D02*
X141761904Y-124264342D01*
X141761904Y-124264342D02*
X141761904Y-124073866D01*
X141761904Y-124073866D02*
X141714285Y-123978628D01*
X141714285Y-123978628D02*
X141666666Y-123931009D01*
X141666666Y-123931009D02*
X141571428Y-123883390D01*
X145209580Y-128442857D02*
X145257200Y-128490476D01*
X145257200Y-128490476D02*
X145304819Y-128633333D01*
X145304819Y-128633333D02*
X145304819Y-128728571D01*
X145304819Y-128728571D02*
X145257200Y-128871428D01*
X145257200Y-128871428D02*
X145161961Y-128966666D01*
X145161961Y-128966666D02*
X145066723Y-129014285D01*
X145066723Y-129014285D02*
X144876247Y-129061904D01*
X144876247Y-129061904D02*
X144733390Y-129061904D01*
X144733390Y-129061904D02*
X144542914Y-129014285D01*
X144542914Y-129014285D02*
X144447676Y-128966666D01*
X144447676Y-128966666D02*
X144352438Y-128871428D01*
X144352438Y-128871428D02*
X144304819Y-128728571D01*
X144304819Y-128728571D02*
X144304819Y-128633333D01*
X144304819Y-128633333D02*
X144352438Y-128490476D01*
X144352438Y-128490476D02*
X144400057Y-128442857D01*
X144304819Y-128109523D02*
X144304819Y-127490476D01*
X144304819Y-127490476D02*
X144685771Y-127823809D01*
X144685771Y-127823809D02*
X144685771Y-127680952D01*
X144685771Y-127680952D02*
X144733390Y-127585714D01*
X144733390Y-127585714D02*
X144781009Y-127538095D01*
X144781009Y-127538095D02*
X144876247Y-127490476D01*
X144876247Y-127490476D02*
X145114342Y-127490476D01*
X145114342Y-127490476D02*
X145209580Y-127538095D01*
X145209580Y-127538095D02*
X145257200Y-127585714D01*
X145257200Y-127585714D02*
X145304819Y-127680952D01*
X145304819Y-127680952D02*
X145304819Y-127966666D01*
X145304819Y-127966666D02*
X145257200Y-128061904D01*
X145257200Y-128061904D02*
X145209580Y-128109523D01*
X144304819Y-126871428D02*
X144304819Y-126776190D01*
X144304819Y-126776190D02*
X144352438Y-126680952D01*
X144352438Y-126680952D02*
X144400057Y-126633333D01*
X144400057Y-126633333D02*
X144495295Y-126585714D01*
X144495295Y-126585714D02*
X144685771Y-126538095D01*
X144685771Y-126538095D02*
X144923866Y-126538095D01*
X144923866Y-126538095D02*
X145114342Y-126585714D01*
X145114342Y-126585714D02*
X145209580Y-126633333D01*
X145209580Y-126633333D02*
X145257200Y-126680952D01*
X145257200Y-126680952D02*
X145304819Y-126776190D01*
X145304819Y-126776190D02*
X145304819Y-126871428D01*
X145304819Y-126871428D02*
X145257200Y-126966666D01*
X145257200Y-126966666D02*
X145209580Y-127014285D01*
X145209580Y-127014285D02*
X145114342Y-127061904D01*
X145114342Y-127061904D02*
X144923866Y-127109523D01*
X144923866Y-127109523D02*
X144685771Y-127109523D01*
X144685771Y-127109523D02*
X144495295Y-127061904D01*
X144495295Y-127061904D02*
X144400057Y-127014285D01*
X144400057Y-127014285D02*
X144352438Y-126966666D01*
X144352438Y-126966666D02*
X144304819Y-126871428D01*
X153209580Y-128442857D02*
X153257200Y-128490476D01*
X153257200Y-128490476D02*
X153304819Y-128633333D01*
X153304819Y-128633333D02*
X153304819Y-128728571D01*
X153304819Y-128728571D02*
X153257200Y-128871428D01*
X153257200Y-128871428D02*
X153161961Y-128966666D01*
X153161961Y-128966666D02*
X153066723Y-129014285D01*
X153066723Y-129014285D02*
X152876247Y-129061904D01*
X152876247Y-129061904D02*
X152733390Y-129061904D01*
X152733390Y-129061904D02*
X152542914Y-129014285D01*
X152542914Y-129014285D02*
X152447676Y-128966666D01*
X152447676Y-128966666D02*
X152352438Y-128871428D01*
X152352438Y-128871428D02*
X152304819Y-128728571D01*
X152304819Y-128728571D02*
X152304819Y-128633333D01*
X152304819Y-128633333D02*
X152352438Y-128490476D01*
X152352438Y-128490476D02*
X152400057Y-128442857D01*
X152304819Y-128109523D02*
X152304819Y-127490476D01*
X152304819Y-127490476D02*
X152685771Y-127823809D01*
X152685771Y-127823809D02*
X152685771Y-127680952D01*
X152685771Y-127680952D02*
X152733390Y-127585714D01*
X152733390Y-127585714D02*
X152781009Y-127538095D01*
X152781009Y-127538095D02*
X152876247Y-127490476D01*
X152876247Y-127490476D02*
X153114342Y-127490476D01*
X153114342Y-127490476D02*
X153209580Y-127538095D01*
X153209580Y-127538095D02*
X153257200Y-127585714D01*
X153257200Y-127585714D02*
X153304819Y-127680952D01*
X153304819Y-127680952D02*
X153304819Y-127966666D01*
X153304819Y-127966666D02*
X153257200Y-128061904D01*
X153257200Y-128061904D02*
X153209580Y-128109523D01*
X153304819Y-126538095D02*
X153304819Y-127109523D01*
X153304819Y-126823809D02*
X152304819Y-126823809D01*
X152304819Y-126823809D02*
X152447676Y-126919047D01*
X152447676Y-126919047D02*
X152542914Y-127014285D01*
X152542914Y-127014285D02*
X152590533Y-127109523D01*
X157609580Y-136392857D02*
X157657200Y-136440476D01*
X157657200Y-136440476D02*
X157704819Y-136583333D01*
X157704819Y-136583333D02*
X157704819Y-136678571D01*
X157704819Y-136678571D02*
X157657200Y-136821428D01*
X157657200Y-136821428D02*
X157561961Y-136916666D01*
X157561961Y-136916666D02*
X157466723Y-136964285D01*
X157466723Y-136964285D02*
X157276247Y-137011904D01*
X157276247Y-137011904D02*
X157133390Y-137011904D01*
X157133390Y-137011904D02*
X156942914Y-136964285D01*
X156942914Y-136964285D02*
X156847676Y-136916666D01*
X156847676Y-136916666D02*
X156752438Y-136821428D01*
X156752438Y-136821428D02*
X156704819Y-136678571D01*
X156704819Y-136678571D02*
X156704819Y-136583333D01*
X156704819Y-136583333D02*
X156752438Y-136440476D01*
X156752438Y-136440476D02*
X156800057Y-136392857D01*
X156704819Y-136059523D02*
X156704819Y-135440476D01*
X156704819Y-135440476D02*
X157085771Y-135773809D01*
X157085771Y-135773809D02*
X157085771Y-135630952D01*
X157085771Y-135630952D02*
X157133390Y-135535714D01*
X157133390Y-135535714D02*
X157181009Y-135488095D01*
X157181009Y-135488095D02*
X157276247Y-135440476D01*
X157276247Y-135440476D02*
X157514342Y-135440476D01*
X157514342Y-135440476D02*
X157609580Y-135488095D01*
X157609580Y-135488095D02*
X157657200Y-135535714D01*
X157657200Y-135535714D02*
X157704819Y-135630952D01*
X157704819Y-135630952D02*
X157704819Y-135916666D01*
X157704819Y-135916666D02*
X157657200Y-136011904D01*
X157657200Y-136011904D02*
X157609580Y-136059523D01*
X156800057Y-135059523D02*
X156752438Y-135011904D01*
X156752438Y-135011904D02*
X156704819Y-134916666D01*
X156704819Y-134916666D02*
X156704819Y-134678571D01*
X156704819Y-134678571D02*
X156752438Y-134583333D01*
X156752438Y-134583333D02*
X156800057Y-134535714D01*
X156800057Y-134535714D02*
X156895295Y-134488095D01*
X156895295Y-134488095D02*
X156990533Y-134488095D01*
X156990533Y-134488095D02*
X157133390Y-134535714D01*
X157133390Y-134535714D02*
X157704819Y-135107142D01*
X157704819Y-135107142D02*
X157704819Y-134488095D01*
X144429580Y-135142857D02*
X144477200Y-135190476D01*
X144477200Y-135190476D02*
X144524819Y-135333333D01*
X144524819Y-135333333D02*
X144524819Y-135428571D01*
X144524819Y-135428571D02*
X144477200Y-135571428D01*
X144477200Y-135571428D02*
X144381961Y-135666666D01*
X144381961Y-135666666D02*
X144286723Y-135714285D01*
X144286723Y-135714285D02*
X144096247Y-135761904D01*
X144096247Y-135761904D02*
X143953390Y-135761904D01*
X143953390Y-135761904D02*
X143762914Y-135714285D01*
X143762914Y-135714285D02*
X143667676Y-135666666D01*
X143667676Y-135666666D02*
X143572438Y-135571428D01*
X143572438Y-135571428D02*
X143524819Y-135428571D01*
X143524819Y-135428571D02*
X143524819Y-135333333D01*
X143524819Y-135333333D02*
X143572438Y-135190476D01*
X143572438Y-135190476D02*
X143620057Y-135142857D01*
X143524819Y-134809523D02*
X143524819Y-134190476D01*
X143524819Y-134190476D02*
X143905771Y-134523809D01*
X143905771Y-134523809D02*
X143905771Y-134380952D01*
X143905771Y-134380952D02*
X143953390Y-134285714D01*
X143953390Y-134285714D02*
X144001009Y-134238095D01*
X144001009Y-134238095D02*
X144096247Y-134190476D01*
X144096247Y-134190476D02*
X144334342Y-134190476D01*
X144334342Y-134190476D02*
X144429580Y-134238095D01*
X144429580Y-134238095D02*
X144477200Y-134285714D01*
X144477200Y-134285714D02*
X144524819Y-134380952D01*
X144524819Y-134380952D02*
X144524819Y-134666666D01*
X144524819Y-134666666D02*
X144477200Y-134761904D01*
X144477200Y-134761904D02*
X144429580Y-134809523D01*
X143524819Y-133857142D02*
X143524819Y-133238095D01*
X143524819Y-133238095D02*
X143905771Y-133571428D01*
X143905771Y-133571428D02*
X143905771Y-133428571D01*
X143905771Y-133428571D02*
X143953390Y-133333333D01*
X143953390Y-133333333D02*
X144001009Y-133285714D01*
X144001009Y-133285714D02*
X144096247Y-133238095D01*
X144096247Y-133238095D02*
X144334342Y-133238095D01*
X144334342Y-133238095D02*
X144429580Y-133285714D01*
X144429580Y-133285714D02*
X144477200Y-133333333D01*
X144477200Y-133333333D02*
X144524819Y-133428571D01*
X144524819Y-133428571D02*
X144524819Y-133714285D01*
X144524819Y-133714285D02*
X144477200Y-133809523D01*
X144477200Y-133809523D02*
X144429580Y-133857142D01*
X152857142Y-137359580D02*
X152809523Y-137407200D01*
X152809523Y-137407200D02*
X152666666Y-137454819D01*
X152666666Y-137454819D02*
X152571428Y-137454819D01*
X152571428Y-137454819D02*
X152428571Y-137407200D01*
X152428571Y-137407200D02*
X152333333Y-137311961D01*
X152333333Y-137311961D02*
X152285714Y-137216723D01*
X152285714Y-137216723D02*
X152238095Y-137026247D01*
X152238095Y-137026247D02*
X152238095Y-136883390D01*
X152238095Y-136883390D02*
X152285714Y-136692914D01*
X152285714Y-136692914D02*
X152333333Y-136597676D01*
X152333333Y-136597676D02*
X152428571Y-136502438D01*
X152428571Y-136502438D02*
X152571428Y-136454819D01*
X152571428Y-136454819D02*
X152666666Y-136454819D01*
X152666666Y-136454819D02*
X152809523Y-136502438D01*
X152809523Y-136502438D02*
X152857142Y-136550057D01*
X153190476Y-136454819D02*
X153809523Y-136454819D01*
X153809523Y-136454819D02*
X153476190Y-136835771D01*
X153476190Y-136835771D02*
X153619047Y-136835771D01*
X153619047Y-136835771D02*
X153714285Y-136883390D01*
X153714285Y-136883390D02*
X153761904Y-136931009D01*
X153761904Y-136931009D02*
X153809523Y-137026247D01*
X153809523Y-137026247D02*
X153809523Y-137264342D01*
X153809523Y-137264342D02*
X153761904Y-137359580D01*
X153761904Y-137359580D02*
X153714285Y-137407200D01*
X153714285Y-137407200D02*
X153619047Y-137454819D01*
X153619047Y-137454819D02*
X153333333Y-137454819D01*
X153333333Y-137454819D02*
X153238095Y-137407200D01*
X153238095Y-137407200D02*
X153190476Y-137359580D01*
X154666666Y-136788152D02*
X154666666Y-137454819D01*
X154428571Y-136407200D02*
X154190476Y-137121485D01*
X154190476Y-137121485D02*
X154809523Y-137121485D01*
X103111009Y-113333333D02*
X103111009Y-113666666D01*
X103634819Y-113666666D02*
X102634819Y-113666666D01*
X102634819Y-113666666D02*
X102634819Y-113190476D01*
X103111009Y-112476190D02*
X103158628Y-112333333D01*
X103158628Y-112333333D02*
X103206247Y-112285714D01*
X103206247Y-112285714D02*
X103301485Y-112238095D01*
X103301485Y-112238095D02*
X103444342Y-112238095D01*
X103444342Y-112238095D02*
X103539580Y-112285714D01*
X103539580Y-112285714D02*
X103587200Y-112333333D01*
X103587200Y-112333333D02*
X103634819Y-112428571D01*
X103634819Y-112428571D02*
X103634819Y-112809523D01*
X103634819Y-112809523D02*
X102634819Y-112809523D01*
X102634819Y-112809523D02*
X102634819Y-112476190D01*
X102634819Y-112476190D02*
X102682438Y-112380952D01*
X102682438Y-112380952D02*
X102730057Y-112333333D01*
X102730057Y-112333333D02*
X102825295Y-112285714D01*
X102825295Y-112285714D02*
X102920533Y-112285714D01*
X102920533Y-112285714D02*
X103015771Y-112333333D01*
X103015771Y-112333333D02*
X103063390Y-112380952D01*
X103063390Y-112380952D02*
X103111009Y-112476190D01*
X103111009Y-112476190D02*
X103111009Y-112809523D01*
X103634819Y-111285714D02*
X103634819Y-111857142D01*
X103634819Y-111571428D02*
X102634819Y-111571428D01*
X102634819Y-111571428D02*
X102777676Y-111666666D01*
X102777676Y-111666666D02*
X102872914Y-111761904D01*
X102872914Y-111761904D02*
X102920533Y-111857142D01*
X94354819Y-126333333D02*
X95069104Y-126333333D01*
X95069104Y-126333333D02*
X95211961Y-126380952D01*
X95211961Y-126380952D02*
X95307200Y-126476190D01*
X95307200Y-126476190D02*
X95354819Y-126619047D01*
X95354819Y-126619047D02*
X95354819Y-126714285D01*
X95354819Y-125333333D02*
X95354819Y-125904761D01*
X95354819Y-125619047D02*
X94354819Y-125619047D01*
X94354819Y-125619047D02*
X94497676Y-125714285D01*
X94497676Y-125714285D02*
X94592914Y-125809523D01*
X94592914Y-125809523D02*
X94640533Y-125904761D01*
X160954819Y-139833333D02*
X161669104Y-139833333D01*
X161669104Y-139833333D02*
X161811961Y-139880952D01*
X161811961Y-139880952D02*
X161907200Y-139976190D01*
X161907200Y-139976190D02*
X161954819Y-140119047D01*
X161954819Y-140119047D02*
X161954819Y-140214285D01*
X160954819Y-138928571D02*
X160954819Y-139119047D01*
X160954819Y-139119047D02*
X161002438Y-139214285D01*
X161002438Y-139214285D02*
X161050057Y-139261904D01*
X161050057Y-139261904D02*
X161192914Y-139357142D01*
X161192914Y-139357142D02*
X161383390Y-139404761D01*
X161383390Y-139404761D02*
X161764342Y-139404761D01*
X161764342Y-139404761D02*
X161859580Y-139357142D01*
X161859580Y-139357142D02*
X161907200Y-139309523D01*
X161907200Y-139309523D02*
X161954819Y-139214285D01*
X161954819Y-139214285D02*
X161954819Y-139023809D01*
X161954819Y-139023809D02*
X161907200Y-138928571D01*
X161907200Y-138928571D02*
X161859580Y-138880952D01*
X161859580Y-138880952D02*
X161764342Y-138833333D01*
X161764342Y-138833333D02*
X161526247Y-138833333D01*
X161526247Y-138833333D02*
X161431009Y-138880952D01*
X161431009Y-138880952D02*
X161383390Y-138928571D01*
X161383390Y-138928571D02*
X161335771Y-139023809D01*
X161335771Y-139023809D02*
X161335771Y-139214285D01*
X161335771Y-139214285D02*
X161383390Y-139309523D01*
X161383390Y-139309523D02*
X161431009Y-139357142D01*
X161431009Y-139357142D02*
X161526247Y-139404761D01*
X100884819Y-127166666D02*
X100408628Y-127499999D01*
X100884819Y-127738094D02*
X99884819Y-127738094D01*
X99884819Y-127738094D02*
X99884819Y-127357142D01*
X99884819Y-127357142D02*
X99932438Y-127261904D01*
X99932438Y-127261904D02*
X99980057Y-127214285D01*
X99980057Y-127214285D02*
X100075295Y-127166666D01*
X100075295Y-127166666D02*
X100218152Y-127166666D01*
X100218152Y-127166666D02*
X100313390Y-127214285D01*
X100313390Y-127214285D02*
X100361009Y-127261904D01*
X100361009Y-127261904D02*
X100408628Y-127357142D01*
X100408628Y-127357142D02*
X100408628Y-127738094D01*
X100884819Y-126214285D02*
X100884819Y-126785713D01*
X100884819Y-126499999D02*
X99884819Y-126499999D01*
X99884819Y-126499999D02*
X100027676Y-126595237D01*
X100027676Y-126595237D02*
X100122914Y-126690475D01*
X100122914Y-126690475D02*
X100170533Y-126785713D01*
X106833333Y-120454819D02*
X106500000Y-119978628D01*
X106261905Y-120454819D02*
X106261905Y-119454819D01*
X106261905Y-119454819D02*
X106642857Y-119454819D01*
X106642857Y-119454819D02*
X106738095Y-119502438D01*
X106738095Y-119502438D02*
X106785714Y-119550057D01*
X106785714Y-119550057D02*
X106833333Y-119645295D01*
X106833333Y-119645295D02*
X106833333Y-119788152D01*
X106833333Y-119788152D02*
X106785714Y-119883390D01*
X106785714Y-119883390D02*
X106738095Y-119931009D01*
X106738095Y-119931009D02*
X106642857Y-119978628D01*
X106642857Y-119978628D02*
X106261905Y-119978628D01*
X107214286Y-119550057D02*
X107261905Y-119502438D01*
X107261905Y-119502438D02*
X107357143Y-119454819D01*
X107357143Y-119454819D02*
X107595238Y-119454819D01*
X107595238Y-119454819D02*
X107690476Y-119502438D01*
X107690476Y-119502438D02*
X107738095Y-119550057D01*
X107738095Y-119550057D02*
X107785714Y-119645295D01*
X107785714Y-119645295D02*
X107785714Y-119740533D01*
X107785714Y-119740533D02*
X107738095Y-119883390D01*
X107738095Y-119883390D02*
X107166667Y-120454819D01*
X107166667Y-120454819D02*
X107785714Y-120454819D01*
X106833333Y-118454819D02*
X106500000Y-117978628D01*
X106261905Y-118454819D02*
X106261905Y-117454819D01*
X106261905Y-117454819D02*
X106642857Y-117454819D01*
X106642857Y-117454819D02*
X106738095Y-117502438D01*
X106738095Y-117502438D02*
X106785714Y-117550057D01*
X106785714Y-117550057D02*
X106833333Y-117645295D01*
X106833333Y-117645295D02*
X106833333Y-117788152D01*
X106833333Y-117788152D02*
X106785714Y-117883390D01*
X106785714Y-117883390D02*
X106738095Y-117931009D01*
X106738095Y-117931009D02*
X106642857Y-117978628D01*
X106642857Y-117978628D02*
X106261905Y-117978628D01*
X107166667Y-117454819D02*
X107785714Y-117454819D01*
X107785714Y-117454819D02*
X107452381Y-117835771D01*
X107452381Y-117835771D02*
X107595238Y-117835771D01*
X107595238Y-117835771D02*
X107690476Y-117883390D01*
X107690476Y-117883390D02*
X107738095Y-117931009D01*
X107738095Y-117931009D02*
X107785714Y-118026247D01*
X107785714Y-118026247D02*
X107785714Y-118264342D01*
X107785714Y-118264342D02*
X107738095Y-118359580D01*
X107738095Y-118359580D02*
X107690476Y-118407200D01*
X107690476Y-118407200D02*
X107595238Y-118454819D01*
X107595238Y-118454819D02*
X107309524Y-118454819D01*
X107309524Y-118454819D02*
X107214286Y-118407200D01*
X107214286Y-118407200D02*
X107166667Y-118359580D01*
X100024819Y-104166666D02*
X99548628Y-104499999D01*
X100024819Y-104738094D02*
X99024819Y-104738094D01*
X99024819Y-104738094D02*
X99024819Y-104357142D01*
X99024819Y-104357142D02*
X99072438Y-104261904D01*
X99072438Y-104261904D02*
X99120057Y-104214285D01*
X99120057Y-104214285D02*
X99215295Y-104166666D01*
X99215295Y-104166666D02*
X99358152Y-104166666D01*
X99358152Y-104166666D02*
X99453390Y-104214285D01*
X99453390Y-104214285D02*
X99501009Y-104261904D01*
X99501009Y-104261904D02*
X99548628Y-104357142D01*
X99548628Y-104357142D02*
X99548628Y-104738094D01*
X99358152Y-103309523D02*
X100024819Y-103309523D01*
X98977200Y-103547618D02*
X99691485Y-103785713D01*
X99691485Y-103785713D02*
X99691485Y-103166666D01*
X95704819Y-103666666D02*
X95228628Y-103999999D01*
X95704819Y-104238094D02*
X94704819Y-104238094D01*
X94704819Y-104238094D02*
X94704819Y-103857142D01*
X94704819Y-103857142D02*
X94752438Y-103761904D01*
X94752438Y-103761904D02*
X94800057Y-103714285D01*
X94800057Y-103714285D02*
X94895295Y-103666666D01*
X94895295Y-103666666D02*
X95038152Y-103666666D01*
X95038152Y-103666666D02*
X95133390Y-103714285D01*
X95133390Y-103714285D02*
X95181009Y-103761904D01*
X95181009Y-103761904D02*
X95228628Y-103857142D01*
X95228628Y-103857142D02*
X95228628Y-104238094D01*
X94704819Y-102761904D02*
X94704819Y-103238094D01*
X94704819Y-103238094D02*
X95181009Y-103285713D01*
X95181009Y-103285713D02*
X95133390Y-103238094D01*
X95133390Y-103238094D02*
X95085771Y-103142856D01*
X95085771Y-103142856D02*
X95085771Y-102904761D01*
X95085771Y-102904761D02*
X95133390Y-102809523D01*
X95133390Y-102809523D02*
X95181009Y-102761904D01*
X95181009Y-102761904D02*
X95276247Y-102714285D01*
X95276247Y-102714285D02*
X95514342Y-102714285D01*
X95514342Y-102714285D02*
X95609580Y-102761904D01*
X95609580Y-102761904D02*
X95657200Y-102809523D01*
X95657200Y-102809523D02*
X95704819Y-102904761D01*
X95704819Y-102904761D02*
X95704819Y-103142856D01*
X95704819Y-103142856D02*
X95657200Y-103238094D01*
X95657200Y-103238094D02*
X95609580Y-103285713D01*
X142333333Y-119824819D02*
X142000000Y-119348628D01*
X141761905Y-119824819D02*
X141761905Y-118824819D01*
X141761905Y-118824819D02*
X142142857Y-118824819D01*
X142142857Y-118824819D02*
X142238095Y-118872438D01*
X142238095Y-118872438D02*
X142285714Y-118920057D01*
X142285714Y-118920057D02*
X142333333Y-119015295D01*
X142333333Y-119015295D02*
X142333333Y-119158152D01*
X142333333Y-119158152D02*
X142285714Y-119253390D01*
X142285714Y-119253390D02*
X142238095Y-119301009D01*
X142238095Y-119301009D02*
X142142857Y-119348628D01*
X142142857Y-119348628D02*
X141761905Y-119348628D01*
X143190476Y-118824819D02*
X143000000Y-118824819D01*
X143000000Y-118824819D02*
X142904762Y-118872438D01*
X142904762Y-118872438D02*
X142857143Y-118920057D01*
X142857143Y-118920057D02*
X142761905Y-119062914D01*
X142761905Y-119062914D02*
X142714286Y-119253390D01*
X142714286Y-119253390D02*
X142714286Y-119634342D01*
X142714286Y-119634342D02*
X142761905Y-119729580D01*
X142761905Y-119729580D02*
X142809524Y-119777200D01*
X142809524Y-119777200D02*
X142904762Y-119824819D01*
X142904762Y-119824819D02*
X143095238Y-119824819D01*
X143095238Y-119824819D02*
X143190476Y-119777200D01*
X143190476Y-119777200D02*
X143238095Y-119729580D01*
X143238095Y-119729580D02*
X143285714Y-119634342D01*
X143285714Y-119634342D02*
X143285714Y-119396247D01*
X143285714Y-119396247D02*
X143238095Y-119301009D01*
X143238095Y-119301009D02*
X143190476Y-119253390D01*
X143190476Y-119253390D02*
X143095238Y-119205771D01*
X143095238Y-119205771D02*
X142904762Y-119205771D01*
X142904762Y-119205771D02*
X142809524Y-119253390D01*
X142809524Y-119253390D02*
X142761905Y-119301009D01*
X142761905Y-119301009D02*
X142714286Y-119396247D01*
X157083333Y-119774819D02*
X156750000Y-119298628D01*
X156511905Y-119774819D02*
X156511905Y-118774819D01*
X156511905Y-118774819D02*
X156892857Y-118774819D01*
X156892857Y-118774819D02*
X156988095Y-118822438D01*
X156988095Y-118822438D02*
X157035714Y-118870057D01*
X157035714Y-118870057D02*
X157083333Y-118965295D01*
X157083333Y-118965295D02*
X157083333Y-119108152D01*
X157083333Y-119108152D02*
X157035714Y-119203390D01*
X157035714Y-119203390D02*
X156988095Y-119251009D01*
X156988095Y-119251009D02*
X156892857Y-119298628D01*
X156892857Y-119298628D02*
X156511905Y-119298628D01*
X157416667Y-118774819D02*
X158083333Y-118774819D01*
X158083333Y-118774819D02*
X157654762Y-119774819D01*
X148454819Y-124166666D02*
X147978628Y-124499999D01*
X148454819Y-124738094D02*
X147454819Y-124738094D01*
X147454819Y-124738094D02*
X147454819Y-124357142D01*
X147454819Y-124357142D02*
X147502438Y-124261904D01*
X147502438Y-124261904D02*
X147550057Y-124214285D01*
X147550057Y-124214285D02*
X147645295Y-124166666D01*
X147645295Y-124166666D02*
X147788152Y-124166666D01*
X147788152Y-124166666D02*
X147883390Y-124214285D01*
X147883390Y-124214285D02*
X147931009Y-124261904D01*
X147931009Y-124261904D02*
X147978628Y-124357142D01*
X147978628Y-124357142D02*
X147978628Y-124738094D01*
X147883390Y-123595237D02*
X147835771Y-123690475D01*
X147835771Y-123690475D02*
X147788152Y-123738094D01*
X147788152Y-123738094D02*
X147692914Y-123785713D01*
X147692914Y-123785713D02*
X147645295Y-123785713D01*
X147645295Y-123785713D02*
X147550057Y-123738094D01*
X147550057Y-123738094D02*
X147502438Y-123690475D01*
X147502438Y-123690475D02*
X147454819Y-123595237D01*
X147454819Y-123595237D02*
X147454819Y-123404761D01*
X147454819Y-123404761D02*
X147502438Y-123309523D01*
X147502438Y-123309523D02*
X147550057Y-123261904D01*
X147550057Y-123261904D02*
X147645295Y-123214285D01*
X147645295Y-123214285D02*
X147692914Y-123214285D01*
X147692914Y-123214285D02*
X147788152Y-123261904D01*
X147788152Y-123261904D02*
X147835771Y-123309523D01*
X147835771Y-123309523D02*
X147883390Y-123404761D01*
X147883390Y-123404761D02*
X147883390Y-123595237D01*
X147883390Y-123595237D02*
X147931009Y-123690475D01*
X147931009Y-123690475D02*
X147978628Y-123738094D01*
X147978628Y-123738094D02*
X148073866Y-123785713D01*
X148073866Y-123785713D02*
X148264342Y-123785713D01*
X148264342Y-123785713D02*
X148359580Y-123738094D01*
X148359580Y-123738094D02*
X148407200Y-123690475D01*
X148407200Y-123690475D02*
X148454819Y-123595237D01*
X148454819Y-123595237D02*
X148454819Y-123404761D01*
X148454819Y-123404761D02*
X148407200Y-123309523D01*
X148407200Y-123309523D02*
X148359580Y-123261904D01*
X148359580Y-123261904D02*
X148264342Y-123214285D01*
X148264342Y-123214285D02*
X148073866Y-123214285D01*
X148073866Y-123214285D02*
X147978628Y-123261904D01*
X147978628Y-123261904D02*
X147931009Y-123309523D01*
X147931009Y-123309523D02*
X147883390Y-123404761D01*
X153524819Y-123966666D02*
X153048628Y-124299999D01*
X153524819Y-124538094D02*
X152524819Y-124538094D01*
X152524819Y-124538094D02*
X152524819Y-124157142D01*
X152524819Y-124157142D02*
X152572438Y-124061904D01*
X152572438Y-124061904D02*
X152620057Y-124014285D01*
X152620057Y-124014285D02*
X152715295Y-123966666D01*
X152715295Y-123966666D02*
X152858152Y-123966666D01*
X152858152Y-123966666D02*
X152953390Y-124014285D01*
X152953390Y-124014285D02*
X153001009Y-124061904D01*
X153001009Y-124061904D02*
X153048628Y-124157142D01*
X153048628Y-124157142D02*
X153048628Y-124538094D01*
X153524819Y-123490475D02*
X153524819Y-123299999D01*
X153524819Y-123299999D02*
X153477200Y-123204761D01*
X153477200Y-123204761D02*
X153429580Y-123157142D01*
X153429580Y-123157142D02*
X153286723Y-123061904D01*
X153286723Y-123061904D02*
X153096247Y-123014285D01*
X153096247Y-123014285D02*
X152715295Y-123014285D01*
X152715295Y-123014285D02*
X152620057Y-123061904D01*
X152620057Y-123061904D02*
X152572438Y-123109523D01*
X152572438Y-123109523D02*
X152524819Y-123204761D01*
X152524819Y-123204761D02*
X152524819Y-123395237D01*
X152524819Y-123395237D02*
X152572438Y-123490475D01*
X152572438Y-123490475D02*
X152620057Y-123538094D01*
X152620057Y-123538094D02*
X152715295Y-123585713D01*
X152715295Y-123585713D02*
X152953390Y-123585713D01*
X152953390Y-123585713D02*
X153048628Y-123538094D01*
X153048628Y-123538094D02*
X153096247Y-123490475D01*
X153096247Y-123490475D02*
X153143866Y-123395237D01*
X153143866Y-123395237D02*
X153143866Y-123204761D01*
X153143866Y-123204761D02*
X153096247Y-123109523D01*
X153096247Y-123109523D02*
X153048628Y-123061904D01*
X153048628Y-123061904D02*
X152953390Y-123014285D01*
X148704819Y-117392857D02*
X148228628Y-117726190D01*
X148704819Y-117964285D02*
X147704819Y-117964285D01*
X147704819Y-117964285D02*
X147704819Y-117583333D01*
X147704819Y-117583333D02*
X147752438Y-117488095D01*
X147752438Y-117488095D02*
X147800057Y-117440476D01*
X147800057Y-117440476D02*
X147895295Y-117392857D01*
X147895295Y-117392857D02*
X148038152Y-117392857D01*
X148038152Y-117392857D02*
X148133390Y-117440476D01*
X148133390Y-117440476D02*
X148181009Y-117488095D01*
X148181009Y-117488095D02*
X148228628Y-117583333D01*
X148228628Y-117583333D02*
X148228628Y-117964285D01*
X148704819Y-116440476D02*
X148704819Y-117011904D01*
X148704819Y-116726190D02*
X147704819Y-116726190D01*
X147704819Y-116726190D02*
X147847676Y-116821428D01*
X147847676Y-116821428D02*
X147942914Y-116916666D01*
X147942914Y-116916666D02*
X147990533Y-117011904D01*
X147704819Y-115821428D02*
X147704819Y-115726190D01*
X147704819Y-115726190D02*
X147752438Y-115630952D01*
X147752438Y-115630952D02*
X147800057Y-115583333D01*
X147800057Y-115583333D02*
X147895295Y-115535714D01*
X147895295Y-115535714D02*
X148085771Y-115488095D01*
X148085771Y-115488095D02*
X148323866Y-115488095D01*
X148323866Y-115488095D02*
X148514342Y-115535714D01*
X148514342Y-115535714D02*
X148609580Y-115583333D01*
X148609580Y-115583333D02*
X148657200Y-115630952D01*
X148657200Y-115630952D02*
X148704819Y-115726190D01*
X148704819Y-115726190D02*
X148704819Y-115821428D01*
X148704819Y-115821428D02*
X148657200Y-115916666D01*
X148657200Y-115916666D02*
X148609580Y-115964285D01*
X148609580Y-115964285D02*
X148514342Y-116011904D01*
X148514342Y-116011904D02*
X148323866Y-116059523D01*
X148323866Y-116059523D02*
X148085771Y-116059523D01*
X148085771Y-116059523D02*
X147895295Y-116011904D01*
X147895295Y-116011904D02*
X147800057Y-115964285D01*
X147800057Y-115964285D02*
X147752438Y-115916666D01*
X147752438Y-115916666D02*
X147704819Y-115821428D01*
X95904761Y-140204819D02*
X95571428Y-139728628D01*
X95333333Y-140204819D02*
X95333333Y-139204819D01*
X95333333Y-139204819D02*
X95714285Y-139204819D01*
X95714285Y-139204819D02*
X95809523Y-139252438D01*
X95809523Y-139252438D02*
X95857142Y-139300057D01*
X95857142Y-139300057D02*
X95904761Y-139395295D01*
X95904761Y-139395295D02*
X95904761Y-139538152D01*
X95904761Y-139538152D02*
X95857142Y-139633390D01*
X95857142Y-139633390D02*
X95809523Y-139681009D01*
X95809523Y-139681009D02*
X95714285Y-139728628D01*
X95714285Y-139728628D02*
X95333333Y-139728628D01*
X96190476Y-139204819D02*
X96523809Y-140204819D01*
X96523809Y-140204819D02*
X96857142Y-139204819D01*
X97714285Y-140204819D02*
X97142857Y-140204819D01*
X97428571Y-140204819D02*
X97428571Y-139204819D01*
X97428571Y-139204819D02*
X97333333Y-139347676D01*
X97333333Y-139347676D02*
X97238095Y-139442914D01*
X97238095Y-139442914D02*
X97142857Y-139490533D01*
X112904761Y-140204819D02*
X112571428Y-139728628D01*
X112333333Y-140204819D02*
X112333333Y-139204819D01*
X112333333Y-139204819D02*
X112714285Y-139204819D01*
X112714285Y-139204819D02*
X112809523Y-139252438D01*
X112809523Y-139252438D02*
X112857142Y-139300057D01*
X112857142Y-139300057D02*
X112904761Y-139395295D01*
X112904761Y-139395295D02*
X112904761Y-139538152D01*
X112904761Y-139538152D02*
X112857142Y-139633390D01*
X112857142Y-139633390D02*
X112809523Y-139681009D01*
X112809523Y-139681009D02*
X112714285Y-139728628D01*
X112714285Y-139728628D02*
X112333333Y-139728628D01*
X113190476Y-139204819D02*
X113523809Y-140204819D01*
X113523809Y-140204819D02*
X113857142Y-139204819D01*
X114142857Y-139300057D02*
X114190476Y-139252438D01*
X114190476Y-139252438D02*
X114285714Y-139204819D01*
X114285714Y-139204819D02*
X114523809Y-139204819D01*
X114523809Y-139204819D02*
X114619047Y-139252438D01*
X114619047Y-139252438D02*
X114666666Y-139300057D01*
X114666666Y-139300057D02*
X114714285Y-139395295D01*
X114714285Y-139395295D02*
X114714285Y-139490533D01*
X114714285Y-139490533D02*
X114666666Y-139633390D01*
X114666666Y-139633390D02*
X114095238Y-140204819D01*
X114095238Y-140204819D02*
X114714285Y-140204819D01*
X129916667Y-102907200D02*
X130059524Y-102954819D01*
X130059524Y-102954819D02*
X130297619Y-102954819D01*
X130297619Y-102954819D02*
X130392857Y-102907200D01*
X130392857Y-102907200D02*
X130440476Y-102859580D01*
X130440476Y-102859580D02*
X130488095Y-102764342D01*
X130488095Y-102764342D02*
X130488095Y-102669104D01*
X130488095Y-102669104D02*
X130440476Y-102573866D01*
X130440476Y-102573866D02*
X130392857Y-102526247D01*
X130392857Y-102526247D02*
X130297619Y-102478628D01*
X130297619Y-102478628D02*
X130107143Y-102431009D01*
X130107143Y-102431009D02*
X130011905Y-102383390D01*
X130011905Y-102383390D02*
X129964286Y-102335771D01*
X129964286Y-102335771D02*
X129916667Y-102240533D01*
X129916667Y-102240533D02*
X129916667Y-102145295D01*
X129916667Y-102145295D02*
X129964286Y-102050057D01*
X129964286Y-102050057D02*
X130011905Y-102002438D01*
X130011905Y-102002438D02*
X130107143Y-101954819D01*
X130107143Y-101954819D02*
X130345238Y-101954819D01*
X130345238Y-101954819D02*
X130488095Y-102002438D01*
X130821429Y-101954819D02*
X131059524Y-102954819D01*
X131059524Y-102954819D02*
X131250000Y-102240533D01*
X131250000Y-102240533D02*
X131440476Y-102954819D01*
X131440476Y-102954819D02*
X131678572Y-101954819D01*
X132583333Y-102954819D02*
X132011905Y-102954819D01*
X132297619Y-102954819D02*
X132297619Y-101954819D01*
X132297619Y-101954819D02*
X132202381Y-102097676D01*
X132202381Y-102097676D02*
X132107143Y-102192914D01*
X132107143Y-102192914D02*
X132011905Y-102240533D01*
X140166667Y-102907200D02*
X140309524Y-102954819D01*
X140309524Y-102954819D02*
X140547619Y-102954819D01*
X140547619Y-102954819D02*
X140642857Y-102907200D01*
X140642857Y-102907200D02*
X140690476Y-102859580D01*
X140690476Y-102859580D02*
X140738095Y-102764342D01*
X140738095Y-102764342D02*
X140738095Y-102669104D01*
X140738095Y-102669104D02*
X140690476Y-102573866D01*
X140690476Y-102573866D02*
X140642857Y-102526247D01*
X140642857Y-102526247D02*
X140547619Y-102478628D01*
X140547619Y-102478628D02*
X140357143Y-102431009D01*
X140357143Y-102431009D02*
X140261905Y-102383390D01*
X140261905Y-102383390D02*
X140214286Y-102335771D01*
X140214286Y-102335771D02*
X140166667Y-102240533D01*
X140166667Y-102240533D02*
X140166667Y-102145295D01*
X140166667Y-102145295D02*
X140214286Y-102050057D01*
X140214286Y-102050057D02*
X140261905Y-102002438D01*
X140261905Y-102002438D02*
X140357143Y-101954819D01*
X140357143Y-101954819D02*
X140595238Y-101954819D01*
X140595238Y-101954819D02*
X140738095Y-102002438D01*
X141071429Y-101954819D02*
X141309524Y-102954819D01*
X141309524Y-102954819D02*
X141500000Y-102240533D01*
X141500000Y-102240533D02*
X141690476Y-102954819D01*
X141690476Y-102954819D02*
X141928572Y-101954819D01*
X142261905Y-102050057D02*
X142309524Y-102002438D01*
X142309524Y-102002438D02*
X142404762Y-101954819D01*
X142404762Y-101954819D02*
X142642857Y-101954819D01*
X142642857Y-101954819D02*
X142738095Y-102002438D01*
X142738095Y-102002438D02*
X142785714Y-102050057D01*
X142785714Y-102050057D02*
X142833333Y-102145295D01*
X142833333Y-102145295D02*
X142833333Y-102240533D01*
X142833333Y-102240533D02*
X142785714Y-102383390D01*
X142785714Y-102383390D02*
X142214286Y-102954819D01*
X142214286Y-102954819D02*
X142833333Y-102954819D01*
X98238095Y-109904819D02*
X98238095Y-110714342D01*
X98238095Y-110714342D02*
X98285714Y-110809580D01*
X98285714Y-110809580D02*
X98333333Y-110857200D01*
X98333333Y-110857200D02*
X98428571Y-110904819D01*
X98428571Y-110904819D02*
X98619047Y-110904819D01*
X98619047Y-110904819D02*
X98714285Y-110857200D01*
X98714285Y-110857200D02*
X98761904Y-110809580D01*
X98761904Y-110809580D02*
X98809523Y-110714342D01*
X98809523Y-110714342D02*
X98809523Y-109904819D01*
X99809523Y-110904819D02*
X99238095Y-110904819D01*
X99523809Y-110904819D02*
X99523809Y-109904819D01*
X99523809Y-109904819D02*
X99428571Y-110047676D01*
X99428571Y-110047676D02*
X99333333Y-110142914D01*
X99333333Y-110142914D02*
X99238095Y-110190533D01*
X137538095Y-106404819D02*
X137538095Y-107214342D01*
X137538095Y-107214342D02*
X137585714Y-107309580D01*
X137585714Y-107309580D02*
X137633333Y-107357200D01*
X137633333Y-107357200D02*
X137728571Y-107404819D01*
X137728571Y-107404819D02*
X137919047Y-107404819D01*
X137919047Y-107404819D02*
X138014285Y-107357200D01*
X138014285Y-107357200D02*
X138061904Y-107309580D01*
X138061904Y-107309580D02*
X138109523Y-107214342D01*
X138109523Y-107214342D02*
X138109523Y-106404819D01*
X138490476Y-106404819D02*
X139109523Y-106404819D01*
X139109523Y-106404819D02*
X138776190Y-106785771D01*
X138776190Y-106785771D02*
X138919047Y-106785771D01*
X138919047Y-106785771D02*
X139014285Y-106833390D01*
X139014285Y-106833390D02*
X139061904Y-106881009D01*
X139061904Y-106881009D02*
X139109523Y-106976247D01*
X139109523Y-106976247D02*
X139109523Y-107214342D01*
X139109523Y-107214342D02*
X139061904Y-107309580D01*
X139061904Y-107309580D02*
X139014285Y-107357200D01*
X139014285Y-107357200D02*
X138919047Y-107404819D01*
X138919047Y-107404819D02*
X138633333Y-107404819D01*
X138633333Y-107404819D02*
X138538095Y-107357200D01*
X138538095Y-107357200D02*
X138490476Y-107309580D01*
X147738095Y-128804819D02*
X147738095Y-129614342D01*
X147738095Y-129614342D02*
X147785714Y-129709580D01*
X147785714Y-129709580D02*
X147833333Y-129757200D01*
X147833333Y-129757200D02*
X147928571Y-129804819D01*
X147928571Y-129804819D02*
X148119047Y-129804819D01*
X148119047Y-129804819D02*
X148214285Y-129757200D01*
X148214285Y-129757200D02*
X148261904Y-129709580D01*
X148261904Y-129709580D02*
X148309523Y-129614342D01*
X148309523Y-129614342D02*
X148309523Y-128804819D01*
X149214285Y-129138152D02*
X149214285Y-129804819D01*
X148976190Y-128757200D02*
X148738095Y-129471485D01*
X148738095Y-129471485D02*
X149357142Y-129471485D01*
X149916667Y-102907200D02*
X150059524Y-102954819D01*
X150059524Y-102954819D02*
X150297619Y-102954819D01*
X150297619Y-102954819D02*
X150392857Y-102907200D01*
X150392857Y-102907200D02*
X150440476Y-102859580D01*
X150440476Y-102859580D02*
X150488095Y-102764342D01*
X150488095Y-102764342D02*
X150488095Y-102669104D01*
X150488095Y-102669104D02*
X150440476Y-102573866D01*
X150440476Y-102573866D02*
X150392857Y-102526247D01*
X150392857Y-102526247D02*
X150297619Y-102478628D01*
X150297619Y-102478628D02*
X150107143Y-102431009D01*
X150107143Y-102431009D02*
X150011905Y-102383390D01*
X150011905Y-102383390D02*
X149964286Y-102335771D01*
X149964286Y-102335771D02*
X149916667Y-102240533D01*
X149916667Y-102240533D02*
X149916667Y-102145295D01*
X149916667Y-102145295D02*
X149964286Y-102050057D01*
X149964286Y-102050057D02*
X150011905Y-102002438D01*
X150011905Y-102002438D02*
X150107143Y-101954819D01*
X150107143Y-101954819D02*
X150345238Y-101954819D01*
X150345238Y-101954819D02*
X150488095Y-102002438D01*
X150821429Y-101954819D02*
X151059524Y-102954819D01*
X151059524Y-102954819D02*
X151250000Y-102240533D01*
X151250000Y-102240533D02*
X151440476Y-102954819D01*
X151440476Y-102954819D02*
X151678572Y-101954819D01*
X151964286Y-101954819D02*
X152583333Y-101954819D01*
X152583333Y-101954819D02*
X152250000Y-102335771D01*
X152250000Y-102335771D02*
X152392857Y-102335771D01*
X152392857Y-102335771D02*
X152488095Y-102383390D01*
X152488095Y-102383390D02*
X152535714Y-102431009D01*
X152535714Y-102431009D02*
X152583333Y-102526247D01*
X152583333Y-102526247D02*
X152583333Y-102764342D01*
X152583333Y-102764342D02*
X152535714Y-102859580D01*
X152535714Y-102859580D02*
X152488095Y-102907200D01*
X152488095Y-102907200D02*
X152392857Y-102954819D01*
X152392857Y-102954819D02*
X152107143Y-102954819D01*
X152107143Y-102954819D02*
X152011905Y-102907200D01*
X152011905Y-102907200D02*
X151964286Y-102859580D01*
X115929580Y-139142857D02*
X115977200Y-139190476D01*
X115977200Y-139190476D02*
X116024819Y-139333333D01*
X116024819Y-139333333D02*
X116024819Y-139428571D01*
X116024819Y-139428571D02*
X115977200Y-139571428D01*
X115977200Y-139571428D02*
X115881961Y-139666666D01*
X115881961Y-139666666D02*
X115786723Y-139714285D01*
X115786723Y-139714285D02*
X115596247Y-139761904D01*
X115596247Y-139761904D02*
X115453390Y-139761904D01*
X115453390Y-139761904D02*
X115262914Y-139714285D01*
X115262914Y-139714285D02*
X115167676Y-139666666D01*
X115167676Y-139666666D02*
X115072438Y-139571428D01*
X115072438Y-139571428D02*
X115024819Y-139428571D01*
X115024819Y-139428571D02*
X115024819Y-139333333D01*
X115024819Y-139333333D02*
X115072438Y-139190476D01*
X115072438Y-139190476D02*
X115120057Y-139142857D01*
X115024819Y-138809523D02*
X115024819Y-138190476D01*
X115024819Y-138190476D02*
X115405771Y-138523809D01*
X115405771Y-138523809D02*
X115405771Y-138380952D01*
X115405771Y-138380952D02*
X115453390Y-138285714D01*
X115453390Y-138285714D02*
X115501009Y-138238095D01*
X115501009Y-138238095D02*
X115596247Y-138190476D01*
X115596247Y-138190476D02*
X115834342Y-138190476D01*
X115834342Y-138190476D02*
X115929580Y-138238095D01*
X115929580Y-138238095D02*
X115977200Y-138285714D01*
X115977200Y-138285714D02*
X116024819Y-138380952D01*
X116024819Y-138380952D02*
X116024819Y-138666666D01*
X116024819Y-138666666D02*
X115977200Y-138761904D01*
X115977200Y-138761904D02*
X115929580Y-138809523D01*
X115024819Y-137285714D02*
X115024819Y-137761904D01*
X115024819Y-137761904D02*
X115501009Y-137809523D01*
X115501009Y-137809523D02*
X115453390Y-137761904D01*
X115453390Y-137761904D02*
X115405771Y-137666666D01*
X115405771Y-137666666D02*
X115405771Y-137428571D01*
X115405771Y-137428571D02*
X115453390Y-137333333D01*
X115453390Y-137333333D02*
X115501009Y-137285714D01*
X115501009Y-137285714D02*
X115596247Y-137238095D01*
X115596247Y-137238095D02*
X115834342Y-137238095D01*
X115834342Y-137238095D02*
X115929580Y-137285714D01*
X115929580Y-137285714D02*
X115977200Y-137333333D01*
X115977200Y-137333333D02*
X116024819Y-137428571D01*
X116024819Y-137428571D02*
X116024819Y-137666666D01*
X116024819Y-137666666D02*
X115977200Y-137761904D01*
X115977200Y-137761904D02*
X115929580Y-137809523D01*
X134859580Y-136142857D02*
X134907200Y-136190476D01*
X134907200Y-136190476D02*
X134954819Y-136333333D01*
X134954819Y-136333333D02*
X134954819Y-136428571D01*
X134954819Y-136428571D02*
X134907200Y-136571428D01*
X134907200Y-136571428D02*
X134811961Y-136666666D01*
X134811961Y-136666666D02*
X134716723Y-136714285D01*
X134716723Y-136714285D02*
X134526247Y-136761904D01*
X134526247Y-136761904D02*
X134383390Y-136761904D01*
X134383390Y-136761904D02*
X134192914Y-136714285D01*
X134192914Y-136714285D02*
X134097676Y-136666666D01*
X134097676Y-136666666D02*
X134002438Y-136571428D01*
X134002438Y-136571428D02*
X133954819Y-136428571D01*
X133954819Y-136428571D02*
X133954819Y-136333333D01*
X133954819Y-136333333D02*
X134002438Y-136190476D01*
X134002438Y-136190476D02*
X134050057Y-136142857D01*
X133954819Y-135809523D02*
X133954819Y-135190476D01*
X133954819Y-135190476D02*
X134335771Y-135523809D01*
X134335771Y-135523809D02*
X134335771Y-135380952D01*
X134335771Y-135380952D02*
X134383390Y-135285714D01*
X134383390Y-135285714D02*
X134431009Y-135238095D01*
X134431009Y-135238095D02*
X134526247Y-135190476D01*
X134526247Y-135190476D02*
X134764342Y-135190476D01*
X134764342Y-135190476D02*
X134859580Y-135238095D01*
X134859580Y-135238095D02*
X134907200Y-135285714D01*
X134907200Y-135285714D02*
X134954819Y-135380952D01*
X134954819Y-135380952D02*
X134954819Y-135666666D01*
X134954819Y-135666666D02*
X134907200Y-135761904D01*
X134907200Y-135761904D02*
X134859580Y-135809523D01*
X133954819Y-134333333D02*
X133954819Y-134523809D01*
X133954819Y-134523809D02*
X134002438Y-134619047D01*
X134002438Y-134619047D02*
X134050057Y-134666666D01*
X134050057Y-134666666D02*
X134192914Y-134761904D01*
X134192914Y-134761904D02*
X134383390Y-134809523D01*
X134383390Y-134809523D02*
X134764342Y-134809523D01*
X134764342Y-134809523D02*
X134859580Y-134761904D01*
X134859580Y-134761904D02*
X134907200Y-134714285D01*
X134907200Y-134714285D02*
X134954819Y-134619047D01*
X134954819Y-134619047D02*
X134954819Y-134428571D01*
X134954819Y-134428571D02*
X134907200Y-134333333D01*
X134907200Y-134333333D02*
X134859580Y-134285714D01*
X134859580Y-134285714D02*
X134764342Y-134238095D01*
X134764342Y-134238095D02*
X134526247Y-134238095D01*
X134526247Y-134238095D02*
X134431009Y-134285714D01*
X134431009Y-134285714D02*
X134383390Y-134333333D01*
X134383390Y-134333333D02*
X134335771Y-134428571D01*
X134335771Y-134428571D02*
X134335771Y-134619047D01*
X134335771Y-134619047D02*
X134383390Y-134714285D01*
X134383390Y-134714285D02*
X134431009Y-134761904D01*
X134431009Y-134761904D02*
X134526247Y-134809523D01*
X113678628Y-125476190D02*
X114154819Y-125476190D01*
X113154819Y-125809523D02*
X113678628Y-125476190D01*
X113678628Y-125476190D02*
X113154819Y-125142857D01*
X114154819Y-124285714D02*
X114154819Y-124857142D01*
X114154819Y-124571428D02*
X113154819Y-124571428D01*
X113154819Y-124571428D02*
X113297676Y-124666666D01*
X113297676Y-124666666D02*
X113392914Y-124761904D01*
X113392914Y-124761904D02*
X113440533Y-124857142D01*
X91238095Y-147954819D02*
X91238095Y-146954819D01*
X91238095Y-147431009D02*
X91809523Y-147431009D01*
X91809523Y-147954819D02*
X91809523Y-146954819D01*
X92809523Y-147954819D02*
X92238095Y-147954819D01*
X92523809Y-147954819D02*
X92523809Y-146954819D01*
X92523809Y-146954819D02*
X92428571Y-147097676D01*
X92428571Y-147097676D02*
X92333333Y-147192914D01*
X92333333Y-147192914D02*
X92238095Y-147240533D01*
X103929580Y-123166666D02*
X103977200Y-123214285D01*
X103977200Y-123214285D02*
X104024819Y-123357142D01*
X104024819Y-123357142D02*
X104024819Y-123452380D01*
X104024819Y-123452380D02*
X103977200Y-123595237D01*
X103977200Y-123595237D02*
X103881961Y-123690475D01*
X103881961Y-123690475D02*
X103786723Y-123738094D01*
X103786723Y-123738094D02*
X103596247Y-123785713D01*
X103596247Y-123785713D02*
X103453390Y-123785713D01*
X103453390Y-123785713D02*
X103262914Y-123738094D01*
X103262914Y-123738094D02*
X103167676Y-123690475D01*
X103167676Y-123690475D02*
X103072438Y-123595237D01*
X103072438Y-123595237D02*
X103024819Y-123452380D01*
X103024819Y-123452380D02*
X103024819Y-123357142D01*
X103024819Y-123357142D02*
X103072438Y-123214285D01*
X103072438Y-123214285D02*
X103120057Y-123166666D01*
X103024819Y-122833332D02*
X103024819Y-122166666D01*
X103024819Y-122166666D02*
X104024819Y-122595237D01*
X130609580Y-116642857D02*
X130657200Y-116690476D01*
X130657200Y-116690476D02*
X130704819Y-116833333D01*
X130704819Y-116833333D02*
X130704819Y-116928571D01*
X130704819Y-116928571D02*
X130657200Y-117071428D01*
X130657200Y-117071428D02*
X130561961Y-117166666D01*
X130561961Y-117166666D02*
X130466723Y-117214285D01*
X130466723Y-117214285D02*
X130276247Y-117261904D01*
X130276247Y-117261904D02*
X130133390Y-117261904D01*
X130133390Y-117261904D02*
X129942914Y-117214285D01*
X129942914Y-117214285D02*
X129847676Y-117166666D01*
X129847676Y-117166666D02*
X129752438Y-117071428D01*
X129752438Y-117071428D02*
X129704819Y-116928571D01*
X129704819Y-116928571D02*
X129704819Y-116833333D01*
X129704819Y-116833333D02*
X129752438Y-116690476D01*
X129752438Y-116690476D02*
X129800057Y-116642857D01*
X130704819Y-115690476D02*
X130704819Y-116261904D01*
X130704819Y-115976190D02*
X129704819Y-115976190D01*
X129704819Y-115976190D02*
X129847676Y-116071428D01*
X129847676Y-116071428D02*
X129942914Y-116166666D01*
X129942914Y-116166666D02*
X129990533Y-116261904D01*
X129704819Y-115357142D02*
X129704819Y-114738095D01*
X129704819Y-114738095D02*
X130085771Y-115071428D01*
X130085771Y-115071428D02*
X130085771Y-114928571D01*
X130085771Y-114928571D02*
X130133390Y-114833333D01*
X130133390Y-114833333D02*
X130181009Y-114785714D01*
X130181009Y-114785714D02*
X130276247Y-114738095D01*
X130276247Y-114738095D02*
X130514342Y-114738095D01*
X130514342Y-114738095D02*
X130609580Y-114785714D01*
X130609580Y-114785714D02*
X130657200Y-114833333D01*
X130657200Y-114833333D02*
X130704819Y-114928571D01*
X130704819Y-114928571D02*
X130704819Y-115214285D01*
X130704819Y-115214285D02*
X130657200Y-115309523D01*
X130657200Y-115309523D02*
X130609580Y-115357142D01*
X156857142Y-126859580D02*
X156809523Y-126907200D01*
X156809523Y-126907200D02*
X156666666Y-126954819D01*
X156666666Y-126954819D02*
X156571428Y-126954819D01*
X156571428Y-126954819D02*
X156428571Y-126907200D01*
X156428571Y-126907200D02*
X156333333Y-126811961D01*
X156333333Y-126811961D02*
X156285714Y-126716723D01*
X156285714Y-126716723D02*
X156238095Y-126526247D01*
X156238095Y-126526247D02*
X156238095Y-126383390D01*
X156238095Y-126383390D02*
X156285714Y-126192914D01*
X156285714Y-126192914D02*
X156333333Y-126097676D01*
X156333333Y-126097676D02*
X156428571Y-126002438D01*
X156428571Y-126002438D02*
X156571428Y-125954819D01*
X156571428Y-125954819D02*
X156666666Y-125954819D01*
X156666666Y-125954819D02*
X156809523Y-126002438D01*
X156809523Y-126002438D02*
X156857142Y-126050057D01*
X157238095Y-126050057D02*
X157285714Y-126002438D01*
X157285714Y-126002438D02*
X157380952Y-125954819D01*
X157380952Y-125954819D02*
X157619047Y-125954819D01*
X157619047Y-125954819D02*
X157714285Y-126002438D01*
X157714285Y-126002438D02*
X157761904Y-126050057D01*
X157761904Y-126050057D02*
X157809523Y-126145295D01*
X157809523Y-126145295D02*
X157809523Y-126240533D01*
X157809523Y-126240533D02*
X157761904Y-126383390D01*
X157761904Y-126383390D02*
X157190476Y-126954819D01*
X157190476Y-126954819D02*
X157809523Y-126954819D01*
X158285714Y-126954819D02*
X158476190Y-126954819D01*
X158476190Y-126954819D02*
X158571428Y-126907200D01*
X158571428Y-126907200D02*
X158619047Y-126859580D01*
X158619047Y-126859580D02*
X158714285Y-126716723D01*
X158714285Y-126716723D02*
X158761904Y-126526247D01*
X158761904Y-126526247D02*
X158761904Y-126145295D01*
X158761904Y-126145295D02*
X158714285Y-126050057D01*
X158714285Y-126050057D02*
X158666666Y-126002438D01*
X158666666Y-126002438D02*
X158571428Y-125954819D01*
X158571428Y-125954819D02*
X158380952Y-125954819D01*
X158380952Y-125954819D02*
X158285714Y-126002438D01*
X158285714Y-126002438D02*
X158238095Y-126050057D01*
X158238095Y-126050057D02*
X158190476Y-126145295D01*
X158190476Y-126145295D02*
X158190476Y-126383390D01*
X158190476Y-126383390D02*
X158238095Y-126478628D01*
X158238095Y-126478628D02*
X158285714Y-126526247D01*
X158285714Y-126526247D02*
X158380952Y-126573866D01*
X158380952Y-126573866D02*
X158571428Y-126573866D01*
X158571428Y-126573866D02*
X158666666Y-126526247D01*
X158666666Y-126526247D02*
X158714285Y-126478628D01*
X158714285Y-126478628D02*
X158761904Y-126383390D01*
X96204819Y-98683333D02*
X96919104Y-98683333D01*
X96919104Y-98683333D02*
X97061961Y-98730952D01*
X97061961Y-98730952D02*
X97157200Y-98826190D01*
X97157200Y-98826190D02*
X97204819Y-98969047D01*
X97204819Y-98969047D02*
X97204819Y-99064285D01*
X96300057Y-98254761D02*
X96252438Y-98207142D01*
X96252438Y-98207142D02*
X96204819Y-98111904D01*
X96204819Y-98111904D02*
X96204819Y-97873809D01*
X96204819Y-97873809D02*
X96252438Y-97778571D01*
X96252438Y-97778571D02*
X96300057Y-97730952D01*
X96300057Y-97730952D02*
X96395295Y-97683333D01*
X96395295Y-97683333D02*
X96490533Y-97683333D01*
X96490533Y-97683333D02*
X96633390Y-97730952D01*
X96633390Y-97730952D02*
X97204819Y-98302380D01*
X97204819Y-98302380D02*
X97204819Y-97683333D01*
X105874819Y-111583333D02*
X106589104Y-111583333D01*
X106589104Y-111583333D02*
X106731961Y-111630952D01*
X106731961Y-111630952D02*
X106827200Y-111726190D01*
X106827200Y-111726190D02*
X106874819Y-111869047D01*
X106874819Y-111869047D02*
X106874819Y-111964285D01*
X105874819Y-111202380D02*
X105874819Y-110583333D01*
X105874819Y-110583333D02*
X106255771Y-110916666D01*
X106255771Y-110916666D02*
X106255771Y-110773809D01*
X106255771Y-110773809D02*
X106303390Y-110678571D01*
X106303390Y-110678571D02*
X106351009Y-110630952D01*
X106351009Y-110630952D02*
X106446247Y-110583333D01*
X106446247Y-110583333D02*
X106684342Y-110583333D01*
X106684342Y-110583333D02*
X106779580Y-110630952D01*
X106779580Y-110630952D02*
X106827200Y-110678571D01*
X106827200Y-110678571D02*
X106874819Y-110773809D01*
X106874819Y-110773809D02*
X106874819Y-111059523D01*
X106874819Y-111059523D02*
X106827200Y-111154761D01*
X106827200Y-111154761D02*
X106779580Y-111202380D01*
D11*
%TO.C,U2*%
X120390000Y-118890000D02*
X120940000Y-118890000D01*
X120390000Y-126560000D02*
X120390000Y-127110000D01*
X120390000Y-127110000D02*
X120940000Y-127110000D01*
X120390000Y-119440000D02*
X120390000Y-118890000D01*
X128610000Y-119440000D02*
X128610000Y-118890000D01*
X128610000Y-127110000D02*
X128060000Y-127110000D01*
X128610000Y-126560000D02*
X128610000Y-127110000D01*
%TO.C,RV3*%
X140970000Y-142380000D02*
X139371000Y-142380000D01*
X140970000Y-142380000D02*
X140970000Y-146245000D01*
X137629000Y-142380000D02*
X136870000Y-142380000D01*
X135129000Y-142380000D02*
X134370000Y-142380000D01*
X132630000Y-142380000D02*
X131030000Y-142380000D01*
X131030000Y-142380000D02*
X131030000Y-146245000D01*
X140970000Y-150755000D02*
X140970000Y-154620000D01*
X131030000Y-150755000D02*
X131030000Y-154620000D01*
X140970000Y-154620000D02*
X131030000Y-154620000D01*
%TO.C,C1*%
X124010000Y-130837221D02*
X124010000Y-131162779D01*
X122990000Y-130837221D02*
X122990000Y-131162779D01*
%TO.C,C2*%
X132337221Y-125490000D02*
X132662779Y-125490000D01*
X132337221Y-126510000D02*
X132662779Y-126510000D01*
%TO.C,C3*%
X116912779Y-117760000D02*
X116587221Y-117760000D01*
X116912779Y-116740000D02*
X116587221Y-116740000D01*
%TO.C,C4*%
X127510000Y-130837221D02*
X127510000Y-131162779D01*
X126490000Y-130837221D02*
X126490000Y-131162779D01*
%TO.C,C5*%
X118990000Y-116662779D02*
X118990000Y-116337221D01*
X120010000Y-116662779D02*
X120010000Y-116337221D01*
%TO.C,C6*%
X116912779Y-119510000D02*
X116587221Y-119510000D01*
X116912779Y-118490000D02*
X116587221Y-118490000D01*
%TO.C,C8*%
X104490000Y-115162779D02*
X104490000Y-114837221D01*
X105510000Y-115162779D02*
X105510000Y-114837221D01*
%TO.C,C9*%
X121260000Y-129337221D02*
X121260000Y-129662779D01*
X120240000Y-129337221D02*
X120240000Y-129662779D01*
%TO.C,C10*%
X125760000Y-130837221D02*
X125760000Y-131162779D01*
X124740000Y-130837221D02*
X124740000Y-131162779D01*
%TO.C,C11*%
X132337221Y-127240000D02*
X132662779Y-127240000D01*
X132337221Y-128260000D02*
X132662779Y-128260000D01*
%TO.C,C12*%
X132337221Y-123740000D02*
X132662779Y-123740000D01*
X132337221Y-124760000D02*
X132662779Y-124760000D01*
%TO.C,C14*%
X101162779Y-115510000D02*
X100837221Y-115510000D01*
X101162779Y-114490000D02*
X100837221Y-114490000D01*
%TO.C,C15*%
X103290000Y-108258578D02*
X103290000Y-107741422D01*
X104710000Y-108258578D02*
X104710000Y-107741422D01*
%TO.C,C16*%
X91540000Y-106008578D02*
X91540000Y-105491422D01*
X92960000Y-106008578D02*
X92960000Y-105491422D01*
%TO.C,C17*%
X94258578Y-109960000D02*
X93741422Y-109960000D01*
X94258578Y-108540000D02*
X93741422Y-108540000D01*
%TO.C,C18*%
X116337221Y-120240000D02*
X116662779Y-120240000D01*
X116337221Y-121260000D02*
X116662779Y-121260000D01*
%TO.C,C19*%
X116662779Y-129760000D02*
X116337221Y-129760000D01*
X116662779Y-128740000D02*
X116337221Y-128740000D01*
%TO.C,C20*%
X141790000Y-108662779D02*
X141790000Y-108337221D01*
X142810000Y-108662779D02*
X142810000Y-108337221D01*
%TO.C,C21*%
X143590000Y-108696078D02*
X143590000Y-108178922D01*
X145010000Y-108696078D02*
X145010000Y-108178922D01*
%TO.C,C22*%
X136810000Y-113337221D02*
X136810000Y-113662779D01*
X135790000Y-113337221D02*
X135790000Y-113662779D01*
%TO.C,C23*%
X140040000Y-113508578D02*
X140040000Y-112991422D01*
X141460000Y-113508578D02*
X141460000Y-112991422D01*
%TO.C,C24*%
X139010000Y-113241422D02*
X139010000Y-113758578D01*
X137590000Y-113241422D02*
X137590000Y-113758578D01*
%TO.C,C25*%
X145790000Y-120058578D02*
X145790000Y-119541422D01*
X147210000Y-120058578D02*
X147210000Y-119541422D01*
%TO.C,C26*%
X153790000Y-120058578D02*
X153790000Y-119541422D01*
X155210000Y-120058578D02*
X155210000Y-119541422D01*
%TO.C,C27*%
X101337221Y-138490000D02*
X101662779Y-138490000D01*
X101337221Y-139510000D02*
X101662779Y-139510000D01*
%TO.C,C28*%
X143337221Y-124290000D02*
X143662779Y-124290000D01*
X143337221Y-125310000D02*
X143662779Y-125310000D01*
%TO.C,C30*%
X145790000Y-128058578D02*
X145790000Y-127541422D01*
X147210000Y-128058578D02*
X147210000Y-127541422D01*
%TO.C,C31*%
X153790000Y-128058578D02*
X153790000Y-127541422D01*
X155210000Y-128058578D02*
X155210000Y-127541422D01*
%TO.C,C32*%
X155240000Y-134662779D02*
X155240000Y-134337221D01*
X156260000Y-134662779D02*
X156260000Y-134337221D01*
%TO.C,C33*%
X144990000Y-134662779D02*
X144990000Y-134337221D01*
X146010000Y-134662779D02*
X146010000Y-134337221D01*
%TO.C,C34*%
X150450279Y-137310000D02*
X150124721Y-137310000D01*
X150450279Y-136290000D02*
X150124721Y-136290000D01*
%TO.C,FB1*%
X102260000Y-112337221D02*
X102260000Y-112662779D01*
X101240000Y-112337221D02*
X101240000Y-112662779D01*
%TO.C,J1*%
X93450000Y-115040000D02*
X96050000Y-115040000D01*
X90550000Y-115040000D02*
X88890000Y-115040000D01*
X88890000Y-115040000D02*
X88890000Y-122960000D01*
X98360000Y-115800000D02*
X98360000Y-116950000D01*
X98950000Y-116950000D02*
X98950000Y-117650000D01*
X98360000Y-116950000D02*
X98950000Y-116950000D01*
X98360000Y-121050000D02*
X98360000Y-122200000D01*
X96050000Y-122960000D02*
X93450000Y-122960000D01*
X88890000Y-122960000D02*
X90550000Y-122960000D01*
%TO.C,J6*%
X159320000Y-138880000D02*
X159320000Y-140780000D01*
X145080000Y-138880000D02*
X159320000Y-138880000D01*
X163320000Y-140780000D02*
X163320000Y-147020000D01*
X159320000Y-140780000D02*
X163320000Y-140780000D01*
X163320000Y-147020000D02*
X159320000Y-147020000D01*
X159320000Y-147020000D02*
X159320000Y-147320000D01*
X159320000Y-147320000D02*
X145080000Y-147320000D01*
X145080000Y-147320000D02*
X145080000Y-138880000D01*
%TO.C,R1*%
X99510000Y-126837221D02*
X99510000Y-127162779D01*
X98490000Y-126837221D02*
X98490000Y-127162779D01*
%TO.C,R2*%
X104162779Y-120510000D02*
X103837221Y-120510000D01*
X104162779Y-119490000D02*
X103837221Y-119490000D01*
%TO.C,R3*%
X104162779Y-118510000D02*
X103837221Y-118510000D01*
X104162779Y-117490000D02*
X103837221Y-117490000D01*
%TO.C,R4*%
X100490000Y-104162779D02*
X100490000Y-103837221D01*
X101510000Y-104162779D02*
X101510000Y-103837221D01*
%TO.C,R5*%
X93740000Y-106162779D02*
X93740000Y-105837221D01*
X94760000Y-106162779D02*
X94760000Y-105837221D01*
%TO.C,R6*%
X143337221Y-120290000D02*
X143662779Y-120290000D01*
X143337221Y-121310000D02*
X143662779Y-121310000D01*
%TO.C,R7*%
X157087221Y-120240000D02*
X157412779Y-120240000D01*
X157087221Y-121260000D02*
X157412779Y-121260000D01*
%TO.C,R8*%
X145990000Y-123962779D02*
X145990000Y-123637221D01*
X147010000Y-123962779D02*
X147010000Y-123637221D01*
%TO.C,R9*%
X153990000Y-123962779D02*
X153990000Y-123637221D01*
X155010000Y-123962779D02*
X155010000Y-123637221D01*
%TO.C,R10*%
X150500000Y-126210000D02*
X150500000Y-122900000D01*
X149130000Y-122900000D02*
X151870000Y-122900000D01*
X151870000Y-122900000D02*
X151870000Y-116360000D01*
X149130000Y-116360000D02*
X149130000Y-122900000D01*
X151870000Y-116360000D02*
X149130000Y-116360000D01*
X150500000Y-113050000D02*
X150500000Y-116360000D01*
%TO.C,RV1*%
X106970000Y-142380000D02*
X105371000Y-142380000D01*
X106970000Y-142380000D02*
X106970000Y-146245000D01*
X103629000Y-142380000D02*
X102870000Y-142380000D01*
X101129000Y-142380000D02*
X100370000Y-142380000D01*
X98630000Y-142380000D02*
X97030000Y-142380000D01*
X97030000Y-142380000D02*
X97030000Y-146245000D01*
X106970000Y-150755000D02*
X106970000Y-154620000D01*
X97030000Y-150755000D02*
X97030000Y-154620000D01*
X106970000Y-154620000D02*
X97030000Y-154620000D01*
%TO.C,RV2*%
X123970000Y-142380000D02*
X122371000Y-142380000D01*
X123970000Y-142380000D02*
X123970000Y-146245000D01*
X120629000Y-142380000D02*
X119870000Y-142380000D01*
X118129000Y-142380000D02*
X117370000Y-142380000D01*
X115630000Y-142380000D02*
X114030000Y-142380000D01*
X114030000Y-142380000D02*
X114030000Y-146245000D01*
X123970000Y-150755000D02*
X123970000Y-154620000D01*
X114030000Y-150755000D02*
X114030000Y-154620000D01*
X123970000Y-154620000D02*
X114030000Y-154620000D01*
%TO.C,SW1*%
X134750000Y-98500000D02*
X134750000Y-97000000D01*
X133500000Y-94500000D02*
X129000000Y-94500000D01*
X129000000Y-101000000D02*
X133500000Y-101000000D01*
X127750000Y-97000000D02*
X127750000Y-98500000D01*
%TO.C,SW2*%
X137750000Y-97000000D02*
X137750000Y-98500000D01*
X139000000Y-101000000D02*
X143500000Y-101000000D01*
X143500000Y-94500000D02*
X139000000Y-94500000D01*
X144750000Y-98500000D02*
X144750000Y-97000000D01*
%TO.C,U1*%
X99000000Y-109610000D02*
X101875000Y-109610000D01*
X99000000Y-109610000D02*
X97500000Y-109610000D01*
X99000000Y-106390000D02*
X100500000Y-106390000D01*
X99000000Y-106390000D02*
X97500000Y-106390000D01*
D10*
%TO.C,U3*%
X136675000Y-107875000D02*
X136675000Y-108050000D01*
X136675000Y-107875000D02*
X139925000Y-107875000D01*
X136675000Y-108050000D02*
X135600000Y-108050000D01*
X136675000Y-111125000D02*
X136675000Y-110850000D01*
X136675000Y-111125000D02*
X139925000Y-111125000D01*
X139925000Y-107875000D02*
X139925000Y-108150000D01*
X139925000Y-111125000D02*
X139925000Y-110850000D01*
D11*
%TO.C,U4*%
X150500000Y-130190000D02*
X146900000Y-130190000D01*
X150500000Y-130190000D02*
X152700000Y-130190000D01*
X150500000Y-135410000D02*
X148300000Y-135410000D01*
X150500000Y-135410000D02*
X152700000Y-135410000D01*
%TO.C,SW3*%
X154750000Y-98500000D02*
X154750000Y-97000000D01*
X153500000Y-94500000D02*
X149000000Y-94500000D01*
X149000000Y-101000000D02*
X153500000Y-101000000D01*
X147750000Y-97000000D02*
X147750000Y-98500000D01*
%TO.C,C35*%
X116490000Y-138662779D02*
X116490000Y-138337221D01*
X117510000Y-138662779D02*
X117510000Y-138337221D01*
%TO.C,C36*%
X133990000Y-138662779D02*
X133990000Y-138337221D01*
X135010000Y-138662779D02*
X135010000Y-138337221D01*
%TO.C,Y1*%
X116900000Y-128100000D02*
X116900000Y-127700000D01*
X116900000Y-127700000D02*
X116100000Y-127700000D01*
X114700000Y-125900000D02*
X114700000Y-124100000D01*
X118300000Y-125900000D02*
X118540000Y-125900000D01*
X118300000Y-124100000D02*
X118300000Y-125900000D01*
X116100000Y-122300000D02*
X116900000Y-122300000D01*
%TO.C,C7*%
X104490000Y-123162779D02*
X104490000Y-122837221D01*
X105510000Y-123162779D02*
X105510000Y-122837221D01*
%TO.C,C13*%
X131240000Y-117912779D02*
X131240000Y-117587221D01*
X132260000Y-117912779D02*
X132260000Y-117587221D01*
%TO.C,C29*%
X157337221Y-124290000D02*
X157662779Y-124290000D01*
X157337221Y-125310000D02*
X157662779Y-125310000D01*
%TO.C,J2*%
X98420000Y-98180000D02*
X98420000Y-96850000D01*
X99750000Y-98180000D02*
X98420000Y-98180000D01*
X101020000Y-98180000D02*
X123940000Y-98180000D01*
X101020000Y-98180000D02*
X101020000Y-95580000D01*
X123940000Y-98180000D02*
X123940000Y-92980000D01*
X98420000Y-95580000D02*
X98420000Y-92980000D01*
X101020000Y-95580000D02*
X98420000Y-95580000D01*
X98420000Y-92980000D02*
X123940000Y-92980000D01*
%TO.C,J3*%
X107420000Y-112580000D02*
X107420000Y-111250000D01*
X108750000Y-112580000D02*
X107420000Y-112580000D01*
X110020000Y-112580000D02*
X120240000Y-112580000D01*
X110020000Y-112580000D02*
X110020000Y-109920000D01*
X120240000Y-112580000D02*
X120240000Y-109920000D01*
X110020000Y-109920000D02*
X120240000Y-109920000D01*
%TD*%
M02*
