%TF.GenerationSoftware,KiCad,Pcbnew,7.0.7*%
%TF.CreationDate,2023-09-03T16:08:26-07:00*%
%TF.ProjectId,headphone_dac,68656164-7068-46f6-9e65-5f6461632e6b,rev?*%
%TF.SameCoordinates,Original*%
%TF.FileFunction,Copper,L2,Bot*%
%TF.FilePolarity,Positive*%
%FSLAX46Y46*%
G04 Gerber Fmt 4.6, Leading zero omitted, Abs format (unit mm)*
G04 Created by KiCad (PCBNEW 7.0.7) date 2023-09-03 16:08:26*
%MOMM*%
%LPD*%
G01*
G04 APERTURE LIST*
%TA.AperFunction,ComponentPad*%
%ADD10C,0.500000*%
%TD*%
%TA.AperFunction,SMDPad,CuDef*%
%ADD11R,5.200000X5.200000*%
%TD*%
%TA.AperFunction,WasherPad*%
%ADD12C,4.000000*%
%TD*%
%TA.AperFunction,ComponentPad*%
%ADD13C,1.800000*%
%TD*%
%TA.AperFunction,ComponentPad*%
%ADD14O,1.800000X2.800000*%
%TD*%
%TA.AperFunction,ComponentPad*%
%ADD15C,1.600000*%
%TD*%
%TA.AperFunction,ComponentPad*%
%ADD16O,1.600000X1.600000*%
%TD*%
%TA.AperFunction,ComponentPad*%
%ADD17C,2.000000*%
%TD*%
%TA.AperFunction,SMDPad,CuDef*%
%ADD18R,1.600000X1.800000*%
%TD*%
%TA.AperFunction,ComponentPad*%
%ADD19C,6.000000*%
%TD*%
%TA.AperFunction,ComponentPad*%
%ADD20C,0.800000*%
%TD*%
%TA.AperFunction,ComponentPad*%
%ADD21R,1.700000X1.700000*%
%TD*%
%TA.AperFunction,ComponentPad*%
%ADD22O,1.700000X1.700000*%
%TD*%
%TA.AperFunction,ViaPad*%
%ADD23C,0.600000*%
%TD*%
%TA.AperFunction,Conductor*%
%ADD24C,0.200000*%
%TD*%
%TA.AperFunction,Conductor*%
%ADD25C,0.300000*%
%TD*%
%TA.AperFunction,Conductor*%
%ADD26C,0.500000*%
%TD*%
%TA.AperFunction,Conductor*%
%ADD27C,0.400000*%
%TD*%
G04 APERTURE END LIST*
D10*
%TO.P,U2,69*%
%TO.N,GND*%
X126850000Y-124175000D03*
X125675000Y-123000000D03*
X124500000Y-121825000D03*
X122150000Y-121825000D03*
X122150000Y-124175000D03*
X122150000Y-120650000D03*
X125675000Y-124175000D03*
X125675000Y-120650000D03*
X126850000Y-123000000D03*
X126850000Y-121825000D03*
X126850000Y-125350000D03*
X123325000Y-121825000D03*
X123325000Y-125350000D03*
X124500000Y-125350000D03*
X122150000Y-123000000D03*
X125675000Y-121825000D03*
X126850000Y-120650000D03*
X122150000Y-125350000D03*
X123325000Y-124175000D03*
X124500000Y-120650000D03*
D11*
X124500000Y-123000000D03*
D10*
X125675000Y-125350000D03*
X124500000Y-123000000D03*
X123325000Y-123000000D03*
X123325000Y-120650000D03*
X124500000Y-124175000D03*
%TD*%
D12*
%TO.P,RV3,*%
%TO.N,*%
X140400000Y-148500000D03*
X131600000Y-148500000D03*
D13*
%TO.P,RV3,1*%
%TO.N,/as*%
X133500000Y-141500000D03*
%TO.P,RV3,2*%
%TO.N,/a2*%
X136000000Y-141500000D03*
%TO.P,RV3,3*%
%TO.N,GND*%
X138500000Y-141500000D03*
%TD*%
D14*
%TO.P,J6,R*%
%TO.N,Net-(J6-PadR)*%
X150100000Y-145000000D03*
%TO.P,J6,RN*%
%TO.N,N/C*%
X151900000Y-143000000D03*
%TO.P,J6,S*%
%TO.N,GND*%
X158000000Y-143000000D03*
%TO.P,J6,T*%
%TO.N,Net-(J6-PadT)*%
X155600000Y-145000000D03*
%TO.P,J6,TN*%
%TO.N,N/C*%
X146400000Y-143000000D03*
%TD*%
D15*
%TO.P,R10,1*%
%TO.N,Net-(R10-Pad1)*%
X150500000Y-127250000D03*
D16*
%TO.P,R10,2*%
%TO.N,GND*%
X150500000Y-112010000D03*
%TD*%
D12*
%TO.P,RV1,*%
%TO.N,*%
X106400000Y-148500000D03*
X97600000Y-148500000D03*
D13*
%TO.P,RV1,1*%
%TO.N,/as*%
X99500000Y-141500000D03*
%TO.P,RV1,2*%
%TO.N,/a0*%
X102000000Y-141500000D03*
%TO.P,RV1,3*%
%TO.N,GND*%
X104500000Y-141500000D03*
%TD*%
D12*
%TO.P,RV2,*%
%TO.N,*%
X123400000Y-148500000D03*
X114600000Y-148500000D03*
D13*
%TO.P,RV2,1*%
%TO.N,/as*%
X116500000Y-141500000D03*
%TO.P,RV2,2*%
%TO.N,/a1*%
X119000000Y-141500000D03*
%TO.P,RV2,3*%
%TO.N,GND*%
X121500000Y-141500000D03*
%TD*%
D17*
%TO.P,SW1,1*%
%TO.N,/sw1*%
X134500000Y-100000000D03*
%TO.N,N/C*%
X128000000Y-100000000D03*
%TO.P,SW1,2*%
%TO.N,GND*%
X134500000Y-95500000D03*
X128000000Y-95500000D03*
%TD*%
%TO.P,SW2,1*%
%TO.N,GND*%
X138000000Y-95500000D03*
X144500000Y-95500000D03*
%TO.P,SW2,2*%
%TO.N,/sw2*%
X138000000Y-100000000D03*
%TO.N,N/C*%
X144500000Y-100000000D03*
%TD*%
D10*
%TO.P,U1,11*%
%TO.N,GND*%
X99550000Y-108650000D03*
X99550000Y-107350000D03*
D18*
X99000000Y-108000000D03*
D10*
X98450000Y-108650000D03*
X98450000Y-107350000D03*
%TD*%
D17*
%TO.P,SW3,1*%
%TO.N,N/C*%
X154500000Y-100000000D03*
%TO.N,/sw3*%
X148000000Y-100000000D03*
%TO.P,SW3,2*%
%TO.N,GND*%
X154500000Y-95500000D03*
X148000000Y-95500000D03*
%TD*%
D19*
%TO.P,H2,1*%
%TO.N,Net-(H2-Pad1)*%
X92000000Y-96000000D03*
%TD*%
%TO.P,H3,1*%
%TO.N,Net-(H3-Pad1)*%
X160500000Y-96000000D03*
%TD*%
%TO.P,H4,1*%
%TO.N,Net-(H4-Pad1)*%
X160500000Y-151500000D03*
%TD*%
D20*
%TO.P,H1,1*%
%TO.N,GND*%
X89750000Y-151500000D03*
X90409010Y-149909010D03*
X90409010Y-153090990D03*
X92000000Y-149250000D03*
D19*
X92000000Y-151500000D03*
D20*
X92000000Y-153750000D03*
X93590990Y-149909010D03*
X93590990Y-153090990D03*
X94250000Y-151500000D03*
%TD*%
D21*
%TO.P,J2,1*%
%TO.N,GND*%
X99750000Y-96850000D03*
D22*
%TO.P,J2,2*%
%TO.N,+3V3*%
X99750000Y-94310000D03*
%TO.P,J2,3*%
%TO.N,/bt_gp6*%
X102290000Y-96850000D03*
%TO.P,J2,4*%
%TO.N,Net-(J2-Pad4)*%
X102290000Y-94310000D03*
%TO.P,J2,5*%
%TO.N,/bt_gp7*%
X104830000Y-96850000D03*
%TO.P,J2,6*%
%TO.N,Net-(J2-Pad6)*%
X104830000Y-94310000D03*
%TO.P,J2,7*%
%TO.N,/bt_rst*%
X107370000Y-96850000D03*
%TO.P,J2,8*%
%TO.N,/bt_gp2*%
X107370000Y-94310000D03*
%TO.P,J2,9*%
%TO.N,Net-(J2-Pad9)*%
X109910000Y-96850000D03*
%TO.P,J2,10*%
%TO.N,/bt_gp3*%
X109910000Y-94310000D03*
%TO.P,J2,11*%
%TO.N,/bt_rts*%
X112450000Y-96850000D03*
%TO.P,J2,12*%
%TO.N,/bt_rx*%
X112450000Y-94310000D03*
%TO.P,J2,13*%
%TO.N,/bt_cts*%
X114990000Y-96850000D03*
%TO.P,J2,14*%
%TO.N,/bt_tx*%
X114990000Y-94310000D03*
%TO.P,J2,15*%
%TO.N,/bt_gp4*%
X117530000Y-96850000D03*
%TO.P,J2,16*%
%TO.N,/bt_gp5*%
X117530000Y-94310000D03*
%TO.P,J2,17*%
%TO.N,Net-(J2-Pad17)*%
X120070000Y-96850000D03*
%TO.P,J2,18*%
%TO.N,Net-(J2-Pad18)*%
X120070000Y-94310000D03*
%TO.P,J2,19*%
%TO.N,Net-(J2-Pad19)*%
X122610000Y-96850000D03*
%TO.P,J2,20*%
%TO.N,Net-(J2-Pad20)*%
X122610000Y-94310000D03*
%TD*%
D21*
%TO.P,J3,1*%
%TO.N,+3V3*%
X108750000Y-111250000D03*
D22*
%TO.P,J3,2*%
%TO.N,GND*%
X111290000Y-111250000D03*
%TO.P,J3,3*%
%TO.N,/xres*%
X113830000Y-111250000D03*
%TO.P,J3,4*%
%TO.N,/swdck*%
X116370000Y-111250000D03*
%TO.P,J3,5*%
%TO.N,/swdio*%
X118910000Y-111250000D03*
%TD*%
D23*
%TO.N,GND*%
X133500000Y-137750000D03*
X135000000Y-114250000D03*
X103000000Y-139000000D03*
X142000000Y-120750000D03*
X138750000Y-115250000D03*
X92250000Y-109250000D03*
X140750000Y-115000000D03*
X148750000Y-132250000D03*
X101000000Y-102500000D03*
X92250000Y-104000000D03*
X134000000Y-126000000D03*
X114750000Y-120000000D03*
X139500000Y-109500000D03*
X145500000Y-136000000D03*
X125250000Y-132500000D03*
X115250000Y-117250000D03*
X158750000Y-120750000D03*
X120750000Y-131000000D03*
X151000000Y-132750000D03*
X134000000Y-124250000D03*
X142250000Y-107000000D03*
X123500000Y-132500000D03*
X100250000Y-114250000D03*
X105000000Y-124500000D03*
X116250000Y-127000000D03*
X127000000Y-132500000D03*
X105000000Y-113500000D03*
X159000000Y-124750000D03*
X116750000Y-123000000D03*
X104000000Y-106250000D03*
X119500000Y-115000000D03*
X99000000Y-128500000D03*
X99250000Y-120750000D03*
X142000000Y-125000000D03*
X94250000Y-104500000D03*
X144250000Y-106750000D03*
X133250000Y-116750000D03*
X117000000Y-137000000D03*
X134000000Y-127750000D03*
X155750000Y-136000000D03*
%TO.N,/vccd*%
X119250000Y-122800000D03*
X129912500Y-124200000D03*
%TO.N,+3V3*%
X156750000Y-133750000D03*
X141250000Y-136500000D03*
X117500000Y-116500000D03*
X128000000Y-130250000D03*
X146500000Y-107500000D03*
X145750000Y-107500000D03*
X120000000Y-128750000D03*
X131750000Y-128500000D03*
X132850010Y-118500000D03*
X145750000Y-109500000D03*
X146500000Y-109500000D03*
X132850010Y-122899990D03*
%TO.N,/usb_d+*%
X118750000Y-119500000D03*
X108500000Y-119000000D03*
%TO.N,/usb_d-*%
X118850000Y-121250000D03*
X110050013Y-119000000D03*
%TO.N,+5V*%
X95750000Y-106750000D03*
X102750000Y-110250000D03*
%TO.N,/bt_tx*%
X116050003Y-103500000D03*
%TO.N,/bt_rx*%
X115250000Y-103500000D03*
%TO.N,/~{mute}*%
X133250000Y-131500000D03*
X146250000Y-132500000D03*
%TO.N,/sw1*%
X136000000Y-118500000D03*
%TO.N,/sw2*%
X136800003Y-118500000D03*
%TO.N,/sw3*%
X137600006Y-118500000D03*
%TD*%
D24*
%TO.N,GND*%
X138500000Y-141500000D02*
X140500000Y-141500000D01*
X128000000Y-95500000D02*
X131500000Y-95500000D01*
X131500000Y-95500000D02*
X134500000Y-95500000D01*
X104500000Y-141500000D02*
X106250000Y-141500000D01*
D25*
X150500000Y-112010000D02*
X147297998Y-112010000D01*
X111290000Y-111250000D02*
X111290000Y-109540000D01*
D24*
X141250000Y-95500000D02*
X138000000Y-95500000D01*
X151250000Y-95500000D02*
X154500000Y-95500000D01*
X121500000Y-141500000D02*
X123250000Y-141500000D01*
X144500000Y-95500000D02*
X141250000Y-95500000D01*
X148000000Y-95500000D02*
X151250000Y-95500000D01*
%TO.N,/vccd*%
X119250000Y-122800000D02*
X119250000Y-124750000D01*
X120750000Y-126250000D02*
X128750000Y-126250000D01*
X119250000Y-124750000D02*
X120750000Y-126250000D01*
X128750000Y-126250000D02*
X129912500Y-125087500D01*
X129912500Y-125087500D02*
X129912500Y-124200000D01*
D26*
%TO.N,+3V3*%
X145750000Y-109500000D02*
X145750000Y-107500000D01*
X146500000Y-109500000D02*
X146500000Y-107500000D01*
D27*
X132850010Y-122899990D02*
X132850010Y-118500000D01*
X144000000Y-133750000D02*
X141250000Y-136500000D01*
X132250000Y-123500000D02*
X132850010Y-122899990D01*
X156750000Y-133750000D02*
X144000000Y-133750000D01*
D24*
%TO.N,/usb_d+*%
X117649999Y-118399999D02*
X109100001Y-118399999D01*
X118750000Y-119500000D02*
X117649999Y-118399999D01*
X109100001Y-118399999D02*
X108500000Y-119000000D01*
%TO.N,/usb_d-*%
X118850000Y-121250000D02*
X116600000Y-119000000D01*
X116600000Y-119000000D02*
X110050013Y-119000000D01*
D25*
%TO.N,+5V*%
X97250000Y-110250000D02*
X102750000Y-110250000D01*
X95750000Y-108750000D02*
X97250000Y-110250000D01*
X95750000Y-106750000D02*
X95750000Y-108750000D01*
D24*
%TO.N,/bt_tx*%
X116350002Y-103200001D02*
X116350002Y-95670002D01*
X116350002Y-95670002D02*
X114990000Y-94310000D01*
X116050003Y-103500000D02*
X116350002Y-103200001D01*
%TO.N,/bt_rx*%
X113600001Y-101850001D02*
X113600001Y-95460001D01*
X113600001Y-95460001D02*
X112450000Y-94310000D01*
X115250000Y-103500000D02*
X113600001Y-101850001D01*
%TO.N,/~{mute}*%
X145250000Y-132500000D02*
X146250000Y-132500000D01*
X144250000Y-131500000D02*
X145250000Y-132500000D01*
X133250000Y-131500000D02*
X144250000Y-131500000D01*
%TO.N,/sw1*%
X136000000Y-118500000D02*
X136000000Y-101500000D01*
X136000000Y-101500000D02*
X134500000Y-100000000D01*
%TO.N,/sw2*%
X136800003Y-101199997D02*
X138000000Y-100000000D01*
X136800003Y-118500000D02*
X136800003Y-101199997D01*
%TO.N,/sw3*%
X146000000Y-98000000D02*
X148000000Y-100000000D01*
X137600006Y-102649994D02*
X142250000Y-98000000D01*
X142250000Y-98000000D02*
X146000000Y-98000000D01*
X137600006Y-118500000D02*
X137600006Y-102649994D01*
D25*
%TO.N,/as*%
X101250000Y-143250000D02*
X99500000Y-141500000D01*
X133500000Y-141500000D02*
X131750000Y-143250000D01*
X116500000Y-141500000D02*
X116500000Y-143250000D01*
X116500000Y-143250000D02*
X101250000Y-143250000D01*
X131750000Y-143250000D02*
X116500000Y-143250000D01*
%TD*%
%TA.AperFunction,Conductor*%
%TO.N,GND*%
G36*
X159181482Y-92545185D02*
G01*
X159227237Y-92597989D01*
X159237181Y-92667147D01*
X159208156Y-92730703D01*
X159158881Y-92765263D01*
X159130781Y-92776050D01*
X159074260Y-92797746D01*
X158747343Y-92964320D01*
X158439635Y-93164147D01*
X158154498Y-93395047D01*
X158154490Y-93395054D01*
X157895054Y-93654490D01*
X157895047Y-93654498D01*
X157664147Y-93939635D01*
X157464320Y-94247343D01*
X157297746Y-94574260D01*
X157166260Y-94916793D01*
X157071294Y-95271209D01*
X157071294Y-95271211D01*
X157013898Y-95633594D01*
X156994696Y-95999999D01*
X156994696Y-96000000D01*
X157013898Y-96366405D01*
X157071294Y-96728788D01*
X157071294Y-96728790D01*
X157166260Y-97083206D01*
X157297746Y-97425739D01*
X157464320Y-97752656D01*
X157664147Y-98060364D01*
X157750179Y-98166604D01*
X157895051Y-98345506D01*
X158154494Y-98604949D01*
X158154498Y-98604952D01*
X158439635Y-98835852D01*
X158747343Y-99035679D01*
X158747348Y-99035682D01*
X159074264Y-99202255D01*
X159416801Y-99333742D01*
X159771206Y-99428705D01*
X160133596Y-99486102D01*
X160479734Y-99504241D01*
X160499999Y-99505304D01*
X160500000Y-99505304D01*
X160500001Y-99505304D01*
X160519203Y-99504297D01*
X160866404Y-99486102D01*
X161228794Y-99428705D01*
X161583199Y-99333742D01*
X161925736Y-99202255D01*
X162252652Y-99035682D01*
X162560366Y-98835851D01*
X162845506Y-98604949D01*
X163104949Y-98345506D01*
X163335851Y-98060366D01*
X163535682Y-97752652D01*
X163702255Y-97425736D01*
X163734736Y-97341118D01*
X163777138Y-97285586D01*
X163842831Y-97261793D01*
X163910960Y-97277294D01*
X163959893Y-97327168D01*
X163974500Y-97385556D01*
X163974500Y-150114443D01*
X163954815Y-150181482D01*
X163902011Y-150227237D01*
X163832853Y-150237181D01*
X163769297Y-150208156D01*
X163734736Y-150158881D01*
X163702253Y-150074260D01*
X163535679Y-149747343D01*
X163335852Y-149439635D01*
X163104952Y-149154498D01*
X163104949Y-149154494D01*
X162845506Y-148895051D01*
X162560366Y-148664149D01*
X162560364Y-148664147D01*
X162252656Y-148464320D01*
X161925739Y-148297746D01*
X161583206Y-148166260D01*
X161583199Y-148166258D01*
X161228794Y-148071295D01*
X161228790Y-148071294D01*
X161228789Y-148071294D01*
X160866405Y-148013898D01*
X160500001Y-147994696D01*
X160499999Y-147994696D01*
X160133594Y-148013898D01*
X159771211Y-148071294D01*
X159771209Y-148071294D01*
X159416793Y-148166260D01*
X159074260Y-148297746D01*
X158747343Y-148464320D01*
X158439635Y-148664147D01*
X158154498Y-148895047D01*
X158154490Y-148895054D01*
X157895054Y-149154490D01*
X157895047Y-149154498D01*
X157664147Y-149439635D01*
X157464320Y-149747343D01*
X157297746Y-150074260D01*
X157166260Y-150416793D01*
X157071294Y-150771209D01*
X157071294Y-150771211D01*
X157013898Y-151133594D01*
X156994696Y-151499999D01*
X156994696Y-151500000D01*
X157013898Y-151866405D01*
X157071294Y-152228788D01*
X157071294Y-152228790D01*
X157166260Y-152583206D01*
X157297746Y-152925739D01*
X157464320Y-153252656D01*
X157664147Y-153560364D01*
X157780623Y-153704199D01*
X157895051Y-153845506D01*
X158154494Y-154104949D01*
X158256604Y-154187636D01*
X158439635Y-154335852D01*
X158734855Y-154527569D01*
X158747348Y-154535682D01*
X159074264Y-154702255D01*
X159158881Y-154734736D01*
X159214413Y-154777138D01*
X159238206Y-154842832D01*
X159222704Y-154910960D01*
X159172831Y-154959893D01*
X159114443Y-154974500D01*
X92001530Y-154974500D01*
X91998487Y-154974425D01*
X91662480Y-154957917D01*
X91656421Y-154957321D01*
X91325171Y-154908184D01*
X91319203Y-154906997D01*
X91274672Y-154895843D01*
X90994357Y-154825627D01*
X90988531Y-154823860D01*
X90739445Y-154734736D01*
X90673239Y-154711047D01*
X90667619Y-154708719D01*
X90364881Y-154565535D01*
X90359517Y-154562668D01*
X90072289Y-154390510D01*
X90067227Y-154387128D01*
X89798244Y-154187636D01*
X89793538Y-154183774D01*
X89545399Y-153958875D01*
X89541124Y-153954600D01*
X89316223Y-153706459D01*
X89312363Y-153701755D01*
X89112871Y-153432772D01*
X89109489Y-153427710D01*
X88937327Y-153140475D01*
X88934464Y-153135118D01*
X88791280Y-152832380D01*
X88788956Y-152826770D01*
X88676137Y-152511461D01*
X88674372Y-152505642D01*
X88637304Y-152357660D01*
X88592998Y-152180780D01*
X88591815Y-152174828D01*
X88568540Y-152017922D01*
X88542677Y-151843569D01*
X88542082Y-151837519D01*
X88525575Y-151501511D01*
X88525500Y-151498469D01*
X88525500Y-148500005D01*
X95094556Y-148500005D01*
X95114310Y-148814004D01*
X95114311Y-148814011D01*
X95173270Y-149123083D01*
X95270497Y-149422316D01*
X95270499Y-149422321D01*
X95404461Y-149707003D01*
X95404464Y-149707009D01*
X95573051Y-149972661D01*
X95573054Y-149972665D01*
X95773606Y-150215090D01*
X95773608Y-150215092D01*
X96002968Y-150430476D01*
X96002978Y-150430484D01*
X96257504Y-150615408D01*
X96257509Y-150615410D01*
X96257516Y-150615416D01*
X96533234Y-150766994D01*
X96533239Y-150766996D01*
X96533241Y-150766997D01*
X96533242Y-150766998D01*
X96825771Y-150882818D01*
X96825774Y-150882819D01*
X97130523Y-150961065D01*
X97130527Y-150961066D01*
X97196010Y-150969338D01*
X97442670Y-151000499D01*
X97442679Y-151000499D01*
X97442682Y-151000500D01*
X97442684Y-151000500D01*
X97757316Y-151000500D01*
X97757318Y-151000500D01*
X97757321Y-151000499D01*
X97757329Y-151000499D01*
X97943593Y-150976968D01*
X98069473Y-150961066D01*
X98374225Y-150882819D01*
X98374228Y-150882818D01*
X98666757Y-150766998D01*
X98666758Y-150766997D01*
X98666756Y-150766997D01*
X98666766Y-150766994D01*
X98942484Y-150615416D01*
X99197030Y-150430478D01*
X99426390Y-150215094D01*
X99626947Y-149972663D01*
X99795537Y-149707007D01*
X99929503Y-149422315D01*
X100026731Y-149123079D01*
X100085688Y-148814015D01*
X100105444Y-148500005D01*
X103894556Y-148500005D01*
X103914310Y-148814004D01*
X103914311Y-148814011D01*
X103973270Y-149123083D01*
X104070497Y-149422316D01*
X104070499Y-149422321D01*
X104204461Y-149707003D01*
X104204464Y-149707009D01*
X104373051Y-149972661D01*
X104373054Y-149972665D01*
X104573606Y-150215090D01*
X104573608Y-150215092D01*
X104802968Y-150430476D01*
X104802978Y-150430484D01*
X105057504Y-150615408D01*
X105057509Y-150615410D01*
X105057516Y-150615416D01*
X105333234Y-150766994D01*
X105333239Y-150766996D01*
X105333241Y-150766997D01*
X105333242Y-150766998D01*
X105625771Y-150882818D01*
X105625774Y-150882819D01*
X105930523Y-150961065D01*
X105930527Y-150961066D01*
X105996010Y-150969338D01*
X106242670Y-151000499D01*
X106242679Y-151000499D01*
X106242682Y-151000500D01*
X106242684Y-151000500D01*
X106557316Y-151000500D01*
X106557318Y-151000500D01*
X106557321Y-151000499D01*
X106557329Y-151000499D01*
X106743593Y-150976968D01*
X106869473Y-150961066D01*
X107174225Y-150882819D01*
X107174228Y-150882818D01*
X107466757Y-150766998D01*
X107466758Y-150766997D01*
X107466756Y-150766997D01*
X107466766Y-150766994D01*
X107742484Y-150615416D01*
X107997030Y-150430478D01*
X108226390Y-150215094D01*
X108426947Y-149972663D01*
X108595537Y-149707007D01*
X108729503Y-149422315D01*
X108826731Y-149123079D01*
X108885688Y-148814015D01*
X108905444Y-148500005D01*
X112094556Y-148500005D01*
X112114310Y-148814004D01*
X112114311Y-148814011D01*
X112173270Y-149123083D01*
X112270497Y-149422316D01*
X112270499Y-149422321D01*
X112404461Y-149707003D01*
X112404464Y-149707009D01*
X112573051Y-149972661D01*
X112573054Y-149972665D01*
X112773606Y-150215090D01*
X112773608Y-150215092D01*
X113002968Y-150430476D01*
X113002978Y-150430484D01*
X113257504Y-150615408D01*
X113257509Y-150615410D01*
X113257516Y-150615416D01*
X113533234Y-150766994D01*
X113533239Y-150766996D01*
X113533241Y-150766997D01*
X113533242Y-150766998D01*
X113825771Y-150882818D01*
X113825774Y-150882819D01*
X114130523Y-150961065D01*
X114130527Y-150961066D01*
X114196010Y-150969338D01*
X114442670Y-151000499D01*
X114442679Y-151000499D01*
X114442682Y-151000500D01*
X114442684Y-151000500D01*
X114757316Y-151000500D01*
X114757318Y-151000500D01*
X114757321Y-151000499D01*
X114757329Y-151000499D01*
X114943593Y-150976968D01*
X115069473Y-150961066D01*
X115374225Y-150882819D01*
X115374228Y-150882818D01*
X115666757Y-150766998D01*
X115666758Y-150766997D01*
X115666756Y-150766997D01*
X115666766Y-150766994D01*
X115942484Y-150615416D01*
X116197030Y-150430478D01*
X116426390Y-150215094D01*
X116626947Y-149972663D01*
X116795537Y-149707007D01*
X116929503Y-149422315D01*
X117026731Y-149123079D01*
X117085688Y-148814015D01*
X117105444Y-148500005D01*
X120894556Y-148500005D01*
X120914310Y-148814004D01*
X120914311Y-148814011D01*
X120973270Y-149123083D01*
X121070497Y-149422316D01*
X121070499Y-149422321D01*
X121204461Y-149707003D01*
X121204464Y-149707009D01*
X121373051Y-149972661D01*
X121373054Y-149972665D01*
X121573606Y-150215090D01*
X121573608Y-150215092D01*
X121802968Y-150430476D01*
X121802978Y-150430484D01*
X122057504Y-150615408D01*
X122057509Y-150615410D01*
X122057516Y-150615416D01*
X122333234Y-150766994D01*
X122333239Y-150766996D01*
X122333241Y-150766997D01*
X122333242Y-150766998D01*
X122625771Y-150882818D01*
X122625774Y-150882819D01*
X122930523Y-150961065D01*
X122930527Y-150961066D01*
X122996010Y-150969338D01*
X123242670Y-151000499D01*
X123242679Y-151000499D01*
X123242682Y-151000500D01*
X123242684Y-151000500D01*
X123557316Y-151000500D01*
X123557318Y-151000500D01*
X123557321Y-151000499D01*
X123557329Y-151000499D01*
X123743593Y-150976968D01*
X123869473Y-150961066D01*
X124174225Y-150882819D01*
X124174228Y-150882818D01*
X124466757Y-150766998D01*
X124466758Y-150766997D01*
X124466756Y-150766997D01*
X124466766Y-150766994D01*
X124742484Y-150615416D01*
X124997030Y-150430478D01*
X125226390Y-150215094D01*
X125426947Y-149972663D01*
X125595537Y-149707007D01*
X125729503Y-149422315D01*
X125826731Y-149123079D01*
X125885688Y-148814015D01*
X125905444Y-148500005D01*
X129094556Y-148500005D01*
X129114310Y-148814004D01*
X129114311Y-148814011D01*
X129173270Y-149123083D01*
X129270497Y-149422316D01*
X129270499Y-149422321D01*
X129404461Y-149707003D01*
X129404464Y-149707009D01*
X129573051Y-149972661D01*
X129573054Y-149972665D01*
X129773606Y-150215090D01*
X129773608Y-150215092D01*
X130002968Y-150430476D01*
X130002978Y-150430484D01*
X130257504Y-150615408D01*
X130257509Y-150615410D01*
X130257516Y-150615416D01*
X130533234Y-150766994D01*
X130533239Y-150766996D01*
X130533241Y-150766997D01*
X130533242Y-150766998D01*
X130825771Y-150882818D01*
X130825774Y-150882819D01*
X131130523Y-150961065D01*
X131130527Y-150961066D01*
X131196010Y-150969338D01*
X131442670Y-151000499D01*
X131442679Y-151000499D01*
X131442682Y-151000500D01*
X131442684Y-151000500D01*
X131757316Y-151000500D01*
X131757318Y-151000500D01*
X131757321Y-151000499D01*
X131757329Y-151000499D01*
X131943593Y-150976968D01*
X132069473Y-150961066D01*
X132374225Y-150882819D01*
X132374228Y-150882818D01*
X132666757Y-150766998D01*
X132666758Y-150766997D01*
X132666756Y-150766997D01*
X132666766Y-150766994D01*
X132942484Y-150615416D01*
X133197030Y-150430478D01*
X133426390Y-150215094D01*
X133626947Y-149972663D01*
X133795537Y-149707007D01*
X133929503Y-149422315D01*
X134026731Y-149123079D01*
X134085688Y-148814015D01*
X134105444Y-148500005D01*
X137894556Y-148500005D01*
X137914310Y-148814004D01*
X137914311Y-148814011D01*
X137973270Y-149123083D01*
X138070497Y-149422316D01*
X138070499Y-149422321D01*
X138204461Y-149707003D01*
X138204464Y-149707009D01*
X138373051Y-149972661D01*
X138373054Y-149972665D01*
X138573606Y-150215090D01*
X138573608Y-150215092D01*
X138802968Y-150430476D01*
X138802978Y-150430484D01*
X139057504Y-150615408D01*
X139057509Y-150615410D01*
X139057516Y-150615416D01*
X139333234Y-150766994D01*
X139333239Y-150766996D01*
X139333241Y-150766997D01*
X139333242Y-150766998D01*
X139625771Y-150882818D01*
X139625774Y-150882819D01*
X139930523Y-150961065D01*
X139930527Y-150961066D01*
X139996010Y-150969338D01*
X140242670Y-151000499D01*
X140242679Y-151000499D01*
X140242682Y-151000500D01*
X140242684Y-151000500D01*
X140557316Y-151000500D01*
X140557318Y-151000500D01*
X140557321Y-151000499D01*
X140557329Y-151000499D01*
X140743593Y-150976968D01*
X140869473Y-150961066D01*
X141174225Y-150882819D01*
X141174228Y-150882818D01*
X141466757Y-150766998D01*
X141466758Y-150766997D01*
X141466756Y-150766997D01*
X141466766Y-150766994D01*
X141742484Y-150615416D01*
X141997030Y-150430478D01*
X142226390Y-150215094D01*
X142426947Y-149972663D01*
X142595537Y-149707007D01*
X142729503Y-149422315D01*
X142826731Y-149123079D01*
X142885688Y-148814015D01*
X142905444Y-148500000D01*
X142903199Y-148464320D01*
X142885689Y-148185995D01*
X142885688Y-148185988D01*
X142885688Y-148185985D01*
X142826731Y-147876921D01*
X142729503Y-147577685D01*
X142595537Y-147292993D01*
X142426947Y-147027337D01*
X142325160Y-146904298D01*
X142226393Y-146784909D01*
X142226391Y-146784907D01*
X141997031Y-146569523D01*
X141997021Y-146569515D01*
X141742495Y-146384591D01*
X141742488Y-146384586D01*
X141742484Y-146384584D01*
X141466766Y-146233006D01*
X141466763Y-146233004D01*
X141466758Y-146233002D01*
X141466757Y-146233001D01*
X141174228Y-146117181D01*
X141174225Y-146117180D01*
X140869476Y-146038934D01*
X140869463Y-146038932D01*
X140557329Y-145999500D01*
X140557318Y-145999500D01*
X140242682Y-145999500D01*
X140242670Y-145999500D01*
X139930536Y-146038932D01*
X139930523Y-146038934D01*
X139625774Y-146117180D01*
X139625771Y-146117181D01*
X139333242Y-146233001D01*
X139333241Y-146233002D01*
X139057516Y-146384584D01*
X139057504Y-146384591D01*
X138802978Y-146569515D01*
X138802968Y-146569523D01*
X138573608Y-146784907D01*
X138573606Y-146784909D01*
X138373054Y-147027334D01*
X138373051Y-147027338D01*
X138204464Y-147292990D01*
X138204461Y-147292996D01*
X138070499Y-147577678D01*
X138070497Y-147577683D01*
X137973270Y-147876916D01*
X137914311Y-148185988D01*
X137914310Y-148185995D01*
X137894556Y-148499994D01*
X137894556Y-148500005D01*
X134105444Y-148500005D01*
X134105444Y-148500000D01*
X134103199Y-148464320D01*
X134085689Y-148185995D01*
X134085688Y-148185988D01*
X134085688Y-148185985D01*
X134026731Y-147876921D01*
X133929503Y-147577685D01*
X133795537Y-147292993D01*
X133626947Y-147027337D01*
X133525160Y-146904298D01*
X133426393Y-146784909D01*
X133426391Y-146784907D01*
X133197031Y-146569523D01*
X133197021Y-146569515D01*
X132942495Y-146384591D01*
X132942488Y-146384586D01*
X132942484Y-146384584D01*
X132666766Y-146233006D01*
X132666763Y-146233004D01*
X132666758Y-146233002D01*
X132666757Y-146233001D01*
X132374228Y-146117181D01*
X132374225Y-146117180D01*
X132069476Y-146038934D01*
X132069463Y-146038932D01*
X131757329Y-145999500D01*
X131757318Y-145999500D01*
X131442682Y-145999500D01*
X131442670Y-145999500D01*
X131130536Y-146038932D01*
X131130523Y-146038934D01*
X130825774Y-146117180D01*
X130825771Y-146117181D01*
X130533242Y-146233001D01*
X130533241Y-146233002D01*
X130257516Y-146384584D01*
X130257504Y-146384591D01*
X130002978Y-146569515D01*
X130002968Y-146569523D01*
X129773608Y-146784907D01*
X129773606Y-146784909D01*
X129573054Y-147027334D01*
X129573051Y-147027338D01*
X129404464Y-147292990D01*
X129404461Y-147292996D01*
X129270499Y-147577678D01*
X129270497Y-147577683D01*
X129173270Y-147876916D01*
X129114311Y-148185988D01*
X129114310Y-148185995D01*
X129094556Y-148499994D01*
X129094556Y-148500005D01*
X125905444Y-148500005D01*
X125905444Y-148500000D01*
X125903199Y-148464320D01*
X125885689Y-148185995D01*
X125885688Y-148185988D01*
X125885688Y-148185985D01*
X125826731Y-147876921D01*
X125729503Y-147577685D01*
X125595537Y-147292993D01*
X125426947Y-147027337D01*
X125325160Y-146904298D01*
X125226393Y-146784909D01*
X125226391Y-146784907D01*
X124997031Y-146569523D01*
X124997021Y-146569515D01*
X124742495Y-146384591D01*
X124742488Y-146384586D01*
X124742484Y-146384584D01*
X124466766Y-146233006D01*
X124466763Y-146233004D01*
X124466758Y-146233002D01*
X124466757Y-146233001D01*
X124174228Y-146117181D01*
X124174225Y-146117180D01*
X123869476Y-146038934D01*
X123869463Y-146038932D01*
X123557329Y-145999500D01*
X123557318Y-145999500D01*
X123242682Y-145999500D01*
X123242670Y-145999500D01*
X122930536Y-146038932D01*
X122930523Y-146038934D01*
X122625774Y-146117180D01*
X122625771Y-146117181D01*
X122333242Y-146233001D01*
X122333241Y-146233002D01*
X122057516Y-146384584D01*
X122057504Y-146384591D01*
X121802978Y-146569515D01*
X121802968Y-146569523D01*
X121573608Y-146784907D01*
X121573606Y-146784909D01*
X121373054Y-147027334D01*
X121373051Y-147027338D01*
X121204464Y-147292990D01*
X121204461Y-147292996D01*
X121070499Y-147577678D01*
X121070497Y-147577683D01*
X120973270Y-147876916D01*
X120914311Y-148185988D01*
X120914310Y-148185995D01*
X120894556Y-148499994D01*
X120894556Y-148500005D01*
X117105444Y-148500005D01*
X117105444Y-148500000D01*
X117103199Y-148464320D01*
X117085689Y-148185995D01*
X117085688Y-148185988D01*
X117085688Y-148185985D01*
X117026731Y-147876921D01*
X116929503Y-147577685D01*
X116795537Y-147292993D01*
X116626947Y-147027337D01*
X116525160Y-146904298D01*
X116426393Y-146784909D01*
X116426391Y-146784907D01*
X116197031Y-146569523D01*
X116197021Y-146569515D01*
X115942495Y-146384591D01*
X115942488Y-146384586D01*
X115942484Y-146384584D01*
X115666766Y-146233006D01*
X115666763Y-146233004D01*
X115666758Y-146233002D01*
X115666757Y-146233001D01*
X115374228Y-146117181D01*
X115374225Y-146117180D01*
X115069476Y-146038934D01*
X115069463Y-146038932D01*
X114757329Y-145999500D01*
X114757318Y-145999500D01*
X114442682Y-145999500D01*
X114442670Y-145999500D01*
X114130536Y-146038932D01*
X114130523Y-146038934D01*
X113825774Y-146117180D01*
X113825771Y-146117181D01*
X113533242Y-146233001D01*
X113533241Y-146233002D01*
X113257516Y-146384584D01*
X113257504Y-146384591D01*
X113002978Y-146569515D01*
X113002968Y-146569523D01*
X112773608Y-146784907D01*
X112773606Y-146784909D01*
X112573054Y-147027334D01*
X112573051Y-147027338D01*
X112404464Y-147292990D01*
X112404461Y-147292996D01*
X112270499Y-147577678D01*
X112270497Y-147577683D01*
X112173270Y-147876916D01*
X112114311Y-148185988D01*
X112114310Y-148185995D01*
X112094556Y-148499994D01*
X112094556Y-148500005D01*
X108905444Y-148500005D01*
X108905444Y-148500000D01*
X108903199Y-148464320D01*
X108885689Y-148185995D01*
X108885688Y-148185988D01*
X108885688Y-148185985D01*
X108826731Y-147876921D01*
X108729503Y-147577685D01*
X108595537Y-147292993D01*
X108426947Y-147027337D01*
X108325160Y-146904298D01*
X108226393Y-146784909D01*
X108226391Y-146784907D01*
X107997031Y-146569523D01*
X107997021Y-146569515D01*
X107742495Y-146384591D01*
X107742488Y-146384586D01*
X107742484Y-146384584D01*
X107466766Y-146233006D01*
X107466763Y-146233004D01*
X107466758Y-146233002D01*
X107466757Y-146233001D01*
X107174228Y-146117181D01*
X107174225Y-146117180D01*
X106869476Y-146038934D01*
X106869463Y-146038932D01*
X106557329Y-145999500D01*
X106557318Y-145999500D01*
X106242682Y-145999500D01*
X106242670Y-145999500D01*
X105930536Y-146038932D01*
X105930523Y-146038934D01*
X105625774Y-146117180D01*
X105625771Y-146117181D01*
X105333242Y-146233001D01*
X105333241Y-146233002D01*
X105057516Y-146384584D01*
X105057504Y-146384591D01*
X104802978Y-146569515D01*
X104802968Y-146569523D01*
X104573608Y-146784907D01*
X104573606Y-146784909D01*
X104373054Y-147027334D01*
X104373051Y-147027338D01*
X104204464Y-147292990D01*
X104204461Y-147292996D01*
X104070499Y-147577678D01*
X104070497Y-147577683D01*
X103973270Y-147876916D01*
X103914311Y-148185988D01*
X103914310Y-148185995D01*
X103894556Y-148499994D01*
X103894556Y-148500005D01*
X100105444Y-148500005D01*
X100105444Y-148500000D01*
X100103199Y-148464320D01*
X100085689Y-148185995D01*
X100085688Y-148185988D01*
X100085688Y-148185985D01*
X100026731Y-147876921D01*
X99929503Y-147577685D01*
X99795537Y-147292993D01*
X99626947Y-147027337D01*
X99525160Y-146904298D01*
X99426393Y-146784909D01*
X99426391Y-146784907D01*
X99197031Y-146569523D01*
X99197021Y-146569515D01*
X98942495Y-146384591D01*
X98942488Y-146384586D01*
X98942484Y-146384584D01*
X98666766Y-146233006D01*
X98666763Y-146233004D01*
X98666758Y-146233002D01*
X98666757Y-146233001D01*
X98374228Y-146117181D01*
X98374225Y-146117180D01*
X98069476Y-146038934D01*
X98069463Y-146038932D01*
X97757329Y-145999500D01*
X97757318Y-145999500D01*
X97442682Y-145999500D01*
X97442670Y-145999500D01*
X97130536Y-146038932D01*
X97130523Y-146038934D01*
X96825774Y-146117180D01*
X96825771Y-146117181D01*
X96533242Y-146233001D01*
X96533241Y-146233002D01*
X96257516Y-146384584D01*
X96257504Y-146384591D01*
X96002978Y-146569515D01*
X96002968Y-146569523D01*
X95773608Y-146784907D01*
X95773606Y-146784909D01*
X95573054Y-147027334D01*
X95573051Y-147027338D01*
X95404464Y-147292990D01*
X95404461Y-147292996D01*
X95270499Y-147577678D01*
X95270497Y-147577683D01*
X95173270Y-147876916D01*
X95114311Y-148185988D01*
X95114310Y-148185995D01*
X95094556Y-148499994D01*
X95094556Y-148500005D01*
X88525500Y-148500005D01*
X88525500Y-145559502D01*
X148699500Y-145559502D01*
X148714652Y-145737536D01*
X148774724Y-145968248D01*
X148872919Y-146185480D01*
X148872924Y-146185488D01*
X149006413Y-146382993D01*
X149006418Y-146382998D01*
X149006421Y-146383003D01*
X149171379Y-146555118D01*
X149363053Y-146696879D01*
X149575926Y-146804207D01*
X149803877Y-146874016D01*
X150040346Y-146904298D01*
X150278532Y-146894180D01*
X150511581Y-146843954D01*
X150732790Y-146755064D01*
X150935795Y-146630069D01*
X151114755Y-146472564D01*
X151264523Y-146287080D01*
X151380790Y-146078954D01*
X151460211Y-145854171D01*
X151480210Y-145737536D01*
X151500499Y-145619209D01*
X151500500Y-145619198D01*
X151500500Y-145559502D01*
X154199500Y-145559502D01*
X154214652Y-145737536D01*
X154274724Y-145968248D01*
X154372919Y-146185480D01*
X154372924Y-146185488D01*
X154506413Y-146382993D01*
X154506418Y-146382998D01*
X154506421Y-146383003D01*
X154671379Y-146555118D01*
X154863053Y-146696879D01*
X155075926Y-146804207D01*
X155303877Y-146874016D01*
X155540346Y-146904298D01*
X155778532Y-146894180D01*
X156011581Y-146843954D01*
X156232790Y-146755064D01*
X156435795Y-146630069D01*
X156614755Y-146472564D01*
X156764523Y-146287080D01*
X156880790Y-146078954D01*
X156960211Y-145854171D01*
X156980210Y-145737536D01*
X157000499Y-145619209D01*
X157000500Y-145619198D01*
X157000500Y-144440498D01*
X156985347Y-144262463D01*
X156925275Y-144031751D01*
X156827080Y-143814519D01*
X156827075Y-143814511D01*
X156693586Y-143617006D01*
X156693582Y-143617001D01*
X156693579Y-143616997D01*
X156528621Y-143444882D01*
X156336947Y-143303121D01*
X156124074Y-143195793D01*
X155994283Y-143156045D01*
X155896121Y-143125983D01*
X155659647Y-143095701D01*
X155421471Y-143105819D01*
X155421467Y-143105819D01*
X155188419Y-143156045D01*
X154967211Y-143244935D01*
X154764203Y-143369932D01*
X154585245Y-143527435D01*
X154559353Y-143559502D01*
X154435477Y-143712920D01*
X154435475Y-143712922D01*
X154435476Y-143712922D01*
X154319210Y-143921044D01*
X154239788Y-144145829D01*
X154199500Y-144380790D01*
X154199500Y-145559502D01*
X151500500Y-145559502D01*
X151500500Y-145001669D01*
X151520185Y-144934630D01*
X151572989Y-144888875D01*
X151640247Y-144878673D01*
X151840346Y-144904298D01*
X152078532Y-144894180D01*
X152311581Y-144843954D01*
X152532790Y-144755064D01*
X152735795Y-144630069D01*
X152914755Y-144472564D01*
X153064523Y-144287080D01*
X153180790Y-144078954D01*
X153260211Y-143854171D01*
X153279205Y-143743396D01*
X153300499Y-143619209D01*
X153300500Y-143619198D01*
X153300500Y-142440498D01*
X153285347Y-142262463D01*
X153225275Y-142031751D01*
X153127080Y-141814519D01*
X153127075Y-141814511D01*
X152993586Y-141617006D01*
X152993582Y-141617001D01*
X152993579Y-141616997D01*
X152828621Y-141444882D01*
X152636947Y-141303121D01*
X152424074Y-141195793D01*
X152294283Y-141156045D01*
X152196121Y-141125983D01*
X151959647Y-141095701D01*
X151721471Y-141105819D01*
X151721467Y-141105819D01*
X151488419Y-141156045D01*
X151267211Y-141244935D01*
X151064203Y-141369932D01*
X150885245Y-141527435D01*
X150812929Y-141616997D01*
X150735477Y-141712920D01*
X150735475Y-141712922D01*
X150735476Y-141712922D01*
X150619210Y-141921044D01*
X150539788Y-142145829D01*
X150499500Y-142380790D01*
X150499500Y-142998330D01*
X150479815Y-143065369D01*
X150427011Y-143111124D01*
X150359749Y-143121326D01*
X150159647Y-143095701D01*
X149921471Y-143105819D01*
X149921467Y-143105819D01*
X149688419Y-143156045D01*
X149467211Y-143244935D01*
X149264203Y-143369932D01*
X149085245Y-143527435D01*
X149059353Y-143559502D01*
X148935477Y-143712920D01*
X148935475Y-143712922D01*
X148935476Y-143712922D01*
X148819210Y-143921044D01*
X148739788Y-144145829D01*
X148699500Y-144380790D01*
X148699500Y-145559502D01*
X88525500Y-145559502D01*
X88525500Y-141500006D01*
X98094700Y-141500006D01*
X98113864Y-141731297D01*
X98113866Y-141731308D01*
X98170842Y-141956300D01*
X98264075Y-142168848D01*
X98391016Y-142363147D01*
X98391019Y-142363151D01*
X98391021Y-142363153D01*
X98548216Y-142533913D01*
X98548219Y-142533915D01*
X98548222Y-142533918D01*
X98731365Y-142676464D01*
X98731371Y-142676468D01*
X98731374Y-142676470D01*
X98898860Y-142767109D01*
X98934652Y-142786479D01*
X98935497Y-142786936D01*
X99049487Y-142826068D01*
X99155015Y-142862297D01*
X99155017Y-142862297D01*
X99155019Y-142862298D01*
X99383951Y-142900500D01*
X99383952Y-142900500D01*
X99616048Y-142900500D01*
X99616049Y-142900500D01*
X99844981Y-142862298D01*
X99849944Y-142861041D01*
X99850257Y-142862280D01*
X99914032Y-142859390D01*
X99972200Y-142892146D01*
X100729564Y-143649509D01*
X100739640Y-143662086D01*
X100739827Y-143661932D01*
X100744795Y-143667937D01*
X100797260Y-143717205D01*
X100818961Y-143738907D01*
X100818965Y-143738910D01*
X100818966Y-143738911D01*
X100824759Y-143743404D01*
X100829191Y-143747190D01*
X100864607Y-143780448D01*
X100871517Y-143784247D01*
X100883207Y-143790674D01*
X100899468Y-143801355D01*
X100916237Y-143814363D01*
X100960827Y-143833658D01*
X100966056Y-143836220D01*
X101008632Y-143859627D01*
X101029193Y-143864905D01*
X101047597Y-143871207D01*
X101067074Y-143879636D01*
X101101392Y-143885071D01*
X101115054Y-143887235D01*
X101120764Y-143888417D01*
X101167823Y-143900500D01*
X101189045Y-143900500D01*
X101208442Y-143902026D01*
X101229405Y-143905347D01*
X101274104Y-143901121D01*
X101277770Y-143900775D01*
X101283608Y-143900500D01*
X116417823Y-143900500D01*
X116426790Y-143900500D01*
X116450022Y-143902696D01*
X116451706Y-143903017D01*
X116458830Y-143904376D01*
X116518508Y-143900621D01*
X116522381Y-143900500D01*
X131664495Y-143900500D01*
X131680505Y-143902267D01*
X131680528Y-143902026D01*
X131688289Y-143902758D01*
X131688296Y-143902760D01*
X131760203Y-143900500D01*
X131790925Y-143900500D01*
X131798190Y-143899581D01*
X131804016Y-143899122D01*
X131852569Y-143897597D01*
X131872956Y-143891673D01*
X131891996Y-143887731D01*
X131913058Y-143885071D01*
X131958235Y-143867183D01*
X131963735Y-143865300D01*
X132010398Y-143851744D01*
X132028665Y-143840939D01*
X132046136Y-143832380D01*
X132065871Y-143824568D01*
X132105177Y-143796010D01*
X132110043Y-143792813D01*
X132151865Y-143768081D01*
X132166870Y-143753075D01*
X132181668Y-143740436D01*
X132185660Y-143737536D01*
X132198837Y-143727963D01*
X132229809Y-143690522D01*
X132233723Y-143686221D01*
X132360442Y-143559502D01*
X144999500Y-143559502D01*
X145014652Y-143737536D01*
X145074724Y-143968248D01*
X145172919Y-144185480D01*
X145172924Y-144185488D01*
X145306413Y-144382993D01*
X145306418Y-144382998D01*
X145306421Y-144383003D01*
X145471379Y-144555118D01*
X145663053Y-144696879D01*
X145875926Y-144804207D01*
X146103877Y-144874016D01*
X146340346Y-144904298D01*
X146578532Y-144894180D01*
X146811581Y-144843954D01*
X147032790Y-144755064D01*
X147235795Y-144630069D01*
X147414755Y-144472564D01*
X147564523Y-144287080D01*
X147680790Y-144078954D01*
X147760211Y-143854171D01*
X147779205Y-143743396D01*
X147800499Y-143619209D01*
X147800500Y-143619198D01*
X147800500Y-142440498D01*
X147785347Y-142262463D01*
X147725275Y-142031751D01*
X147627080Y-141814519D01*
X147627075Y-141814511D01*
X147493586Y-141617006D01*
X147493582Y-141617001D01*
X147493579Y-141616997D01*
X147328621Y-141444882D01*
X147136947Y-141303121D01*
X146924074Y-141195793D01*
X146794283Y-141156045D01*
X146696121Y-141125983D01*
X146459647Y-141095701D01*
X146221471Y-141105819D01*
X146221467Y-141105819D01*
X145988419Y-141156045D01*
X145767211Y-141244935D01*
X145564203Y-141369932D01*
X145385245Y-141527435D01*
X145312929Y-141616997D01*
X145235477Y-141712920D01*
X145235475Y-141712922D01*
X145235476Y-141712922D01*
X145119210Y-141921044D01*
X145039788Y-142145829D01*
X144999500Y-142380790D01*
X144999500Y-143559502D01*
X132360442Y-143559502D01*
X133027800Y-142892144D01*
X133089121Y-142858661D01*
X133149753Y-142862202D01*
X133150048Y-142861040D01*
X133155011Y-142862296D01*
X133155015Y-142862296D01*
X133155019Y-142862298D01*
X133383951Y-142900500D01*
X133383952Y-142900500D01*
X133616048Y-142900500D01*
X133616049Y-142900500D01*
X133844981Y-142862298D01*
X133845034Y-142862280D01*
X133855575Y-142858661D01*
X134064503Y-142786936D01*
X134268626Y-142676470D01*
X134269170Y-142676047D01*
X134367589Y-142599444D01*
X134451784Y-142533913D01*
X134608979Y-142363153D01*
X134609182Y-142362842D01*
X134646191Y-142306196D01*
X134699337Y-142260839D01*
X134768569Y-142251415D01*
X134831904Y-142280917D01*
X134853809Y-142306196D01*
X134891016Y-142363147D01*
X134891019Y-142363151D01*
X134891021Y-142363153D01*
X135048216Y-142533913D01*
X135048219Y-142533915D01*
X135048222Y-142533918D01*
X135231365Y-142676464D01*
X135231371Y-142676468D01*
X135231374Y-142676470D01*
X135398860Y-142767109D01*
X135434652Y-142786479D01*
X135435497Y-142786936D01*
X135549487Y-142826068D01*
X135655015Y-142862297D01*
X135655017Y-142862297D01*
X135655019Y-142862298D01*
X135883951Y-142900500D01*
X135883952Y-142900500D01*
X136116048Y-142900500D01*
X136116049Y-142900500D01*
X136344981Y-142862298D01*
X136345034Y-142862280D01*
X136355575Y-142858661D01*
X136564503Y-142786936D01*
X136768626Y-142676470D01*
X136769170Y-142676047D01*
X136867589Y-142599444D01*
X136951784Y-142533913D01*
X137108979Y-142363153D01*
X137109184Y-142362840D01*
X137115270Y-142353523D01*
X137146489Y-142305738D01*
X137199635Y-142260382D01*
X137268866Y-142250958D01*
X137332202Y-142280459D01*
X137354106Y-142305738D01*
X137391413Y-142362840D01*
X137548558Y-142533545D01*
X137548562Y-142533548D01*
X137731644Y-142676047D01*
X137731648Y-142676050D01*
X137935697Y-142786476D01*
X137935706Y-142786479D01*
X138155139Y-142861811D01*
X138383993Y-142900000D01*
X138616007Y-142900000D01*
X138844860Y-142861811D01*
X139064293Y-142786479D01*
X139064302Y-142786476D01*
X139268351Y-142676050D01*
X139268355Y-142676047D01*
X139451437Y-142533548D01*
X139451441Y-142533545D01*
X139608585Y-142362842D01*
X139735483Y-142168609D01*
X139828682Y-141956135D01*
X139885638Y-141731218D01*
X139904798Y-141500005D01*
X139904798Y-141499994D01*
X139885638Y-141268781D01*
X139828682Y-141043864D01*
X139735483Y-140831390D01*
X139608585Y-140637157D01*
X139451441Y-140466454D01*
X139451437Y-140466451D01*
X139268355Y-140323952D01*
X139268351Y-140323949D01*
X139064302Y-140213523D01*
X139064293Y-140213520D01*
X138844860Y-140138188D01*
X138616007Y-140100000D01*
X138383993Y-140100000D01*
X138155139Y-140138188D01*
X137935706Y-140213520D01*
X137935697Y-140213523D01*
X137731648Y-140323949D01*
X137731644Y-140323952D01*
X137548562Y-140466451D01*
X137548558Y-140466454D01*
X137391415Y-140637156D01*
X137354106Y-140694262D01*
X137300959Y-140739618D01*
X137231728Y-140749041D01*
X137168392Y-140719538D01*
X137146489Y-140694260D01*
X137108983Y-140636852D01*
X137108980Y-140636849D01*
X137108979Y-140636847D01*
X136951784Y-140466087D01*
X136951779Y-140466083D01*
X136951777Y-140466081D01*
X136768634Y-140323535D01*
X136768628Y-140323531D01*
X136564504Y-140213064D01*
X136564495Y-140213061D01*
X136344984Y-140137702D01*
X136173281Y-140109050D01*
X136116049Y-140099500D01*
X135883951Y-140099500D01*
X135838164Y-140107140D01*
X135655015Y-140137702D01*
X135435504Y-140213061D01*
X135435495Y-140213064D01*
X135231371Y-140323531D01*
X135231365Y-140323535D01*
X135048222Y-140466081D01*
X135048219Y-140466084D01*
X135048216Y-140466086D01*
X135048216Y-140466087D01*
X134891021Y-140636847D01*
X134891019Y-140636849D01*
X134891017Y-140636852D01*
X134853807Y-140693805D01*
X134800659Y-140739161D01*
X134731428Y-140748583D01*
X134668093Y-140719081D01*
X134646190Y-140693803D01*
X134608983Y-140636852D01*
X134608980Y-140636849D01*
X134608979Y-140636847D01*
X134451784Y-140466087D01*
X134451779Y-140466083D01*
X134451777Y-140466081D01*
X134268634Y-140323535D01*
X134268628Y-140323531D01*
X134064504Y-140213064D01*
X134064495Y-140213061D01*
X133844984Y-140137702D01*
X133673281Y-140109050D01*
X133616049Y-140099500D01*
X133383951Y-140099500D01*
X133338164Y-140107140D01*
X133155015Y-140137702D01*
X132935504Y-140213061D01*
X132935495Y-140213064D01*
X132731371Y-140323531D01*
X132731365Y-140323535D01*
X132548222Y-140466081D01*
X132548219Y-140466084D01*
X132391016Y-140636852D01*
X132264075Y-140831151D01*
X132170842Y-141043699D01*
X132113866Y-141268691D01*
X132113864Y-141268702D01*
X132094700Y-141499993D01*
X132094700Y-141500006D01*
X132113865Y-141731301D01*
X132144031Y-141850425D01*
X132141406Y-141920245D01*
X132111506Y-141968546D01*
X131516873Y-142563181D01*
X131455550Y-142596666D01*
X131429192Y-142599500D01*
X122673418Y-142599500D01*
X122606379Y-142579815D01*
X122560624Y-142527011D01*
X122550680Y-142457853D01*
X122579705Y-142394297D01*
X122582189Y-142391517D01*
X122608582Y-142362846D01*
X122735483Y-142168609D01*
X122828682Y-141956135D01*
X122885638Y-141731218D01*
X122904798Y-141500005D01*
X122904798Y-141499994D01*
X122885638Y-141268781D01*
X122828682Y-141043864D01*
X122735483Y-140831390D01*
X122608585Y-140637157D01*
X122451441Y-140466454D01*
X122451437Y-140466451D01*
X122268355Y-140323952D01*
X122268351Y-140323949D01*
X122064302Y-140213523D01*
X122064293Y-140213520D01*
X121844860Y-140138188D01*
X121616007Y-140100000D01*
X121383993Y-140100000D01*
X121155139Y-140138188D01*
X120935706Y-140213520D01*
X120935697Y-140213523D01*
X120731648Y-140323949D01*
X120731644Y-140323952D01*
X120548562Y-140466451D01*
X120548558Y-140466454D01*
X120391415Y-140637156D01*
X120354106Y-140694262D01*
X120300959Y-140739618D01*
X120231728Y-140749041D01*
X120168392Y-140719538D01*
X120146489Y-140694260D01*
X120108983Y-140636852D01*
X120108980Y-140636849D01*
X120108979Y-140636847D01*
X119951784Y-140466087D01*
X119951779Y-140466083D01*
X119951777Y-140466081D01*
X119768634Y-140323535D01*
X119768628Y-140323531D01*
X119564504Y-140213064D01*
X119564495Y-140213061D01*
X119344984Y-140137702D01*
X119173282Y-140109050D01*
X119116049Y-140099500D01*
X118883951Y-140099500D01*
X118838164Y-140107140D01*
X118655015Y-140137702D01*
X118435504Y-140213061D01*
X118435495Y-140213064D01*
X118231371Y-140323531D01*
X118231365Y-140323535D01*
X118048222Y-140466081D01*
X118048219Y-140466084D01*
X118048216Y-140466086D01*
X118048216Y-140466087D01*
X117891021Y-140636847D01*
X117891019Y-140636849D01*
X117891017Y-140636852D01*
X117853807Y-140693805D01*
X117800659Y-140739161D01*
X117731428Y-140748583D01*
X117668093Y-140719081D01*
X117646190Y-140693803D01*
X117608983Y-140636852D01*
X117608980Y-140636849D01*
X117608979Y-140636847D01*
X117451784Y-140466087D01*
X117451779Y-140466083D01*
X117451777Y-140466081D01*
X117268634Y-140323535D01*
X117268628Y-140323531D01*
X117064504Y-140213064D01*
X117064495Y-140213061D01*
X116844984Y-140137702D01*
X116673281Y-140109050D01*
X116616049Y-140099500D01*
X116383951Y-140099500D01*
X116338164Y-140107140D01*
X116155015Y-140137702D01*
X115935504Y-140213061D01*
X115935495Y-140213064D01*
X115731371Y-140323531D01*
X115731365Y-140323535D01*
X115548222Y-140466081D01*
X115548219Y-140466084D01*
X115391016Y-140636852D01*
X115264075Y-140831151D01*
X115170842Y-141043699D01*
X115113866Y-141268691D01*
X115113864Y-141268702D01*
X115094700Y-141499993D01*
X115094700Y-141500006D01*
X115113864Y-141731297D01*
X115113866Y-141731308D01*
X115170842Y-141956300D01*
X115264075Y-142168848D01*
X115391016Y-142363147D01*
X115391019Y-142363151D01*
X115391021Y-142363153D01*
X115417134Y-142391519D01*
X115448055Y-142454172D01*
X115440195Y-142523598D01*
X115396048Y-142577753D01*
X115329630Y-142599444D01*
X115325903Y-142599500D01*
X105673418Y-142599500D01*
X105606379Y-142579815D01*
X105560624Y-142527011D01*
X105550680Y-142457853D01*
X105579705Y-142394297D01*
X105582189Y-142391517D01*
X105608582Y-142362846D01*
X105735483Y-142168609D01*
X105828682Y-141956135D01*
X105885638Y-141731218D01*
X105904798Y-141500005D01*
X105904798Y-141499994D01*
X105885638Y-141268781D01*
X105828682Y-141043864D01*
X105735483Y-140831390D01*
X105608585Y-140637157D01*
X105451441Y-140466454D01*
X105451437Y-140466451D01*
X105268355Y-140323952D01*
X105268351Y-140323949D01*
X105064302Y-140213523D01*
X105064293Y-140213520D01*
X104844860Y-140138188D01*
X104616007Y-140100000D01*
X104383993Y-140100000D01*
X104155139Y-140138188D01*
X103935706Y-140213520D01*
X103935697Y-140213523D01*
X103731648Y-140323949D01*
X103731644Y-140323952D01*
X103548562Y-140466451D01*
X103548558Y-140466454D01*
X103391415Y-140637156D01*
X103354106Y-140694262D01*
X103300959Y-140739618D01*
X103231728Y-140749041D01*
X103168392Y-140719538D01*
X103146489Y-140694260D01*
X103108983Y-140636852D01*
X103108980Y-140636849D01*
X103108979Y-140636847D01*
X102951784Y-140466087D01*
X102951779Y-140466083D01*
X102951777Y-140466081D01*
X102768634Y-140323535D01*
X102768628Y-140323531D01*
X102564504Y-140213064D01*
X102564495Y-140213061D01*
X102344984Y-140137702D01*
X102173281Y-140109050D01*
X102116049Y-140099500D01*
X101883951Y-140099500D01*
X101838164Y-140107140D01*
X101655015Y-140137702D01*
X101435504Y-140213061D01*
X101435495Y-140213064D01*
X101231371Y-140323531D01*
X101231365Y-140323535D01*
X101048222Y-140466081D01*
X101048219Y-140466084D01*
X101048216Y-140466086D01*
X101048216Y-140466087D01*
X100891021Y-140636847D01*
X100891019Y-140636849D01*
X100891017Y-140636852D01*
X100853807Y-140693805D01*
X100800659Y-140739161D01*
X100731428Y-140748583D01*
X100668093Y-140719081D01*
X100646190Y-140693803D01*
X100608983Y-140636852D01*
X100608980Y-140636849D01*
X100608979Y-140636847D01*
X100451784Y-140466087D01*
X100451779Y-140466083D01*
X100451777Y-140466081D01*
X100268634Y-140323535D01*
X100268628Y-140323531D01*
X100064504Y-140213064D01*
X100064495Y-140213061D01*
X99844984Y-140137702D01*
X99673282Y-140109050D01*
X99616049Y-140099500D01*
X99383951Y-140099500D01*
X99338164Y-140107140D01*
X99155015Y-140137702D01*
X98935504Y-140213061D01*
X98935495Y-140213064D01*
X98731371Y-140323531D01*
X98731365Y-140323535D01*
X98548222Y-140466081D01*
X98548219Y-140466084D01*
X98391016Y-140636852D01*
X98264075Y-140831151D01*
X98170842Y-141043699D01*
X98113866Y-141268691D01*
X98113864Y-141268702D01*
X98094700Y-141499993D01*
X98094700Y-141500006D01*
X88525500Y-141500006D01*
X88525500Y-131500003D01*
X132444435Y-131500003D01*
X132464630Y-131679249D01*
X132464631Y-131679254D01*
X132524211Y-131849523D01*
X132543245Y-131879815D01*
X132620184Y-132002262D01*
X132747738Y-132129816D01*
X132900478Y-132225789D01*
X133070744Y-132285367D01*
X133070745Y-132285368D01*
X133070750Y-132285369D01*
X133249996Y-132305565D01*
X133250000Y-132305565D01*
X133250004Y-132305565D01*
X133429249Y-132285369D01*
X133429252Y-132285368D01*
X133429255Y-132285368D01*
X133599522Y-132225789D01*
X133752262Y-132129816D01*
X133752267Y-132129810D01*
X133755097Y-132127555D01*
X133757275Y-132126665D01*
X133758158Y-132126111D01*
X133758255Y-132126265D01*
X133819783Y-132101145D01*
X133832412Y-132100500D01*
X143949903Y-132100500D01*
X144016942Y-132120185D01*
X144037584Y-132136819D01*
X144738584Y-132837819D01*
X144772069Y-132899142D01*
X144767085Y-132968834D01*
X144725213Y-133024767D01*
X144659749Y-133049184D01*
X144650903Y-133049500D01*
X144023037Y-133049500D01*
X144019293Y-133049387D01*
X143957397Y-133045643D01*
X143957390Y-133045643D01*
X143896402Y-133056819D01*
X143892701Y-133057382D01*
X143831125Y-133064860D01*
X143821642Y-133068456D01*
X143800038Y-133074478D01*
X143798535Y-133074754D01*
X143790065Y-133076306D01*
X143790063Y-133076307D01*
X143733527Y-133101752D01*
X143730069Y-133103184D01*
X143672069Y-133125182D01*
X143663724Y-133130942D01*
X143644183Y-133141964D01*
X143634944Y-133146122D01*
X143634939Y-133146125D01*
X143586121Y-133184370D01*
X143583106Y-133186589D01*
X143532072Y-133221816D01*
X143532065Y-133221822D01*
X143490942Y-133268240D01*
X143488375Y-133270966D01*
X141050709Y-135708632D01*
X141003984Y-135737992D01*
X140900476Y-135774211D01*
X140900475Y-135774212D01*
X140747737Y-135870184D01*
X140620184Y-135997737D01*
X140524211Y-136150476D01*
X140464631Y-136320745D01*
X140464630Y-136320750D01*
X140444435Y-136499996D01*
X140444435Y-136500003D01*
X140464630Y-136679249D01*
X140464631Y-136679254D01*
X140524211Y-136849523D01*
X140620183Y-137002261D01*
X140620184Y-137002262D01*
X140747738Y-137129816D01*
X140900478Y-137225789D01*
X141070745Y-137285367D01*
X141070745Y-137285368D01*
X141070750Y-137285369D01*
X141249996Y-137305565D01*
X141250000Y-137305565D01*
X141250004Y-137305565D01*
X141429249Y-137285369D01*
X141429252Y-137285368D01*
X141429255Y-137285368D01*
X141599522Y-137225789D01*
X141752262Y-137129816D01*
X141879816Y-137002262D01*
X141975789Y-136849522D01*
X142012007Y-136746013D01*
X142041365Y-136699290D01*
X144253837Y-134486819D01*
X144315161Y-134453334D01*
X144341519Y-134450500D01*
X156324506Y-134450500D01*
X156390477Y-134469506D01*
X156400474Y-134475787D01*
X156400475Y-134475787D01*
X156400478Y-134475789D01*
X156570745Y-134535367D01*
X156570745Y-134535368D01*
X156570750Y-134535369D01*
X156749996Y-134555565D01*
X156750000Y-134555565D01*
X156750004Y-134555565D01*
X156929249Y-134535369D01*
X156929252Y-134535368D01*
X156929255Y-134535368D01*
X157099522Y-134475789D01*
X157252262Y-134379816D01*
X157379816Y-134252262D01*
X157475789Y-134099522D01*
X157535368Y-133929255D01*
X157555565Y-133750000D01*
X157535368Y-133570745D01*
X157475789Y-133400478D01*
X157379816Y-133247738D01*
X157252262Y-133120184D01*
X157222928Y-133101752D01*
X157099523Y-133024211D01*
X156929254Y-132964631D01*
X156929249Y-132964630D01*
X156750004Y-132944435D01*
X156749996Y-132944435D01*
X156570750Y-132964630D01*
X156570745Y-132964631D01*
X156400474Y-133024212D01*
X156390477Y-133030494D01*
X156324506Y-133049500D01*
X147074496Y-133049500D01*
X147007457Y-133029815D01*
X146961702Y-132977011D01*
X146951758Y-132907853D01*
X146969503Y-132859527D01*
X146975788Y-132849524D01*
X147035368Y-132679254D01*
X147035369Y-132679249D01*
X147055565Y-132500003D01*
X147055565Y-132499996D01*
X147035369Y-132320750D01*
X147035368Y-132320745D01*
X146975788Y-132150476D01*
X146936582Y-132088080D01*
X146879816Y-131997738D01*
X146752262Y-131870184D01*
X146719379Y-131849522D01*
X146599523Y-131774211D01*
X146429254Y-131714631D01*
X146429249Y-131714630D01*
X146250004Y-131694435D01*
X146249996Y-131694435D01*
X146070750Y-131714630D01*
X146070745Y-131714631D01*
X145900476Y-131774211D01*
X145747736Y-131870185D01*
X145744903Y-131872445D01*
X145742724Y-131873334D01*
X145741842Y-131873889D01*
X145741744Y-131873734D01*
X145680217Y-131898855D01*
X145667588Y-131899500D01*
X145550097Y-131899500D01*
X145483058Y-131879815D01*
X145462416Y-131863181D01*
X145099231Y-131499996D01*
X144705320Y-131106085D01*
X144699980Y-131099995D01*
X144678282Y-131071718D01*
X144552841Y-130975464D01*
X144406762Y-130914956D01*
X144406760Y-130914955D01*
X144289361Y-130899500D01*
X144250000Y-130894318D01*
X144214670Y-130898969D01*
X144206572Y-130899500D01*
X133832412Y-130899500D01*
X133765373Y-130879815D01*
X133755097Y-130872445D01*
X133752263Y-130870185D01*
X133752262Y-130870184D01*
X133695496Y-130834515D01*
X133599523Y-130774211D01*
X133429254Y-130714631D01*
X133429249Y-130714630D01*
X133250004Y-130694435D01*
X133249996Y-130694435D01*
X133070750Y-130714630D01*
X133070745Y-130714631D01*
X132900476Y-130774211D01*
X132747737Y-130870184D01*
X132620184Y-130997737D01*
X132524211Y-131150476D01*
X132464631Y-131320745D01*
X132464630Y-131320750D01*
X132444435Y-131499996D01*
X132444435Y-131500003D01*
X88525500Y-131500003D01*
X88525500Y-130250003D01*
X127194435Y-130250003D01*
X127214630Y-130429249D01*
X127214631Y-130429254D01*
X127274211Y-130599523D01*
X127333849Y-130694435D01*
X127370184Y-130752262D01*
X127497738Y-130879816D01*
X127553663Y-130914956D01*
X127649960Y-130975464D01*
X127650478Y-130975789D01*
X127713202Y-130997737D01*
X127820745Y-131035368D01*
X127820750Y-131035369D01*
X127999996Y-131055565D01*
X128000000Y-131055565D01*
X128000004Y-131055565D01*
X128179249Y-131035369D01*
X128179252Y-131035368D01*
X128179255Y-131035368D01*
X128349522Y-130975789D01*
X128502262Y-130879816D01*
X128629816Y-130752262D01*
X128725789Y-130599522D01*
X128785368Y-130429255D01*
X128805565Y-130250000D01*
X128785368Y-130070745D01*
X128725789Y-129900478D01*
X128629816Y-129747738D01*
X128502262Y-129620184D01*
X128399422Y-129555565D01*
X128349523Y-129524211D01*
X128179254Y-129464631D01*
X128179249Y-129464630D01*
X128000004Y-129444435D01*
X127999996Y-129444435D01*
X127820750Y-129464630D01*
X127820745Y-129464631D01*
X127650476Y-129524211D01*
X127497737Y-129620184D01*
X127370184Y-129747737D01*
X127274211Y-129900476D01*
X127214631Y-130070745D01*
X127214630Y-130070750D01*
X127194435Y-130249996D01*
X127194435Y-130250003D01*
X88525500Y-130250003D01*
X88525500Y-128750003D01*
X119194435Y-128750003D01*
X119214630Y-128929249D01*
X119214631Y-128929254D01*
X119274211Y-129099523D01*
X119353549Y-129225788D01*
X119370184Y-129252262D01*
X119497738Y-129379816D01*
X119588080Y-129436582D01*
X119632721Y-129464632D01*
X119650478Y-129475789D01*
X119788860Y-129524211D01*
X119820745Y-129535368D01*
X119820750Y-129535369D01*
X119999996Y-129555565D01*
X120000000Y-129555565D01*
X120000004Y-129555565D01*
X120179249Y-129535369D01*
X120179252Y-129535368D01*
X120179255Y-129535368D01*
X120349522Y-129475789D01*
X120502262Y-129379816D01*
X120629816Y-129252262D01*
X120725789Y-129099522D01*
X120785368Y-128929255D01*
X120805565Y-128750000D01*
X120797593Y-128679249D01*
X120785369Y-128570750D01*
X120785368Y-128570745D01*
X120760614Y-128500003D01*
X130944435Y-128500003D01*
X130964630Y-128679249D01*
X130964631Y-128679254D01*
X131024211Y-128849523D01*
X131120183Y-129002262D01*
X131120184Y-129002262D01*
X131247738Y-129129816D01*
X131400478Y-129225789D01*
X131570745Y-129285367D01*
X131570745Y-129285368D01*
X131570750Y-129285369D01*
X131749996Y-129305565D01*
X131750000Y-129305565D01*
X131750004Y-129305565D01*
X131929249Y-129285369D01*
X131929252Y-129285368D01*
X131929255Y-129285368D01*
X132099522Y-129225789D01*
X132252262Y-129129816D01*
X132379816Y-129002262D01*
X132475789Y-128849522D01*
X132535368Y-128679255D01*
X132535369Y-128679249D01*
X132555565Y-128500003D01*
X132555565Y-128499996D01*
X132535369Y-128320750D01*
X132535368Y-128320745D01*
X132475788Y-128150476D01*
X132379815Y-127997737D01*
X132252262Y-127870184D01*
X132099523Y-127774211D01*
X131929254Y-127714631D01*
X131929249Y-127714630D01*
X131750004Y-127694435D01*
X131749996Y-127694435D01*
X131570750Y-127714630D01*
X131570745Y-127714631D01*
X131400476Y-127774211D01*
X131247737Y-127870184D01*
X131120184Y-127997737D01*
X131024211Y-128150476D01*
X130964631Y-128320745D01*
X130964630Y-128320750D01*
X130944435Y-128499996D01*
X130944435Y-128500003D01*
X120760614Y-128500003D01*
X120760612Y-128499996D01*
X120725789Y-128400478D01*
X120629816Y-128247738D01*
X120502262Y-128120184D01*
X120502261Y-128120184D01*
X120349523Y-128024211D01*
X120179254Y-127964631D01*
X120179249Y-127964630D01*
X120000004Y-127944435D01*
X119999996Y-127944435D01*
X119820750Y-127964630D01*
X119820745Y-127964631D01*
X119650476Y-128024211D01*
X119497737Y-128120184D01*
X119370184Y-128247737D01*
X119274211Y-128400476D01*
X119214631Y-128570745D01*
X119214630Y-128570750D01*
X119194435Y-128749996D01*
X119194435Y-128750003D01*
X88525500Y-128750003D01*
X88525500Y-127250001D01*
X149194532Y-127250001D01*
X149214364Y-127476686D01*
X149214366Y-127476697D01*
X149273258Y-127696488D01*
X149273261Y-127696497D01*
X149369431Y-127902732D01*
X149369432Y-127902734D01*
X149499954Y-128089141D01*
X149660858Y-128250045D01*
X149660861Y-128250047D01*
X149847266Y-128380568D01*
X150053504Y-128476739D01*
X150273308Y-128535635D01*
X150435230Y-128549801D01*
X150499998Y-128555468D01*
X150500000Y-128555468D01*
X150500002Y-128555468D01*
X150556673Y-128550509D01*
X150726692Y-128535635D01*
X150946496Y-128476739D01*
X151152734Y-128380568D01*
X151339139Y-128250047D01*
X151500047Y-128089139D01*
X151630568Y-127902734D01*
X151726739Y-127696496D01*
X151785635Y-127476692D01*
X151805468Y-127250000D01*
X151785635Y-127023308D01*
X151726739Y-126803504D01*
X151630568Y-126597266D01*
X151500047Y-126410861D01*
X151500045Y-126410858D01*
X151339141Y-126249954D01*
X151152734Y-126119432D01*
X151152732Y-126119431D01*
X150946497Y-126023261D01*
X150946488Y-126023258D01*
X150726697Y-125964366D01*
X150726693Y-125964365D01*
X150726692Y-125964365D01*
X150726691Y-125964364D01*
X150726686Y-125964364D01*
X150500002Y-125944532D01*
X150499998Y-125944532D01*
X150273313Y-125964364D01*
X150273302Y-125964366D01*
X150053511Y-126023258D01*
X150053502Y-126023261D01*
X149847267Y-126119431D01*
X149847265Y-126119432D01*
X149660858Y-126249954D01*
X149499954Y-126410858D01*
X149369432Y-126597265D01*
X149369431Y-126597267D01*
X149273261Y-126803502D01*
X149273258Y-126803511D01*
X149214366Y-127023302D01*
X149214364Y-127023313D01*
X149194532Y-127249998D01*
X149194532Y-127250001D01*
X88525500Y-127250001D01*
X88525500Y-121285055D01*
X94199500Y-121285055D01*
X94240210Y-121450226D01*
X94319263Y-121600849D01*
X94319266Y-121600852D01*
X94432071Y-121728183D01*
X94522318Y-121790476D01*
X94572068Y-121824817D01*
X94572069Y-121824817D01*
X94572070Y-121824818D01*
X94640240Y-121850671D01*
X94717089Y-121879816D01*
X94731128Y-121885140D01*
X94807028Y-121894356D01*
X94857626Y-121900500D01*
X94857628Y-121900500D01*
X94942374Y-121900500D01*
X94984538Y-121895380D01*
X95068872Y-121885140D01*
X95227930Y-121824818D01*
X95367929Y-121728183D01*
X95480734Y-121600852D01*
X95559790Y-121450225D01*
X95600500Y-121285056D01*
X95600500Y-121114944D01*
X95559790Y-120949775D01*
X95533916Y-120900476D01*
X95480736Y-120799150D01*
X95435188Y-120747737D01*
X95367929Y-120671817D01*
X95293126Y-120620184D01*
X95227931Y-120575182D01*
X95068874Y-120514860D01*
X95068868Y-120514859D01*
X94942374Y-120499500D01*
X94942372Y-120499500D01*
X94857628Y-120499500D01*
X94857626Y-120499500D01*
X94731131Y-120514859D01*
X94731125Y-120514860D01*
X94572068Y-120575182D01*
X94432072Y-120671816D01*
X94319263Y-120799150D01*
X94240210Y-120949773D01*
X94199500Y-121114944D01*
X94199500Y-121285055D01*
X88525500Y-121285055D01*
X88525500Y-119000003D01*
X107694435Y-119000003D01*
X107714630Y-119179249D01*
X107714631Y-119179254D01*
X107774211Y-119349523D01*
X107868760Y-119499996D01*
X107870184Y-119502262D01*
X107997738Y-119629816D01*
X108150478Y-119725789D01*
X108320744Y-119785368D01*
X108320745Y-119785368D01*
X108320750Y-119785369D01*
X108499996Y-119805565D01*
X108500000Y-119805565D01*
X108500004Y-119805565D01*
X108679249Y-119785369D01*
X108679252Y-119785368D01*
X108679255Y-119785368D01*
X108849522Y-119725789D01*
X109002262Y-119629816D01*
X109129816Y-119502262D01*
X109131236Y-119500003D01*
X109170012Y-119438290D01*
X109222346Y-119391998D01*
X109291399Y-119381349D01*
X109355248Y-119409724D01*
X109380000Y-119438289D01*
X109420197Y-119502262D01*
X109547751Y-119629816D01*
X109700491Y-119725789D01*
X109870758Y-119785368D01*
X109870763Y-119785369D01*
X110050009Y-119805565D01*
X110050013Y-119805565D01*
X110050017Y-119805565D01*
X110229262Y-119785369D01*
X110229265Y-119785368D01*
X110229268Y-119785368D01*
X110399535Y-119725789D01*
X110552275Y-119629816D01*
X110552280Y-119629810D01*
X110555110Y-119627555D01*
X110557288Y-119626665D01*
X110558171Y-119626111D01*
X110558268Y-119626265D01*
X110619796Y-119601145D01*
X110632425Y-119600500D01*
X116299903Y-119600500D01*
X116366942Y-119620185D01*
X116387584Y-119636819D01*
X118019298Y-121268533D01*
X118052783Y-121329856D01*
X118054837Y-121342330D01*
X118064630Y-121429249D01*
X118124210Y-121599521D01*
X118205054Y-121728183D01*
X118220184Y-121752262D01*
X118347738Y-121879816D01*
X118500478Y-121975789D01*
X118641380Y-122025092D01*
X118698155Y-122065814D01*
X118723903Y-122130766D01*
X118710447Y-122199328D01*
X118688107Y-122229815D01*
X118620183Y-122297739D01*
X118524211Y-122450476D01*
X118464631Y-122620745D01*
X118464630Y-122620750D01*
X118444435Y-122799996D01*
X118444435Y-122800003D01*
X118464630Y-122979249D01*
X118464631Y-122979254D01*
X118524211Y-123149523D01*
X118584515Y-123245496D01*
X118612519Y-123290064D01*
X118620185Y-123302263D01*
X118622445Y-123305097D01*
X118623334Y-123307275D01*
X118623889Y-123308158D01*
X118623734Y-123308255D01*
X118648855Y-123369783D01*
X118649500Y-123382412D01*
X118649500Y-124706571D01*
X118648969Y-124714669D01*
X118644318Y-124750000D01*
X118646922Y-124769783D01*
X118649500Y-124789360D01*
X118664955Y-124906760D01*
X118664956Y-124906762D01*
X118725464Y-125052841D01*
X118821718Y-125178282D01*
X118849995Y-125199980D01*
X118856085Y-125205320D01*
X119595297Y-125944532D01*
X120294669Y-126643904D01*
X120300022Y-126650007D01*
X120321718Y-126678282D01*
X120447337Y-126774674D01*
X120449032Y-126775312D01*
X120593238Y-126835044D01*
X120671618Y-126845362D01*
X120749999Y-126855682D01*
X120750000Y-126855682D01*
X120785329Y-126851030D01*
X120793428Y-126850500D01*
X128706572Y-126850500D01*
X128714670Y-126851030D01*
X128750000Y-126855682D01*
X128750001Y-126855682D01*
X128802253Y-126848802D01*
X128906762Y-126835044D01*
X129052841Y-126774536D01*
X129178282Y-126678282D01*
X129199983Y-126649999D01*
X129205311Y-126643922D01*
X130306422Y-125542811D01*
X130312499Y-125537483D01*
X130340782Y-125515782D01*
X130437036Y-125390341D01*
X130497544Y-125244262D01*
X130513000Y-125126861D01*
X130518182Y-125087501D01*
X130513530Y-125052170D01*
X130512999Y-125044068D01*
X130512999Y-124906760D01*
X130512999Y-124782409D01*
X130532684Y-124715373D01*
X130540064Y-124705084D01*
X130542308Y-124702269D01*
X130542316Y-124702262D01*
X130638289Y-124549522D01*
X130697868Y-124379255D01*
X130718065Y-124200000D01*
X130715101Y-124173695D01*
X130697869Y-124020750D01*
X130697868Y-124020745D01*
X130638288Y-123850476D01*
X130542315Y-123697737D01*
X130414762Y-123570184D01*
X130262023Y-123474211D01*
X130213963Y-123457394D01*
X131545642Y-123457394D01*
X131555914Y-123627196D01*
X131606521Y-123789605D01*
X131606522Y-123789606D01*
X131694530Y-123935188D01*
X131814811Y-124055469D01*
X131814813Y-124055470D01*
X131814815Y-124055472D01*
X131960394Y-124143478D01*
X132122804Y-124194086D01*
X132292606Y-124204358D01*
X132459932Y-124173695D01*
X132615057Y-124103878D01*
X132715367Y-124025290D01*
X133049302Y-123691353D01*
X133096023Y-123661997D01*
X133199532Y-123625779D01*
X133352272Y-123529806D01*
X133479826Y-123402252D01*
X133575799Y-123249512D01*
X133635378Y-123079245D01*
X133646644Y-122979255D01*
X133655575Y-122899993D01*
X133655575Y-122899986D01*
X133635379Y-122720740D01*
X133635376Y-122720727D01*
X133575800Y-122550470D01*
X133575799Y-122550468D01*
X133569517Y-122540470D01*
X133550510Y-122474500D01*
X133550510Y-118925489D01*
X133569519Y-118859515D01*
X133575799Y-118849522D01*
X133635378Y-118679255D01*
X133635379Y-118679249D01*
X133655575Y-118500003D01*
X133655575Y-118499996D01*
X133635379Y-118320750D01*
X133635378Y-118320745D01*
X133575798Y-118150476D01*
X133485077Y-118006095D01*
X133479826Y-117997738D01*
X133352272Y-117870184D01*
X133264376Y-117814955D01*
X133199533Y-117774211D01*
X133029264Y-117714631D01*
X133029259Y-117714630D01*
X132850014Y-117694435D01*
X132850006Y-117694435D01*
X132670760Y-117714630D01*
X132670755Y-117714631D01*
X132500486Y-117774211D01*
X132347747Y-117870184D01*
X132220194Y-117997737D01*
X132124221Y-118150476D01*
X132064641Y-118320745D01*
X132064640Y-118320750D01*
X132044445Y-118499996D01*
X132044445Y-118500003D01*
X132064640Y-118679249D01*
X132064641Y-118679254D01*
X132124222Y-118849525D01*
X132130502Y-118859519D01*
X132149510Y-118925493D01*
X132149510Y-122474497D01*
X132130504Y-122540468D01*
X132124219Y-122550469D01*
X132088002Y-122653973D01*
X132058642Y-122700699D01*
X131724712Y-123034629D01*
X131646121Y-123134944D01*
X131576306Y-123290064D01*
X131576304Y-123290068D01*
X131553478Y-123414631D01*
X131545642Y-123457394D01*
X130213963Y-123457394D01*
X130091754Y-123414631D01*
X130091749Y-123414630D01*
X129912504Y-123394435D01*
X129912496Y-123394435D01*
X129733250Y-123414630D01*
X129733245Y-123414631D01*
X129562976Y-123474211D01*
X129410237Y-123570184D01*
X129282684Y-123697737D01*
X129186711Y-123850476D01*
X129127131Y-124020745D01*
X129127130Y-124020750D01*
X129106935Y-124199996D01*
X129106935Y-124200003D01*
X129127130Y-124379249D01*
X129127131Y-124379254D01*
X129186711Y-124549523D01*
X129282685Y-124702263D01*
X129284945Y-124705097D01*
X129285834Y-124707275D01*
X129286389Y-124708158D01*
X129286234Y-124708255D01*
X129311355Y-124769783D01*
X129312000Y-124782412D01*
X129312000Y-124787403D01*
X129292315Y-124854442D01*
X129275681Y-124875084D01*
X128537584Y-125613181D01*
X128476261Y-125646666D01*
X128449903Y-125649500D01*
X121050097Y-125649500D01*
X120983058Y-125629815D01*
X120962416Y-125613181D01*
X119886818Y-124537583D01*
X119853333Y-124476260D01*
X119850499Y-124449902D01*
X119850499Y-123935185D01*
X119850499Y-123382408D01*
X119870184Y-123315373D01*
X119877559Y-123305090D01*
X119879803Y-123302274D01*
X119879816Y-123302262D01*
X119975789Y-123149522D01*
X120035368Y-122979255D01*
X120044299Y-122899990D01*
X120055565Y-122800003D01*
X120055565Y-122799996D01*
X120035369Y-122620750D01*
X120035368Y-122620745D01*
X120010777Y-122550468D01*
X119975789Y-122450478D01*
X119879816Y-122297738D01*
X119752262Y-122170184D01*
X119689529Y-122130766D01*
X119599523Y-122074211D01*
X119458619Y-122024907D01*
X119401843Y-121984185D01*
X119376096Y-121919232D01*
X119389552Y-121850671D01*
X119411887Y-121820190D01*
X119479816Y-121752262D01*
X119575789Y-121599522D01*
X119635368Y-121429255D01*
X119645162Y-121342330D01*
X119655565Y-121250003D01*
X119655565Y-121249996D01*
X119635369Y-121070750D01*
X119635368Y-121070745D01*
X119575788Y-120900476D01*
X119479815Y-120747737D01*
X119352262Y-120620184D01*
X119199521Y-120524210D01*
X119091544Y-120486427D01*
X119057586Y-120474545D01*
X119000811Y-120433824D01*
X118975063Y-120368872D01*
X118988519Y-120300310D01*
X119036906Y-120249907D01*
X119057589Y-120240462D01*
X119099519Y-120225790D01*
X119099518Y-120225790D01*
X119099522Y-120225789D01*
X119252262Y-120129816D01*
X119379816Y-120002262D01*
X119475789Y-119849522D01*
X119535368Y-119679255D01*
X119535369Y-119679249D01*
X119555565Y-119500003D01*
X119555565Y-119499996D01*
X119535369Y-119320750D01*
X119535368Y-119320745D01*
X119501652Y-119224391D01*
X119475789Y-119150478D01*
X119379816Y-118997738D01*
X119252262Y-118870184D01*
X119235281Y-118859514D01*
X119099521Y-118774210D01*
X118929249Y-118714630D01*
X118842330Y-118704837D01*
X118777916Y-118677770D01*
X118768533Y-118669298D01*
X118469419Y-118370184D01*
X118105319Y-118006084D01*
X118099978Y-117999993D01*
X118078281Y-117971717D01*
X117952840Y-117875463D01*
X117940095Y-117870184D01*
X117806761Y-117814955D01*
X117806759Y-117814954D01*
X117689360Y-117799499D01*
X117649999Y-117794317D01*
X117614669Y-117798968D01*
X117606571Y-117799499D01*
X109143435Y-117799499D01*
X109135335Y-117798968D01*
X109100001Y-117794316D01*
X109100000Y-117794316D01*
X108943239Y-117814954D01*
X108797158Y-117875463D01*
X108671720Y-117971715D01*
X108650020Y-117999993D01*
X108644669Y-118006095D01*
X108481465Y-118169298D01*
X108420142Y-118202783D01*
X108407668Y-118204837D01*
X108320750Y-118214630D01*
X108150478Y-118274210D01*
X107997737Y-118370184D01*
X107870184Y-118497737D01*
X107774211Y-118650476D01*
X107714631Y-118820745D01*
X107714630Y-118820750D01*
X107694435Y-118999996D01*
X107694435Y-119000003D01*
X88525500Y-119000003D01*
X88525500Y-116885055D01*
X94199500Y-116885055D01*
X94240210Y-117050226D01*
X94319263Y-117200849D01*
X94319266Y-117200852D01*
X94432071Y-117328183D01*
X94522318Y-117390476D01*
X94572068Y-117424817D01*
X94572069Y-117424817D01*
X94572070Y-117424818D01*
X94731128Y-117485140D01*
X94807028Y-117494356D01*
X94857626Y-117500500D01*
X94857628Y-117500500D01*
X94942374Y-117500500D01*
X94984538Y-117495380D01*
X95068872Y-117485140D01*
X95227930Y-117424818D01*
X95367929Y-117328183D01*
X95480734Y-117200852D01*
X95559790Y-117050225D01*
X95600500Y-116885056D01*
X95600500Y-116714944D01*
X95559790Y-116549775D01*
X95559789Y-116549773D01*
X95533668Y-116500003D01*
X116694435Y-116500003D01*
X116714630Y-116679249D01*
X116714631Y-116679254D01*
X116774211Y-116849523D01*
X116870184Y-117002261D01*
X116870184Y-117002262D01*
X116997738Y-117129816D01*
X117150478Y-117225789D01*
X117320744Y-117285368D01*
X117320745Y-117285368D01*
X117320750Y-117285369D01*
X117499996Y-117305565D01*
X117500000Y-117305565D01*
X117500004Y-117305565D01*
X117679249Y-117285369D01*
X117679252Y-117285368D01*
X117679255Y-117285368D01*
X117849522Y-117225789D01*
X118002262Y-117129816D01*
X118129816Y-117002262D01*
X118225789Y-116849522D01*
X118285368Y-116679255D01*
X118305565Y-116500000D01*
X118285368Y-116320745D01*
X118225789Y-116150478D01*
X118129816Y-115997738D01*
X118002262Y-115870184D01*
X118002262Y-115870183D01*
X117849523Y-115774211D01*
X117679254Y-115714631D01*
X117679249Y-115714630D01*
X117500004Y-115694435D01*
X117499996Y-115694435D01*
X117320750Y-115714630D01*
X117320745Y-115714631D01*
X117150476Y-115774211D01*
X116997737Y-115870184D01*
X116870184Y-115997737D01*
X116774211Y-116150476D01*
X116714631Y-116320745D01*
X116714630Y-116320750D01*
X116694435Y-116499996D01*
X116694435Y-116500003D01*
X95533668Y-116500003D01*
X95480736Y-116399150D01*
X95461560Y-116377505D01*
X95367929Y-116271817D01*
X95318177Y-116237475D01*
X95227931Y-116175182D01*
X95068874Y-116114860D01*
X95068868Y-116114859D01*
X94942374Y-116099500D01*
X94942372Y-116099500D01*
X94857628Y-116099500D01*
X94857626Y-116099500D01*
X94731131Y-116114859D01*
X94731125Y-116114860D01*
X94572068Y-116175182D01*
X94432072Y-116271816D01*
X94319263Y-116399150D01*
X94240210Y-116549773D01*
X94199500Y-116714944D01*
X94199500Y-116885055D01*
X88525500Y-116885055D01*
X88525500Y-112147870D01*
X107399500Y-112147870D01*
X107399501Y-112147876D01*
X107405908Y-112207483D01*
X107456202Y-112342328D01*
X107456206Y-112342335D01*
X107542452Y-112457544D01*
X107542455Y-112457547D01*
X107657664Y-112543793D01*
X107657671Y-112543797D01*
X107792517Y-112594091D01*
X107792516Y-112594091D01*
X107799444Y-112594835D01*
X107852127Y-112600500D01*
X109647872Y-112600499D01*
X109707483Y-112594091D01*
X109842331Y-112543796D01*
X109957546Y-112457546D01*
X110043796Y-112342331D01*
X110093002Y-112210401D01*
X110134872Y-112154468D01*
X110200337Y-112130050D01*
X110268610Y-112144901D01*
X110296865Y-112166053D01*
X110418917Y-112288105D01*
X110612421Y-112423600D01*
X110826507Y-112523429D01*
X110826516Y-112523433D01*
X111054673Y-112584567D01*
X111054684Y-112584569D01*
X111289998Y-112605157D01*
X111290002Y-112605157D01*
X111525315Y-112584569D01*
X111525326Y-112584567D01*
X111753483Y-112523433D01*
X111753492Y-112523429D01*
X111967578Y-112423600D01*
X112161082Y-112288105D01*
X112328105Y-112121082D01*
X112458119Y-111935405D01*
X112512696Y-111891781D01*
X112582195Y-111884588D01*
X112644549Y-111916110D01*
X112661269Y-111935405D01*
X112791505Y-112121401D01*
X112958599Y-112288495D01*
X113055384Y-112356264D01*
X113152165Y-112424032D01*
X113152167Y-112424033D01*
X113152170Y-112424035D01*
X113366337Y-112523903D01*
X113594592Y-112585063D01*
X113771034Y-112600500D01*
X113829999Y-112605659D01*
X113830000Y-112605659D01*
X113830001Y-112605659D01*
X113888966Y-112600500D01*
X114065408Y-112585063D01*
X114293663Y-112523903D01*
X114507830Y-112424035D01*
X114701401Y-112288495D01*
X114868495Y-112121401D01*
X114998424Y-111935842D01*
X115053002Y-111892217D01*
X115122500Y-111885023D01*
X115184855Y-111916546D01*
X115201575Y-111935842D01*
X115331500Y-112121395D01*
X115331505Y-112121401D01*
X115498599Y-112288495D01*
X115595384Y-112356264D01*
X115692165Y-112424032D01*
X115692167Y-112424033D01*
X115692170Y-112424035D01*
X115906337Y-112523903D01*
X116134592Y-112585063D01*
X116311034Y-112600500D01*
X116369999Y-112605659D01*
X116370000Y-112605659D01*
X116370001Y-112605659D01*
X116428966Y-112600500D01*
X116605408Y-112585063D01*
X116833663Y-112523903D01*
X117047830Y-112424035D01*
X117241401Y-112288495D01*
X117408495Y-112121401D01*
X117538424Y-111935842D01*
X117593002Y-111892217D01*
X117662500Y-111885023D01*
X117724855Y-111916546D01*
X117741575Y-111935842D01*
X117871500Y-112121395D01*
X117871505Y-112121401D01*
X118038599Y-112288495D01*
X118135384Y-112356264D01*
X118232165Y-112424032D01*
X118232167Y-112424033D01*
X118232170Y-112424035D01*
X118446337Y-112523903D01*
X118674592Y-112585063D01*
X118851034Y-112600500D01*
X118909999Y-112605659D01*
X118910000Y-112605659D01*
X118910001Y-112605659D01*
X118968966Y-112600500D01*
X119145408Y-112585063D01*
X119373663Y-112523903D01*
X119587830Y-112424035D01*
X119781401Y-112288495D01*
X119948495Y-112121401D01*
X120084035Y-111927830D01*
X120183903Y-111713663D01*
X120245063Y-111485408D01*
X120265659Y-111250000D01*
X120245063Y-111014592D01*
X120183903Y-110786337D01*
X120084035Y-110572171D01*
X120078731Y-110564595D01*
X119948494Y-110378597D01*
X119781402Y-110211506D01*
X119781395Y-110211501D01*
X119587834Y-110075967D01*
X119587830Y-110075965D01*
X119576636Y-110070745D01*
X119373663Y-109976097D01*
X119373659Y-109976096D01*
X119373655Y-109976094D01*
X119145413Y-109914938D01*
X119145403Y-109914936D01*
X118910001Y-109894341D01*
X118909999Y-109894341D01*
X118674596Y-109914936D01*
X118674586Y-109914938D01*
X118446344Y-109976094D01*
X118446335Y-109976098D01*
X118232171Y-110075964D01*
X118232169Y-110075965D01*
X118038597Y-110211505D01*
X117871505Y-110378597D01*
X117741575Y-110564158D01*
X117686998Y-110607783D01*
X117617500Y-110614977D01*
X117555145Y-110583454D01*
X117538425Y-110564158D01*
X117408494Y-110378597D01*
X117241402Y-110211506D01*
X117241395Y-110211501D01*
X117047834Y-110075967D01*
X117047830Y-110075965D01*
X117036636Y-110070745D01*
X116833663Y-109976097D01*
X116833659Y-109976096D01*
X116833655Y-109976094D01*
X116605413Y-109914938D01*
X116605403Y-109914936D01*
X116370001Y-109894341D01*
X116369999Y-109894341D01*
X116134596Y-109914936D01*
X116134586Y-109914938D01*
X115906344Y-109976094D01*
X115906335Y-109976098D01*
X115692171Y-110075964D01*
X115692169Y-110075965D01*
X115498597Y-110211505D01*
X115331505Y-110378597D01*
X115201575Y-110564158D01*
X115146998Y-110607783D01*
X115077500Y-110614977D01*
X115015145Y-110583454D01*
X114998425Y-110564158D01*
X114868494Y-110378597D01*
X114701402Y-110211506D01*
X114701395Y-110211501D01*
X114507834Y-110075967D01*
X114507830Y-110075965D01*
X114496636Y-110070745D01*
X114293663Y-109976097D01*
X114293659Y-109976096D01*
X114293655Y-109976094D01*
X114065413Y-109914938D01*
X114065403Y-109914936D01*
X113830001Y-109894341D01*
X113829999Y-109894341D01*
X113594596Y-109914936D01*
X113594586Y-109914938D01*
X113366344Y-109976094D01*
X113366335Y-109976098D01*
X113152171Y-110075964D01*
X113152169Y-110075965D01*
X112958597Y-110211505D01*
X112791508Y-110378594D01*
X112661269Y-110564595D01*
X112606692Y-110608219D01*
X112537193Y-110615412D01*
X112474839Y-110583890D01*
X112458119Y-110564594D01*
X112328113Y-110378926D01*
X112328108Y-110378920D01*
X112161082Y-110211894D01*
X111967578Y-110076399D01*
X111753492Y-109976570D01*
X111753483Y-109976566D01*
X111525326Y-109915432D01*
X111525315Y-109915430D01*
X111290002Y-109894843D01*
X111289998Y-109894843D01*
X111054684Y-109915430D01*
X111054673Y-109915432D01*
X110826516Y-109976566D01*
X110826507Y-109976570D01*
X110612422Y-110076399D01*
X110612420Y-110076400D01*
X110418926Y-110211886D01*
X110296865Y-110333947D01*
X110235542Y-110367431D01*
X110165850Y-110362447D01*
X110109917Y-110320575D01*
X110093002Y-110289598D01*
X110091424Y-110285368D01*
X110043796Y-110157669D01*
X110043795Y-110157668D01*
X110043793Y-110157664D01*
X109957547Y-110042455D01*
X109957544Y-110042452D01*
X109842335Y-109956206D01*
X109842328Y-109956202D01*
X109707482Y-109905908D01*
X109707483Y-109905908D01*
X109647883Y-109899501D01*
X109647881Y-109899500D01*
X109647873Y-109899500D01*
X109647864Y-109899500D01*
X107852129Y-109899500D01*
X107852123Y-109899501D01*
X107792516Y-109905908D01*
X107657671Y-109956202D01*
X107657664Y-109956206D01*
X107542455Y-110042452D01*
X107542452Y-110042455D01*
X107456206Y-110157664D01*
X107456202Y-110157671D01*
X107405908Y-110292517D01*
X107399501Y-110352116D01*
X107399500Y-110352135D01*
X107399500Y-112147870D01*
X88525500Y-112147870D01*
X88525500Y-106750003D01*
X94944435Y-106750003D01*
X94964630Y-106929249D01*
X94964631Y-106929254D01*
X95024211Y-107099524D01*
X95080493Y-107189094D01*
X95099500Y-107255067D01*
X95099500Y-108664494D01*
X95097732Y-108680505D01*
X95097974Y-108680528D01*
X95097240Y-108688294D01*
X95099500Y-108760203D01*
X95099500Y-108790920D01*
X95099501Y-108790940D01*
X95100418Y-108798206D01*
X95100876Y-108804024D01*
X95102402Y-108852567D01*
X95102403Y-108852570D01*
X95108323Y-108872948D01*
X95112268Y-108891996D01*
X95114928Y-108913054D01*
X95114931Y-108913064D01*
X95132813Y-108958230D01*
X95134705Y-108963758D01*
X95148254Y-109010395D01*
X95148255Y-109010397D01*
X95159060Y-109028666D01*
X95167617Y-109046134D01*
X95173226Y-109060300D01*
X95175432Y-109065872D01*
X95203983Y-109105170D01*
X95207188Y-109110049D01*
X95231919Y-109151865D01*
X95231923Y-109151869D01*
X95246925Y-109166871D01*
X95259563Y-109181669D01*
X95272033Y-109198833D01*
X95272036Y-109198836D01*
X95272037Y-109198837D01*
X95309476Y-109229809D01*
X95313776Y-109233722D01*
X96036256Y-109956202D01*
X96729564Y-110649510D01*
X96739635Y-110662080D01*
X96739822Y-110661926D01*
X96744796Y-110667937D01*
X96744798Y-110667940D01*
X96773345Y-110694748D01*
X96797243Y-110717190D01*
X96818967Y-110738913D01*
X96824757Y-110743405D01*
X96829197Y-110747197D01*
X96858498Y-110774711D01*
X96864607Y-110780448D01*
X96870584Y-110783734D01*
X96883205Y-110790672D01*
X96899470Y-110801357D01*
X96916232Y-110814360D01*
X96916235Y-110814361D01*
X96916236Y-110814362D01*
X96960823Y-110833656D01*
X96966059Y-110836221D01*
X97008632Y-110859627D01*
X97024340Y-110863659D01*
X97029186Y-110864904D01*
X97047598Y-110871207D01*
X97067073Y-110879635D01*
X97115071Y-110887237D01*
X97120740Y-110888411D01*
X97167823Y-110900500D01*
X97189051Y-110900500D01*
X97208448Y-110902026D01*
X97229403Y-110905345D01*
X97229404Y-110905346D01*
X97229404Y-110905345D01*
X97229405Y-110905346D01*
X97277760Y-110900775D01*
X97283599Y-110900500D01*
X102244932Y-110900500D01*
X102310904Y-110919506D01*
X102400477Y-110975789D01*
X102400481Y-110975790D01*
X102570737Y-111035366D01*
X102570743Y-111035367D01*
X102570745Y-111035368D01*
X102570746Y-111035368D01*
X102570750Y-111035369D01*
X102749996Y-111055565D01*
X102750000Y-111055565D01*
X102750004Y-111055565D01*
X102929249Y-111035369D01*
X102929252Y-111035368D01*
X102929255Y-111035368D01*
X103099522Y-110975789D01*
X103252262Y-110879816D01*
X103379816Y-110752262D01*
X103475789Y-110599522D01*
X103535368Y-110429255D01*
X103541039Y-110378926D01*
X103555565Y-110250003D01*
X103555565Y-110249996D01*
X103535369Y-110070750D01*
X103535368Y-110070745D01*
X103502413Y-109976566D01*
X103475789Y-109900478D01*
X103475174Y-109899500D01*
X103379815Y-109747737D01*
X103252262Y-109620184D01*
X103099523Y-109524211D01*
X102929254Y-109464631D01*
X102929249Y-109464630D01*
X102750004Y-109444435D01*
X102749996Y-109444435D01*
X102570750Y-109464630D01*
X102570737Y-109464633D01*
X102400481Y-109524209D01*
X102400477Y-109524210D01*
X102310904Y-109580494D01*
X102244932Y-109599500D01*
X97570808Y-109599500D01*
X97503769Y-109579815D01*
X97483127Y-109563181D01*
X96436818Y-108516872D01*
X96403333Y-108455549D01*
X96400499Y-108429199D01*
X96400499Y-107255065D01*
X96419506Y-107189094D01*
X96475789Y-107099522D01*
X96535368Y-106929255D01*
X96542024Y-106870184D01*
X96555565Y-106750003D01*
X96555565Y-106749996D01*
X96535369Y-106570750D01*
X96535368Y-106570745D01*
X96475788Y-106400476D01*
X96379815Y-106247737D01*
X96252262Y-106120184D01*
X96099523Y-106024211D01*
X95929254Y-105964631D01*
X95929249Y-105964630D01*
X95750004Y-105944435D01*
X95749996Y-105944435D01*
X95570750Y-105964630D01*
X95570745Y-105964631D01*
X95400476Y-106024211D01*
X95247737Y-106120184D01*
X95120184Y-106247737D01*
X95024211Y-106400476D01*
X94964631Y-106570745D01*
X94964630Y-106570750D01*
X94944435Y-106749996D01*
X94944435Y-106750003D01*
X88525500Y-106750003D01*
X88525500Y-97385556D01*
X88545185Y-97318517D01*
X88597989Y-97272762D01*
X88667147Y-97262818D01*
X88730703Y-97291843D01*
X88765263Y-97341118D01*
X88785685Y-97394318D01*
X88797745Y-97425736D01*
X88964320Y-97752656D01*
X89164147Y-98060364D01*
X89250179Y-98166604D01*
X89395051Y-98345506D01*
X89654494Y-98604949D01*
X89654498Y-98604952D01*
X89939635Y-98835852D01*
X90247343Y-99035679D01*
X90247348Y-99035682D01*
X90574264Y-99202255D01*
X90916801Y-99333742D01*
X91271206Y-99428705D01*
X91633596Y-99486102D01*
X91979734Y-99504241D01*
X91999999Y-99505304D01*
X92000000Y-99505304D01*
X92000001Y-99505304D01*
X92019203Y-99504297D01*
X92366404Y-99486102D01*
X92728794Y-99428705D01*
X93083199Y-99333742D01*
X93425736Y-99202255D01*
X93752652Y-99035682D01*
X94060366Y-98835851D01*
X94345506Y-98604949D01*
X94604949Y-98345506D01*
X94835851Y-98060366D01*
X95035682Y-97752652D01*
X95202255Y-97425736D01*
X95333742Y-97083199D01*
X95428705Y-96728794D01*
X95486102Y-96366404D01*
X95505304Y-96000000D01*
X95486102Y-95633596D01*
X95428705Y-95271206D01*
X95333742Y-94916801D01*
X95202255Y-94574264D01*
X95067605Y-94310000D01*
X98394341Y-94310000D01*
X98414936Y-94545403D01*
X98414938Y-94545413D01*
X98476094Y-94773655D01*
X98476096Y-94773659D01*
X98476097Y-94773663D01*
X98542840Y-94916793D01*
X98575965Y-94987830D01*
X98575967Y-94987834D01*
X98592386Y-95011282D01*
X98711505Y-95181401D01*
X98878599Y-95348495D01*
X98958354Y-95404340D01*
X99072165Y-95484032D01*
X99072167Y-95484033D01*
X99072170Y-95484035D01*
X99286337Y-95583903D01*
X99514592Y-95645063D01*
X99702918Y-95661539D01*
X99749999Y-95665659D01*
X99750000Y-95665659D01*
X99750001Y-95665659D01*
X99789234Y-95662226D01*
X99985408Y-95645063D01*
X100213663Y-95583903D01*
X100427830Y-95484035D01*
X100621401Y-95348495D01*
X100788495Y-95181401D01*
X100918424Y-94995842D01*
X100973002Y-94952217D01*
X101042500Y-94945023D01*
X101104855Y-94976546D01*
X101121575Y-94995842D01*
X101251501Y-95181396D01*
X101251506Y-95181402D01*
X101418597Y-95348493D01*
X101418603Y-95348498D01*
X101604158Y-95478425D01*
X101647783Y-95533002D01*
X101654977Y-95602500D01*
X101623454Y-95664855D01*
X101604158Y-95681575D01*
X101418597Y-95811505D01*
X101251505Y-95978597D01*
X101115965Y-96172169D01*
X101115964Y-96172171D01*
X101016098Y-96386335D01*
X101016094Y-96386344D01*
X100954938Y-96614586D01*
X100954936Y-96614596D01*
X100934341Y-96849999D01*
X100934341Y-96850000D01*
X100954936Y-97085403D01*
X100954938Y-97085413D01*
X101016094Y-97313655D01*
X101016096Y-97313659D01*
X101016097Y-97313663D01*
X101063331Y-97414956D01*
X101115965Y-97527830D01*
X101115967Y-97527834D01*
X101170766Y-97606094D01*
X101251505Y-97721401D01*
X101418599Y-97888495D01*
X101500500Y-97945843D01*
X101612165Y-98024032D01*
X101612167Y-98024033D01*
X101612170Y-98024035D01*
X101826337Y-98123903D01*
X102054592Y-98185063D01*
X102242918Y-98201539D01*
X102289999Y-98205659D01*
X102290000Y-98205659D01*
X102290001Y-98205659D01*
X102329234Y-98202226D01*
X102525408Y-98185063D01*
X102753663Y-98123903D01*
X102967830Y-98024035D01*
X103161401Y-97888495D01*
X103328495Y-97721401D01*
X103458424Y-97535842D01*
X103513002Y-97492217D01*
X103582500Y-97485023D01*
X103644855Y-97516546D01*
X103661575Y-97535842D01*
X103791500Y-97721395D01*
X103791505Y-97721401D01*
X103958599Y-97888495D01*
X104040500Y-97945843D01*
X104152165Y-98024032D01*
X104152167Y-98024033D01*
X104152170Y-98024035D01*
X104366337Y-98123903D01*
X104594592Y-98185063D01*
X104782918Y-98201539D01*
X104829999Y-98205659D01*
X104830000Y-98205659D01*
X104830001Y-98205659D01*
X104869234Y-98202226D01*
X105065408Y-98185063D01*
X105293663Y-98123903D01*
X105507830Y-98024035D01*
X105701401Y-97888495D01*
X105868495Y-97721401D01*
X105998424Y-97535842D01*
X106053002Y-97492217D01*
X106122500Y-97485023D01*
X106184855Y-97516546D01*
X106201575Y-97535842D01*
X106331500Y-97721395D01*
X106331505Y-97721401D01*
X106498599Y-97888495D01*
X106580500Y-97945843D01*
X106692165Y-98024032D01*
X106692167Y-98024033D01*
X106692170Y-98024035D01*
X106906337Y-98123903D01*
X107134592Y-98185063D01*
X107322918Y-98201539D01*
X107369999Y-98205659D01*
X107370000Y-98205659D01*
X107370001Y-98205659D01*
X107409234Y-98202226D01*
X107605408Y-98185063D01*
X107833663Y-98123903D01*
X108047830Y-98024035D01*
X108241401Y-97888495D01*
X108408495Y-97721401D01*
X108538424Y-97535842D01*
X108593002Y-97492217D01*
X108662500Y-97485023D01*
X108724855Y-97516546D01*
X108741575Y-97535842D01*
X108871500Y-97721395D01*
X108871505Y-97721401D01*
X109038599Y-97888495D01*
X109120500Y-97945843D01*
X109232165Y-98024032D01*
X109232167Y-98024033D01*
X109232170Y-98024035D01*
X109446337Y-98123903D01*
X109674592Y-98185063D01*
X109862918Y-98201539D01*
X109909999Y-98205659D01*
X109910000Y-98205659D01*
X109910001Y-98205659D01*
X109949234Y-98202226D01*
X110145408Y-98185063D01*
X110373663Y-98123903D01*
X110587830Y-98024035D01*
X110781401Y-97888495D01*
X110948495Y-97721401D01*
X111078424Y-97535842D01*
X111133002Y-97492217D01*
X111202500Y-97485023D01*
X111264855Y-97516546D01*
X111281575Y-97535842D01*
X111411500Y-97721395D01*
X111411505Y-97721401D01*
X111578599Y-97888495D01*
X111660500Y-97945843D01*
X111772165Y-98024032D01*
X111772167Y-98024033D01*
X111772170Y-98024035D01*
X111986337Y-98123903D01*
X112214592Y-98185063D01*
X112402918Y-98201539D01*
X112449999Y-98205659D01*
X112450000Y-98205659D01*
X112450001Y-98205659D01*
X112489234Y-98202226D01*
X112685408Y-98185063D01*
X112843409Y-98142727D01*
X112913257Y-98144390D01*
X112971120Y-98183552D01*
X112998624Y-98247781D01*
X112999501Y-98262502D01*
X112999501Y-101806572D01*
X112998970Y-101814674D01*
X112994319Y-101850000D01*
X112994319Y-101850001D01*
X112999501Y-101889361D01*
X113014956Y-102006761D01*
X113014957Y-102006763D01*
X113075465Y-102152842D01*
X113171719Y-102278283D01*
X113199996Y-102299981D01*
X113206086Y-102305321D01*
X113850856Y-102950091D01*
X114419298Y-103518533D01*
X114452783Y-103579856D01*
X114454837Y-103592330D01*
X114464630Y-103679249D01*
X114524210Y-103849521D01*
X114620184Y-104002261D01*
X114620184Y-104002262D01*
X114747738Y-104129816D01*
X114838080Y-104186581D01*
X114896817Y-104223489D01*
X114900478Y-104225789D01*
X115070739Y-104285366D01*
X115070745Y-104285368D01*
X115070750Y-104285369D01*
X115249996Y-104305565D01*
X115250000Y-104305565D01*
X115250004Y-104305565D01*
X115429249Y-104285369D01*
X115429251Y-104285368D01*
X115429255Y-104285368D01*
X115429258Y-104285366D01*
X115429262Y-104285366D01*
X115606095Y-104223489D01*
X115606846Y-104225637D01*
X115665128Y-104216035D01*
X115693592Y-104224391D01*
X115693908Y-104223489D01*
X115870748Y-104285368D01*
X115870753Y-104285369D01*
X116049999Y-104305565D01*
X116050003Y-104305565D01*
X116050007Y-104305565D01*
X116229252Y-104285369D01*
X116229255Y-104285368D01*
X116229258Y-104285368D01*
X116399525Y-104225789D01*
X116552265Y-104129816D01*
X116679819Y-104002262D01*
X116775792Y-103849522D01*
X116835371Y-103679255D01*
X116848068Y-103566558D01*
X116870846Y-103510089D01*
X116870476Y-103509876D01*
X116871989Y-103507255D01*
X116872917Y-103504953D01*
X116874538Y-103502842D01*
X116935046Y-103356763D01*
X116950502Y-103239362D01*
X116955684Y-103200001D01*
X116951032Y-103164670D01*
X116950502Y-103156572D01*
X116950502Y-100000005D01*
X126494357Y-100000005D01*
X126514890Y-100247812D01*
X126514892Y-100247824D01*
X126575936Y-100488881D01*
X126675826Y-100716606D01*
X126811833Y-100924782D01*
X126811836Y-100924785D01*
X126980256Y-101107738D01*
X127176491Y-101260474D01*
X127395190Y-101378828D01*
X127630386Y-101459571D01*
X127875665Y-101500500D01*
X128124335Y-101500500D01*
X128369614Y-101459571D01*
X128604810Y-101378828D01*
X128823509Y-101260474D01*
X129019744Y-101107738D01*
X129188164Y-100924785D01*
X129324173Y-100716607D01*
X129424063Y-100488881D01*
X129485108Y-100247821D01*
X129505643Y-100000005D01*
X132994357Y-100000005D01*
X133014890Y-100247812D01*
X133014892Y-100247824D01*
X133075936Y-100488881D01*
X133175826Y-100716606D01*
X133311833Y-100924782D01*
X133311836Y-100924785D01*
X133480256Y-101107738D01*
X133676491Y-101260474D01*
X133895190Y-101378828D01*
X134130386Y-101459571D01*
X134375665Y-101500500D01*
X134624335Y-101500500D01*
X134869608Y-101459572D01*
X134869607Y-101459572D01*
X134869614Y-101459571D01*
X134975607Y-101423182D01*
X135045402Y-101420033D01*
X135103548Y-101452783D01*
X135363181Y-101712416D01*
X135396666Y-101773739D01*
X135399500Y-101800097D01*
X135399500Y-117917587D01*
X135379815Y-117984626D01*
X135372450Y-117994896D01*
X135370186Y-117997734D01*
X135274211Y-118150476D01*
X135214631Y-118320745D01*
X135214630Y-118320750D01*
X135194435Y-118499996D01*
X135194435Y-118500003D01*
X135214630Y-118679249D01*
X135214631Y-118679254D01*
X135274211Y-118849523D01*
X135367341Y-118997737D01*
X135370184Y-119002262D01*
X135497738Y-119129816D01*
X135576410Y-119179249D01*
X135646817Y-119223489D01*
X135650478Y-119225789D01*
X135820739Y-119285366D01*
X135820745Y-119285368D01*
X135820750Y-119285369D01*
X135999996Y-119305565D01*
X136000000Y-119305565D01*
X136000004Y-119305565D01*
X136179249Y-119285369D01*
X136179251Y-119285368D01*
X136179255Y-119285368D01*
X136179258Y-119285366D01*
X136179262Y-119285366D01*
X136356095Y-119223489D01*
X136356846Y-119225637D01*
X136415128Y-119216035D01*
X136443592Y-119224391D01*
X136443908Y-119223489D01*
X136620748Y-119285368D01*
X136620753Y-119285369D01*
X136799999Y-119305565D01*
X136800003Y-119305565D01*
X136800007Y-119305565D01*
X136979252Y-119285369D01*
X136979254Y-119285368D01*
X136979258Y-119285368D01*
X136979261Y-119285366D01*
X136979265Y-119285366D01*
X137156098Y-119223489D01*
X137156849Y-119225637D01*
X137215131Y-119216035D01*
X137243595Y-119224391D01*
X137243911Y-119223489D01*
X137420751Y-119285368D01*
X137420756Y-119285369D01*
X137600002Y-119305565D01*
X137600006Y-119305565D01*
X137600010Y-119305565D01*
X137779255Y-119285369D01*
X137779258Y-119285368D01*
X137779261Y-119285368D01*
X137949528Y-119225789D01*
X138102268Y-119129816D01*
X138229822Y-119002262D01*
X138325795Y-118849522D01*
X138385374Y-118679255D01*
X138385375Y-118679249D01*
X138405571Y-118500003D01*
X138405571Y-118499996D01*
X138385375Y-118320750D01*
X138385374Y-118320745D01*
X138325794Y-118150476D01*
X138235073Y-118006095D01*
X138229822Y-117997738D01*
X138229820Y-117997736D01*
X138229819Y-117997734D01*
X138227556Y-117994896D01*
X138226665Y-117992715D01*
X138226117Y-117991842D01*
X138226270Y-117991745D01*
X138201150Y-117930209D01*
X138200506Y-117917587D01*
X138200506Y-112010002D01*
X149195034Y-112010002D01*
X149214858Y-112236599D01*
X149214860Y-112236610D01*
X149273730Y-112456317D01*
X149273734Y-112456326D01*
X149369865Y-112662482D01*
X149500342Y-112848820D01*
X149661179Y-113009657D01*
X149847517Y-113140134D01*
X150053673Y-113236265D01*
X150053682Y-113236269D01*
X150273389Y-113295139D01*
X150273400Y-113295141D01*
X150499998Y-113314966D01*
X150500002Y-113314966D01*
X150726599Y-113295141D01*
X150726610Y-113295139D01*
X150946317Y-113236269D01*
X150946326Y-113236265D01*
X151152482Y-113140134D01*
X151338820Y-113009657D01*
X151499657Y-112848820D01*
X151630134Y-112662482D01*
X151726265Y-112456326D01*
X151726269Y-112456317D01*
X151785139Y-112236610D01*
X151785141Y-112236599D01*
X151804966Y-112010002D01*
X151804966Y-112009997D01*
X151785141Y-111783400D01*
X151785139Y-111783389D01*
X151726269Y-111563682D01*
X151726265Y-111563673D01*
X151630134Y-111357517D01*
X151499657Y-111171179D01*
X151338820Y-111010342D01*
X151152482Y-110879865D01*
X150946326Y-110783734D01*
X150946317Y-110783730D01*
X150726610Y-110724860D01*
X150726599Y-110724858D01*
X150500002Y-110705034D01*
X150499998Y-110705034D01*
X150273400Y-110724858D01*
X150273389Y-110724860D01*
X150053682Y-110783730D01*
X150053673Y-110783734D01*
X149847517Y-110879865D01*
X149661179Y-111010342D01*
X149500342Y-111171179D01*
X149369865Y-111357517D01*
X149273734Y-111563673D01*
X149273730Y-111563682D01*
X149214860Y-111783389D01*
X149214858Y-111783400D01*
X149195034Y-112009997D01*
X149195034Y-112010002D01*
X138200506Y-112010002D01*
X138200506Y-109500003D01*
X144944435Y-109500003D01*
X144964630Y-109679249D01*
X144964631Y-109679254D01*
X145024211Y-109849523D01*
X145103743Y-109976097D01*
X145120184Y-110002262D01*
X145247738Y-110129816D01*
X145292058Y-110157664D01*
X145378351Y-110211886D01*
X145400478Y-110225789D01*
X145469678Y-110250003D01*
X145570745Y-110285368D01*
X145570750Y-110285369D01*
X145749996Y-110305565D01*
X145750000Y-110305565D01*
X145750004Y-110305565D01*
X145929249Y-110285369D01*
X145929251Y-110285368D01*
X145929255Y-110285368D01*
X145929258Y-110285366D01*
X145929262Y-110285366D01*
X146084044Y-110231205D01*
X146153823Y-110227643D01*
X146165954Y-110231205D01*
X146320737Y-110285366D01*
X146320743Y-110285367D01*
X146320745Y-110285368D01*
X146320746Y-110285368D01*
X146320750Y-110285369D01*
X146499996Y-110305565D01*
X146500000Y-110305565D01*
X146500004Y-110305565D01*
X146679249Y-110285369D01*
X146679252Y-110285368D01*
X146679255Y-110285368D01*
X146849522Y-110225789D01*
X147002262Y-110129816D01*
X147129816Y-110002262D01*
X147225789Y-109849522D01*
X147285368Y-109679255D01*
X147296572Y-109579815D01*
X147305565Y-109500003D01*
X147305565Y-109499996D01*
X147285368Y-109320747D01*
X147285368Y-109320745D01*
X147257458Y-109240982D01*
X147250500Y-109200028D01*
X147250500Y-107799972D01*
X147257458Y-107759017D01*
X147285368Y-107679254D01*
X147285369Y-107679249D01*
X147305565Y-107500003D01*
X147305565Y-107499996D01*
X147285369Y-107320750D01*
X147285368Y-107320745D01*
X147225788Y-107150476D01*
X147129815Y-106997737D01*
X147002262Y-106870184D01*
X146849523Y-106774211D01*
X146679254Y-106714631D01*
X146679249Y-106714630D01*
X146500004Y-106694435D01*
X146499996Y-106694435D01*
X146320750Y-106714630D01*
X146320742Y-106714632D01*
X146165954Y-106768795D01*
X146096176Y-106772356D01*
X146084046Y-106768795D01*
X145929257Y-106714632D01*
X145929249Y-106714630D01*
X145750004Y-106694435D01*
X145749996Y-106694435D01*
X145570750Y-106714630D01*
X145570745Y-106714631D01*
X145400476Y-106774211D01*
X145247737Y-106870184D01*
X145120184Y-106997737D01*
X145024211Y-107150476D01*
X144964631Y-107320745D01*
X144964630Y-107320750D01*
X144944435Y-107499996D01*
X144944435Y-107500003D01*
X144964630Y-107679249D01*
X144964631Y-107679254D01*
X144992542Y-107759017D01*
X144999500Y-107799972D01*
X144999500Y-109200028D01*
X144992542Y-109240982D01*
X144964631Y-109320747D01*
X144944435Y-109499996D01*
X144944435Y-109500003D01*
X138200506Y-109500003D01*
X138200506Y-102950091D01*
X138220191Y-102883052D01*
X138236825Y-102862410D01*
X142462416Y-98636819D01*
X142523739Y-98603334D01*
X142550097Y-98600500D01*
X143493912Y-98600500D01*
X143560951Y-98620185D01*
X143606706Y-98672989D01*
X143616650Y-98742147D01*
X143587625Y-98805703D01*
X143570074Y-98822353D01*
X143480262Y-98892256D01*
X143480259Y-98892259D01*
X143311833Y-99075217D01*
X143175826Y-99283393D01*
X143075936Y-99511118D01*
X143014892Y-99752175D01*
X143014890Y-99752187D01*
X142994357Y-99999994D01*
X142994357Y-100000005D01*
X143014890Y-100247812D01*
X143014892Y-100247824D01*
X143075936Y-100488881D01*
X143175826Y-100716606D01*
X143311833Y-100924782D01*
X143311836Y-100924785D01*
X143480256Y-101107738D01*
X143676491Y-101260474D01*
X143895190Y-101378828D01*
X144130386Y-101459571D01*
X144375665Y-101500500D01*
X144624335Y-101500500D01*
X144869614Y-101459571D01*
X145104810Y-101378828D01*
X145323509Y-101260474D01*
X145519744Y-101107738D01*
X145688164Y-100924785D01*
X145824173Y-100716607D01*
X145924063Y-100488881D01*
X145985108Y-100247821D01*
X146005643Y-100000000D01*
X145985108Y-99752179D01*
X145924063Y-99511119D01*
X145921512Y-99505304D01*
X145824173Y-99283393D01*
X145688166Y-99075217D01*
X145651771Y-99035682D01*
X145519744Y-98892262D01*
X145519739Y-98892258D01*
X145519737Y-98892256D01*
X145429926Y-98822353D01*
X145389113Y-98765643D01*
X145385438Y-98695870D01*
X145420070Y-98635187D01*
X145482011Y-98602860D01*
X145506088Y-98600500D01*
X145699903Y-98600500D01*
X145766942Y-98620185D01*
X145787584Y-98636819D01*
X146543482Y-99392717D01*
X146576967Y-99454040D01*
X146576007Y-99510838D01*
X146514892Y-99752174D01*
X146514890Y-99752187D01*
X146494357Y-99999994D01*
X146494357Y-100000005D01*
X146514890Y-100247812D01*
X146514892Y-100247824D01*
X146575936Y-100488881D01*
X146675826Y-100716606D01*
X146811833Y-100924782D01*
X146811836Y-100924785D01*
X146980256Y-101107738D01*
X147176491Y-101260474D01*
X147395190Y-101378828D01*
X147630386Y-101459571D01*
X147875665Y-101500500D01*
X148124335Y-101500500D01*
X148369614Y-101459571D01*
X148604810Y-101378828D01*
X148823509Y-101260474D01*
X149019744Y-101107738D01*
X149188164Y-100924785D01*
X149324173Y-100716607D01*
X149424063Y-100488881D01*
X149485108Y-100247821D01*
X149505643Y-100000005D01*
X152994357Y-100000005D01*
X153014890Y-100247812D01*
X153014892Y-100247824D01*
X153075936Y-100488881D01*
X153175826Y-100716606D01*
X153311833Y-100924782D01*
X153311836Y-100924785D01*
X153480256Y-101107738D01*
X153676491Y-101260474D01*
X153895190Y-101378828D01*
X154130386Y-101459571D01*
X154375665Y-101500500D01*
X154624335Y-101500500D01*
X154869614Y-101459571D01*
X155104810Y-101378828D01*
X155323509Y-101260474D01*
X155519744Y-101107738D01*
X155688164Y-100924785D01*
X155824173Y-100716607D01*
X155924063Y-100488881D01*
X155985108Y-100247821D01*
X156005643Y-100000000D01*
X155985108Y-99752179D01*
X155924063Y-99511119D01*
X155921512Y-99505304D01*
X155824173Y-99283393D01*
X155688166Y-99075217D01*
X155651771Y-99035682D01*
X155519744Y-98892262D01*
X155323509Y-98739526D01*
X155323507Y-98739525D01*
X155323506Y-98739524D01*
X155104811Y-98621172D01*
X155104802Y-98621169D01*
X154869616Y-98540429D01*
X154624335Y-98499500D01*
X154375665Y-98499500D01*
X154130383Y-98540429D01*
X153895197Y-98621169D01*
X153895188Y-98621172D01*
X153676493Y-98739524D01*
X153480257Y-98892261D01*
X153311833Y-99075217D01*
X153175826Y-99283393D01*
X153075936Y-99511118D01*
X153014892Y-99752175D01*
X153014890Y-99752187D01*
X152994357Y-99999994D01*
X152994357Y-100000005D01*
X149505643Y-100000005D01*
X149505643Y-100000000D01*
X149485108Y-99752179D01*
X149424063Y-99511119D01*
X149421512Y-99505304D01*
X149324173Y-99283393D01*
X149188166Y-99075217D01*
X149151771Y-99035682D01*
X149019744Y-98892262D01*
X148823509Y-98739526D01*
X148823507Y-98739525D01*
X148823506Y-98739524D01*
X148604811Y-98621172D01*
X148604802Y-98621169D01*
X148369616Y-98540429D01*
X148124335Y-98499500D01*
X147875665Y-98499500D01*
X147630382Y-98540429D01*
X147630380Y-98540429D01*
X147524393Y-98576815D01*
X147454595Y-98579965D01*
X147396450Y-98547215D01*
X146933110Y-98083875D01*
X146455320Y-97606085D01*
X146449979Y-97599994D01*
X146428282Y-97571718D01*
X146302841Y-97475464D01*
X146156762Y-97414956D01*
X146156760Y-97414955D01*
X146039361Y-97399500D01*
X146000000Y-97394318D01*
X145964670Y-97398969D01*
X145956572Y-97399500D01*
X142293434Y-97399500D01*
X142285334Y-97398969D01*
X142250000Y-97394317D01*
X142249999Y-97394317D01*
X142093238Y-97414955D01*
X141947157Y-97475464D01*
X141821719Y-97571716D01*
X141800019Y-97599994D01*
X141794668Y-97606096D01*
X139672454Y-99728309D01*
X139611131Y-99761794D01*
X139541439Y-99756810D01*
X139485506Y-99714938D01*
X139464568Y-99671071D01*
X139424063Y-99511119D01*
X139324173Y-99283393D01*
X139271162Y-99202253D01*
X139188166Y-99075217D01*
X139151771Y-99035682D01*
X139019744Y-98892262D01*
X138823509Y-98739526D01*
X138823507Y-98739525D01*
X138823506Y-98739524D01*
X138604811Y-98621172D01*
X138604802Y-98621169D01*
X138369616Y-98540429D01*
X138124335Y-98499500D01*
X137875665Y-98499500D01*
X137630383Y-98540429D01*
X137395197Y-98621169D01*
X137395188Y-98621172D01*
X137176493Y-98739524D01*
X136980257Y-98892261D01*
X136811833Y-99075217D01*
X136675826Y-99283393D01*
X136575936Y-99511118D01*
X136514892Y-99752175D01*
X136514890Y-99752187D01*
X136494357Y-99999994D01*
X136494357Y-100000005D01*
X136514890Y-100247812D01*
X136514892Y-100247824D01*
X136576007Y-100489160D01*
X136573382Y-100558980D01*
X136543482Y-100607281D01*
X136406099Y-100744665D01*
X136399996Y-100750017D01*
X136371720Y-100771714D01*
X136371719Y-100771715D01*
X136348916Y-100801433D01*
X136292488Y-100842635D01*
X136222742Y-100846788D01*
X136162861Y-100813626D01*
X135956516Y-100607281D01*
X135923031Y-100545958D01*
X135923992Y-100489159D01*
X135924061Y-100488884D01*
X135924063Y-100488881D01*
X135985108Y-100247821D01*
X136005643Y-100000000D01*
X135985108Y-99752179D01*
X135924063Y-99511119D01*
X135921512Y-99505304D01*
X135824173Y-99283393D01*
X135688166Y-99075217D01*
X135651771Y-99035682D01*
X135519744Y-98892262D01*
X135323509Y-98739526D01*
X135323507Y-98739525D01*
X135323506Y-98739524D01*
X135104811Y-98621172D01*
X135104802Y-98621169D01*
X134869616Y-98540429D01*
X134624335Y-98499500D01*
X134375665Y-98499500D01*
X134130383Y-98540429D01*
X133895197Y-98621169D01*
X133895188Y-98621172D01*
X133676493Y-98739524D01*
X133480257Y-98892261D01*
X133311833Y-99075217D01*
X133175826Y-99283393D01*
X133075936Y-99511118D01*
X133014892Y-99752175D01*
X133014890Y-99752187D01*
X132994357Y-99999994D01*
X132994357Y-100000005D01*
X129505643Y-100000005D01*
X129505643Y-100000000D01*
X129485108Y-99752179D01*
X129424063Y-99511119D01*
X129421512Y-99505304D01*
X129324173Y-99283393D01*
X129188166Y-99075217D01*
X129151771Y-99035682D01*
X129019744Y-98892262D01*
X128823509Y-98739526D01*
X128823507Y-98739525D01*
X128823506Y-98739524D01*
X128604811Y-98621172D01*
X128604802Y-98621169D01*
X128369616Y-98540429D01*
X128124335Y-98499500D01*
X127875665Y-98499500D01*
X127630383Y-98540429D01*
X127395197Y-98621169D01*
X127395188Y-98621172D01*
X127176493Y-98739524D01*
X126980257Y-98892261D01*
X126811833Y-99075217D01*
X126675826Y-99283393D01*
X126575936Y-99511118D01*
X126514892Y-99752175D01*
X126514890Y-99752187D01*
X126494357Y-99999994D01*
X126494357Y-100000005D01*
X116950502Y-100000005D01*
X116950502Y-98254465D01*
X116970187Y-98187426D01*
X117022991Y-98141671D01*
X117092149Y-98131727D01*
X117106595Y-98134690D01*
X117294592Y-98185063D01*
X117482918Y-98201539D01*
X117529999Y-98205659D01*
X117530000Y-98205659D01*
X117530001Y-98205659D01*
X117569234Y-98202226D01*
X117765408Y-98185063D01*
X117993663Y-98123903D01*
X118207830Y-98024035D01*
X118401401Y-97888495D01*
X118568495Y-97721401D01*
X118698424Y-97535842D01*
X118753002Y-97492217D01*
X118822500Y-97485023D01*
X118884855Y-97516546D01*
X118901575Y-97535842D01*
X119031500Y-97721395D01*
X119031505Y-97721401D01*
X119198599Y-97888495D01*
X119280500Y-97945843D01*
X119392165Y-98024032D01*
X119392167Y-98024033D01*
X119392170Y-98024035D01*
X119606337Y-98123903D01*
X119834592Y-98185063D01*
X120022918Y-98201539D01*
X120069999Y-98205659D01*
X120070000Y-98205659D01*
X120070001Y-98205659D01*
X120109234Y-98202226D01*
X120305408Y-98185063D01*
X120533663Y-98123903D01*
X120747830Y-98024035D01*
X120941401Y-97888495D01*
X121108495Y-97721401D01*
X121238424Y-97535842D01*
X121293002Y-97492217D01*
X121362500Y-97485023D01*
X121424855Y-97516546D01*
X121441575Y-97535842D01*
X121571500Y-97721395D01*
X121571505Y-97721401D01*
X121738599Y-97888495D01*
X121820500Y-97945843D01*
X121932165Y-98024032D01*
X121932167Y-98024033D01*
X121932170Y-98024035D01*
X122146337Y-98123903D01*
X122374592Y-98185063D01*
X122562918Y-98201539D01*
X122609999Y-98205659D01*
X122610000Y-98205659D01*
X122610001Y-98205659D01*
X122649234Y-98202226D01*
X122845408Y-98185063D01*
X123073663Y-98123903D01*
X123287830Y-98024035D01*
X123481401Y-97888495D01*
X123648495Y-97721401D01*
X123784035Y-97527830D01*
X123883903Y-97313663D01*
X123945063Y-97085408D01*
X123965659Y-96850000D01*
X123945063Y-96614592D01*
X123883903Y-96386337D01*
X123784035Y-96172171D01*
X123778425Y-96164158D01*
X123648494Y-95978597D01*
X123481402Y-95811506D01*
X123481396Y-95811501D01*
X123295842Y-95681575D01*
X123252217Y-95626998D01*
X123245023Y-95557500D01*
X123274089Y-95500005D01*
X126494858Y-95500005D01*
X126515385Y-95747729D01*
X126515387Y-95747738D01*
X126576412Y-95988717D01*
X126676267Y-96216367D01*
X126812232Y-96424478D01*
X126980592Y-96607364D01*
X126980602Y-96607373D01*
X127176762Y-96760051D01*
X127176771Y-96760057D01*
X127395385Y-96878364D01*
X127395396Y-96878369D01*
X127630506Y-96959083D01*
X127875707Y-97000000D01*
X128124293Y-97000000D01*
X128369493Y-96959083D01*
X128604603Y-96878369D01*
X128604614Y-96878364D01*
X128823228Y-96760057D01*
X128823237Y-96760051D01*
X129019397Y-96607373D01*
X129019407Y-96607364D01*
X129187767Y-96424478D01*
X129323732Y-96216367D01*
X129423587Y-95988717D01*
X129484612Y-95747738D01*
X129484614Y-95747729D01*
X129505141Y-95500005D01*
X132994858Y-95500005D01*
X133015385Y-95747729D01*
X133015387Y-95747738D01*
X133076412Y-95988717D01*
X133176267Y-96216367D01*
X133312232Y-96424478D01*
X133480592Y-96607364D01*
X133480602Y-96607373D01*
X133676762Y-96760051D01*
X133676771Y-96760057D01*
X133895385Y-96878364D01*
X133895396Y-96878369D01*
X134130506Y-96959083D01*
X134375707Y-97000000D01*
X134624293Y-97000000D01*
X134869493Y-96959083D01*
X135104603Y-96878369D01*
X135104614Y-96878364D01*
X135323228Y-96760057D01*
X135323237Y-96760051D01*
X135519397Y-96607373D01*
X135519407Y-96607364D01*
X135687767Y-96424478D01*
X135823732Y-96216367D01*
X135923587Y-95988717D01*
X135984612Y-95747738D01*
X135984614Y-95747729D01*
X136005141Y-95500005D01*
X136494859Y-95500005D01*
X136515385Y-95747729D01*
X136515387Y-95747738D01*
X136576412Y-95988717D01*
X136676267Y-96216367D01*
X136812232Y-96424478D01*
X136980592Y-96607364D01*
X136980602Y-96607373D01*
X137176762Y-96760051D01*
X137176771Y-96760057D01*
X137395385Y-96878364D01*
X137395396Y-96878369D01*
X137630506Y-96959083D01*
X137875707Y-97000000D01*
X138124293Y-97000000D01*
X138369493Y-96959083D01*
X138604603Y-96878369D01*
X138604614Y-96878364D01*
X138823228Y-96760057D01*
X138823237Y-96760051D01*
X139019397Y-96607373D01*
X139019407Y-96607364D01*
X139187767Y-96424478D01*
X139323732Y-96216367D01*
X139423587Y-95988717D01*
X139484612Y-95747738D01*
X139484614Y-95747729D01*
X139505141Y-95500005D01*
X142994859Y-95500005D01*
X143015385Y-95747729D01*
X143015387Y-95747738D01*
X143076412Y-95988717D01*
X143176267Y-96216367D01*
X143312232Y-96424478D01*
X143480592Y-96607364D01*
X143480602Y-96607373D01*
X143676762Y-96760051D01*
X143676771Y-96760057D01*
X143895385Y-96878364D01*
X143895396Y-96878369D01*
X144130506Y-96959083D01*
X144375707Y-97000000D01*
X144624293Y-97000000D01*
X144869493Y-96959083D01*
X145104603Y-96878369D01*
X145104614Y-96878364D01*
X145323228Y-96760057D01*
X145323237Y-96760051D01*
X145519397Y-96607373D01*
X145519407Y-96607364D01*
X145687767Y-96424478D01*
X145823732Y-96216367D01*
X145923587Y-95988717D01*
X145984612Y-95747738D01*
X145984614Y-95747729D01*
X146005141Y-95500005D01*
X146494859Y-95500005D01*
X146515385Y-95747729D01*
X146515387Y-95747738D01*
X146576412Y-95988717D01*
X146676267Y-96216367D01*
X146812232Y-96424478D01*
X146980592Y-96607364D01*
X146980602Y-96607373D01*
X147176762Y-96760051D01*
X147176771Y-96760057D01*
X147395385Y-96878364D01*
X147395396Y-96878369D01*
X147630506Y-96959083D01*
X147875707Y-97000000D01*
X148124293Y-97000000D01*
X148369493Y-96959083D01*
X148604603Y-96878369D01*
X148604614Y-96878364D01*
X148823228Y-96760057D01*
X148823237Y-96760051D01*
X149019397Y-96607373D01*
X149019407Y-96607364D01*
X149187767Y-96424478D01*
X149323732Y-96216367D01*
X149423587Y-95988717D01*
X149484612Y-95747738D01*
X149484614Y-95747729D01*
X149505141Y-95500005D01*
X152994859Y-95500005D01*
X153015385Y-95747729D01*
X153015387Y-95747738D01*
X153076412Y-95988717D01*
X153176267Y-96216367D01*
X153312232Y-96424478D01*
X153480592Y-96607364D01*
X153480602Y-96607373D01*
X153676762Y-96760051D01*
X153676771Y-96760057D01*
X153895385Y-96878364D01*
X153895396Y-96878369D01*
X154130506Y-96959083D01*
X154375707Y-97000000D01*
X154624293Y-97000000D01*
X154869493Y-96959083D01*
X155104603Y-96878369D01*
X155104614Y-96878364D01*
X155323228Y-96760057D01*
X155323237Y-96760051D01*
X155519397Y-96607373D01*
X155519407Y-96607364D01*
X155687767Y-96424478D01*
X155823732Y-96216367D01*
X155923587Y-95988717D01*
X155984612Y-95747738D01*
X155984614Y-95747729D01*
X156005141Y-95500005D01*
X156005141Y-95499994D01*
X155984614Y-95252270D01*
X155984612Y-95252261D01*
X155923587Y-95011282D01*
X155823732Y-94783632D01*
X155687767Y-94575521D01*
X155519407Y-94392635D01*
X155519397Y-94392626D01*
X155323237Y-94239948D01*
X155323228Y-94239942D01*
X155104614Y-94121635D01*
X155104603Y-94121630D01*
X154869493Y-94040916D01*
X154624293Y-94000000D01*
X154375707Y-94000000D01*
X154130506Y-94040916D01*
X153895396Y-94121630D01*
X153895385Y-94121635D01*
X153676771Y-94239942D01*
X153676762Y-94239948D01*
X153480602Y-94392626D01*
X153480592Y-94392635D01*
X153312232Y-94575521D01*
X153176267Y-94783632D01*
X153076412Y-95011282D01*
X153015387Y-95252261D01*
X153015385Y-95252270D01*
X152994859Y-95499994D01*
X152994859Y-95500005D01*
X149505141Y-95500005D01*
X149505141Y-95499994D01*
X149484614Y-95252270D01*
X149484612Y-95252261D01*
X149423587Y-95011282D01*
X149323732Y-94783632D01*
X149187767Y-94575521D01*
X149019407Y-94392635D01*
X149019397Y-94392626D01*
X148823237Y-94239948D01*
X148823228Y-94239942D01*
X148604614Y-94121635D01*
X148604603Y-94121630D01*
X148369493Y-94040916D01*
X148124293Y-94000000D01*
X147875707Y-94000000D01*
X147630506Y-94040916D01*
X147395396Y-94121630D01*
X147395385Y-94121635D01*
X147176771Y-94239942D01*
X147176762Y-94239948D01*
X146980602Y-94392626D01*
X146980592Y-94392635D01*
X146812232Y-94575521D01*
X146676267Y-94783632D01*
X146576412Y-95011282D01*
X146515387Y-95252261D01*
X146515385Y-95252270D01*
X146494859Y-95499994D01*
X146494859Y-95500005D01*
X146005141Y-95500005D01*
X146005141Y-95499994D01*
X145984614Y-95252270D01*
X145984612Y-95252261D01*
X145923587Y-95011282D01*
X145823732Y-94783632D01*
X145687767Y-94575521D01*
X145519407Y-94392635D01*
X145519397Y-94392626D01*
X145323237Y-94239948D01*
X145323228Y-94239942D01*
X145104614Y-94121635D01*
X145104603Y-94121630D01*
X144869493Y-94040916D01*
X144624293Y-94000000D01*
X144375707Y-94000000D01*
X144130506Y-94040916D01*
X143895396Y-94121630D01*
X143895385Y-94121635D01*
X143676771Y-94239942D01*
X143676762Y-94239948D01*
X143480602Y-94392626D01*
X143480592Y-94392635D01*
X143312232Y-94575521D01*
X143176267Y-94783632D01*
X143076412Y-95011282D01*
X143015387Y-95252261D01*
X143015385Y-95252270D01*
X142994859Y-95499994D01*
X142994859Y-95500005D01*
X139505141Y-95500005D01*
X139505141Y-95499994D01*
X139484614Y-95252270D01*
X139484612Y-95252261D01*
X139423587Y-95011282D01*
X139323732Y-94783632D01*
X139187767Y-94575521D01*
X139019407Y-94392635D01*
X139019397Y-94392626D01*
X138823237Y-94239948D01*
X138823228Y-94239942D01*
X138604614Y-94121635D01*
X138604603Y-94121630D01*
X138369493Y-94040916D01*
X138124293Y-94000000D01*
X137875707Y-94000000D01*
X137630506Y-94040916D01*
X137395396Y-94121630D01*
X137395385Y-94121635D01*
X137176771Y-94239942D01*
X137176762Y-94239948D01*
X136980602Y-94392626D01*
X136980592Y-94392635D01*
X136812232Y-94575521D01*
X136676267Y-94783632D01*
X136576412Y-95011282D01*
X136515387Y-95252261D01*
X136515385Y-95252270D01*
X136494859Y-95499994D01*
X136494859Y-95500005D01*
X136005141Y-95500005D01*
X136005141Y-95499994D01*
X135984614Y-95252270D01*
X135984612Y-95252261D01*
X135923587Y-95011282D01*
X135823732Y-94783632D01*
X135687767Y-94575521D01*
X135519407Y-94392635D01*
X135519397Y-94392626D01*
X135323237Y-94239948D01*
X135323228Y-94239942D01*
X135104614Y-94121635D01*
X135104603Y-94121630D01*
X134869493Y-94040916D01*
X134624293Y-94000000D01*
X134375707Y-94000000D01*
X134130506Y-94040916D01*
X133895396Y-94121630D01*
X133895385Y-94121635D01*
X133676771Y-94239942D01*
X133676762Y-94239948D01*
X133480602Y-94392626D01*
X133480592Y-94392635D01*
X133312232Y-94575521D01*
X133176267Y-94783632D01*
X133076412Y-95011282D01*
X133015387Y-95252261D01*
X133015385Y-95252270D01*
X132994858Y-95499994D01*
X132994858Y-95500005D01*
X129505141Y-95500005D01*
X129505141Y-95499994D01*
X129484614Y-95252270D01*
X129484612Y-95252261D01*
X129423587Y-95011282D01*
X129323732Y-94783632D01*
X129187767Y-94575521D01*
X129019407Y-94392635D01*
X129019397Y-94392626D01*
X128823237Y-94239948D01*
X128823228Y-94239942D01*
X128604614Y-94121635D01*
X128604603Y-94121630D01*
X128369493Y-94040916D01*
X128124293Y-94000000D01*
X127875707Y-94000000D01*
X127630506Y-94040916D01*
X127395396Y-94121630D01*
X127395385Y-94121635D01*
X127176771Y-94239942D01*
X127176762Y-94239948D01*
X126980602Y-94392626D01*
X126980592Y-94392635D01*
X126812232Y-94575521D01*
X126676267Y-94783632D01*
X126576412Y-95011282D01*
X126515387Y-95252261D01*
X126515385Y-95252270D01*
X126494858Y-95499994D01*
X126494858Y-95500005D01*
X123274089Y-95500005D01*
X123276546Y-95495145D01*
X123295842Y-95478425D01*
X123401646Y-95404340D01*
X123481401Y-95348495D01*
X123648495Y-95181401D01*
X123784035Y-94987830D01*
X123883903Y-94773663D01*
X123945063Y-94545408D01*
X123965659Y-94310000D01*
X123945063Y-94074592D01*
X123883903Y-93846337D01*
X123784035Y-93632171D01*
X123778425Y-93624158D01*
X123648494Y-93438597D01*
X123481402Y-93271506D01*
X123481395Y-93271501D01*
X123287834Y-93135967D01*
X123287830Y-93135965D01*
X123287828Y-93135964D01*
X123073663Y-93036097D01*
X123073659Y-93036096D01*
X123073655Y-93036094D01*
X122845413Y-92974938D01*
X122845403Y-92974936D01*
X122610001Y-92954341D01*
X122609999Y-92954341D01*
X122374596Y-92974936D01*
X122374586Y-92974938D01*
X122146344Y-93036094D01*
X122146335Y-93036098D01*
X121932171Y-93135964D01*
X121932169Y-93135965D01*
X121738597Y-93271505D01*
X121571505Y-93438597D01*
X121441575Y-93624158D01*
X121386998Y-93667783D01*
X121317500Y-93674977D01*
X121255145Y-93643454D01*
X121238425Y-93624158D01*
X121108494Y-93438597D01*
X120941402Y-93271506D01*
X120941395Y-93271501D01*
X120747834Y-93135967D01*
X120747830Y-93135965D01*
X120747828Y-93135964D01*
X120533663Y-93036097D01*
X120533659Y-93036096D01*
X120533655Y-93036094D01*
X120305413Y-92974938D01*
X120305403Y-92974936D01*
X120070001Y-92954341D01*
X120069999Y-92954341D01*
X119834596Y-92974936D01*
X119834586Y-92974938D01*
X119606344Y-93036094D01*
X119606335Y-93036098D01*
X119392171Y-93135964D01*
X119392169Y-93135965D01*
X119198597Y-93271505D01*
X119031505Y-93438597D01*
X118901575Y-93624158D01*
X118846998Y-93667783D01*
X118777500Y-93674977D01*
X118715145Y-93643454D01*
X118698425Y-93624158D01*
X118568494Y-93438597D01*
X118401402Y-93271506D01*
X118401395Y-93271501D01*
X118207834Y-93135967D01*
X118207830Y-93135965D01*
X118207828Y-93135964D01*
X117993663Y-93036097D01*
X117993659Y-93036096D01*
X117993655Y-93036094D01*
X117765413Y-92974938D01*
X117765403Y-92974936D01*
X117530001Y-92954341D01*
X117529999Y-92954341D01*
X117294596Y-92974936D01*
X117294586Y-92974938D01*
X117066344Y-93036094D01*
X117066335Y-93036098D01*
X116852171Y-93135964D01*
X116852169Y-93135965D01*
X116658597Y-93271505D01*
X116491508Y-93438594D01*
X116361574Y-93624160D01*
X116306997Y-93667784D01*
X116237498Y-93674977D01*
X116175144Y-93643455D01*
X116158429Y-93624164D01*
X116028495Y-93438599D01*
X116028493Y-93438596D01*
X115861402Y-93271506D01*
X115861395Y-93271501D01*
X115667834Y-93135967D01*
X115667830Y-93135965D01*
X115667828Y-93135964D01*
X115453663Y-93036097D01*
X115453659Y-93036096D01*
X115453655Y-93036094D01*
X115225413Y-92974938D01*
X115225403Y-92974936D01*
X114990001Y-92954341D01*
X114989999Y-92954341D01*
X114754596Y-92974936D01*
X114754586Y-92974938D01*
X114526344Y-93036094D01*
X114526335Y-93036098D01*
X114312171Y-93135964D01*
X114312169Y-93135965D01*
X114118597Y-93271505D01*
X113951505Y-93438597D01*
X113821575Y-93624158D01*
X113766998Y-93667783D01*
X113697500Y-93674977D01*
X113635145Y-93643454D01*
X113618425Y-93624158D01*
X113488494Y-93438597D01*
X113321402Y-93271506D01*
X113321395Y-93271501D01*
X113127834Y-93135967D01*
X113127830Y-93135965D01*
X113127828Y-93135964D01*
X112913663Y-93036097D01*
X112913659Y-93036096D01*
X112913655Y-93036094D01*
X112685413Y-92974938D01*
X112685403Y-92974936D01*
X112450001Y-92954341D01*
X112449999Y-92954341D01*
X112214596Y-92974936D01*
X112214586Y-92974938D01*
X111986344Y-93036094D01*
X111986335Y-93036098D01*
X111772171Y-93135964D01*
X111772169Y-93135965D01*
X111578597Y-93271505D01*
X111411508Y-93438594D01*
X111281574Y-93624159D01*
X111226997Y-93667784D01*
X111157498Y-93674976D01*
X111095144Y-93643454D01*
X111078424Y-93624158D01*
X110948494Y-93438597D01*
X110781402Y-93271506D01*
X110781395Y-93271501D01*
X110587834Y-93135967D01*
X110587830Y-93135965D01*
X110587828Y-93135964D01*
X110373663Y-93036097D01*
X110373659Y-93036096D01*
X110373655Y-93036094D01*
X110145413Y-92974938D01*
X110145403Y-92974936D01*
X109910001Y-92954341D01*
X109909999Y-92954341D01*
X109674596Y-92974936D01*
X109674586Y-92974938D01*
X109446344Y-93036094D01*
X109446335Y-93036098D01*
X109232171Y-93135964D01*
X109232169Y-93135965D01*
X109038597Y-93271505D01*
X108871508Y-93438594D01*
X108741574Y-93624159D01*
X108686997Y-93667784D01*
X108617498Y-93674976D01*
X108555144Y-93643454D01*
X108538424Y-93624158D01*
X108408494Y-93438597D01*
X108241402Y-93271506D01*
X108241395Y-93271501D01*
X108047834Y-93135967D01*
X108047830Y-93135965D01*
X108047828Y-93135964D01*
X107833663Y-93036097D01*
X107833659Y-93036096D01*
X107833655Y-93036094D01*
X107605413Y-92974938D01*
X107605403Y-92974936D01*
X107370001Y-92954341D01*
X107369999Y-92954341D01*
X107134596Y-92974936D01*
X107134586Y-92974938D01*
X106906344Y-93036094D01*
X106906335Y-93036098D01*
X106692171Y-93135964D01*
X106692169Y-93135965D01*
X106498597Y-93271505D01*
X106331505Y-93438597D01*
X106201575Y-93624158D01*
X106146998Y-93667783D01*
X106077500Y-93674977D01*
X106015145Y-93643454D01*
X105998425Y-93624158D01*
X105868494Y-93438597D01*
X105701402Y-93271506D01*
X105701395Y-93271501D01*
X105507834Y-93135967D01*
X105507830Y-93135965D01*
X105507828Y-93135964D01*
X105293663Y-93036097D01*
X105293659Y-93036096D01*
X105293655Y-93036094D01*
X105065413Y-92974938D01*
X105065403Y-92974936D01*
X104830001Y-92954341D01*
X104829999Y-92954341D01*
X104594596Y-92974936D01*
X104594586Y-92974938D01*
X104366344Y-93036094D01*
X104366335Y-93036098D01*
X104152171Y-93135964D01*
X104152169Y-93135965D01*
X103958597Y-93271505D01*
X103791505Y-93438597D01*
X103661575Y-93624158D01*
X103606998Y-93667783D01*
X103537500Y-93674977D01*
X103475145Y-93643454D01*
X103458425Y-93624158D01*
X103328494Y-93438597D01*
X103161402Y-93271506D01*
X103161395Y-93271501D01*
X102967834Y-93135967D01*
X102967830Y-93135965D01*
X102967828Y-93135964D01*
X102753663Y-93036097D01*
X102753659Y-93036096D01*
X102753655Y-93036094D01*
X102525413Y-92974938D01*
X102525403Y-92974936D01*
X102290001Y-92954341D01*
X102289999Y-92954341D01*
X102054596Y-92974936D01*
X102054586Y-92974938D01*
X101826344Y-93036094D01*
X101826335Y-93036098D01*
X101612171Y-93135964D01*
X101612169Y-93135965D01*
X101418597Y-93271505D01*
X101251505Y-93438597D01*
X101121575Y-93624158D01*
X101066998Y-93667783D01*
X100997500Y-93674977D01*
X100935145Y-93643454D01*
X100918425Y-93624158D01*
X100788494Y-93438597D01*
X100621402Y-93271506D01*
X100621395Y-93271501D01*
X100427834Y-93135967D01*
X100427830Y-93135965D01*
X100427828Y-93135964D01*
X100213663Y-93036097D01*
X100213659Y-93036096D01*
X100213655Y-93036094D01*
X99985413Y-92974938D01*
X99985403Y-92974936D01*
X99750001Y-92954341D01*
X99749999Y-92954341D01*
X99514596Y-92974936D01*
X99514586Y-92974938D01*
X99286344Y-93036094D01*
X99286335Y-93036098D01*
X99072171Y-93135964D01*
X99072169Y-93135965D01*
X98878597Y-93271505D01*
X98711505Y-93438597D01*
X98575965Y-93632169D01*
X98575964Y-93632171D01*
X98476098Y-93846335D01*
X98476094Y-93846344D01*
X98414938Y-94074586D01*
X98414936Y-94074596D01*
X98394341Y-94309999D01*
X98394341Y-94310000D01*
X95067605Y-94310000D01*
X95035682Y-94247348D01*
X95035679Y-94247343D01*
X94835852Y-93939635D01*
X94604952Y-93654498D01*
X94604949Y-93654494D01*
X94345506Y-93395051D01*
X94060366Y-93164149D01*
X94060364Y-93164147D01*
X93752656Y-92964320D01*
X93425739Y-92797746D01*
X93395035Y-92785960D01*
X93341118Y-92765263D01*
X93285587Y-92722862D01*
X93261794Y-92657168D01*
X93277296Y-92589040D01*
X93327169Y-92540107D01*
X93385557Y-92525500D01*
X159114443Y-92525500D01*
X159181482Y-92545185D01*
G37*
%TD.AperFunction*%
%TD*%
M02*
